<?xml version="1.0" encoding="utf-8"?>
<!-- Generator: Adobe Illustrator 21.0.0, SVG Export Plug-In . SVG Version: 6.00 Build 0)  -->
<svg version="1.1" id="Layer_1" xmlns="http://www.w3.org/2000/svg" xmlns:xlink="http://www.w3.org/1999/xlink" x="0px" y="0px"
	 viewBox="0 0 225 43" style="enable-background:new 0 0 225 43;" xml:space="preserve">
<style type="text/css">
	.st0{fill:#00AEBF;}
	.st1{clip-path:url(#SVGID_2_);fill:#271A11;}
	.st2{clip-path:url(#SVGID_2_);fill:none;stroke:#231F20;stroke-width:1.3117;}
	.st3{fill:none;stroke:#33B7C5;stroke-width:0.6558;}
	.st4{fill:#271A11;}
	.st5{fill:#36B8C6;}
</style>
<title>Artboard 1</title>
<g>
	<path class="st0" d="M46.2,32.3c-0.1,0.2-0.1,0.6-0.1,1h-0.2V33c0-0.2,0-0.3-0.1-0.4c0-0.1-0.2-0.1-0.4-0.2
		c-0.2-0.1-0.4-0.1-0.6-0.1c-0.4,0-0.7,0.1-0.9,0.3c-0.2,0.2-0.3,0.4-0.3,0.7c0,0.2,0,0.3,0.1,0.5c0.1,0.1,0.2,0.2,0.3,0.3
		c0.1,0.1,0.5,0.1,0.9,0.2c0.5,0,0.8,0.1,1,0.2c0.2,0.1,0.3,0.2,0.4,0.4c0.1,0.2,0.2,0.4,0.2,0.6c0,0.5-0.2,0.9-0.6,1.2
		c-0.4,0.3-0.9,0.5-1.5,0.5c-0.2,0-0.4,0-0.7-0.1c-0.2,0-0.5-0.1-0.7-0.2c0-0.3,0.1-0.6,0.1-1.1h0.2v0.2c0,0.2,0,0.4,0,0.4
		c0,0.1,0.1,0.1,0.2,0.2c0.1,0.1,0.3,0.2,0.5,0.2c0.2,0,0.4,0.1,0.6,0.1c0.4,0,0.8-0.1,1-0.3c0.2-0.2,0.4-0.5,0.4-0.8
		c0-0.2,0-0.3-0.1-0.5c-0.1-0.1-0.2-0.2-0.3-0.3c-0.1-0.1-0.4-0.1-0.8-0.1c-0.5,0-0.9-0.1-1.1-0.2s-0.3-0.2-0.4-0.4
		C43,34.1,43,33.8,43,33.6c0-0.4,0.2-0.8,0.5-1.1c0.3-0.3,0.8-0.4,1.3-0.4c0.2,0,0.5,0,0.7,0.1C45.7,32.2,46,32.2,46.2,32.3z"/>
	<path class="st0" d="M47.9,34.3l0.5-0.5c0.1-0.1,0.1-0.1,0.2-0.1c0.2-0.1,0.3-0.1,0.5-0.1c0.2,0,0.5,0.1,0.6,0.2
		c0.2,0.1,0.3,0.2,0.4,0.4c0.1,0.2,0.1,0.4,0.1,0.8l0,1.1c0,0.4,0,0.6,0,0.6c0,0.1,0.1,0.1,0.3,0.1h0.2V37c-0.2,0-0.5,0-0.6,0
		c-0.2,0-0.4,0-0.6,0c0-0.4,0.1-1.1,0.1-1.8c0-0.3,0-0.5-0.1-0.7c-0.1-0.1-0.1-0.2-0.3-0.3s-0.3-0.1-0.5-0.1c-0.2,0-0.4,0.1-0.6,0.2
		c-0.2,0.1-0.3,0.2-0.3,0.4c0,0.1,0,0.3,0,0.7c0,0.4,0,0.8,0,1.2c0,0.1,0,0.2,0,0.2c0.1,0.1,0.2,0.1,0.3,0.1h0.2V37
		c-0.4,0-0.7,0-0.9,0c-0.2,0-0.5,0-0.8,0v-0.2H47c0.2,0,0.3,0,0.3-0.1c0-0.1,0-0.6,0-1.4c0-0.4,0-0.7,0-0.9c0-0.1,0-0.1-0.1-0.2
		c0,0-0.1,0-0.3,0h-0.2V34c0.2,0,0.4-0.1,0.5-0.1s0.3-0.1,0.5-0.2c0,0,0,0,0.1,0c0,0,0.1,0,0.1,0.1l0,0.1L47.9,34.3z"/>
	<path class="st0" d="M50.8,35.4c0-0.3,0.1-0.6,0.2-0.9c0.1-0.3,0.4-0.5,0.6-0.6c0.3-0.1,0.6-0.2,0.9-0.2c0.5,0,0.9,0.1,1.2,0.4
		c0.3,0.3,0.4,0.7,0.4,1.2c0,0.6-0.2,1-0.6,1.4c-0.3,0.3-0.8,0.5-1.2,0.5c-0.5,0-0.8-0.2-1.1-0.5C51,36.3,50.8,35.9,50.8,35.4z
		 M51.5,35.1c0,0.5,0.1,0.9,0.3,1.2c0.2,0.3,0.5,0.5,0.8,0.5c0.3,0,0.5-0.1,0.7-0.3c0.2-0.2,0.3-0.5,0.3-1c0-0.3-0.1-0.6-0.2-0.9
		c-0.1-0.3-0.2-0.4-0.4-0.6c-0.2-0.1-0.4-0.2-0.6-0.2c-0.2,0-0.3,0-0.5,0.1c-0.1,0.1-0.3,0.2-0.3,0.4C51.5,34.7,51.5,34.9,51.5,35.1
		z"/>
	<path class="st0" d="M55.5,34.5c0.1-0.1,0.2-0.2,0.3-0.3c0.1-0.2,0.2-0.3,0.4-0.3c0.1-0.1,0.2-0.1,0.3-0.1c0.1,0,0.2,0,0.3,0
		c0,0,0,0,0,0.1l0,0c0,0.2-0.1,0.4-0.1,0.8h-0.2c-0.1-0.1-0.1-0.2-0.2-0.2c-0.1,0-0.2-0.1-0.3-0.1c-0.1,0-0.3,0-0.4,0.1
		c-0.1,0.1-0.2,0.2-0.2,0.4c0,0.2-0.1,0.5-0.1,1c0,0.3,0,0.6,0,0.8c0,0.1,0,0.1,0.1,0.2c0.1,0,0.2,0.1,0.4,0.1h0.2V37
		c-0.4,0-0.7,0-1,0c-0.3,0-0.6,0-0.9,0v-0.2l0.3,0c0.1,0,0.2,0,0.2-0.1c0,0,0.1-0.1,0.1-0.3c0-0.3,0-0.7,0-1.2c0-0.6,0-0.9-0.1-1
		c0-0.1-0.1-0.1-0.3-0.1h-0.3v-0.2c0.2,0,0.4-0.1,0.6-0.1c0.2,0,0.3-0.1,0.5-0.2c0,0,0.1,0,0.1,0c0,0,0,0,0.1,0c0,0,0,0,0,0.1
		L55.5,34.5z"/>
	<path class="st0" d="M58.4,33.7L58.4,33.7c0.1,0.2,0.1,0.4,0.1,0.6c0,0.7,0,1.2,0,1.5c0,0.3,0,0.6,0,0.8c0,0.1,0,0.1,0.1,0.2
		c0,0,0.1,0.1,0.2,0.1l0.2,0V37c-0.3,0-0.6,0-0.9,0c-0.3,0-0.5,0-0.8,0v-0.2l0.3,0c0.1,0,0.2,0,0.2-0.1c0,0,0-0.1,0-0.3
		c0-0.3,0-0.7,0-1.2c0-0.4,0-0.6,0-0.8c0-0.1,0-0.1-0.1-0.2c0,0-0.1,0-0.2,0h-0.3V34c0.3,0,0.5-0.1,0.6-0.1S58.2,33.8,58.4,33.7z
		 M58.1,32.1c0.1,0,0.2,0,0.3,0.1c0.1,0.1,0.1,0.2,0.1,0.3s0,0.2-0.1,0.3c-0.1,0.1-0.2,0.1-0.3,0.1c-0.1,0-0.2,0-0.3-0.1
		c-0.1-0.1-0.1-0.2-0.1-0.3s0-0.2,0.1-0.3C57.9,32.2,58,32.1,58.1,32.1z"/>
	<path class="st0" d="M60.5,34.3l0.5-0.5c0.1-0.1,0.1-0.1,0.2-0.1c0.2-0.1,0.3-0.1,0.5-0.1c0.2,0,0.5,0.1,0.6,0.2
		c0.2,0.1,0.3,0.2,0.4,0.4s0.1,0.4,0.1,0.8l0,1.1c0,0.4,0,0.6,0,0.6c0,0.1,0.1,0.1,0.3,0.1h0.2V37c-0.2,0-0.5,0-0.6,0
		c-0.2,0-0.4,0-0.6,0c0-0.4,0.1-1.1,0.1-1.8c0-0.3,0-0.5-0.1-0.7c-0.1-0.1-0.1-0.2-0.3-0.3c-0.1-0.1-0.3-0.1-0.5-0.1
		c-0.2,0-0.4,0.1-0.6,0.2c-0.2,0.1-0.3,0.2-0.3,0.4c0,0.1,0,0.3,0,0.7c0,0.4,0,0.8,0,1.2c0,0.1,0,0.2,0,0.2c0.1,0.1,0.2,0.1,0.3,0.1
		h0.2V37c-0.4,0-0.7,0-0.9,0c-0.2,0-0.5,0-0.8,0v-0.2h0.2c0.2,0,0.3,0,0.3-0.1c0-0.1,0-0.6,0-1.4c0-0.4,0-0.7,0-0.9
		c0-0.1,0-0.1-0.1-0.2c0,0-0.1,0-0.3,0h-0.2V34c0.2,0,0.4-0.1,0.5-0.1c0.2,0,0.3-0.1,0.5-0.2c0,0,0,0,0.1,0c0,0,0.1,0,0.1,0.1l0,0.1
		L60.5,34.3z"/>
	<path class="st0" d="M66.1,34.3c0.1,0.1,0.1,0.3,0.1,0.4c0,0.2-0.1,0.4-0.2,0.6c-0.1,0.2-0.3,0.3-0.5,0.5c-0.2,0.1-0.5,0.2-0.7,0.2
		l-0.2,0c-0.2,0.1-0.2,0.2-0.3,0.3c0,0.1-0.1,0.1-0.1,0.2c0,0.1,0,0.2,0.1,0.2c0.1,0.1,0.3,0.1,0.5,0.1c0.1,0,0.3,0,0.5,0
		c0.3,0,0.5,0,0.6,0c0.2,0,0.3,0,0.4,0.1c0.1,0.1,0.2,0.2,0.2,0.3c0.1,0.1,0.1,0.3,0.1,0.5c0,0.3-0.1,0.5-0.2,0.7
		c-0.2,0.2-0.4,0.4-0.7,0.6c-0.3,0.1-0.6,0.2-1,0.2c-0.5,0-0.8-0.1-1.1-0.3c-0.3-0.2-0.4-0.5-0.4-0.8c0-0.2,0.1-0.4,0.2-0.6
		c0.2-0.1,0.4-0.2,0.6-0.3c-0.2-0.1-0.3-0.1-0.4-0.2c-0.1-0.1-0.1-0.1-0.1-0.2c0-0.1,0-0.2,0.1-0.3c0-0.1,0.1-0.1,0.2-0.2l0.3-0.2
		c-0.3-0.1-0.5-0.2-0.6-0.3c-0.2-0.2-0.2-0.4-0.2-0.7c0-0.2,0.1-0.4,0.2-0.6c0.1-0.2,0.3-0.3,0.5-0.5c0.3-0.1,0.6-0.2,0.9-0.2
		c0.2,0,0.3,0,0.5,0.1c0.1,0,0.3,0.1,0.4,0.2h0.3c0.3,0,0.5,0,0.7,0l0,0.1c-0.1,0.1-0.1,0.2-0.2,0.3H66.1z M64.6,37.1
		c-0.2,0-0.3,0-0.3,0.1c-0.2,0.1-0.3,0.2-0.4,0.3c-0.1,0.1-0.1,0.3-0.1,0.5c0,0.3,0.1,0.5,0.3,0.6c0.2,0.2,0.4,0.2,0.8,0.2
		c0.3,0,0.5,0,0.7-0.1c0.2-0.1,0.3-0.2,0.4-0.4c0.1-0.2,0.2-0.3,0.2-0.5c0-0.2,0-0.3-0.1-0.4c-0.1-0.1-0.2-0.2-0.3-0.2
		c-0.1,0-0.2,0-0.4,0H64.6z M65.6,34.9c0-0.3-0.1-0.5-0.2-0.7c-0.1-0.2-0.3-0.3-0.6-0.3c-0.2,0-0.4,0.1-0.5,0.2
		c-0.1,0.1-0.2,0.3-0.2,0.6c0,0.3,0.1,0.5,0.2,0.7c0.1,0.2,0.3,0.3,0.6,0.3c0.2,0,0.4-0.1,0.5-0.2C65.5,35.3,65.6,35.1,65.6,34.9z"
		/>
	<path class="st0" d="M69.3,34.6l0-0.2l0-0.2l0.4-0.2c0.2-0.1,0.3-0.2,0.4-0.2c0.1,0,0.3-0.1,0.4-0.1c0.3,0,0.6,0.1,0.8,0.2
		c0.2,0.1,0.3,0.3,0.4,0.5c0,0.2,0,0.6,0.1,1.2c0,0.6,0,1,0,1c0,0.1,0.1,0.1,0.2,0.1h0.3V37c-0.3,0-0.4,0-0.5,0c-0.1,0-0.3,0-0.5,0
		l0-0.3c0-0.1,0-0.2,0-0.3L70.4,37c-0.1,0-0.1,0.1-0.2,0.1s-0.1,0-0.3,0c-0.3,0-0.5-0.1-0.7-0.2c-0.2-0.1-0.2-0.3-0.2-0.6
		c0-0.2,0.1-0.4,0.2-0.6c0.1-0.2,0.3-0.3,0.5-0.4c0.2-0.1,0.7-0.2,1.4-0.3c0-0.3-0.1-0.5-0.2-0.7c-0.2-0.2-0.4-0.3-0.7-0.3
		c-0.1,0-0.2,0-0.3,0c-0.1,0-0.2,0.1-0.3,0.1c-0.1,0.2-0.1,0.3-0.2,0.5L69.3,34.6z M71.2,35.2c-0.6,0.1-1,0.3-1.2,0.4
		c-0.2,0.1-0.3,0.3-0.3,0.6c0,0.2,0,0.3,0.1,0.4c0.1,0.1,0.2,0.2,0.4,0.2c0.2,0,0.3,0,0.5-0.1c0.2-0.1,0.3-0.2,0.5-0.4l0-0.8
		L71.2,35.2z"/>
	<path class="st0" d="M73.7,34.3l0.5-0.5c0.1-0.1,0.1-0.1,0.2-0.1c0.2-0.1,0.3-0.1,0.5-0.1c0.2,0,0.5,0.1,0.6,0.2
		c0.2,0.1,0.3,0.2,0.4,0.4S76,34.6,76,35l0,1.1c0,0.4,0,0.6,0,0.6c0,0.1,0.1,0.1,0.3,0.1h0.2V37c-0.2,0-0.5,0-0.6,0
		c-0.2,0-0.4,0-0.6,0c0-0.4,0.1-1.1,0.1-1.8c0-0.3,0-0.5-0.1-0.7c-0.1-0.1-0.1-0.2-0.3-0.3c-0.1-0.1-0.3-0.1-0.5-0.1
		c-0.2,0-0.4,0.1-0.6,0.2c-0.2,0.1-0.3,0.2-0.3,0.4c0,0.1,0,0.3,0,0.7c0,0.4,0,0.8,0,1.2c0,0.1,0,0.2,0,0.2c0.1,0.1,0.2,0.1,0.3,0.1
		h0.2V37c-0.4,0-0.7,0-0.9,0c-0.2,0-0.5,0-0.8,0v-0.2h0.2c0.2,0,0.3,0,0.3-0.1c0-0.1,0-0.6,0-1.4c0-0.4,0-0.7,0-0.9
		c0-0.1,0-0.1-0.1-0.2s-0.1,0-0.3,0h-0.2V34c0.2,0,0.4-0.1,0.5-0.1c0.2,0,0.3-0.1,0.5-0.2c0,0,0,0,0.1,0c0,0,0.1,0,0.1,0.1l0,0.1
		L73.7,34.3z"/>
	<path class="st0" d="M79.4,33.9v-1.3c0-0.1,0-0.2,0-0.3c0,0-0.1-0.1-0.2-0.1h-0.3v-0.2c0.4,0,0.8-0.1,1.2-0.3l0.1,0
		c0,0.2,0,0.5,0,0.9l0,0.9l0,0.3V36c0,0.4,0,0.6,0,0.6c0,0.1,0.1,0.1,0.3,0.1l0.2,0V37c-0.3,0-0.5,0-0.8,0c0,0-0.2,0-0.4,0
		c0-0.2,0-0.4,0-0.7c-0.2,0.2-0.4,0.4-0.7,0.6c-0.2,0.1-0.4,0.1-0.5,0.1c-0.4,0-0.7-0.1-1-0.4c-0.3-0.3-0.4-0.7-0.4-1.2
		c0-0.3,0.1-0.6,0.2-0.8c0.1-0.2,0.2-0.4,0.4-0.5c0.1-0.1,0.4-0.2,0.7-0.4c0.2-0.1,0.4-0.2,0.6-0.2c0.1,0,0.3,0,0.4,0.1
		C79.2,33.8,79.3,33.8,79.4,33.9z M79.4,34.5c-0.2-0.2-0.3-0.3-0.5-0.4C78.8,34,78.6,34,78.4,34c-0.3,0-0.5,0.1-0.7,0.3
		c-0.2,0.2-0.3,0.5-0.3,1c0,0.4,0.1,0.8,0.3,1c0.2,0.2,0.5,0.4,0.8,0.4c0.2,0,0.4-0.1,0.5-0.2c0.2-0.1,0.3-0.2,0.3-0.4
		c0.1-0.2,0.1-0.4,0.1-0.8V34.5z"/>
	<path class="st0" d="M86,32.3c-0.1,0.2-0.1,0.6-0.1,1h-0.2V33c0-0.2,0-0.3-0.1-0.4c0-0.1-0.2-0.1-0.4-0.2c-0.2-0.1-0.4-0.1-0.6-0.1
		c-0.4,0-0.7,0.1-0.9,0.3c-0.2,0.2-0.3,0.4-0.3,0.7c0,0.2,0,0.3,0.1,0.5c0.1,0.1,0.2,0.2,0.3,0.3c0.1,0.1,0.5,0.1,0.9,0.2
		c0.5,0,0.8,0.1,1,0.2c0.2,0.1,0.3,0.2,0.4,0.4c0.1,0.2,0.2,0.4,0.2,0.6c0,0.5-0.2,0.9-0.6,1.2c-0.4,0.3-0.9,0.5-1.5,0.5
		c-0.2,0-0.4,0-0.7-0.1c-0.2,0-0.5-0.1-0.7-0.2c0-0.3,0.1-0.6,0.1-1.1h0.2v0.2c0,0.2,0,0.4,0,0.4c0,0.1,0.1,0.1,0.2,0.2
		c0.1,0.1,0.3,0.2,0.5,0.2c0.2,0,0.4,0.1,0.6,0.1c0.4,0,0.8-0.1,1-0.3c0.2-0.2,0.4-0.5,0.4-0.8c0-0.2,0-0.3-0.1-0.5
		c-0.1-0.1-0.2-0.2-0.3-0.3c-0.1-0.1-0.4-0.1-0.8-0.1c-0.5,0-0.9-0.1-1.1-0.2s-0.3-0.2-0.4-0.4c-0.1-0.2-0.2-0.4-0.2-0.7
		c0-0.4,0.2-0.8,0.5-1.1c0.3-0.3,0.8-0.4,1.3-0.4c0.2,0,0.5,0,0.7,0.1C85.6,32.2,85.8,32.2,86,32.3z"/>
	<path class="st0" d="M87.9,31.9c0,0.7-0.1,1.3-0.1,1.8v1.8c0,0.7,0,1.1,0,1.2c0,0,0.1,0.1,0.2,0.1l0.3,0V37c-0.3,0-0.5,0-0.7,0
		c-0.3,0-0.6,0-1,0v-0.2l0.3,0c0.1,0,0.2,0,0.2-0.1c0-0.1,0-0.5,0-1.2v-1.8l0-0.7l0-0.5c0-0.1,0-0.2,0-0.2c0,0-0.1-0.1-0.2-0.1h-0.3
		v-0.2C87.2,32.1,87.5,32,87.9,31.9L87.9,31.9z"/>
	<path class="st0" d="M89.5,35.4c0,0.5,0.1,0.8,0.3,1c0.2,0.2,0.5,0.4,0.9,0.4c0.2,0,0.3,0,0.5-0.1c0.2-0.1,0.3-0.1,0.5-0.2l0.1,0.1
		l-0.1,0.3C91.4,36.9,91.2,37,91,37c-0.2,0.1-0.4,0.1-0.6,0.1c-0.5,0-0.8-0.1-1.1-0.4c-0.3-0.3-0.4-0.7-0.4-1.2c0-0.4,0.1-0.7,0.2-1
		c0.1-0.2,0.3-0.4,0.6-0.5c0.3-0.2,0.6-0.2,0.8-0.2c0.4,0,0.7,0.1,1,0.4c0.2,0.2,0.4,0.6,0.4,1l0,0.2c-0.2,0-0.3,0.1-0.4,0.1
		c-0.2,0-0.6,0-1,0H89.5z M89.5,35.1c0.4,0,0.8,0,1.2,0c0.2,0,0.3,0,0.5,0v-0.2c0-0.2,0-0.4-0.1-0.6c-0.1-0.1-0.1-0.2-0.3-0.3
		c-0.1-0.1-0.3-0.1-0.4-0.1c-0.3,0-0.5,0.1-0.6,0.3C89.6,34.4,89.5,34.7,89.5,35.1z"/>
	<path class="st0" d="M93,35.4c0,0.5,0.1,0.8,0.3,1c0.2,0.2,0.5,0.4,0.9,0.4c0.2,0,0.3,0,0.5-0.1c0.2-0.1,0.3-0.1,0.5-0.2l0.1,0.1
		l-0.1,0.3c-0.2,0.1-0.4,0.2-0.6,0.2c-0.2,0.1-0.4,0.1-0.6,0.1c-0.5,0-0.8-0.1-1.1-0.4c-0.3-0.3-0.4-0.7-0.4-1.2
		c0-0.4,0.1-0.7,0.2-1c0.1-0.2,0.3-0.4,0.6-0.5c0.3-0.2,0.6-0.2,0.8-0.2c0.4,0,0.7,0.1,1,0.4c0.2,0.2,0.4,0.6,0.4,1l0,0.2
		c-0.2,0-0.3,0.1-0.4,0.1c-0.2,0-0.6,0-1,0H93z M93,35.1c0.4,0,0.8,0,1.2,0c0.2,0,0.3,0,0.5,0v-0.2c0-0.2,0-0.4-0.1-0.6
		c-0.1-0.1-0.1-0.2-0.3-0.3s-0.3-0.1-0.4-0.1c-0.3,0-0.5,0.1-0.6,0.3C93,34.4,93,34.7,93,35.1z"/>
	<path class="st0" d="M96.9,34.4l0.5-0.4c0.1-0.1,0.2-0.2,0.3-0.2c0.1,0,0.3-0.1,0.5-0.1c0.4,0,0.7,0.1,1,0.4c0.3,0.3,0.4,0.6,0.4,1
		c0,0.2,0,0.4-0.1,0.6c-0.1,0.2-0.1,0.4-0.2,0.5c-0.1,0.1-0.2,0.2-0.3,0.3c0,0-0.2,0.1-0.4,0.3l-0.1,0.1C98.2,36.9,98.1,37,98,37
		c-0.1,0-0.2,0.1-0.4,0.1c-0.1,0-0.2,0-0.3,0c-0.1,0-0.2-0.1-0.4-0.1v0.5c0,0.5,0,0.9,0,1.1c0,0.1,0,0.2,0.1,0.2
		c0.1,0,0.2,0.1,0.3,0.1h0.2v0.2c-0.4,0-0.8,0-1,0c-0.2,0-0.5,0-0.9,0v-0.2H96c0.2,0,0.3,0,0.3-0.1c0-0.1,0-0.5,0-1.2v-2.1
		c0-0.4,0-0.7,0-0.9c0-0.1,0-0.2-0.1-0.2c0,0-0.1,0-0.3,0h-0.3V34c0.3,0,0.6-0.1,0.9-0.2l0.2-0.1c0,0,0.1,0,0.1,0.1l0,0.4L96.9,34.4
		z M96.9,36.3c0.1,0.2,0.3,0.3,0.4,0.4c0.1,0.1,0.3,0.1,0.5,0.1c0.4,0,0.6-0.1,0.8-0.4c0.2-0.3,0.3-0.6,0.3-1c0-0.3,0-0.5-0.1-0.7
		c-0.1-0.2-0.2-0.3-0.4-0.4c-0.2-0.1-0.4-0.2-0.5-0.2c-0.1,0-0.3,0-0.4,0.1c-0.1,0.1-0.2,0.1-0.3,0.2s-0.2,0.2-0.2,0.3
		c0,0.1,0,0.2,0,0.5V36.3z"/>
	<path class="st0" d="M105.1,35.4h-2l-0.2,0.6c-0.2,0.4-0.2,0.6-0.2,0.7c0,0.1,0,0.1,0,0.1c0,0,0.1,0,0.2,0.1l0.3,0V37
		c-0.2,0-0.5,0-0.7,0c-0.3,0-0.6,0-0.9,0v-0.2l0.1,0c0.2,0,0.3,0,0.3-0.1c0,0,0.1-0.1,0.2-0.2c0.2-0.3,0.3-0.7,0.5-1.1l0.9-2.2
		c0.3-0.6,0.4-1,0.5-1.2h0.2l1.7,4.1c0.1,0.3,0.2,0.4,0.2,0.5c0,0.1,0.1,0.1,0.1,0.1c0.1,0,0.2,0,0.3,0.1V37c-0.3,0-0.6,0-0.9,0
		c-0.3,0-0.6,0-1,0v-0.2l0.3,0c0.1,0,0.2,0,0.2,0c0,0,0.1-0.1,0.1-0.1c0,0,0-0.1-0.1-0.3L105.1,35.4z M103.2,35.1h1.7l-0.9-2.1
		L103.2,35.1z"/>
	<path class="st0" d="M107.9,34.4l0.5-0.4c0.1-0.1,0.2-0.2,0.3-0.2c0.1,0,0.3-0.1,0.5-0.1c0.4,0,0.7,0.1,1,0.4
		c0.3,0.3,0.4,0.6,0.4,1c0,0.2,0,0.4-0.1,0.6c-0.1,0.2-0.1,0.4-0.2,0.5c-0.1,0.1-0.2,0.2-0.3,0.3c0,0-0.2,0.1-0.4,0.3l-0.1,0.1
		c-0.2,0.1-0.3,0.2-0.4,0.2c-0.1,0-0.2,0.1-0.4,0.1c-0.1,0-0.2,0-0.3,0c-0.1,0-0.2-0.1-0.4-0.1v0.5c0,0.5,0,0.9,0,1.1
		c0,0.1,0,0.2,0.1,0.2c0.1,0,0.2,0.1,0.3,0.1h0.2v0.2c-0.4,0-0.8,0-1,0c-0.2,0-0.5,0-0.9,0v-0.2h0.3c0.2,0,0.3,0,0.3-0.1
		c0-0.1,0-0.5,0-1.2v-2.1c0-0.4,0-0.7,0-0.9c0-0.1,0-0.2-0.1-0.2c0,0-0.1,0-0.3,0h-0.3V34c0.3,0,0.6-0.1,0.9-0.2l0.2-0.1
		c0,0,0.1,0,0.1,0.1l0,0.4L107.9,34.4z M107.9,36.3c0.1,0.2,0.3,0.3,0.4,0.4c0.1,0.1,0.3,0.1,0.5,0.1c0.4,0,0.6-0.1,0.8-0.4
		c0.2-0.3,0.3-0.6,0.3-1c0-0.3,0-0.5-0.1-0.7c-0.1-0.2-0.2-0.3-0.4-0.4c-0.2-0.1-0.4-0.2-0.5-0.2c-0.1,0-0.3,0-0.4,0.1
		c-0.1,0.1-0.2,0.1-0.3,0.2c-0.1,0.1-0.2,0.2-0.2,0.3c0,0.1,0,0.2,0,0.5V36.3z"/>
	<path class="st0" d="M112,34.3l0.5-0.5c0.1-0.1,0.1-0.1,0.2-0.1c0.2-0.1,0.3-0.1,0.5-0.1c0.2,0,0.5,0.1,0.6,0.2
		c0.2,0.1,0.3,0.2,0.4,0.4s0.1,0.4,0.1,0.8l0,1.1c0,0.4,0,0.6,0,0.6c0,0.1,0.1,0.1,0.3,0.1h0.2V37c-0.2,0-0.5,0-0.6,0
		c-0.2,0-0.4,0-0.6,0c0-0.4,0.1-1.1,0.1-1.8c0-0.3,0-0.5-0.1-0.7c-0.1-0.1-0.1-0.2-0.3-0.3s-0.3-0.1-0.5-0.1c-0.2,0-0.4,0.1-0.6,0.2
		c-0.2,0.1-0.3,0.2-0.3,0.4c0,0.1,0,0.3,0,0.7c0,0.4,0,0.8,0,1.2c0,0.1,0,0.2,0,0.2c0.1,0.1,0.2,0.1,0.3,0.1h0.2V37
		c-0.4,0-0.7,0-0.9,0c-0.2,0-0.5,0-0.8,0v-0.2h0.2c0.2,0,0.3,0,0.3-0.1c0-0.1,0-0.6,0-1.4c0-0.4,0-0.7,0-0.9c0-0.1,0-0.1-0.1-0.2
		s-0.1,0-0.3,0h-0.2V34c0.2,0,0.4-0.1,0.5-0.1s0.3-0.1,0.5-0.2c0,0,0,0,0.1,0c0,0,0.1,0,0.1,0.1l0,0.1L112,34.3z"/>
	<path class="st0" d="M115.8,35.4c0,0.5,0.1,0.8,0.3,1c0.2,0.2,0.5,0.4,0.9,0.4c0.2,0,0.3,0,0.5-0.1c0.2-0.1,0.3-0.1,0.5-0.2
		l0.1,0.1l-0.1,0.3c-0.2,0.1-0.4,0.2-0.6,0.2c-0.2,0.1-0.4,0.1-0.6,0.1c-0.5,0-0.8-0.1-1.1-0.4c-0.3-0.3-0.4-0.7-0.4-1.2
		c0-0.4,0.1-0.7,0.2-1c0.1-0.2,0.3-0.4,0.6-0.5c0.3-0.2,0.6-0.2,0.8-0.2c0.4,0,0.7,0.1,1,0.4c0.2,0.2,0.4,0.6,0.4,1l0,0.2
		c-0.2,0-0.3,0.1-0.4,0.1c-0.2,0-0.6,0-1,0H115.8z M115.8,35.1c0.4,0,0.8,0,1.2,0c0.2,0,0.3,0,0.5,0v-0.2c0-0.2,0-0.4-0.1-0.6
		c-0.1-0.1-0.1-0.2-0.3-0.3c-0.1-0.1-0.3-0.1-0.4-0.1c-0.3,0-0.5,0.1-0.6,0.3C115.9,34.4,115.8,34.7,115.8,35.1z"/>
	<path class="st0" d="M118.9,34.6l0-0.2l0-0.2l0.4-0.2c0.2-0.1,0.3-0.2,0.4-0.2c0.1,0,0.3-0.1,0.4-0.1c0.3,0,0.6,0.1,0.8,0.2
		c0.2,0.1,0.3,0.3,0.4,0.5c0,0.2,0,0.6,0.1,1.2c0,0.6,0,1,0,1c0,0.1,0.1,0.1,0.2,0.1h0.3V37c-0.3,0-0.4,0-0.5,0c-0.1,0-0.3,0-0.5,0
		l0-0.3c0-0.1,0-0.2,0-0.3L120,37c-0.1,0-0.1,0.1-0.2,0.1c-0.1,0-0.1,0-0.3,0c-0.3,0-0.5-0.1-0.7-0.2c-0.2-0.1-0.2-0.3-0.2-0.6
		c0-0.2,0.1-0.4,0.2-0.6c0.1-0.2,0.3-0.3,0.5-0.4c0.2-0.1,0.7-0.2,1.4-0.3c0-0.3-0.1-0.5-0.2-0.7c-0.2-0.2-0.4-0.3-0.7-0.3
		c-0.1,0-0.2,0-0.3,0c-0.1,0-0.2,0.1-0.3,0.1c-0.1,0.2-0.1,0.3-0.2,0.5L118.9,34.6z M120.8,35.2c-0.6,0.1-1,0.3-1.2,0.4
		c-0.2,0.1-0.3,0.3-0.3,0.6c0,0.2,0,0.3,0.1,0.4c0.1,0.1,0.2,0.2,0.4,0.2c0.2,0,0.3,0,0.5-0.1c0.2-0.1,0.3-0.2,0.5-0.4l0-0.8
		L120.8,35.2z"/>
</g>
<g>
	<path class="st0" d="M46.5,28.5h-2L44.3,29c-0.2,0.4-0.2,0.6-0.2,0.7c0,0.1,0,0.1,0,0.1c0,0,0.1,0,0.2,0.1l0.3,0v0.2
		c-0.2,0-0.5,0-0.7,0c-0.3,0-0.6,0-0.9,0v-0.2l0.1,0c0.2,0,0.3,0,0.3-0.1c0,0,0.1-0.1,0.2-0.2c0.2-0.3,0.3-0.7,0.5-1.1l0.9-2.2
		c0.3-0.6,0.4-1,0.5-1.2h0.2l1.7,4.1c0.1,0.3,0.2,0.4,0.2,0.5c0,0.1,0.1,0.1,0.1,0.1c0.1,0,0.2,0,0.3,0.1v0.2c-0.3,0-0.6,0-0.9,0
		c-0.3,0-0.6,0-1,0v-0.2l0.3,0c0.1,0,0.2,0,0.2,0c0,0,0.1-0.1,0.1-0.1c0,0,0-0.1-0.1-0.3L46.5,28.5z M44.7,28.2h1.7l-0.9-2.1
		L44.7,28.2z"/>
	<path class="st0" d="M50.8,27v-1.3c0-0.1,0-0.2,0-0.3c0,0-0.1-0.1-0.2-0.1h-0.3v-0.2c0.4,0,0.8-0.1,1.2-0.3l0.1,0
		c0,0.2,0,0.5,0,0.9l0,0.9l0,0.3v2.1c0,0.4,0,0.6,0,0.6c0,0.1,0.1,0.1,0.3,0.1l0.2,0v0.2c-0.3,0-0.5,0-0.8,0c0,0-0.2,0-0.4,0
		c0-0.2,0-0.4,0-0.7c-0.2,0.2-0.4,0.4-0.7,0.6c-0.2,0.1-0.4,0.1-0.5,0.1c-0.4,0-0.7-0.1-1-0.4c-0.3-0.3-0.4-0.7-0.4-1.2
		c0-0.3,0.1-0.6,0.2-0.8c0.1-0.2,0.2-0.4,0.4-0.5c0.1-0.1,0.4-0.2,0.7-0.4c0.2-0.1,0.4-0.2,0.6-0.2c0.1,0,0.3,0,0.4,0.1
		C50.5,26.9,50.7,26.9,50.8,27z M50.8,27.6c-0.2-0.2-0.3-0.3-0.5-0.4c-0.2-0.1-0.3-0.1-0.5-0.1c-0.3,0-0.5,0.1-0.7,0.3
		c-0.2,0.2-0.3,0.5-0.3,1c0,0.4,0.1,0.8,0.3,1c0.2,0.2,0.5,0.4,0.8,0.4c0.2,0,0.4-0.1,0.5-0.2c0.2-0.1,0.3-0.2,0.3-0.4
		c0.1-0.2,0.1-0.4,0.1-0.8V27.6z"/>
	<path class="st0" d="M54.4,27.1v-0.2c0.2,0,0.4,0,0.6,0c0.2,0,0.4,0,0.7,0v0.2h-0.1c-0.1,0-0.1,0-0.2,0c0,0-0.1,0-0.1,0.1
		c0,0-0.1,0.2-0.2,0.5c-0.3,0.5-0.5,1-0.6,1.3c-0.1,0.3-0.3,0.7-0.5,1.3h-0.4c-0.3-0.8-0.6-1.5-0.9-2.2c-0.1-0.3-0.2-0.4-0.2-0.5
		c-0.1-0.1-0.1-0.3-0.2-0.3c-0.1-0.1-0.1-0.1-0.2-0.1H52v-0.2c0.3,0,0.6,0,0.8,0c0.2,0,0.5,0,0.8,0v0.2h-0.2c-0.1,0-0.2,0-0.3,0
		c0,0-0.1,0.1-0.1,0.1c0,0,0,0.1,0.1,0.2c0,0.1,0.3,0.8,0.8,2.1l0.6-1.5c0.1-0.3,0.2-0.6,0.3-0.7c0,0,0-0.1,0-0.1c0,0,0-0.1,0-0.1
		c0,0-0.1,0-0.2-0.1L54.4,27.1z"/>
	<path class="st0" d="M56,27.7l0-0.2l0-0.2l0.4-0.2c0.2-0.1,0.3-0.2,0.4-0.2c0.1,0,0.3-0.1,0.4-0.1c0.3,0,0.6,0.1,0.8,0.2
		c0.2,0.1,0.3,0.3,0.4,0.5c0,0.2,0,0.6,0.1,1.2c0,0.6,0,1,0,1c0,0.1,0.1,0.1,0.2,0.1h0.3v0.2c-0.3,0-0.4,0-0.5,0c-0.1,0-0.3,0-0.5,0
		l0-0.3c0-0.1,0-0.2,0-0.3l-0.7,0.5c-0.1,0-0.1,0.1-0.2,0.1c-0.1,0-0.1,0-0.3,0c-0.3,0-0.5-0.1-0.7-0.2c-0.2-0.1-0.2-0.3-0.2-0.6
		c0-0.2,0.1-0.4,0.2-0.6c0.1-0.2,0.3-0.3,0.5-0.4c0.2-0.1,0.7-0.2,1.4-0.3c0-0.3-0.1-0.5-0.2-0.7c-0.2-0.2-0.4-0.3-0.7-0.3
		c-0.1,0-0.2,0-0.3,0c-0.1,0-0.2,0.1-0.3,0.1c-0.1,0.2-0.1,0.3-0.2,0.5L56,27.7z M57.9,28.3c-0.6,0.1-1,0.3-1.2,0.4
		c-0.2,0.1-0.3,0.3-0.3,0.6c0,0.2,0,0.3,0.1,0.4c0.1,0.1,0.2,0.2,0.4,0.2c0.2,0,0.3,0,0.5-0.1c0.2-0.1,0.3-0.2,0.5-0.4l0-0.8
		L57.9,28.3z"/>
	<path class="st0" d="M60.5,27.5L61,27c0.1-0.1,0.1-0.1,0.2-0.1c0.2-0.1,0.3-0.1,0.5-0.1c0.2,0,0.5,0.1,0.6,0.2
		c0.2,0.1,0.3,0.2,0.4,0.4c0.1,0.2,0.1,0.4,0.1,0.8l0,1.1c0,0.4,0,0.6,0,0.6c0,0.1,0.1,0.1,0.3,0.1h0.2v0.2c-0.2,0-0.5,0-0.6,0
		c-0.2,0-0.4,0-0.6,0c0-0.4,0.1-1.1,0.1-1.8c0-0.3,0-0.5-0.1-0.7c-0.1-0.1-0.1-0.2-0.3-0.3c-0.1-0.1-0.3-0.1-0.5-0.1
		c-0.2,0-0.4,0.1-0.6,0.2c-0.2,0.1-0.3,0.2-0.3,0.4c0,0.1,0,0.3,0,0.7c0,0.4,0,0.8,0,1.2c0,0.1,0,0.2,0,0.2c0.1,0.1,0.2,0.1,0.3,0.1
		h0.2v0.2c-0.4,0-0.7,0-0.9,0c-0.2,0-0.5,0-0.8,0v-0.2h0.2c0.2,0,0.3,0,0.3-0.1c0-0.1,0-0.6,0-1.4c0-0.4,0-0.7,0-0.9
		c0-0.1,0-0.1-0.1-0.2c0,0-0.1,0-0.3,0h-0.2v-0.2c0.2,0,0.4-0.1,0.5-0.1c0.2,0,0.3-0.1,0.5-0.2c0,0,0,0,0.1,0c0,0,0.1,0,0.1,0.1
		l0,0.1L60.5,27.5z"/>
	<path class="st0" d="M66.1,29.7L66.1,29.7l0,0.3c-0.2,0.1-0.3,0.1-0.5,0.2c-0.2,0-0.3,0.1-0.5,0.1c-0.3,0-0.6-0.1-0.9-0.2
		c-0.2-0.1-0.4-0.3-0.5-0.6c-0.1-0.2-0.2-0.5-0.2-0.9c0-0.3,0-0.6,0.1-0.8c0.1-0.2,0.2-0.4,0.4-0.5c0.2-0.1,0.4-0.2,0.7-0.4
		c0.2-0.1,0.4-0.1,0.6-0.1c0.2,0,0.3,0,0.5,0c0.1,0,0.3,0.1,0.4,0.2c-0.1,0.3-0.1,0.6-0.1,0.9h-0.2v-0.2c0-0.1,0-0.3-0.1-0.3
		c0-0.1-0.1-0.1-0.3-0.2c-0.2-0.1-0.3-0.1-0.5-0.1c-0.3,0-0.6,0.1-0.7,0.3c-0.2,0.2-0.3,0.5-0.3,0.9c0,0.5,0.1,0.9,0.4,1.2
		c0.2,0.3,0.5,0.4,0.9,0.4c0.1,0,0.3,0,0.4-0.1C65.8,29.8,65.9,29.7,66.1,29.7z"/>
	<path class="st0" d="M67.2,28.5c0,0.5,0.1,0.8,0.3,1c0.2,0.2,0.5,0.4,0.9,0.4c0.2,0,0.3,0,0.5-0.1c0.2-0.1,0.3-0.1,0.5-0.2l0.1,0.1
		l-0.1,0.3c-0.2,0.1-0.4,0.2-0.6,0.2c-0.2,0.1-0.4,0.1-0.6,0.1c-0.5,0-0.8-0.1-1.1-0.4c-0.3-0.3-0.4-0.7-0.4-1.2
		c0-0.4,0.1-0.7,0.2-1c0.1-0.2,0.3-0.4,0.6-0.5c0.3-0.2,0.6-0.2,0.8-0.2c0.4,0,0.7,0.1,1,0.4c0.2,0.2,0.4,0.6,0.4,1l0,0.2
		c-0.2,0-0.3,0.1-0.4,0.1c-0.2,0-0.6,0-1,0H67.2z M67.2,28.2c0.4,0,0.8,0,1.2,0c0.2,0,0.3,0,0.5,0V28c0-0.2,0-0.4-0.1-0.6
		c-0.1-0.1-0.1-0.2-0.3-0.3s-0.3-0.1-0.4-0.1c-0.3,0-0.5,0.1-0.6,0.3C67.3,27.5,67.2,27.8,67.2,28.2z"/>
	<path class="st0" d="M72.7,27v-1.3c0-0.1,0-0.2,0-0.3c0,0-0.1-0.1-0.2-0.1h-0.3v-0.2c0.4,0,0.8-0.1,1.2-0.3l0.1,0
		c0,0.2,0,0.5,0,0.9l0,0.9l0,0.3v2.1c0,0.4,0,0.6,0,0.6c0,0.1,0.1,0.1,0.3,0.1l0.2,0v0.2c-0.3,0-0.5,0-0.8,0c0,0-0.2,0-0.4,0
		c0-0.2,0-0.4,0-0.7c-0.2,0.2-0.4,0.4-0.7,0.6c-0.2,0.1-0.4,0.1-0.5,0.1c-0.4,0-0.7-0.1-1-0.4c-0.3-0.3-0.4-0.7-0.4-1.2
		c0-0.3,0.1-0.6,0.2-0.8c0.1-0.2,0.2-0.4,0.4-0.5c0.1-0.1,0.4-0.2,0.7-0.4c0.2-0.1,0.4-0.2,0.6-0.2c0.1,0,0.3,0,0.4,0.1
		C72.4,26.9,72.5,26.9,72.7,27z M72.7,27.6c-0.2-0.2-0.3-0.3-0.5-0.4s-0.3-0.1-0.5-0.1c-0.3,0-0.5,0.1-0.7,0.3
		c-0.2,0.2-0.3,0.5-0.3,1c0,0.4,0.1,0.8,0.3,1c0.2,0.2,0.5,0.4,0.8,0.4c0.2,0,0.4-0.1,0.5-0.2c0.2-0.1,0.3-0.2,0.3-0.4
		s0.1-0.4,0.1-0.8V27.6z"/>
	<path class="st0" d="M80.6,26.5l0-0.6c-0.2-0.1-0.4-0.2-0.6-0.3c-0.2-0.1-0.5-0.1-0.7-0.1c-0.6,0-1.1,0.2-1.5,0.6
		c-0.4,0.4-0.6,0.9-0.6,1.5c0,0.4,0.1,0.8,0.3,1.2c0.2,0.3,0.5,0.6,0.8,0.8c0.3,0.2,0.7,0.3,1.1,0.3c0.3,0,0.6,0,0.9-0.1
		c0.2-0.1,0.5-0.2,0.7-0.3l0.1,0.1c0,0.1-0.1,0.2-0.1,0.3c-0.3,0.1-0.5,0.2-0.8,0.3c-0.3,0.1-0.5,0.1-0.8,0.1
		c-0.6,0-1.1-0.1-1.5-0.3c-0.4-0.2-0.8-0.5-1-0.9c-0.2-0.4-0.3-0.8-0.3-1.3s0.1-0.9,0.3-1.3c0.2-0.4,0.6-0.7,1-0.9
		c0.4-0.2,0.9-0.3,1.6-0.3c0.3,0,0.7,0.1,1.1,0.2c0.2,0.1,0.4,0.1,0.5,0.1c-0.1,0.2-0.2,0.6-0.2,1H80.6z"/>
	<path class="st0" d="M81.3,28.5c0-0.3,0.1-0.6,0.2-0.9c0.1-0.3,0.4-0.5,0.6-0.6c0.3-0.1,0.6-0.2,0.9-0.2c0.5,0,0.9,0.1,1.2,0.4
		c0.3,0.3,0.4,0.7,0.4,1.2c0,0.6-0.2,1-0.6,1.4c-0.3,0.3-0.8,0.5-1.2,0.5c-0.5,0-0.8-0.2-1.1-0.5C81.5,29.4,81.3,29,81.3,28.5z
		 M82,28.2c0,0.5,0.1,0.9,0.3,1.2c0.2,0.3,0.5,0.5,0.8,0.5c0.3,0,0.5-0.1,0.7-0.3c0.2-0.2,0.3-0.5,0.3-1c0-0.3-0.1-0.6-0.2-0.9
		c-0.1-0.3-0.2-0.4-0.4-0.6c-0.2-0.1-0.4-0.2-0.6-0.2c-0.2,0-0.3,0-0.5,0.1c-0.1,0.1-0.3,0.2-0.3,0.4C82,27.8,82,28,82,28.2z"/>
	<path class="st0" d="M85.5,29.1v0.2c0,0.2,0,0.3,0,0.3c0.1,0.1,0.2,0.1,0.4,0.2c0.2,0.1,0.4,0.1,0.5,0.1c0.2,0,0.4-0.1,0.6-0.2
		c0.1-0.1,0.2-0.3,0.2-0.5c0-0.1,0-0.3-0.1-0.3s-0.3-0.2-0.5-0.2c-0.5-0.1-0.8-0.2-0.9-0.2c-0.1-0.1-0.3-0.2-0.3-0.3
		c-0.1-0.1-0.1-0.3-0.1-0.4c0-0.3,0.1-0.6,0.3-0.7s0.5-0.3,0.9-0.3c0.3,0,0.6,0.1,1,0.2c0,0.2,0,0.4,0,0.8h-0.2c0-0.2,0-0.3-0.1-0.4
		c-0.1-0.1-0.1-0.2-0.3-0.2c-0.1-0.1-0.3-0.1-0.4-0.1c-0.2,0-0.4,0.1-0.5,0.2c-0.1,0.1-0.2,0.2-0.2,0.4c0,0.2,0,0.3,0.1,0.3
		c0.1,0.1,0.4,0.2,0.8,0.3c0.3,0.1,0.6,0.1,0.7,0.2c0.1,0.1,0.2,0.1,0.3,0.3c0.1,0.1,0.1,0.3,0.1,0.4c0,0.3-0.1,0.6-0.4,0.8
		c-0.3,0.2-0.6,0.3-1.1,0.3c-0.3,0-0.6,0-1-0.1c-0.1,0-0.1,0-0.1-0.1l0,0c0,0,0-0.1,0-0.2c0-0.2,0-0.4,0-0.5l0-0.2H85.5z"/>
	<path class="st0" d="M89.2,27.4l0.5-0.4c0.1-0.1,0.2-0.1,0.2-0.1c0.1,0,0.2-0.1,0.4-0.1c0.3,0,0.5,0,0.6,0.1
		c0.2,0.1,0.3,0.3,0.4,0.5l0.4-0.4c0.1-0.1,0.2-0.1,0.3-0.2c0.1-0.1,0.3-0.1,0.4-0.1c0.2,0,0.4,0,0.6,0.1c0.2,0.1,0.3,0.2,0.4,0.4
		c0.1,0.2,0.1,0.4,0.1,0.6l0,1.4c0,0.3,0,0.5,0.1,0.5c0,0.1,0.1,0.1,0.3,0.1l0.3,0v0.2l-0.2,0c-0.3,0-0.5,0-0.5,0
		c-0.1,0-0.3,0-0.5,0c0-0.4,0-0.9,0-1.5c0-0.5,0-0.8-0.1-0.9c0-0.2-0.1-0.3-0.2-0.4c-0.1-0.1-0.3-0.1-0.4-0.1
		c-0.2,0-0.4,0.1-0.5,0.2c-0.1,0.1-0.2,0.2-0.3,0.4c0,0.1,0,0.5,0,1.2c0,0.4,0,0.7,0,0.7c0,0.1,0,0.1,0.1,0.1c0,0,0.1,0,0.3,0.1
		l0.2,0v0.2c-0.4,0-0.7,0-0.9,0c-0.2,0-0.4,0-0.9,0v-0.2h0.2c0.1,0,0.2,0,0.3-0.1c0,0,0.1-0.1,0.1-0.3c0-0.4,0-0.8,0-1.2
		c0-0.4,0-0.6-0.1-0.8c0-0.1-0.1-0.2-0.3-0.3c-0.1-0.1-0.3-0.1-0.4-0.1c-0.2,0-0.3,0-0.5,0.1c-0.1,0.1-0.2,0.2-0.3,0.4
		c0,0.1-0.1,0.4-0.1,0.8c0,0.5,0,0.9,0,1.1c0,0.1,0,0.2,0.1,0.2c0,0,0.1,0.1,0.3,0.1l0.2,0v0.2c-0.3,0-0.6,0-0.8,0
		c-0.3,0-0.6,0-0.9,0v-0.2h0.3c0.2,0,0.2,0,0.3-0.1c0-0.1,0-0.5,0-1.3c0-0.6,0-0.9,0-1c0-0.1,0-0.2-0.1-0.2s-0.1,0-0.3,0H88v-0.2
		c0.3,0,0.6-0.1,0.9-0.2l0.3-0.1c0,0,0.1,0,0.1,0.1l0,0.1C89.2,27.1,89.2,27.3,89.2,27.4z"/>
	<path class="st0" d="M94.9,28.5c0,0.5,0.1,0.8,0.3,1c0.2,0.2,0.5,0.4,0.9,0.4c0.2,0,0.3,0,0.5-0.1c0.2-0.1,0.3-0.1,0.5-0.2l0.1,0.1
		L97,29.9c-0.2,0.1-0.4,0.2-0.6,0.2c-0.2,0.1-0.4,0.1-0.6,0.1c-0.5,0-0.8-0.1-1.1-0.4c-0.3-0.3-0.4-0.7-0.4-1.2c0-0.4,0.1-0.7,0.2-1
		c0.1-0.2,0.3-0.4,0.6-0.5c0.3-0.2,0.6-0.2,0.8-0.2c0.4,0,0.7,0.1,1,0.4c0.2,0.2,0.4,0.6,0.4,1l0,0.2c-0.2,0-0.3,0.1-0.4,0.1
		c-0.2,0-0.6,0-1,0H94.9z M94.9,28.2c0.4,0,0.8,0,1.2,0c0.2,0,0.3,0,0.5,0V28c0-0.2,0-0.4-0.1-0.6c-0.1-0.1-0.1-0.2-0.3-0.3
		c-0.1-0.1-0.3-0.1-0.4-0.1c-0.3,0-0.5,0.1-0.6,0.3C95,27.5,94.9,27.8,94.9,28.2z"/>
	<path class="st0" d="M98.6,27.4v1.4c0,0.4,0,0.6,0,0.7c0,0.1,0.1,0.2,0.1,0.2c0.1,0.1,0.2,0.1,0.3,0.1c0.1,0,0.1,0,0.2,0
		c0.1,0,0.1-0.1,0.2-0.1l0.1,0.1l-0.3,0.4c-0.1,0-0.1,0-0.2,0.1c-0.1,0-0.1,0-0.2,0c-0.2,0-0.3,0-0.4-0.1c-0.1-0.1-0.2-0.1-0.3-0.2
		C98,29.8,98,29.6,98,29.4l0-0.7v-1.3c-0.2,0-0.4,0-0.5,0v-0.1c0.2-0.1,0.4-0.2,0.5-0.2c0-0.3,0-0.7,0-1.1c0.3-0.1,0.5-0.2,0.6-0.3
		l0.1,0.1c0,0.2,0,0.6-0.1,1.3c0.3,0,0.5,0,0.7,0l0.3,0l0,0.4l-0.1,0l-0.7,0H98.6z"/>
	<path class="st0" d="M101.1,26.8L101.1,26.8c0.1,0.2,0.1,0.4,0.1,0.6c0,0.7,0,1.2,0,1.5c0,0.3,0,0.6,0,0.8c0,0.1,0,0.1,0.1,0.2
		c0,0,0.1,0.1,0.2,0.1l0.2,0v0.2c-0.3,0-0.6,0-0.9,0c-0.3,0-0.5,0-0.8,0v-0.2l0.3,0c0.1,0,0.2,0,0.2-0.1c0,0,0-0.1,0-0.3
		c0-0.3,0-0.7,0-1.2c0-0.4,0-0.6,0-0.8c0-0.1,0-0.1-0.1-0.2c0,0-0.1,0-0.2,0H100v-0.2c0.3,0,0.5-0.1,0.6-0.1
		C100.7,26.9,100.9,26.9,101.1,26.8z M100.8,25.3c0.1,0,0.2,0,0.3,0.1c0.1,0.1,0.1,0.2,0.1,0.3s0,0.2-0.1,0.3
		c-0.1,0.1-0.2,0.1-0.3,0.1c-0.1,0-0.2,0-0.3-0.1c-0.1-0.1-0.1-0.2-0.1-0.3s0-0.2,0.1-0.3C100.6,25.3,100.7,25.3,100.8,25.3z"/>
	<path class="st0" d="M104.7,29.7L104.7,29.7l0,0.3c-0.2,0.1-0.3,0.1-0.5,0.2c-0.2,0-0.3,0.1-0.5,0.1c-0.3,0-0.6-0.1-0.9-0.2
		c-0.2-0.1-0.4-0.3-0.5-0.6c-0.1-0.2-0.2-0.5-0.2-0.9c0-0.3,0-0.6,0.1-0.8c0.1-0.2,0.2-0.4,0.4-0.5c0.2-0.1,0.4-0.2,0.7-0.4
		c0.2-0.1,0.4-0.1,0.6-0.1c0.2,0,0.3,0,0.5,0c0.1,0,0.3,0.1,0.4,0.2c-0.1,0.3-0.1,0.6-0.1,0.9h-0.2v-0.2c0-0.1,0-0.3-0.1-0.3
		c0-0.1-0.1-0.1-0.3-0.2c-0.2-0.1-0.3-0.1-0.5-0.1c-0.3,0-0.6,0.1-0.7,0.3c-0.2,0.2-0.3,0.5-0.3,0.9c0,0.5,0.1,0.9,0.4,1.2
		c0.2,0.3,0.5,0.4,0.9,0.4c0.1,0,0.3,0,0.4-0.1C104.4,29.8,104.5,29.7,104.7,29.7z"/>
	<path class="st0" d="M106.2,29.2l0.1,0.1c-0.1,0.3-0.3,0.6-0.4,0.9c-0.2,0.3-0.4,0.5-0.6,0.9l-0.3,0.1l-0.1-0.1
		c0.2-0.3,0.3-0.6,0.4-0.8c0.1-0.3,0.2-0.5,0.2-0.8C105.7,29.3,105.9,29.2,106.2,29.2z"/>
	<path class="st0" d="M108.9,29.9h0.2c0.2,0,0.3-0.1,0.4-0.2c0-0.1,0.1-0.6,0.1-1.5v-1.2c0-0.9,0-1.4-0.1-1.5c0-0.1-0.1-0.1-0.3-0.1
		h-0.3v-0.2c0.4,0,0.8,0,1.1,0c0.3,0,0.6,0,0.8,0v0.2h-0.3c-0.2,0-0.3,0-0.3,0.1c0,0-0.1,0.1-0.1,0.3c0,0.2,0,0.7,0,1.3v1.2
		c0,0.9,0,1.4,0.1,1.5c0,0.1,0.2,0.1,0.4,0.1h0.2v0.2c-0.3,0-0.6,0-0.9,0c-0.4,0-0.7,0-1.1,0V29.9z"/>
	<path class="st0" d="M112.6,27.4L113,27c0.1-0.1,0.2-0.1,0.2-0.1c0.1,0,0.2-0.1,0.4-0.1c0.3,0,0.5,0,0.6,0.1
		c0.2,0.1,0.3,0.3,0.4,0.5l0.4-0.4c0.1-0.1,0.2-0.1,0.3-0.2c0.1-0.1,0.3-0.1,0.4-0.1c0.2,0,0.4,0,0.6,0.1c0.2,0.1,0.3,0.2,0.4,0.4
		c0.1,0.2,0.1,0.4,0.1,0.6l0,1.4c0,0.3,0,0.5,0.1,0.5c0,0.1,0.1,0.1,0.3,0.1l0.3,0v0.2l-0.2,0c-0.3,0-0.5,0-0.5,0
		c-0.1,0-0.3,0-0.5,0c0-0.4,0-0.9,0-1.5c0-0.5,0-0.8-0.1-0.9c0-0.2-0.1-0.3-0.2-0.4c-0.1-0.1-0.3-0.1-0.4-0.1
		c-0.2,0-0.4,0.1-0.5,0.2c-0.1,0.1-0.2,0.2-0.3,0.4c0,0.1,0,0.5,0,1.2c0,0.4,0,0.7,0,0.7c0,0.1,0,0.1,0.1,0.1c0,0,0.1,0,0.3,0.1
		l0.2,0v0.2c-0.4,0-0.7,0-0.9,0c-0.2,0-0.4,0-0.9,0v-0.2h0.2c0.1,0,0.2,0,0.3-0.1c0,0,0.1-0.1,0.1-0.3c0-0.4,0-0.8,0-1.2
		c0-0.4,0-0.6-0.1-0.8c0-0.1-0.1-0.2-0.3-0.3c-0.1-0.1-0.3-0.1-0.4-0.1c-0.2,0-0.3,0-0.5,0.1c-0.1,0.1-0.2,0.2-0.3,0.4
		c0,0.1-0.1,0.4-0.1,0.8c0,0.5,0,0.9,0,1.1c0,0.1,0,0.2,0.1,0.2c0,0,0.1,0.1,0.3,0.1l0.2,0v0.2c-0.3,0-0.6,0-0.8,0
		c-0.3,0-0.6,0-0.9,0v-0.2h0.3c0.2,0,0.2,0,0.3-0.1c0-0.1,0-0.5,0-1.3c0-0.6,0-0.9,0-1c0-0.1,0-0.2-0.1-0.2c0,0-0.1,0-0.3,0h-0.2
		v-0.2c0.3,0,0.6-0.1,0.9-0.2l0.3-0.1c0,0,0.1,0,0.1,0.1l0,0.1C112.6,27.1,112.5,27.3,112.6,27.4z"/>
	<path class="st0" d="M118.6,27.5l0.5-0.4c0.1-0.1,0.2-0.2,0.3-0.2c0.1,0,0.3-0.1,0.5-0.1c0.4,0,0.7,0.1,1,0.4
		c0.3,0.3,0.4,0.6,0.4,1c0,0.2,0,0.4-0.1,0.6c-0.1,0.2-0.1,0.4-0.2,0.5c-0.1,0.1-0.2,0.2-0.3,0.3c0,0-0.2,0.1-0.4,0.3l-0.1,0.1
		c-0.2,0.1-0.3,0.2-0.4,0.2c-0.1,0-0.2,0.1-0.4,0.1c-0.1,0-0.2,0-0.3,0c-0.1,0-0.2-0.1-0.4-0.1v0.5c0,0.5,0,0.9,0,1.1
		c0,0.1,0,0.2,0.1,0.2c0.1,0,0.2,0.1,0.3,0.1h0.2V32c-0.4,0-0.8,0-1,0c-0.2,0-0.5,0-0.9,0v-0.2h0.3c0.2,0,0.3,0,0.3-0.1
		c0-0.1,0-0.5,0-1.2v-2.1c0-0.4,0-0.7,0-0.9c0-0.1,0-0.2-0.1-0.2c0,0-0.1,0-0.3,0h-0.3v-0.2c0.3,0,0.6-0.1,0.9-0.2l0.2-0.1
		c0,0,0.1,0,0.1,0.1l0,0.4L118.6,27.5z M118.6,29.4c0.1,0.2,0.3,0.3,0.4,0.4c0.1,0.1,0.3,0.1,0.5,0.1c0.4,0,0.6-0.1,0.8-0.4
		c0.2-0.3,0.3-0.6,0.3-1c0-0.3,0-0.5-0.1-0.7c-0.1-0.2-0.2-0.3-0.4-0.4c-0.2-0.1-0.4-0.2-0.5-0.2c-0.1,0-0.3,0-0.4,0.1
		c-0.1,0.1-0.2,0.1-0.3,0.2c-0.1,0.1-0.2,0.2-0.2,0.3c0,0.1,0,0.2,0,0.5V29.4z"/>
	<path class="st0" d="M122.6,25c0,0.7-0.1,1.3-0.1,1.8v1.8c0,0.7,0,1.1,0,1.2c0,0,0.1,0.1,0.2,0.1l0.3,0v0.2c-0.3,0-0.5,0-0.7,0
		c-0.3,0-0.6,0-1,0v-0.2l0.3,0c0.1,0,0.2,0,0.2-0.1c0-0.1,0-0.5,0-1.2v-1.8l0-0.7l0-0.5c0-0.1,0-0.2,0-0.2c0,0-0.1-0.1-0.2-0.1h-0.3
		v-0.2C121.9,25.2,122.3,25.1,122.6,25L122.6,25z"/>
	<path class="st0" d="M123.7,27.7l0-0.2l0-0.2l0.4-0.2c0.2-0.1,0.3-0.2,0.4-0.2c0.1,0,0.3-0.1,0.4-0.1c0.3,0,0.6,0.1,0.8,0.2
		c0.2,0.1,0.3,0.3,0.4,0.5c0,0.2,0,0.6,0.1,1.2c0,0.6,0,1,0,1c0,0.1,0.1,0.1,0.2,0.1h0.3v0.2c-0.3,0-0.4,0-0.5,0c-0.1,0-0.3,0-0.5,0
		l0-0.3c0-0.1,0-0.2,0-0.3l-0.7,0.5c-0.1,0-0.1,0.1-0.2,0.1c-0.1,0-0.1,0-0.3,0c-0.3,0-0.5-0.1-0.7-0.2c-0.2-0.1-0.2-0.3-0.2-0.6
		c0-0.2,0.1-0.4,0.2-0.6c0.1-0.2,0.3-0.3,0.5-0.4c0.2-0.1,0.7-0.2,1.4-0.3c0-0.3-0.1-0.5-0.2-0.7c-0.2-0.2-0.4-0.3-0.7-0.3
		c-0.1,0-0.2,0-0.3,0c-0.1,0-0.2,0.1-0.3,0.1c-0.1,0.2-0.1,0.3-0.2,0.5L123.7,27.7z M125.5,28.3c-0.6,0.1-1,0.3-1.2,0.4
		c-0.2,0.1-0.3,0.3-0.3,0.6c0,0.2,0,0.3,0.1,0.4c0.1,0.1,0.2,0.2,0.4,0.2c0.2,0,0.3,0,0.5-0.1c0.2-0.1,0.3-0.2,0.5-0.4l0-0.8
		L125.5,28.3z"/>
	<path class="st0" d="M128,27.5l0.5-0.5c0.1-0.1,0.1-0.1,0.2-0.1c0.2-0.1,0.3-0.1,0.5-0.1c0.2,0,0.5,0.1,0.6,0.2
		c0.2,0.1,0.3,0.2,0.4,0.4c0.1,0.2,0.1,0.4,0.1,0.8l0,1.1c0,0.4,0,0.6,0,0.6c0,0.1,0.1,0.1,0.3,0.1h0.2v0.2c-0.2,0-0.5,0-0.6,0
		c-0.2,0-0.4,0-0.6,0c0-0.4,0.1-1.1,0.1-1.8c0-0.3,0-0.5-0.1-0.7c-0.1-0.1-0.1-0.2-0.3-0.3c-0.1-0.1-0.3-0.1-0.5-0.1
		c-0.2,0-0.4,0.1-0.6,0.2c-0.2,0.1-0.3,0.2-0.3,0.4c0,0.1,0,0.3,0,0.7c0,0.4,0,0.8,0,1.2c0,0.1,0,0.2,0,0.2c0.1,0.1,0.2,0.1,0.3,0.1
		h0.2v0.2c-0.4,0-0.7,0-0.9,0c-0.2,0-0.5,0-0.8,0v-0.2h0.2c0.2,0,0.3,0,0.3-0.1c0-0.1,0-0.6,0-1.4c0-0.4,0-0.7,0-0.9
		c0-0.1,0-0.1-0.1-0.2c0,0-0.1,0-0.3,0h-0.2v-0.2c0.2,0,0.4-0.1,0.5-0.1c0.2,0,0.3-0.1,0.5-0.2c0,0,0,0,0.1,0c0,0,0.1,0,0.1,0.1
		l0,0.1L128,27.5z"/>
	<path class="st0" d="M132,27.4v1.4c0,0.4,0,0.6,0,0.7c0,0.1,0.1,0.2,0.1,0.2c0.1,0.1,0.2,0.1,0.3,0.1c0.1,0,0.1,0,0.2,0
		c0.1,0,0.1-0.1,0.2-0.1l0.1,0.1l-0.3,0.4c-0.1,0-0.1,0-0.2,0.1c-0.1,0-0.1,0-0.2,0c-0.2,0-0.3,0-0.4-0.1c-0.1-0.1-0.2-0.1-0.3-0.2
		c-0.1-0.1-0.1-0.2-0.1-0.4l0-0.7v-1.3c-0.2,0-0.4,0-0.5,0v-0.1c0.2-0.1,0.4-0.2,0.5-0.2c0-0.3,0-0.7,0-1.1c0.3-0.1,0.5-0.2,0.6-0.3
		l0.1,0.1c0,0.2,0,0.6-0.1,1.3c0.3,0,0.5,0,0.7,0l0.3,0l0,0.4l-0.1,0l-0.7,0H132z"/>
	<path class="st0" d="M135.7,27.7l0-0.2l0-0.2l0.4-0.2c0.2-0.1,0.3-0.2,0.4-0.2c0.1,0,0.3-0.1,0.4-0.1c0.3,0,0.6,0.1,0.8,0.2
		c0.2,0.1,0.3,0.3,0.4,0.5c0,0.2,0,0.6,0.1,1.2c0,0.6,0,1,0,1c0,0.1,0.1,0.1,0.2,0.1h0.3v0.2c-0.3,0-0.4,0-0.5,0c-0.1,0-0.3,0-0.5,0
		l0-0.3c0-0.1,0-0.2,0-0.3l-0.7,0.5c-0.1,0-0.1,0.1-0.2,0.1c-0.1,0-0.1,0-0.3,0c-0.3,0-0.5-0.1-0.7-0.2c-0.2-0.1-0.2-0.3-0.2-0.6
		c0-0.2,0.1-0.4,0.2-0.6s0.3-0.3,0.5-0.4c0.2-0.1,0.7-0.2,1.4-0.3c0-0.3-0.1-0.5-0.2-0.7c-0.2-0.2-0.4-0.3-0.7-0.3
		c-0.1,0-0.2,0-0.3,0c-0.1,0-0.2,0.1-0.3,0.1c-0.1,0.2-0.1,0.3-0.2,0.5L135.7,27.7z M137.5,28.3c-0.6,0.1-1,0.3-1.2,0.4
		c-0.2,0.1-0.3,0.3-0.3,0.6c0,0.2,0.1,0.3,0.1,0.4c0.1,0.1,0.2,0.2,0.4,0.2c0.2,0,0.3,0,0.5-0.1c0.2-0.1,0.3-0.2,0.5-0.4l0-0.8
		L137.5,28.3z"/>
	<path class="st0" d="M140,27.5l0.5-0.5c0.1-0.1,0.1-0.1,0.2-0.1c0.2-0.1,0.3-0.1,0.5-0.1c0.2,0,0.5,0.1,0.6,0.2
		c0.2,0.1,0.3,0.2,0.4,0.4c0.1,0.2,0.1,0.4,0.1,0.8l0,1.1c0,0.4,0,0.6,0,0.6c0,0.1,0.1,0.1,0.3,0.1h0.2v0.2c-0.2,0-0.5,0-0.6,0
		c-0.2,0-0.4,0-0.6,0c0-0.4,0.1-1.1,0.1-1.8c0-0.3,0-0.5-0.1-0.7c-0.1-0.1-0.1-0.2-0.3-0.3c-0.1-0.1-0.3-0.1-0.5-0.1
		c-0.2,0-0.4,0.1-0.6,0.2c-0.2,0.1-0.3,0.2-0.3,0.4c0,0.1,0,0.3,0,0.7c0,0.4,0,0.8,0,1.2c0,0.1,0,0.2,0,0.2c0.1,0.1,0.2,0.1,0.3,0.1
		h0.2v0.2c-0.4,0-0.7,0-0.9,0c-0.2,0-0.5,0-0.8,0v-0.2h0.2c0.2,0,0.3,0,0.3-0.1c0-0.1,0-0.6,0-1.4c0-0.4,0-0.7,0-0.9
		c0-0.1,0-0.1-0.1-0.2c0,0-0.1,0-0.3,0h-0.2v-0.2c0.2,0,0.4-0.1,0.5-0.1c0.2,0,0.3-0.1,0.5-0.2c0,0,0,0,0.1,0c0,0,0.1,0,0.1,0.1
		l0,0.1L140,27.5z"/>
	<path class="st0" d="M145.7,27v-1.3c0-0.1,0-0.2,0-0.3s-0.1-0.1-0.2-0.1h-0.3v-0.2c0.4,0,0.8-0.1,1.2-0.3l0.1,0c0,0.2,0,0.5,0,0.9
		l0,0.9l0,0.3v2.1c0,0.4,0,0.6,0,0.6c0,0.1,0.1,0.1,0.3,0.1l0.2,0v0.2c-0.3,0-0.5,0-0.8,0c0,0-0.2,0-0.4,0c0-0.2,0-0.4,0-0.7
		c-0.2,0.2-0.4,0.4-0.7,0.6c-0.2,0.1-0.4,0.1-0.5,0.1c-0.4,0-0.7-0.1-1-0.4c-0.3-0.3-0.4-0.7-0.4-1.2c0-0.3,0.1-0.6,0.2-0.8
		c0.1-0.2,0.2-0.4,0.4-0.5c0.1-0.1,0.4-0.2,0.7-0.4c0.2-0.1,0.4-0.2,0.6-0.2c0.1,0,0.3,0,0.4,0.1C145.4,26.9,145.6,26.9,145.7,27z
		 M145.7,27.6c-0.2-0.2-0.3-0.3-0.5-0.4c-0.2-0.1-0.4-0.1-0.5-0.1c-0.3,0-0.5,0.1-0.7,0.3c-0.2,0.2-0.3,0.5-0.3,1
		c0,0.4,0.1,0.8,0.3,1c0.2,0.2,0.5,0.4,0.8,0.4c0.2,0,0.4-0.1,0.5-0.2c0.2-0.1,0.3-0.2,0.3-0.4c0.1-0.2,0.1-0.4,0.1-0.8V27.6z"/>
	<path class="st0" d="M152.5,25.5c-0.1,0.2-0.1,0.6-0.1,1h-0.2v-0.3c0-0.2,0-0.3-0.1-0.4c0-0.1-0.2-0.1-0.4-0.2
		c-0.2-0.1-0.4-0.1-0.6-0.1c-0.4,0-0.7,0.1-0.9,0.3c-0.2,0.2-0.3,0.4-0.3,0.7c0,0.2,0,0.3,0.1,0.5c0.1,0.1,0.2,0.2,0.3,0.3
		c0.1,0.1,0.5,0.1,0.9,0.2c0.5,0,0.8,0.1,1,0.2c0.2,0.1,0.3,0.2,0.4,0.4s0.2,0.4,0.2,0.6c0,0.5-0.2,0.9-0.6,1.2
		c-0.4,0.3-0.9,0.5-1.5,0.5c-0.2,0-0.4,0-0.7-0.1c-0.2,0-0.5-0.1-0.7-0.2c0-0.3,0.1-0.6,0.1-1.1h0.2v0.2c0,0.2,0,0.4,0,0.4
		c0,0.1,0.1,0.1,0.2,0.2c0.1,0.1,0.3,0.2,0.5,0.2c0.2,0,0.4,0.1,0.6,0.1c0.4,0,0.8-0.1,1-0.3s0.4-0.5,0.4-0.8c0-0.2,0-0.3-0.1-0.5
		c-0.1-0.1-0.2-0.2-0.3-0.3c-0.1-0.1-0.4-0.1-0.8-0.1c-0.5,0-0.9-0.1-1.1-0.2c-0.2-0.1-0.3-0.2-0.4-0.4c-0.1-0.2-0.2-0.4-0.2-0.7
		c0-0.4,0.2-0.8,0.5-1.1c0.3-0.3,0.8-0.4,1.3-0.4c0.2,0,0.5,0,0.7,0.1C152.1,25.3,152.3,25.4,152.5,25.5z"/>
	<path class="st0" d="M154,28.5c0,0.5,0.1,0.8,0.3,1c0.2,0.2,0.5,0.4,0.9,0.4c0.2,0,0.3,0,0.5-0.1c0.2-0.1,0.3-0.1,0.5-0.2l0.1,0.1
		l-0.1,0.3c-0.2,0.1-0.4,0.2-0.6,0.2c-0.2,0.1-0.4,0.1-0.6,0.1c-0.5,0-0.8-0.1-1.1-0.4c-0.3-0.3-0.4-0.7-0.4-1.2
		c0-0.4,0.1-0.7,0.2-1c0.1-0.2,0.3-0.4,0.6-0.5c0.3-0.2,0.6-0.2,0.8-0.2c0.4,0,0.7,0.1,1,0.4c0.2,0.2,0.4,0.6,0.4,1l0,0.2
		c-0.2,0-0.3,0.1-0.4,0.1c-0.2,0-0.6,0-1,0H154z M154,28.2c0.4,0,0.8,0,1.2,0c0.2,0,0.3,0,0.5,0V28c0-0.2,0-0.4-0.1-0.6
		c-0.1-0.1-0.1-0.2-0.3-0.3s-0.3-0.1-0.4-0.1c-0.3,0-0.5,0.1-0.6,0.3C154.1,27.5,154,27.8,154,28.2z"/>
	<path class="st0" d="M159.6,27v-1.3c0-0.1,0-0.2,0-0.3s-0.1-0.1-0.2-0.1h-0.3v-0.2c0.4,0,0.8-0.1,1.2-0.3l0.1,0c0,0.2,0,0.5,0,0.9
		l0,0.9l0,0.3v2.1c0,0.4,0,0.6,0,0.6c0,0.1,0.1,0.1,0.3,0.1l0.2,0v0.2c-0.3,0-0.5,0-0.8,0c0,0-0.2,0-0.4,0c0-0.2,0-0.4,0-0.7
		c-0.2,0.2-0.4,0.4-0.7,0.6c-0.2,0.1-0.4,0.1-0.5,0.1c-0.4,0-0.7-0.1-1-0.4c-0.3-0.3-0.4-0.7-0.4-1.2c0-0.3,0.1-0.6,0.2-0.8
		c0.1-0.2,0.2-0.4,0.4-0.5c0.1-0.1,0.4-0.2,0.7-0.4c0.2-0.1,0.4-0.2,0.6-0.2c0.1,0,0.3,0,0.4,0.1C159.3,26.9,159.5,26.9,159.6,27z
		 M159.6,27.6c-0.2-0.2-0.3-0.3-0.5-0.4c-0.2-0.1-0.4-0.1-0.5-0.1c-0.3,0-0.5,0.1-0.7,0.3c-0.2,0.2-0.3,0.5-0.3,1
		c0,0.4,0.1,0.8,0.3,1c0.2,0.2,0.5,0.4,0.8,0.4c0.2,0,0.4-0.1,0.5-0.2c0.2-0.1,0.3-0.2,0.3-0.4c0.1-0.2,0.1-0.4,0.1-0.8V27.6z"/>
	<path class="st0" d="M161.2,27.7l0-0.2l0-0.2l0.4-0.2c0.2-0.1,0.3-0.2,0.4-0.2c0.1,0,0.3-0.1,0.4-0.1c0.3,0,0.6,0.1,0.8,0.2
		c0.2,0.1,0.3,0.3,0.4,0.5c0,0.2,0,0.6,0.1,1.2c0,0.6,0,1,0,1c0,0.1,0.1,0.1,0.2,0.1h0.3v0.2c-0.3,0-0.4,0-0.5,0c-0.1,0-0.3,0-0.5,0
		l0-0.3c0-0.1,0-0.2,0-0.3l-0.7,0.5c-0.1,0-0.1,0.1-0.2,0.1c-0.1,0-0.1,0-0.3,0c-0.3,0-0.5-0.1-0.7-0.2c-0.2-0.1-0.2-0.3-0.2-0.6
		c0-0.2,0.1-0.4,0.2-0.6c0.1-0.2,0.3-0.3,0.5-0.4c0.2-0.1,0.7-0.2,1.4-0.3c0-0.3-0.1-0.5-0.2-0.7c-0.2-0.2-0.4-0.3-0.7-0.3
		c-0.1,0-0.2,0-0.3,0c-0.1,0-0.2,0.1-0.3,0.1c-0.1,0.2-0.1,0.3-0.2,0.5L161.2,27.7z M163.1,28.3c-0.6,0.1-1,0.3-1.2,0.4
		c-0.2,0.1-0.3,0.3-0.3,0.6c0,0.2,0.1,0.3,0.1,0.4c0.1,0.1,0.2,0.2,0.4,0.2c0.2,0,0.3,0,0.5-0.1c0.2-0.1,0.3-0.2,0.5-0.4l0-0.8
		L163.1,28.3z"/>
	<path class="st0" d="M165.3,27.4v1.4c0,0.4,0,0.6,0,0.7c0,0.1,0.1,0.2,0.1,0.2c0.1,0.1,0.2,0.1,0.3,0.1c0.1,0,0.1,0,0.2,0
		c0.1,0,0.1-0.1,0.2-0.1l0.1,0.1l-0.3,0.4c-0.1,0-0.1,0-0.2,0.1c-0.1,0-0.1,0-0.2,0c-0.2,0-0.3,0-0.4-0.1c-0.1-0.1-0.2-0.1-0.3-0.2
		c-0.1-0.1-0.1-0.2-0.1-0.4l0-0.7v-1.3c-0.2,0-0.4,0-0.5,0v-0.1c0.2-0.1,0.4-0.2,0.5-0.2c0-0.3,0-0.7,0-1.1c0.3-0.1,0.5-0.2,0.6-0.3
		l0.1,0.1c0,0.2,0,0.6-0.1,1.3c0.3,0,0.5,0,0.7,0l0.3,0l0,0.4l-0.1,0l-0.7,0H165.3z"/>
	<path class="st0" d="M167.7,26.8L167.7,26.8c0.1,0.2,0.1,0.4,0.1,0.6c0,0.7,0,1.2,0,1.5c0,0.3,0,0.6,0,0.8c0,0.1,0,0.1,0.1,0.2
		c0,0,0.1,0.1,0.2,0.1l0.2,0v0.2c-0.3,0-0.6,0-0.9,0c-0.3,0-0.5,0-0.8,0v-0.2l0.3,0c0.1,0,0.2,0,0.2-0.1c0,0,0-0.1,0.1-0.3
		c0-0.3,0-0.7,0-1.2c0-0.4,0-0.6,0-0.8c0-0.1,0-0.1-0.1-0.2c0,0-0.1,0-0.2,0h-0.3v-0.2c0.3,0,0.5-0.1,0.6-0.1
		C167.3,26.9,167.5,26.9,167.7,26.8z M167.4,25.3c0.1,0,0.2,0,0.3,0.1c0.1,0.1,0.1,0.2,0.1,0.3s0,0.2-0.1,0.3
		c-0.1,0.1-0.2,0.1-0.3,0.1c-0.1,0-0.2,0-0.3-0.1c-0.1-0.1-0.1-0.2-0.1-0.3s0-0.2,0.1-0.3C167.2,25.3,167.3,25.3,167.4,25.3z"/>
	<path class="st0" d="M168.4,28.5c0-0.3,0.1-0.6,0.2-0.9c0.1-0.3,0.4-0.5,0.6-0.6c0.3-0.1,0.6-0.2,0.9-0.2c0.5,0,0.9,0.1,1.2,0.4
		c0.3,0.3,0.4,0.7,0.4,1.2c0,0.6-0.2,1-0.6,1.4c-0.3,0.3-0.8,0.5-1.2,0.5c-0.5,0-0.8-0.2-1.1-0.5C168.6,29.4,168.4,29,168.4,28.5z
		 M169.1,28.2c0,0.5,0.1,0.9,0.3,1.2c0.2,0.3,0.5,0.5,0.8,0.5c0.3,0,0.5-0.1,0.7-0.3c0.2-0.2,0.3-0.5,0.3-1c0-0.3-0.1-0.6-0.2-0.9
		c-0.1-0.3-0.2-0.4-0.4-0.6c-0.2-0.1-0.4-0.2-0.6-0.2c-0.2,0-0.3,0-0.5,0.1c-0.1,0.1-0.3,0.2-0.3,0.4
		C169.1,27.8,169.1,28,169.1,28.2z"/>
	<path class="st0" d="M173.2,27.5l0.5-0.5c0.1-0.1,0.1-0.1,0.2-0.1c0.2-0.1,0.3-0.1,0.5-0.1c0.2,0,0.5,0.1,0.6,0.2
		c0.2,0.1,0.3,0.2,0.4,0.4c0.1,0.2,0.1,0.4,0.1,0.8l0,1.1c0,0.4,0,0.6,0,0.6c0,0.1,0.1,0.1,0.3,0.1h0.2v0.2c-0.2,0-0.5,0-0.6,0
		c-0.2,0-0.4,0-0.6,0c0-0.4,0.1-1.1,0.1-1.8c0-0.3,0-0.5-0.1-0.7c-0.1-0.1-0.1-0.2-0.3-0.3c-0.1-0.1-0.3-0.1-0.5-0.1
		c-0.2,0-0.4,0.1-0.6,0.2c-0.2,0.1-0.3,0.2-0.3,0.4c0,0.1,0,0.3,0,0.7c0,0.4,0,0.8,0,1.2c0,0.1,0,0.2,0,0.2c0.1,0.1,0.2,0.1,0.3,0.1
		h0.2v0.2c-0.4,0-0.7,0-0.9,0c-0.2,0-0.5,0-0.8,0v-0.2h0.2c0.2,0,0.3,0,0.3-0.1c0-0.1,0-0.6,0-1.4c0-0.4,0-0.7,0-0.9
		c0-0.1,0-0.1-0.1-0.2c0,0-0.1,0-0.3,0H172v-0.2c0.2,0,0.4-0.1,0.5-0.1c0.2,0,0.3-0.1,0.5-0.2c0,0,0,0,0.1,0c0,0,0.1,0,0.1,0.1
		l0,0.1L173.2,27.5z"/>
	<path class="st0" d="M179,29.8c0-0.4,0.1-1,0.1-1.9v-1c0-0.4,0-0.8,0-1.1c0-0.2,0-0.3-0.1-0.3c0,0-0.1-0.1-0.3-0.1l-0.3,0v-0.2
		c0.4,0,0.6,0,0.8,0l0.9,0l0.8,0c0.3,0,0.6,0,0.9,0.1c0.3,0.1,0.6,0.2,0.9,0.4c0.3,0.2,0.5,0.4,0.6,0.7c0.1,0.3,0.2,0.6,0.2,1
		c0,0.8-0.3,1.4-0.8,1.9c-0.5,0.5-1.2,0.8-2.1,0.8l-0.4,0c-0.4,0-0.7,0-0.8,0c-0.2,0-0.4,0-0.7,0V30L179,29.8z M179.7,29.8
		c0.3,0,0.6,0.1,0.8,0.1c0.6,0,1.1-0.2,1.5-0.5c0.4-0.4,0.6-1,0.6-1.8c0-0.7-0.2-1.2-0.5-1.5c-0.4-0.4-0.9-0.5-1.6-0.5
		c-0.2,0-0.5,0-0.9,0.1c0,0.2,0,0.5,0,0.8v2.3C179.7,29,179.7,29.4,179.7,29.8z"/>
	<path class="st0" d="M184.4,28.5c0,0.5,0.1,0.8,0.3,1c0.2,0.2,0.5,0.4,0.9,0.4c0.2,0,0.3,0,0.5-0.1c0.2-0.1,0.3-0.1,0.5-0.2
		l0.1,0.1l-0.1,0.3c-0.2,0.1-0.4,0.2-0.6,0.2c-0.2,0.1-0.4,0.1-0.6,0.1c-0.5,0-0.8-0.1-1.1-0.4c-0.3-0.3-0.4-0.7-0.4-1.2
		c0-0.4,0.1-0.7,0.2-1c0.1-0.2,0.3-0.4,0.6-0.5c0.3-0.2,0.6-0.2,0.8-0.2c0.4,0,0.7,0.1,1,0.4c0.2,0.2,0.4,0.6,0.4,1l0,0.2
		c-0.2,0-0.3,0.1-0.4,0.1c-0.2,0-0.6,0-1,0H184.4z M184.4,28.2c0.4,0,0.8,0,1.2,0c0.2,0,0.3,0,0.5,0V28c0-0.2,0-0.4-0.1-0.6
		c-0.1-0.1-0.1-0.2-0.3-0.3s-0.3-0.1-0.4-0.1c-0.3,0-0.5,0.1-0.6,0.3C184.5,27.5,184.4,27.8,184.4,28.2z"/>
	<path class="st0" d="M188.2,27.5l0.5-0.5c0.1-0.1,0.1-0.1,0.2-0.1c0.2-0.1,0.3-0.1,0.5-0.1c0.2,0,0.5,0.1,0.6,0.2
		c0.2,0.1,0.3,0.2,0.4,0.4c0.1,0.2,0.1,0.4,0.1,0.8l0,1.1c0,0.4,0,0.6,0,0.6c0,0.1,0.1,0.1,0.3,0.1h0.2v0.2c-0.2,0-0.5,0-0.6,0
		c-0.2,0-0.4,0-0.6,0c0-0.4,0.1-1.1,0.1-1.8c0-0.3,0-0.5-0.1-0.7c-0.1-0.1-0.1-0.2-0.3-0.3c-0.1-0.1-0.3-0.1-0.5-0.1
		c-0.2,0-0.4,0.1-0.6,0.2c-0.2,0.1-0.3,0.2-0.3,0.4c0,0.1,0,0.3,0,0.7c0,0.4,0,0.8,0,1.2c0,0.1,0,0.2,0,0.2c0.1,0.1,0.2,0.1,0.3,0.1
		h0.2v0.2c-0.4,0-0.7,0-0.9,0c-0.2,0-0.5,0-0.8,0v-0.2h0.2c0.2,0,0.3,0,0.3-0.1c0-0.1,0-0.6,0-1.4c0-0.4,0-0.7,0-0.9
		c0-0.1,0-0.1-0.1-0.2c0,0-0.1,0-0.3,0h-0.2v-0.2c0.2,0,0.4-0.1,0.5-0.1c0.2,0,0.3-0.1,0.5-0.2c0,0,0,0,0.1,0c0,0,0.1,0,0.1,0.1
		l0,0.1L188.2,27.5z"/>
	<path class="st0" d="M192.1,27.4v1.4c0,0.4,0,0.6,0,0.7c0,0.1,0.1,0.2,0.1,0.2c0.1,0.1,0.2,0.1,0.3,0.1c0.1,0,0.1,0,0.2,0
		c0.1,0,0.1-0.1,0.2-0.1l0.1,0.1l-0.3,0.4c-0.1,0-0.1,0-0.2,0.1c-0.1,0-0.1,0-0.2,0c-0.2,0-0.3,0-0.4-0.1c-0.1-0.1-0.2-0.1-0.3-0.2
		c-0.1-0.1-0.1-0.2-0.1-0.4l0-0.7v-1.3c-0.2,0-0.4,0-0.5,0v-0.1c0.2-0.1,0.4-0.2,0.5-0.2c0-0.3,0-0.7,0-1.1c0.3-0.1,0.5-0.2,0.6-0.3
		l0.1,0.1c0,0.2,0,0.6-0.1,1.3c0.3,0,0.5,0,0.7,0l0.3,0l0,0.4l-0.1,0l-0.7,0H192.1z"/>
	<path class="st0" d="M194.5,26.8L194.5,26.8c0.1,0.2,0.1,0.4,0.1,0.6c0,0.7,0,1.2,0,1.5c0,0.3,0,0.6,0,0.8c0,0.1,0,0.1,0.1,0.2
		c0,0,0.1,0.1,0.2,0.1l0.2,0v0.2c-0.3,0-0.6,0-0.9,0c-0.3,0-0.5,0-0.8,0v-0.2l0.3,0c0.1,0,0.2,0,0.2-0.1c0,0,0-0.1,0.1-0.3
		c0-0.3,0-0.7,0-1.2c0-0.4,0-0.6,0-0.8c0-0.1,0-0.1-0.1-0.2c0,0-0.1,0-0.2,0h-0.3v-0.2c0.3,0,0.5-0.1,0.6-0.1
		C194.1,26.9,194.3,26.9,194.5,26.8z M194.2,25.3c0.1,0,0.2,0,0.3,0.1c0.1,0.1,0.1,0.2,0.1,0.3s0,0.2-0.1,0.3
		c-0.1,0.1-0.2,0.1-0.3,0.1c-0.1,0-0.2,0-0.3-0.1c-0.1-0.1-0.1-0.2-0.1-0.3s0-0.2,0.1-0.3C194,25.3,194.1,25.3,194.2,25.3z"/>
	<path class="st0" d="M195.8,29.1v0.2c0,0.2,0,0.3,0,0.3c0.1,0.1,0.2,0.1,0.4,0.2c0.2,0.1,0.4,0.1,0.5,0.1c0.2,0,0.4-0.1,0.6-0.2
		c0.1-0.1,0.2-0.3,0.2-0.5c0-0.1,0-0.3-0.1-0.3c-0.1-0.1-0.3-0.2-0.5-0.2c-0.5-0.1-0.8-0.2-0.9-0.2c-0.1-0.1-0.3-0.2-0.3-0.3
		c-0.1-0.1-0.1-0.3-0.1-0.4c0-0.3,0.1-0.6,0.3-0.7c0.2-0.2,0.5-0.3,0.9-0.3c0.3,0,0.6,0.1,1,0.2c0,0.2,0,0.4,0,0.8h-0.2
		c0-0.2,0-0.3-0.1-0.4c-0.1-0.1-0.1-0.2-0.3-0.2c-0.1-0.1-0.3-0.1-0.4-0.1c-0.2,0-0.4,0.1-0.5,0.2c-0.1,0.1-0.2,0.2-0.2,0.4
		c0,0.2,0.1,0.3,0.1,0.3c0.1,0.1,0.4,0.2,0.8,0.3c0.3,0.1,0.6,0.1,0.7,0.2c0.1,0.1,0.2,0.1,0.3,0.3c0.1,0.1,0.1,0.3,0.1,0.4
		c0,0.3-0.1,0.6-0.4,0.8s-0.6,0.3-1.1,0.3c-0.3,0-0.6,0-1-0.1c-0.1,0-0.1,0-0.1-0.1l0,0c0,0,0-0.1,0-0.2c0-0.2,0-0.4,0-0.5l0-0.2
		H195.8z"/>
	<path class="st0" d="M199.3,27.4v1.4c0,0.4,0,0.6,0,0.7c0,0.1,0.1,0.2,0.1,0.2c0.1,0.1,0.2,0.1,0.3,0.1c0.1,0,0.1,0,0.2,0
		c0.1,0,0.1-0.1,0.2-0.1l0.1,0.1l-0.3,0.4c-0.1,0-0.1,0-0.2,0.1c-0.1,0-0.1,0-0.2,0c-0.2,0-0.3,0-0.4-0.1c-0.1-0.1-0.2-0.1-0.3-0.2
		c-0.1-0.1-0.1-0.2-0.1-0.4l0-0.7v-1.3c-0.2,0-0.4,0-0.5,0v-0.1c0.2-0.1,0.4-0.2,0.5-0.2c0-0.3,0-0.7,0-1.1c0.3-0.1,0.5-0.2,0.6-0.3
		l0.1,0.1c0,0.2,0,0.6-0.1,1.3c0.3,0,0.5,0,0.7,0l0.3,0l0,0.4l-0.1,0l-0.7,0H199.3z"/>
	<path class="st0" d="M201.8,27.6c0.1-0.1,0.2-0.2,0.3-0.3c0.1-0.2,0.2-0.3,0.4-0.3c0.1-0.1,0.2-0.1,0.4-0.1c0.1,0,0.2,0,0.3,0
		c0,0,0,0,0,0.1l0,0c0,0.2-0.1,0.4-0.1,0.8H203c-0.1-0.1-0.1-0.2-0.2-0.2c-0.1,0-0.2-0.1-0.3-0.1c-0.1,0-0.3,0-0.4,0.1
		c-0.1,0.1-0.2,0.2-0.2,0.4c0,0.2-0.1,0.5-0.1,1c0,0.3,0,0.6,0,0.8c0,0.1,0,0.1,0.1,0.2c0.1,0,0.2,0.1,0.4,0.1h0.2v0.2
		c-0.4,0-0.7,0-1,0c-0.3,0-0.6,0-0.9,0v-0.2l0.3,0c0.1,0,0.2,0,0.2-0.1c0,0,0.1-0.1,0.1-0.3c0-0.3,0-0.7,0-1.2c0-0.6,0-0.9-0.1-1
		c0-0.1-0.1-0.1-0.3-0.1h-0.3v-0.2c0.2,0,0.4-0.1,0.6-0.1c0.2,0,0.3-0.1,0.5-0.2c0,0,0.1,0,0.1,0c0,0,0,0,0.1,0c0,0,0,0,0,0.1
		L201.8,27.6z"/>
	<path class="st0" d="M203.7,32l0.2-0.5h0.1c0.1,0.1,0.1,0.1,0.2,0.2c0.1,0,0.1,0.1,0.2,0.1c0.1,0,0.3-0.1,0.4-0.2
		c0.1-0.1,0.3-0.5,0.5-1.2c-0.1-0.3-0.3-0.8-0.6-1.5l-0.3-0.8l-0.3-0.6c-0.1-0.2-0.2-0.3-0.4-0.3h-0.1v-0.2c0.2,0,0.5,0,0.6,0
		c0.1,0,0.5,0,1,0v0.2h-0.3c-0.1,0-0.2,0-0.2,0c0,0-0.1,0.1-0.1,0.1c0,0,0,0.1,0.1,0.2c0.2,0.6,0.5,1.3,0.8,2.1
		c0.3-0.7,0.6-1.3,0.8-1.9c0.1-0.2,0.1-0.3,0.1-0.3c0-0.1-0.1-0.1-0.2-0.1l-0.3,0v-0.2c0.3,0,0.5,0,0.7,0c0.2,0,0.4,0,0.6,0v0.2
		h-0.1c-0.1,0-0.1,0-0.2,0c-0.1,0-0.1,0.1-0.1,0.1c-0.1,0.1-0.3,0.6-0.6,1.3c-0.1,0.2-0.3,0.8-0.7,1.7c-0.3,0.8-0.5,1.2-0.6,1.3
		c-0.1,0.2-0.2,0.3-0.3,0.4c-0.1,0.1-0.3,0.1-0.5,0.1c-0.1,0-0.1,0-0.2,0C203.8,32.1,203.7,32,203.7,32z"/>
</g>
<g>
	<defs>
		<path id="SVGID_1_" d="M4.8,4.7l0,29.1c0,2.3,1.4,4.2,4.1,4.2L38,38V8.4c0-1.8-1.7-3.6-3.5-3.6H4.8z"/>
	</defs>
	<clipPath id="SVGID_2_">
		<use xlink:href="#SVGID_1_"  style="overflow:visible;"/>
	</clipPath>
	<rect x="-70.3" y="-97.6" class="st1" width="373.6" height="480.9"/>
	<rect x="-70.3" y="-97.6" class="st2" width="373.6" height="480.9"/>
</g>
<path class="st3" d="M36.9,9.4V37L9.6,37c-2.5,0-3.8-1.8-3.8-3.9L5.9,6h27.8C35.3,6,36.9,7.6,36.9,9.4z"/>
<path class="st4" d="M50,7L50,7l0.9,0.1l0.5,0l0.3,0.1l0.1,0.1l-0.1,0.1c0.6,0,1,0,1.1,0.4V7.6L53,7.8H53c0.1,0,0.2,0,0.2,0.1V8h0.1
	v0L53.6,8c0.1,0.1,0.2,0.2,0.2,0.3v0.1c0,0.1,0,0.1,0,0.2l0.1-0.1c0.2,0,0.2,0.1,0.2,0.3v0.1h0l0,0.4c0.1,0,0.1,0.1,0.1,0.1
	c0,0.1-0.1,0.1-0.1,0.3l-0.1-0.1l-0.1,0.3c-0.1,0.4-0.3,0.6-0.8,0.9c0,0,0.1,0.1,0.1,0.1l-0.1,0h0v0l-0.4,0.3h-0.1
	c-0.2,0-0.2,0-0.2,0.2c-0.2,0.1-0.4,0.2-0.4,0.2c-0.1,0-0.1-0.1-0.1-0.2l0.2-0.1l0.1,0l0.1,0l0-0.1H52l0,0c0.1-0.2,0.2-0.3,0.3-0.3
	h0.1l0,0l0.1-0.2h0l0.1-0.1h0c0-0.3,0.2-0.5,0.4-0.7V9.9l0.1,0l0.2-0.5L53,9.2L52.9,9l-0.5-0.4l-0.3-0.3h-0.4l0-0.2l-0.3,0l0-0.1h0
	V7.8c-0.2-0.1-0.4-0.2-0.6-0.2l-0.9-0.2l-0.8,0v0.1l-0.1-0.1l-0.8,0.1l0,0h-0.1c-0.7,0-1,0.1-1.2,0.8l0,0.4l-0.1,0.6v0.2
	c0,0.2,0,0.4,0.1,0.5l0.1,0.2H47l0.4,1.3h0.1l0.1,0.5l0.1,0l0,0.2l0.1-0.1l0.5,1.1h0.1l0.2,0.4l-0.1-0.1l0,0.1l0.2,0.3L49,15
	l0.1,0.2c0.1,0.1,0.2,0.3,0.3,0.4c0,0,0,0.1,0,0.2l0.1,0.3c0.1,0.2,0.2,0.4,0.2,0.6c0,0.1,0,0.2,0,0.3l0,0.1l0.1,0.5h-0.1
	c0.1,0.2,0.1,0.4,0.1,0.5v0.1c0,0.1-0.1,0.2-0.2,0.3L49.4,19h-0.1l-0.3,0.3l-0.3,0.1c-0.3,0.2-0.5,0.2-0.6,0.3l-0.4,0.2l0,0
	c-0.2,0.3-0.4,0.3-0.6,0.3h-0.1l0,0.1l0-0.1H47l0,0.1h-0.3l-0.1,0.1l-0.4-0.1l-0.3,0.1v-0.1h-0.1l0,0l-0.4-0.1h-0.2l0-0.1l-1.3-0.4
	c-0.2,0-0.2-0.1-0.2-0.2l-0.6-0.3l0.1-0.1h-0.1c-0.1,0-0.1,0-0.2-0.1L43,19h-0.1v-0.1c-0.1-0.1-0.1-0.1-0.3-0.1h-0.1l-0.1-0.1l0,0
	l0.1-0.1l-0.2-0.2c0.1,0,0.1,0,0.2,0c0.1,0,0.2-0.1,0.3-0.2c-0.1-0.1-0.2-0.3-0.2-0.4c0-0.1,0-0.2,0.1-0.4h0.1l0.2-0.5V17h-0.1
	c0.1,0,0.1-0.1,0.2-0.1c0-0.1,0-0.1,0-0.2l0,0.2l0.3-0.7h-0.1l0.5-0.4h0.1l0.5-0.6l-0.1,0l0.2-0.1h-0.1l0.1-0.1l0.2-0.1l0.1-0.1
	l0.5-0.3l0,0.1l0.2-0.1c0,0.1-0.1,0.2-0.1,0.2h0l-0.1,0.3l-0.2-0.1l-0.3,0.3h0l0.1,0.1h-0.1v0.1c0,0.1-0.1,0.2-0.2,0.2
	c0,0.1,0,0.2-0.1,0.3h-0.1l-0.4,1.1h0l-0.2,1l0.5,0.6c0.1,0.2,0.2,0.3,0.4,0.3v0.1l0.7,0.3h0c0.4,0.1,0.7,0.2,1.1,0.3h1.3l0,0
	l0.3-0.1l-0.2,0l0.5-0.1h-0.1l0.2-0.1l0,0.1l0.1-0.1v0h0l0.1-0.1v0.1c0.2-0.3,0.3-0.6,0.4-1l-0.1,0l-0.3-0.7l0.1-0.5l-0.1-0.1
	c-0.2-0.1-0.2-0.2-0.2-0.4l-0.1-1l-0.4-0.4v-0.1c-0.1-0.2-0.2-0.3-0.2-0.5l-0.1-0.5l0.1,0.1v-0.1c-0.1-0.1-0.2-0.2-0.2-0.3
	c0-0.1,0-0.2,0-0.3l-0.1,0l0-0.1l-0.2,0.1v-0.1c0-0.2-0.1-0.4-0.2-0.5v-0.1h0l-0.1-0.2l-0.1-0.3L46.6,12l0.1-0.1l0.1-0.1l-0.2,0
	c0.2-0.1,0.3-0.3,0.4-0.4c0-0.1-0.2-0.3-0.6-0.4h-0.1c-0.2-0.2-0.3-0.3-0.3-0.5c0-0.1,0-0.2,0.1-0.4h0V10h0.1L46,9.8h0l0.1-1.1
	l0-0.2l0.1,0.1l0.1-0.2l0-0.1l0.2-0.1l0-0.1l0.2-0.1l-0.1,0.1v0h0.1c0-0.1,0-0.1-0.1-0.2c0,0,0.1-0.1,0.1-0.1h0.1l0.1-0.1l-0.1,0
	c0.2,0,0.3-0.1,0.3-0.2h0l0-0.1h0.1v0.1l0.1-0.1h0l0.1-0.1v0.1l0.2-0.1h-0.1l1-0.2h-0.3L49.3,7L49.7,7l0,0.1H50L50,7z M58.4,7.3
	l0.1,0.1l-0.1,0.3h-0.1l0,0.2h-0.1v0.3L58,8.3v0.4l-0.1,0.1V9L57.8,9l-0.1,0.4l-0.1,0.1v0.2l0,0.1l-0.1-0.1l-0.4,0.7L57,10.6
	l-0.1,0.1l0,0.2L56.7,11h0.1l0,0.2l-0.3-0.1L56,11.5l-0.6,1l-0.1,0.2l-0.1,0l0,0.2h-0.1C55,13,55,13,55,13c0,0,0.1,0.1,0.2,0.1
	l1.1-0.1l0.7,0.1v-0.2l0.3,0.2l0.4-0.1l0.2,0.4L57,13.6l-0.1-0.1l-0.1,0.1L55,13.6l0.1,0.1l-0.4,0l-0.2,0.2h-0.2V14l0.1,0.1
	l-0.2,0.3l0.1,0.1l-0.1,0.4l-0.2,0l-0.1,0.8l-0.3,0.4l-0.2,1.7l0.1,1.1l0.3,0.7l0.3,0l0.2,0v-0.1l0.3,0l0.3-0.1l0.3-0.4l0.2-0.1
	l0.1-0.1h0.1l0-0.1l0.1-0.1v-0.2h0.1l0.1-0.2l0.1-0.1l-0.1-0.1h0.1l0.1-0.1v-0.2l0,0.1l0-0.2l0.1-0.1l0.1,0.1l0-0.2l0.3,0v-0.1
	l0.3,0v0.2l-0.3,0.4L56.6,18v0.1l-0.5,0.3l0,0.1l-0.1,0.2l0.1,0.3H56l-0.1,0l-0.1,0.2h-0.1l0,0.1l-0.3,0.2l-0.3,0.1l-0.1,0l0,0.1
	h-0.1L54.8,20l-0.2,0.1v0.1h-0.5l-0.2,0.1l-0.3-0.1L53,19.9l-0.2-0.3v-0.2l-0.1-0.2v-0.1L52.5,19l-0.1-0.2l0.1,0.1l-0.1-0.3l0.1,0.1
	l0-0.3l0.1-0.5l0.1-0.2l0-0.3l0.1-0.3l0.1-0.1l0-0.2l0.1,0l0-0.2L53,16l0.1-0.3l-0.1-0.1l0.2-0.2l0-0.4l0.1-0.3l0.1-0.1v-0.1l0.1,0
	v-0.2l0.1,0l0.1-0.1l0.1-0.2l0.1-0.3h-1.5l-0.2-0.2l0-0.3l0.2-0.2l0.3-0.1l0.4,0l0.4,0.1l0.4-0.1l0.1,0l0-0.1l0.1,0v-0.1h0.1
	l0.3-0.6l0.3-0.4l0.2-0.6l0.1,0l0.1,0.1l0.1-0.1L55.3,11l0.3-0.4v0.1l-0.1,0.1h0.1v-0.2l0.2-0.3l0-0.1l0.1-0.2l0.2-0.2l0.2-0.4
	l0.3-0.3V8.9l0.1-0.2h0.1l0-0.2l0.2-0.3L57.3,8l0-0.2V7.7h0.2l0-0.3h0.3L58.4,7.3z M59.2,16.7l0,0.3L59,17.3l-0.2,0.3l0,0.3l0,0.2
	v0.2l0.1,0.1l0,0.3l0.1,0v0.2l0.1,0l0.2,0.2l0.6,0.1l0.2-0.1l0.2-0.1h0l0.3-0.1l0.2-0.1h0.2l-0.1-0.1l0.1-0.1l0.2,0l-0.1-0.1h0.1
	l0.1-0.1l0.3-0.3l0.2-0.2l0.2-0.1l0.2-0.2l0.1-0.2l0.1,0l0-0.1l0.1-0.1h0.1l0-0.1l0.1-0.2l0.1-0.1l0.1,0.1l0.1-0.3l0.1-0.1l0.2-0.1
	v-0.1l0.2-0.2l0.1-0.1l0.2-0.2l0.1-0.2l0.2,0.1L64,16l-0.2,0.3l-0.1,0.2l0,0.1h-0.1l0,0.1l-0.2,0.1l-0.1,0.3l-0.3,0.1l0,0.2h0
	l-0.1,0.2l-0.1,0.1l-0.2,0.2L62.1,18l-0.1,0.1l-0.1,0.2l-0.2,0.2l-0.3,0.3L61,19l-0.2,0.2l-0.2,0.1l-0.2,0.2l-0.2,0.1l-0.2,0
	l-0.2,0.1L59.7,20L59.5,20l-0.3,0L59,20l-0.2,0.1L58.7,20l-0.2-0.1l-0.2-0.2v-0.1l-0.1-0.1l-0.1-0.2l0,0l0,0L58,18.9l0.1-0.2l0-0.3
	v-0.1L58,18.1l0.1-0.2l0.1-0.2l0-0.2h0.1l0.1-0.3l0.1-0.1v-0.2l0.1-0.2l0.1-0.3l0.1,0l0-0.3l0.1,0.1l0.1-0.3l0.1-0.2l0.1-0.2
	l0.1-0.2h0l0.1-0.2l0-0.1l0.1-0.1l0-0.1l0.1-0.1l0.1-0.1l0.1-0.3l0.2-0.3l0.1,0.1l-0.1-0.2l0.2-0.1l0-0.1l0.1-0.2l0.2-0.1l0.2-0.1
	l0.3-0.4l0.1-0.1l0.2-0.2l0.2-0.2l0.5-0.3l0.4-0.2l0.3,0v0.1l0.2,0.1l-0.1,0.4l0.1,0.2l-0.1,0.4c0,0,0,0.1,0,0.1
	c0,0.4-0.2,0.4-0.2,0.5l-0.1,0.1l-0.2,0.2l-0.1,0l-0.1,0.2l0,0.2l-0.1,0.1l-0.2,0l0,0.2l-0.4,0.3l-0.6,0.6l-0.3,0.1l-0.1,0l0,0.1
	l-0.3,0.1l-0.2,0.3l-0.2,0l-0.3,0.2l-0.4,0.1H59.2z M61.8,13.1l-0.3,0.2l-0.3,0.2L61,13.8l-0.3,0.1l0,0.2l-0.2,0.2l-0.2,0.3L60.1,15
	l-0.2,0.2v0.1l-0.1,0.1l0,0.1v0.2l-0.2,0.2L59.5,16l-0.1,0.2h0.2l0.3-0.1L60,16l0.3-0.1l0.2-0.3c0,0,0,0,0,0c0,0,0.2,0,0.3-0.1
	l0.2-0.1l0.1,0l0.2-0.3l0.3-0.2l0.2-0.3l0.3-0.3l0.1-0.3l0.2-0.3l0-0.3l-0.1-0.3L62.1,13L61.8,13.1z M65.8,14l-0.2,0.4l-0.3,0.2
	l0.1,0.1l-0.1,0L65,14.8l-0.1-0.3l0.2-0.2l0.1,0v-0.1L65.8,14z M71.8,11.7v0.2L72,12l0.1,0.4L72,12.8l-0.2,0.1l-0.1,0.2l-0.2,0.1
	h0.1v0.1L71.1,14l-0.8,1.3l-0.3,0.2l0,0.2l0.1,0L70,15.9L69.9,16l0,0.1l-0.2,0.2l-0.1,0.2l-0.1,0.1v0.2l-0.2,0.1l0,0.3L69,17.3
	l-0.1,0.3v0.2l-0.1,0.1l0.1,0.1l-0.2,0.1L68.5,18l-0.1,0l-0.1,0.1v0.1h-0.1L68,18.6l-0.1,0.2l-0.3,0.2l-0.1,0.2l-0.2,0.1l-0.5,0.5
	h-0.2l-0.1,0.2l-0.3,0.1l0-0.1l-0.3-0.1v-0.2l0,0l0-0.2l0.1-0.1l-0.1-0.3l0.1-0.4l0.1,0.1L66,18.3l0.1-0.2L66,17.9l0.1-0.2l-0.1-0.2
	l0.2-0.2v-0.2l0.1-0.1l-0.1-0.1l0.1,0l0-0.5l0.1-0.2l0-0.3l0.1-0.2l-0.1-0.1l0-0.2l0.1,0.1v-0.2l0.1-0.3v-0.3l0.1-0.2l0-0.1l0.1-0.1
	l-0.1-0.2l0.1-0.1l-0.2-0.1l-0.2,0.1L66.3,14l-0.5,0.1v-0.2l0.1,0l0,0l0.1-0.2l0.4-0.4h0.2l0.3-0.2h0.1v-0.1l0.2-0.1l0.1,0.1
	l0.1-0.2l0.2-0.1l0.3,0.1L68,13.1l-0.7,2.7v0.5l-0.1,0.2v0.2l-0.1,0.3v0.2l0,0.1l0,0.3h0L67,17.9v0.3l0.1,0.1L67,18.5l0.1,0.3l0.3,0
	l0.1-0.1l0.2-0.2v-0.2l0.1,0.1l0.1-0.2l0.1-0.2l0.2-0.3l0,0.2l0.1-0.2v-0.1l0.1-0.1v-0.1l0.3-0.2l0.1-0.2l0.1,0.2l0-0.3v-0.1
	l0.1-0.1L69,16.3l0.2,0l0-0.3l0.1-0.2l0.2-0.3l0.3-0.2l0.1,0.1l0.1-0.5l0.1-0.1H70l0.1-0.3l0.2-0.1v-0.2l0.2-0.2l0.2-0.5l0.4-0.5
	l0.1-0.3v-0.2l0-0.2l0-0.3l0.2-0.1l0.1-0.2L71.8,11.7z M73.6,16.7l0,0.3l-0.2,0.3l-0.2,0.3l0,0.3l0,0.2v0.2l0,0.1l0,0.3l0.1,0v0.2
	l0.1,0l0.2,0.2l0.6,0.1l0.2-0.1l0.2-0.1h0l0.3-0.1l0.2-0.1h0.2l0-0.1l0.1-0.1l0.2,0l-0.1-0.1h0.1l0.1-0.1L76,18l0.2-0.2l0.3-0.1
	l0.2-0.2l0.1-0.2l0.1,0l0.1-0.1l0.1-0.1h0.1L77,17l0.1-0.2l0.1-0.1l0,0.1l0.1-0.3l0.1-0.1l0.2-0.1v-0.1l0.2-0.2l0.1-0.1l0.2-0.2
	l0.1-0.2l0.1,0.1L78.3,16l-0.2,0.3L78,16.5l-0.1,0.1h-0.1l0,0.1l-0.2,0.1l-0.1,0.3l-0.3,0.1l0,0.2h0L77,17.5l-0.1,0.1l-0.2,0.2
	L76.4,18l-0.1,0.1l-0.1,0.2l-0.2,0.2l-0.3,0.3L75.4,19l-0.2,0.2L75,19.4l-0.1,0.2l-0.2,0.1l-0.2,0l-0.2,0.1L74.1,20L73.8,20l-0.3,0
	l-0.1,0l-0.2,0.1L73.1,20l-0.2-0.1l-0.2-0.2v-0.1l-0.1-0.1l-0.1-0.2l-0.1,0l0.1,0l-0.1-0.3l0.1-0.2l0-0.3v-0.1l-0.1-0.2l0.1-0.2
	l0.1-0.2l0.1-0.2h0.1l0.1-0.3l0.1-0.1v-0.2l0.2-0.2l0.1-0.3l0.1,0l0-0.3l0.1,0.1l0.1-0.3l0.1-0.2l0.1-0.2l0.1-0.2h0.1l0.1-0.2l0-0.1
	l0.1-0.1l0-0.1l0.1-0.1l0.2-0.1l0.1-0.3l0.2-0.3l0.1,0.1l-0.1-0.2l0.2-0.1l0-0.1l0.1-0.2l0.2-0.1l0.2-0.1l0.3-0.4l0.2-0.1l0.2-0.2
	l0.2-0.2l0.5-0.3l0.4-0.2l0.3,0v0.1l0.2,0.1l-0.1,0.4l0.1,0.2l-0.1,0.4c0,0,0.1,0.1,0.1,0.1c0,0.4-0.2,0.4-0.2,0.5l-0.1,0.1
	l-0.1,0.2l-0.1,0l0,0.2l0,0.2l-0.1,0.1l-0.2,0l0,0.2l-0.4,0.3l-0.6,0.6l-0.3,0.1l-0.1,0l0,0.1l-0.3,0.1l-0.2,0.3l-0.1,0l-0.3,0.2
	l-0.4,0.1H73.6z M76.2,13.1l-0.3,0.2l-0.3,0.2l-0.2,0.3l-0.3,0.1l0,0.2l-0.2,0.2l-0.2,0.3L74.5,15l-0.2,0.2v0.1l-0.1,0.1l0,0.1v0.2
	L74,15.8L73.9,16l-0.1,0.2h0.2l0.3-0.1l0.2-0.2l0.3-0.1l0.2-0.3c0,0,0,0,0,0c0,0,0.2,0,0.3-0.1l0.2-0.1l0.1,0l0.2-0.3l0.3-0.2
	l0.2-0.3l0.3-0.3l0.1-0.3l0.2-0.3l0-0.3l-0.1-0.3L76.5,13L76.2,13.1z M82.6,12.6l0,0.3l-0.1,0.1v0.1l-0.2,0.4l0.2,0l-0.2,0.3l0,0.2
	l-0.1,0.1l0,0.1L82,14.3L82,14.7l-0.1,0v0.1l-0.3,0.7l-0.1,0.1L81.3,16L81.3,16l-0.2,0.5l-0.2,0.4l0,0.2l-0.1,0l-0.1,0.3l0,0.2
	l-0.1,0.2l1.1-1v-0.1l0.1,0.1l0.1-0.2l0-0.2l0.1-0.1v-0.1l0.1,0.1v-0.1l0.3-0.2l0.1,0.1l0.1-0.2l-0.1-0.1l0.2-0.2l0.1,0v-0.1
	l0.1,0.1l0.2-0.4l0.2,0V15l0.1-0.1l0.1,0.1l0.1-0.2h0.1l0.1-0.2h-0.1l0.3-0.3l0-0.1h0.2l0.4-0.2l0.1,0.1l0.1-0.1l0.4,0l0.2,0.6
	l-0.4,1.8l-0.1,0.4l0,0.2l-0.1,0.1l0.1-0.1l-0.1,0.7l0.4,0.3l0.6-0.3l0.2-0.2l0.2-0.2l0.1,0.1h0l0,0.2l-0.3,0.3L85.9,18l-0.1,0.2
	l-0.3,0.1l-0.4,0.2h-0.2l-0.1,0.2l-0.1,0L84.5,19l-0.2,0l-0.2,0.1l-0.3-0.3l-0.1-0.3l0-0.4l-0.2-0.1h0.1v-0.5l0.1-0.2l0-0.3l0.2-0.2
	l0.1-0.2l-0.1-0.2l0.1,0.1l0-0.2l0.1-0.2l-0.1-0.2l0.1,0.1l0-0.2L84,15.2l-0.3,0l-0.4,0.4l-0.1,0l-0.2,0.3l-0.1,0l-0.1,0.3l-0.2,0.1
	l-0.8,1.1l-0.3,0.3v0.1l-0.1,0.1l-1,1.2l-0.3,0.3l-0.3,0.1l-0.1,0.3l-0.5,0.2l-0.1-0.2l0.1-0.2l0,0.1l0.3-0.4l-0.1-0.1l0.1-0.2
	l-0.1-0.4l0.1,0.1l0-0.1l-0.1-0.2l0.1-0.1l0.1,0l0-0.3l0.1-0.2l0-0.2l0.1,0.1l0-0.2l0-0.1l0.1-0.4l0,0.1l0.1-0.3h0l0-0.1l0.1-0.2
	l0.1,0l0.1-0.1l0.1-0.2V16h-0.1l0-0.2l0.2,0l-0.1-0.2l0.1,0l-0.1-0.1l0.1,0l0.1-0.2h0l-0.1-0.1l0.2,0l0.1-0.7l0.1,0.1l-0.1-0.2
	l0.1,0l0.1-0.3l0.1-0.2h0l0.2-0.4v-0.2l0.3-0.1v-0.1L82,13l0.1,0l0.1-0.4l0.1,0.1l0.2,0L82.6,12.6z M103.7,7.5l0.5,0.1l0.2,0.2
	l0.2,0l0.1,0.2l0.1,0.1h0.2l0.1,0.3l0.1,0.1l0,0.3l0,0.1h0.1v0.3l0,0.6l0,0.1l0,0.1l0,0.2l-0.2,0.5v0.2h0v0.2l-0.1,0.1l0,0.2
	l-0.1,0.1l-0.1,0.3l-0.1-0.1l-0.2,0.1l-0.1,0.2l-0.3,0.2l-0.3-0.1l-0.1-0.3l0.1-0.3l0.1-0.7l0.2-0.4l0.1-0.3l-0.2-0.2L104,9.7V9.2
	l-0.2-0.3l-0.2-0.2V8.6h-0.2l-0.1-0.2l-0.2-0.2l-0.3-0.1h-0.4l-0.6,0l-0.4,0.2l-0.6,0.4l-1.1,0.6l-0.6,0.5l-0.7,0.7l-0.3,0.3
	l-0.4,0.3l-0.2,0.3l-0.3,0.4l-0.3,0.3l-0.1,0.2l-0.2,0.2l-0.2,0.1l0,0.2l-0.2,0.2l-0.1,0.1l-0.1,0.3L96,13.6l-0.1,0.3l-0.1,0.2
	l-0.2,0.3l-0.2,0.4l0,0.2l-0.2,0.6l-0.1,0.8v0.2L95,16.7l0.1,0.5v0.6l0.2,0.3l0,0.2l0,0l0.1,0.2l0.1,0.2l0.3,0.4l0,0.2l0.1,0.1H96
	l0.2,0.2v0.2l0.2,0.1l0.1,0.2l0.3,0l0.3,0.1l0.2-0.1l0.1,0.1l0.6,0l1.2-0.2l0.4-0.1l0.6-0.4l0.3-0.1l0.5-0.3l0.3-0.1l0.2-0.2
	l0.4-0.2l0.1,0.1l0.1-0.2l0.2-0.1l0.1-0.2l0.2-0.2h0.2l0.1-0.2l0.2-0.1l0,0l0.1-0.2l0.4-0.3l0.1,0l0-0.2h0.1l0.2-0.3l0.3-0.2l0.2,0
	l-0.1,0.3l-0.2,0.2L104,17l-0.1,0.2l-0.2,0.2l-0.2,0.2l-0.2,0.1l-0.4,0.3l-0.2,0.2l-0.4,0.3l-1.3,0.8l-0.2,0.2l-0.5,0.2l-0.8,0.4
	l-1.6,0.5l-0.2-0.1l-0.1,0.1l-0.2-0.1l-0.4,0.1l-0.9-0.1l-0.8-0.3l-0.7-0.5l-0.3-0.4l-0.1-0.3l0-0.3l0.1-0.4l-0.2-0.1l-0.1-0.2
	l0.1-0.3l0.1-0.1v-0.2L94,17.4l0-0.2l0.2-0.3v-0.3l0.1-0.1l0-0.3l0.1-0.2l0.1-0.1l-0.1-0.3l0.1-0.2l0-0.2l0.1-0.2l0.1-0.2l0.1-0.1
	l0-0.2l0.1-0.1l0.1-0.2l0.2-0.3l0-0.1l0.1-0.1l0.1-0.2v-0.1l0.2-0.2l0.2-0.1l0-0.2l0.2-0.3l0.1-0.1l0.3-0.4l0.3-0.2l0.2-0.3l0.3-0.4
	h0.1l0-0.2l0.2-0.3l0.3-0.3l0.3-0.1l0.1-0.1l0.1-0.2l0.2-0.3l0.3-0.2l0.2-0.1l0.3-0.2l0.3-0.2L99.6,9l0.6-0.4l0.6-0.3l0.9-0.4
	l1.1-0.3H103.7z M124.8,8.3L124.5,9l0,0.4l-0.1,0.2l-0.5,0.1h-0.5l-0.3-0.3l0-0.2L123,9l-1.4,0.6L121,9.7l-0.4,0.3l-1.4,0.8
	l-0.9,0.7l-0.4,0.4l-0.2,0l-1.1,1l-0.2,0.1l-0.2,0.2l-0.2,0.1l-0.4,0.4l-0.3,0.2l-0.2,0.3l-0.2,0.2l-0.1,0.1l-0.2,0.2l-0.1,0.2
	l-0.1,0.1l-0.1,0.2l0,0.1h-0.1l0,0.1l-0.5,0.7l-0.7,1.2l-0.1,0.6l0.1,0.9l0.2,0.3l0.1,0.2l0.8,0l1.5-0.5l0.2-0.2l0.2,0l0-0.1
	l0.1,0.1l0-0.1h0.4l-0.1-0.2l0.4-0.2l0.3-0.1l0.2,0l0.1-0.1l0.4-0.2l0,0.1l0.1-0.1h-0.1l0.2-0.1l0.1-0.1l0,0.1l0.1-0.2l0.1,0
	l0.3-0.3l0,0.1l0.4-0.5l0.5-0.3l0.5-0.2h0.1l0-0.2L120,16l0.2-0.3l0.1-0.1h0.2l0.1-0.1l0.2,0l0-0.2h0.1l0.2-0.1l0,0.1v-0.2l0.2-0.1
	l0.1,0l0.2-0.2h-0.1l0.1-0.1h0.3l0.2-0.1h0l0.2-0.4h0.2l0,0.1l0.2-0.5l0.1-0.6l-0.1,0.1l0-0.2l0.2-0.1l0,0.1l0.4-0.4l0-0.1l0.3-0.1
	l0.1,0.1l0-0.2l0.4-0.2l0.2-0.1h0.1l-0.1,0h0.3l0.1,0.2l0,0.2l-0.1,0.1l-0.1,0.5l-0.2,0.3l-0.4,1.2l-0.2,0.4l0,0.1l-0.5,1.6
	l-0.1,0.2l-0.1,0.1l-0.4,1.3l-0.7,1.6l-0.5,0.9l-0.1,0.1l-0.1,0.2l-0.1,0.2l-0.1,0.2h-0.1l-0.2,0.2l-0.3,0.3l0,0.1l-0.5,0.2
	l-0.2,0.2l-0.7,0.4l0,0.1h-0.1c-0.4,0-0.5,0.2-0.7,0.3l-1.2,0.1l-0.2-0.1l0-0.1h-0.2l-0.3-0.2l-0.1-0.3l-0.3-0.2l-0.2-0.6l0.1-0.1
	l-0.2-0.4l0.1-0.3l0.2-0.2l-0.2-0.2l0.1-0.1l0-0.1h0.1l0-0.2l0.2-0.1l0.1-0.2l0.3-0.1l0.2,0l-0.1,0.2l-0.2,0.3l-0.1,0.6l0.1,0.3v0.3
	l0.3,0.4l0,0.1l0.2,0.1l0.3,0.2l0.4,0.1l0.1,0.1l0.1-0.1l0.6,0.1l0.5-0.1l0.3-0.1l0.6-0.3l0.3-0.7l0.1,0l0.1-0.4l0.5-1.1l0.6-1.1
	l0.2-0.8l0.3-1.7l0.2-1.1L122,15l-0.7,0.5l-1.7,1.2l-1.4,1.1l-3.1,1.7l-0.5,0.2l-0.3,0.1l-0.4,0.2L114,20l-0.5,0.1l-0.3,0.1
	l-0.3,0.1l-0.3,0.1l-0.1-0.1l-0.2,0.1l-0.4-0.2l-0.4-0.6l0-0.2l-0.1-0.5l0.1-0.7l0.6-1.1l0.5-0.7l0.2-0.3l0.2-0.2l0.1-0.1l-0.1,0
	l0.1-0.2l0.3-0.2l0.2-0.3l0.2-0.2l0.1-0.1l0.1-0.1l0.1-0.2l0.1,0l0-0.1l0.1-0.2l0.2-0.1l0-0.1l0.4-0.3l0.2-0.3l0.4-0.2h0.1l0.1-0.2
	l0.2-0.1l0-0.1l0.2-0.2l0.1,0.1l0-0.1l0.1-0.1l0.1,0.1l0-0.2l0.1,0.1l0-0.1l0.2-0.2l0.1,0.1l0.4-0.6l0.4-0.2l0.1-0.1l0.1,0.1
	l0.1-0.2l-0.1-0.1l0,0l0.3-0.3l0.3,0l0.2-0.2l0,0.1l0-0.1l0.3-0.2c0.5-0.3,1.4-1.3,3.3-1.7l0.8-0.2l0.2-0.1l0.9-0.2l0.2-0.1l0.3,0.1
	L124.8,8.3z M130,11.8L130,12c0,0.1,0,0.2,0,0.3c0,0.2,0,0.3-0.2,0.4l0,0.1h-0.1l0.1,0.1c0,0.2-0.1,0.3-0.2,0.4v0.1l-0.2,0.1h0.2
	c-0.2,0.3-0.3,0.7-0.3,1c-0.2,0.6-0.4,0.9-0.4,0.9v0c0.1,0,0.1,0.1,0.1,0.1c0.1,0,0.1,0,0.2-0.2h0c0.1-0.3,0.2-0.4,0.5-0.5
	c0-0.2,0.3-0.3,0.7-0.6c0.2-0.4,0.5-0.5,0.9-0.6l0.2,0c0,0.2,0.1,0.4,0.1,0.5c0,0.3-0.1,0.7-0.4,1.1c0,0.3-0.1,0.4-0.4,0.4l-0.2-0.1
	l-0.2-0.6c0-0.1-0.1-0.2-0.2-0.2c0,0-0.1,0.1-0.2,0.1c-0.2,0-0.2,0.1-0.3,0.3l-0.2,0.1l-0.6,0.8v-0.1l-0.1,0.2
	c0,0.2-0.1,0.2-0.2,0.3c0,0,0,0.1,0,0.1c0,0.1,0,0.1-0.1,0.1h0c0,0.4-0.1,0.5-0.5,0.7l-0.3,0.7c0,0.1,0,0.1,0,0.1
	c0,0.2-0.1,0.3-0.4,0.4c0,0.2-0.1,0.4-0.3,0.6c-0.5,0.4-0.7,0.7-0.8,0.7h-0.1c-0.1,0-0.1-0.1-0.1-0.1c0,0,0-0.1,0-0.3l0.2-0.1
	l0.1-0.1l0-0.3l0.1-0.2l0.2-0.1l0.1-0.1c0-0.1-0.1-0.1-0.1-0.2c0,0,0.1-0.2,0.2-0.3l0.1,0.2h0.1l0.1-0.4h-0.1v-0.1l0.1-0.2l0.1,0
	l0-0.2l0.1-0.1l0.1-0.3h-0.1c0.2-0.4,0.4-0.6,0.4-0.8v-0.1c0-0.3,0.1-0.4,0.3-0.5l0.2-0.8l0.2-0.4l0-0.3l0.1-0.3l-0.1-0.3l0.1-1
	L129,12l0.1,0.1c0.2-0.4,0.3-0.6,0.7-0.6c0,0,0.1,0,0.2,0L130,11.8z M133.5,16.7l0,0.3l-0.2,0.3l-0.2,0.3l0,0.3l0,0.2v0.2l0,0.1
	l0,0.3l0.1,0v0.2l0.1,0l0.2,0.2l0.6,0.1l0.2-0.1l0.1-0.1h0l0.3-0.1l0.2-0.1h0.2l0-0.1l0.1-0.1l0.2,0l-0.1-0.1h0.1l0.1-0.1l0.3-0.3
	l0.2-0.2l0.3-0.1l0.1-0.2l0.1-0.2l0.1,0l0-0.1l0.1-0.1h0.1l-0.1-0.1l0.1-0.2l0.1-0.1l0.1,0.1l0.1-0.3l0.1-0.1l0.2-0.1v-0.1l0.2-0.2
	l0.1-0.1l0.1-0.2l0.1-0.2l0.2,0.1l-0.1,0.3l-0.2,0.3l-0.1,0.2l-0.1,0.1h-0.1l0,0.1l-0.2,0.1l-0.1,0.3l-0.3,0.1l0,0.2h0l-0.1,0.2
	l-0.1,0.1l-0.2,0.2l-0.2,0.2l-0.1,0.1l-0.1,0.2l-0.2,0.2l-0.3,0.3l-0.3,0.2l-0.2,0.2l-0.2,0.1l-0.1,0.2l-0.2,0.1l-0.2,0l-0.2,0.1
	L134,20l-0.3,0.1l-0.3,0l-0.1,0l-0.2,0.1L133,20l-0.2-0.1l-0.2-0.2v-0.1l-0.1-0.1l-0.1-0.2l0,0l0,0l-0.1-0.3l0.1-0.2l0-0.3v-0.1
	l-0.1-0.2l0.1-0.2l0.1-0.2l0-0.2h0.1l0.1-0.3l0.1-0.1v-0.2l0.2-0.2l0.1-0.3l0.1,0l0-0.3l0.1,0.1l0.1-0.3l0.1-0.2l0.1-0.2l0.1-0.2
	h0.1l0.1-0.2l0-0.1l0.1-0.1l0-0.1l0.1-0.1l0.1-0.1l0.1-0.3l0.2-0.3l0.1,0.1l0-0.2l0.2-0.1l0-0.1l0.1-0.2l0.2-0.1l0.2-0.1l0.3-0.4
	l0.2-0.1l0.2-0.2l0.2-0.2l0.5-0.3L137,12l0.3,0v0.1l0.2,0.1l-0.1,0.4l0.1,0.2l-0.1,0.4c0,0,0.1,0.1,0.1,0.1c0,0.4-0.2,0.4-0.2,0.5
	l-0.1,0.1l-0.1,0.2l-0.1,0l-0.1,0.2l0,0.2l-0.1,0.1l-0.1,0l0,0.2l-0.4,0.3l-0.6,0.6l-0.3,0.1l-0.1,0l0,0.1l-0.3,0.1l-0.2,0.3l-0.2,0
	l-0.3,0.2l-0.4,0.1H133.5z M136.1,13.1l-0.3,0.2l-0.3,0.2l-0.2,0.3l-0.3,0.1l0,0.2l-0.2,0.2l-0.2,0.3l-0.2,0.4l-0.2,0.2v0.1
	l-0.1,0.1l0,0.1v0.2l-0.2,0.2l-0.1,0.2l-0.1,0.2h0.2l0.3-0.1l0.2-0.2l0.3-0.1l0.2-0.3c0,0,0,0.1,0,0.1c0,0,0.2,0,0.3-0.1l0.2-0.1
	l0.1,0l0.2-0.3l0.3-0.2l0.2-0.3l0.3-0.3l0.1-0.3l0.2-0.3l0-0.3l-0.1-0.3l-0.2-0.1L136.1,13.1z M140.2,16.7l0,0.3l-0.2,0.3l-0.2,0.3
	l0,0.3l0,0.2v0.2l0.1,0.1l0,0.3l0.1,0v0.2l0.1,0l0.2,0.2l0.6,0.1l0.1-0.1l0.1-0.1h0l0.3-0.1l0.2-0.1h0.2l-0.1-0.1l0.1-0.1l0.2,0
	l-0.1-0.1h0.1l0.1-0.1l0.3-0.3l0.2-0.2l0.3-0.1l0.2-0.2l0.1-0.2l0.1,0l0.1-0.1l0.1-0.1h0.1l0-0.1l0.1-0.2l0.1-0.1l0,0.1l0.1-0.3
	l0.1-0.1l0.1-0.1v-0.1l0.2-0.2l0.1-0.1l0.2-0.2l0.1-0.2l0.2,0.1L145,16l-0.2,0.3l-0.1,0.2l0,0.1h-0.1l0,0.1l-0.2,0.1l-0.1,0.3
	l-0.3,0.1l0,0.2h0l-0.1,0.2l-0.1,0.1l-0.2,0.2l-0.3,0.2l-0.1,0.1l-0.1,0.2l-0.2,0.2l-0.3,0.3L142,19l-0.2,0.2l-0.2,0.1l-0.2,0.2
	l-0.2,0.1l-0.2,0l-0.2,0.1l-0.2,0.1l-0.3,0.1l-0.3,0l-0.1,0l-0.2,0.1l-0.1-0.1l-0.2-0.1l-0.2-0.2v-0.1l-0.1-0.1l-0.1-0.2l-0.1,0
	l0.1,0l-0.1-0.3l0.1-0.2l0-0.3v-0.1l-0.1-0.2l0.1-0.2l0.1-0.2l0-0.2h0.1l0-0.3l0.1-0.1v-0.2l0.2-0.2l0.1-0.3l0.1,0l0-0.3l0.1,0.1
	l0.1-0.3l0.1-0.2l0.1-0.2l0.1-0.2h0l0.1-0.2l0-0.1l0.1-0.1l0-0.1l0.1-0.1l0.2-0.1l0.1-0.3l0.1-0.3l0.1,0.1l0-0.2l0.2-0.1l0-0.1
	l0.1-0.2l0.2-0.1l0.2-0.1l0.3-0.4l0.2-0.1l0.2-0.2l0.2-0.2l0.5-0.3l0.4-0.2l0.3,0v0.1l0.2,0.1l-0.1,0.4l0.1,0.2l-0.1,0.4
	c0,0,0.1,0.1,0.1,0.1c0,0.4-0.2,0.4-0.2,0.5l-0.1,0.1l-0.2,0.2l-0.1,0l-0.1,0.2l0,0.2l-0.1,0.1l-0.1,0l0,0.2l-0.4,0.3l-0.6,0.6
	l-0.3,0.1l-0.1,0l0,0.1l-0.3,0.1l-0.2,0.3l-0.2,0l-0.3,0.2l-0.4,0.1H140.2z M142.8,13.1l-0.3,0.2l-0.3,0.2l-0.2,0.3l-0.3,0.1l0,0.2
	l-0.2,0.2l-0.2,0.3l-0.2,0.4l-0.2,0.2v0.1l-0.1,0.1l0,0.1v0.2l-0.2,0.2l-0.1,0.2l-0.1,0.2h0.2l0.3-0.1l0.2-0.2l0.3-0.1l0.2-0.3
	c0,0,0,0.1,0,0.1c0,0,0.2,0,0.3-0.1l0.2-0.1l0.1,0l0.2-0.3l0.3-0.2l0.2-0.3l0.3-0.3l0.1-0.3l0.2-0.3l0-0.3l-0.1-0.3l-0.2-0.1
	L142.8,13.1z M149.2,12.6l0,0.3l-0.1,0.1v0.1l-0.2,0.4l0.1,0l-0.2,0.3l0,0.2l-0.1,0.1l0.1,0.1l-0.2,0.1l-0.1,0.4l-0.1,0v0.1
	l-0.3,0.7l-0.1,0.1L148,16l-0.1,0.1l-0.2,0.5l-0.2,0.4l0,0.2l-0.1,0l-0.1,0.3l0,0.2l-0.1,0.2l1.1-1v-0.1l0.1,0.1l0.1-0.2l0-0.2
	l0.1-0.1v-0.1l0.1,0.1v-0.1L149,16l0,0.1l0.1-0.2l-0.1-0.1l0.2-0.2l0.1,0v-0.1l0.1,0.1l0.2-0.4l0.2,0V15l0.1-0.1l0.1,0.1l0.1-0.2
	h0.1l0.1-0.2h-0.1l0.3-0.3l0-0.1h0.2l0.4-0.2l0.1,0.1l0.1-0.1l0.4,0l0.2,0.6l-0.4,1.8l-0.1,0.4l0,0.2l-0.1,0.1l0.1-0.1l-0.1,0.7
	l0.4,0.3l0.6-0.3l0.2-0.2l0.2-0.2l0.1,0.1h0.1l0,0.2l-0.3,0.3l-0.2,0.1l-0.1,0.2l-0.3,0.1l-0.4,0.2h-0.1l-0.1,0.2l-0.1,0l-0.2,0.3
	l-0.2,0l-0.2,0.1l-0.3-0.3l-0.1-0.3l0-0.4l-0.2-0.1h0.1v-0.5l0.2-0.2l-0.1-0.3l0.2-0.2l0.1-0.2l-0.1-0.2l0.2,0.1l0-0.2l0.1-0.2
	l-0.1-0.2l0.1,0.1l0-0.2l-0.2-0.4l-0.3,0l-0.4,0.4l-0.1,0l-0.2,0.3l-0.1,0l-0.1,0.3l-0.2,0.1l-0.8,1.1l-0.3,0.3v0.1l-0.2,0.1l-1,1.2
	l-0.3,0.3l-0.3,0.1l-0.1,0.3l-0.5,0.2l-0.1-0.2l0.1-0.2l0,0.1l0.3-0.4l-0.1-0.1l0.1-0.2l-0.1-0.4l0.1,0.1l0-0.1l-0.1-0.2l0.1-0.1
	l0.1,0l0-0.3l0.1-0.2l0-0.2l0.1,0.1l0-0.2l0-0.1l0.1-0.4l0,0.1l0.1-0.3h0l-0.1-0.1l0.1-0.2l0,0l0.1-0.1l0-0.2V16h-0.1l0.1-0.2l0.2,0
	l-0.1-0.2l0.1,0l-0.1-0.1l0.1,0l0.1-0.2h0l-0.1-0.1l0.2,0l0.1-0.7l0.1,0.1l-0.1-0.2l0.1,0L148,14l0.1-0.2h0l0.2-0.4v-0.2l0.3-0.1
	v-0.1l0.1-0.1l0.1,0l0.1-0.4l0.1,0.1l0.1,0L149.2,12.6z M158.2,11.6v0.1l0.1,0l-0.1,0.1l-0.1,0.5H158l0,0.5l-0.4,0.9l0,0.2l-0.2,0.3
	v0.1h0l-0.1,0.2l0,0.3l-0.1,0.1l-0.2,0.6l-0.2,0.5l-0.1,0.1h-0.1v0.3l-0.3,0.5l0.1,0.1l0.1-0.1h0.1l-0.1-0.1l0.1-0.1l0.1-0.1
	l0.1-0.2l0.2,0l0-0.1l-0.1,0l0.3-0.5l0.1-0.1l0-0.2h0.1l0.4-0.5h0.1v-0.2h0.2l0.1-0.1v-0.1l0.1,0v-0.2l0.2-0.1v0.1l0.1-0.2l0.6-0.4
	V14l0.2-0.1l0.2,0.1l-0.1-0.1l0.2-0.1l0,0.1v-0.1h0.4l0.1,0.2l-0.1,0l0.1,0.2v0.2l-0.1,0.2l0,0.1l-0.2,0.6l-0.1,0.1l0,0.2l-0.1,0.3
	V16l-0.1-0.1v0.2h-0.1l0,0.1l-0.1,0l-0.1,0.5l-0.1,0.2l-0.2,0.5h0.2l0-0.1l0.1-0.1l0.1,0.1l0-0.2l0.2-0.1l0.5-0.5l0.1-0.2h0.1
	l0.1-0.1l-0.1-0.1h0.2l-0.1-0.1l0.1-0.1l0.1,0.1l0.1-0.2l0.3-0.2l0.4-0.3l0.1,0l0.1-0.1l0.2,0.1v1.1l-0.1,0.3l0.1,0.1l-0.1,0
	l0.1,0.1l0,0l0.1,0.5l0,0.1l0,0.1l0.3,0.2l0.3-0.2l0.4,0l-0.1,0l0.3-0.1l0,0.1l0.1-0.2l0.1-0.1v0.1l0.1-0.2l0.2,0l0,0.3l-0.4,0.3
	l-0.6,0.3l-0.2,0.2h-0.1l-0.1,0.2l-0.1,0l-0.1,0.2l-0.4,0.1l0,0.1l-0.4,0h-0.3l-0.1-0.1l-0.1-0.2l0,0l0-0.4L161,18v-0.2l0,0h-0.1
	l0.1-0.1l-0.1-0.3L161,17H161l0.1-0.1l-0.1-0.1l0-0.3l-0.3,0.1l0,0.1l-0.3,0.2l-0.1,0.2l-0.8,1l-0.2,0.1l0,0.1h-0.1l-0.3,0.3h-0.1
	l-0.1,0.2l-0.2,0.1l-0.1,0.2l-0.4,0.1l-0.1-0.2l0.1-0.2l-0.1,0v-0.2l0.1,0.1l0.1-0.2l0-0.2h0.1l0.1-0.2v-0.1h0.1v-0.4l0.2-0.3l0-0.2
	l0.1,0l0.1,0v-0.1l0.3-0.7l0-0.2h0.1l0.1-0.6l0.1-0.1h-0.1l0-0.1v-0.2l0.1-0.1l-0.1-0.1v-0.2h-0.4l0,0.2l-0.3,0.2l-0.1,0.2l-0.2,0.1
	l-0.1,0.2l-0.1,0.1l-0.2,0.3l-0.1,0.1l-0.1,0.3l-0.1,0.1l0,0l-0.2,0.1l-0.1,0.3H157l0,0.2l-0.2,0.1v0.1l-0.1,0.1l-0.1,0.1l-0.1,0.1
	l-0.2,0.4l-0.1,0.1h0l0,0.2l0-0.1l-0.3,0.4l-0.1,0.2h0l-0.2,0.4l-0.7,0.5l-0.1,0.1l-0.2,0v-0.2l0.1-0.1l0-0.2l0.1-0.1l0.1-0.2
	l0.1-0.1v-0.1l0.1-0.4h0l0.1-0.3l0.1-0.3l0.2-0.2l0.1-0.4l0.2-0.3v-0.2l0.1-0.1l-0.1-0.1l0.1,0l0.1-0.2l0.1,0.1l0.1-0.3l0.3-0.5
	l0.1-0.3l0.4-0.8v-0.1h-0.1l0.2-0.4v-0.2l0.1-0.1v-0.2l0.1,0.1v-0.2l0.1-0.1V13l0.1,0v-0.2l-0.1,0.1l0.1-0.3l0.1,0.1l-0.1-0.2
	l0.1-0.2l0.1-0.2h0.1l0.3-0.4l-0.1,0l0.3-0.1L158.2,11.6z M168.6,17.6l-0.2,0.2l-0.2,0.3c-0.2,0.1-0.3,0.2-0.3,0.3l-0.4,0.4
	l-0.8,0.7c-0.1,0.1-0.2,0.2-0.3,0.2c-0.2,0.1-0.4,0.1-0.5,0.2c-0.1,0.1-0.2,0.2-0.3,0.2h0c-0.2,0-0.4,0.1-0.4,0.1
	c-0.1,0-0.2,0-0.4-0.2l0-0.2v-0.2l0.1-0.2l0-0.2c0.1-0.3,0.2-0.6,0.4-0.9l0.1-0.1l0.1-0.2l0.2-0.2l0.1-0.1c0.2-0.2,0.4-0.3,0.4-0.6
	l0.2-0.1l0-0.2l0.3-0.4c0.2-0.1,0.2-0.2,0.3-0.4l0.1,0l0.1-0.1l0.3-0.1l0.1-0.2c0.1,0,0.2-0.1,0.2-0.2l0.4-0.3l0.2-0.2l0.2-0.2
	l0.3-0.2c0.2-0.1,0.3-0.3,0.4-0.4l0.2-0.1l0.2-0.2c0.2-0.1,0.3-0.2,0.6-0.3l0.3-0.1l0.2-0.1l0-0.2l0.1-0.2h0.1
	c0.1,0,0.1-0.1,0.1-0.2c0,0,0-0.1,0-0.1l0.1,0l0.1-0.1l0-0.1h0.1l0-0.1l0.3-0.1c0.2-0.1,0.4-0.1,0.6-0.1c0.1,0,0.1,0,0.1,0.1
	c0,0.1-0.1,0.3-0.1,0.4c-0.1,0.1-0.1,0.3-0.1,0.4c0,0.1,0,0.1,0,0.1h-0.1l-0.2,0.6c0,0.4-0.2,0.9-0.4,1.4l0,0.4l-0.1,0.1
	c0,0.1-0.1,0.1-0.1,0.2c0,0.2,0.1,0.3,0.1,0.4c0,0.1,0,0.1,0,0.2c0,0,0,0.1,0,0.1c0,0.1-0.1,0.2-0.2,0.3v0.6l-0.1,0.1
	c0.1,0.1,0.1,0.1,0.1,0.2c0,0,0,0.1,0,0.3v0.2c0,0.5,0.1,0.8,0.3,0.8c0.3,0,0.5-0.4,1-0.7l0.2-0.2l0.1-0.1l0.1,0
	c0,0.2-0.1,0.4-0.3,0.5c-0.4,0.4-0.7,0.6-0.8,0.6l-0.2,0.1l-0.3,0.1l-0.3,0.2l-0.2,0l-0.1,0.1h-0.2l-0.2-0.1l-0.2-0.2l-0.2-0.2
	l0-0.3l0.1-0.3l0.1-0.5l0.1-0.3l0-0.5l0.1,0c0-0.1,0-0.1,0-0.2c0.1-0.2,0.1-0.3,0.2-0.4l-0.1-0.2l0.1-0.2l0-0.2l0.1-0.4l0.1-0.4
	l0.1-0.5c-0.1,0.2-0.3,0.4-0.4,0.5l-0.1,0.2c-0.1,0.1-0.1,0.2-0.2,0.5l-0.1,0.2l-0.1,0.2l-0.1,0.1l-0.1,0.1L169,17V17
	c0,0.1,0,0.1-0.1,0.2l-0.2,0.2l0,0.1L168.6,17.6z M166.7,17.1l-0.2,0.3l0,0c-0.5,0.4-0.7,1-0.7,1.4c0,0.2,0,0.3,0.2,0.3
	c0.1,0,0.3-0.1,0.5-0.3c0,0,0,0,0,0c0,0,0.1-0.1,0.1-0.1l0.2-0.1c0.1-0.1,0.3-0.2,0.4-0.2l0.3-0.3c0,0,0.1-0.1,0.2-0.2
	c0,0,0-0.1,0-0.1c0-0.1,0.1-0.2,0.3-0.2c0.1-0.1,0.3-0.3,0.4-0.4l0.1-0.2l0.1-0.2l0.3-0.3l0.1-0.2c0.1,0,0.3-0.3,0.5-0.7l0.1-0.3
	l0-0.2l0.1-0.2l0.2-0.2v-0.1c0-0.1,0-0.1,0.1-0.2c0-0.1,0-0.1,0.1-0.2l-0.1,0l-0.4,0.1l-0.5,0.3l-0.5,0.4l-0.6,0.5l-0.3,0.3
	l-0.2,0.3c-0.1,0.1-0.2,0.1-0.4,0.2l-0.2,0.2l-0.2,0.3l-0.1,0.2L166.7,17.1L166.7,17.1z M177.4,12.6l0,0.3l-0.1,0.1v0.1l-0.2,0.4
	l0.1,0l-0.2,0.3l0,0.2l-0.1,0.1l0,0.1l-0.1,0.1l-0.1,0.4l-0.1,0v0.1l-0.3,0.7l-0.1,0.1l-0.1,0.3l-0.1,0.1l-0.2,0.5l-0.2,0.4l0,0.2
	l-0.1,0l-0.1,0.3l0,0.2l-0.1,0.2l1.1-1v-0.1l0.1,0.1l0.1-0.2l0-0.2l0.1-0.1v-0.1l0.1,0.1v-0.1l0.2-0.2l0.1,0.1l0.1-0.2l-0.1-0.1
	l0.2-0.2l0.1,0v-0.1l0.1,0.1l0.2-0.4l0.2,0V15l0.1-0.1l0.1,0.1l0.1-0.2h0.1l0.1-0.2h-0.1l0.3-0.3l0-0.1h0.2l0.4-0.2l0.1,0.1l0.1-0.1
	l0.4,0l0.2,0.6l-0.4,1.8l-0.1,0.4l0,0.2l0,0.1l0.1-0.1l-0.1,0.7L180,18l0.6-0.3l0.2-0.2l0.2-0.2l0.1,0.1h0l0,0.2l-0.3,0.3l-0.2,0.1
	l-0.1,0.2l-0.3,0.1l-0.4,0.2h-0.2l-0.1,0.2l-0.1,0l-0.2,0.3l-0.2,0l-0.2,0.1l-0.3-0.3l-0.1-0.3l0-0.4l-0.2-0.1h0.1v-0.5l0.2-0.2
	l0-0.3l0.1-0.2l0.1-0.2l-0.1-0.2l0.1,0.1l0-0.2L179,16l-0.1-0.2l0.1,0.1l0-0.2l-0.2-0.4l-0.3,0l-0.4,0.4l-0.1,0l-0.2,0.3l-0.1,0
	l-0.1,0.3l-0.2,0.1l-0.8,1.1l-0.3,0.3v0.1l-0.2,0.1l-1,1.2l-0.3,0.3l-0.3,0.1l-0.1,0.3l-0.5,0.2l-0.1-0.2l0.1-0.2l0,0.1l0.3-0.4
	l0-0.1l0.1-0.2l-0.1-0.4l0.1,0.1l0-0.1l-0.1-0.2l0.1-0.1l0.1,0l0-0.3l0.1-0.2l0-0.2l0.1,0.1l0-0.2l0.1-0.1l0.1-0.4l0,0.1l0.1-0.3h0
	l-0.1-0.1l0.1-0.2l0,0l0.1-0.1l0-0.2V16h-0.1l0.1-0.2l0.2,0l-0.1-0.2l0.1,0l-0.1-0.1l0.1,0l0.1-0.2h0l-0.1-0.1l0.1,0l0.1-0.7
	l0.1,0.1l-0.1-0.2l0.1,0l0.1-0.3l0.1-0.2h0l0.2-0.4v-0.2l0.3-0.1v-0.1l0.1-0.1l0.1,0l0.1-0.4l0.1,0.1l0.2,0L177.4,12.6z M190.4,11.2
	L190.4,11.2L190.4,11.2l0.1,0.1l0.2-0.1l0.3,0l0.3,0.1l0,0.1l0.2-0.1l0.3,0.1l0,0.1l0.1,0l0,0.2l0.2,0.1v0.1l0,0v0l0.2,0.1l0.2,0.3
	l-0.1,0.1l0.1,0.1l0,0.1l0.1,0.1l0.1-0.2l0.2,0l0.1,0.2V13l0,0.2l0.1,0.1l0-0.1l0.1-0.1l0.2,0.2l0,0.1l0.1,0l0.2,0.3l0.1,0.2
	l0.2,0.3l0.3,0.8l0.2,0.3l0.2,0.4l0,0.2l0.2,0.7l0,0.2l0,0.1l0.1,0.2l0,0.2l-0.1,0.2l0,0.1l-0.1,0.2l0,0.1l-0.1,0.1l0,0l-0.2,0.3
	l-0.2,0.2l0,0l-0.1,0.1h0l-0.2,0.2l-0.3,0.1l-0.4,0.2l-0.8,0.3h-0.3l-0.1,0.1l-1.3,0l-1.2-0.2l-0.1,0.1l0-0.1l-0.1,0l0-0.2l0.1-0.1
	l0.1-0.2l0.4-0.2l0.5-0.1h0.2l0.2-0.1l0.8-0.2v0l1-0.2l0.5,0l0.4,0.1l0.1,0.2L194,18l0.1-0.2v-0.1l0,0l-0.1-0.5l0-0.1l-0.1-0.1
	l0.1-0.1l0-0.1l0-0.1h0.1v-0.1l0-0.1l0-0.1l-0.2,0l0-0.4l-0.1-0.4l0-0.3l-0.1,0l-0.1-0.2h-0.1l-0.1-0.2l0-0.3l-0.1-0.1l-0.1,0v-0.1
	l-0.2,0l-0.1-0.2l-0.1-0.2l0-0.2l-0.1,0l-0.1-0.2l-0.1-0.2h-0.1l-0.2-0.2l-0.1-0.1l-0.2-0.1v-0.1l-0.1,0l-0.1-0.1l-0.2-0.1l-0.3-0.3
	l0-0.1l-0.1,0l0,0.1l-0.2-0.1l-0.1-0.1l-0.2-0.1H191l-0.2-0.2h-0.1l-0.1-0.1l-0.3-0.1l-0.9,0.1l-0.2,0.1l0.1,0h-0.2l-0.1,0.1
	l-0.2,0.1l-0.2,0.1l-0.1,0.3l-0.1,0.1l-0.1,0.4l-0.1,0.1l0,0l0,0.1l-0.1,0.1l-0.1,0.3l-0.1-0.1v-1l0.1-0.2v0l0.1-0.2l0.2-0.1
	l0.1-0.1l0-0.1l0.1-0.1l0.1,0l0.2-0.1l0.5-0.2l0.2,0l0.5-0.1H190.4z M191.7,13l0,0.2l-0.4,0.9l-0.4,0.7h-0.1l0,0.1h-0.1l0,0.3
	l-0.2,0.1l-0.5,0.8l-0.1,0.3l-0.1,0.2l0,0l-0.1,0.1l0,0.1h-0.1v0.1l-0.1,0.1l0,0.1l-0.1,0.1l-0.1,0.4l-0.2,0.2h0l-0.1,0.5l-0.4,0.7
	l-0.3,1l-0.1,0.1l-0.1-0.1l0-0.2l-0.1-0.1l0.1,0l0-0.2l0,0l-0.1-0.2l0.1-0.1l0-0.2v-0.3l0.1,0v-0.1l0.1-0.1v-0.1l0.1-0.1l0-0.1
	l0.1-0.2l0-0.1h-0.1l0.2-0.2l0-0.2l0.1-0.2l0-0.1l0,0l0-0.1l0,0.1l0-0.1l0,0.1l0.1-0.2l-0.1,0l0.1,0V17h0.1l0-0.1l0.1-0.1l0.1-0.3
	l0.1,0l0.3-0.5l0,0l0.1-0.1l0,0.1l0.2-0.4l0.1-0.2l0.1,0.1v-0.2l0-0.1V15l0,0.1l0.1-0.2l0.1-0.4v-0.1l0,0l0.1-0.3l0.2-0.3v-0.2h0.1
	l-0.1-0.1l0.1-0.1l0.2,0l0,0l0.1-0.1l0.1,0l0.1-0.2L191.7,13z M192.9,18.3l-1.1,0.2l-1,0.3l0,0.1l0.7,0.1h1l0,0l0.7-0.1l0.1-0.1
	l0.2-0.1l0.1-0.1l0.1-0.2l-0.1-0.1l-0.5,0L192.9,18.3z M199.4,11.2L199.4,11.2L199.4,11.2l0.1,0.1l0.2-0.1l0.3,0l0.3,0.1l0,0.1
	l0.2-0.1l0.3,0.1l0,0.1l0.1,0l0,0.2l0.2,0.1v0.1l0,0v0l0.2,0.1l0.2,0.3l-0.1,0.1l0.1,0.1l0,0.1l0.1,0.1l0.1-0.2l0.2,0l0.1,0.2V13
	l0,0.2l0.1,0.1l0-0.1l0.1-0.1l0.2,0.2l0,0.1l0.1,0l0.1,0.3l0.1,0.2l0.2,0.3l0.3,0.8l0.2,0.3l0.2,0.4l0,0.2l0.2,0.7l0,0.2l0,0.1
	l0.1,0.2l0,0.2l-0.1,0.2l0,0.1l-0.1,0.2l0,0.1l-0.1,0.1l0,0l-0.2,0.3l-0.2,0.2l0,0l-0.1,0.1h0l-0.2,0.2l-0.3,0.1l-0.4,0.2l-0.8,0.3
	h-0.3l-0.1,0.1l-1.3,0l-1.2-0.2l-0.1,0.1l0-0.1l-0.1,0l0-0.2l0.1-0.1l0.1-0.2l0.4-0.2l0.5-0.1h0.2l0.2-0.1l0.8-0.2v0l1-0.2l0.5,0
	l0.4,0.1l0.1,0.2L203,18l0.1-0.2v-0.1l0,0l-0.1-0.5l0-0.1l-0.1-0.1l0.1-0.1l0-0.1l0-0.1h0.1v-0.1l0-0.1l0-0.1l-0.2,0l0-0.4l-0.1-0.4
	l0-0.3l-0.1,0l-0.1-0.2h-0.1l-0.1-0.2l0-0.3l-0.1-0.1l-0.1,0v-0.1l-0.2,0l-0.1-0.2l-0.1-0.2l0-0.2l-0.1,0l-0.2-0.2l-0.1-0.2h-0.1
	l-0.1-0.2l-0.1-0.1l-0.2-0.1v-0.1l-0.1,0l-0.1-0.1l-0.2-0.1l-0.3-0.3l0-0.1l-0.1,0l0,0.1l-0.2-0.1l-0.1-0.1l-0.1-0.1H200l-0.2-0.2
	h-0.2l-0.1-0.1l-0.3-0.1l-0.9,0.1l-0.2,0.1l0.1,0H198l-0.1,0.1l-0.2,0.1l-0.2,0.1l-0.1,0.3l-0.1,0.1l-0.1,0.4l-0.1,0.1l0,0l0,0.1
	l-0.1,0.1l-0.1,0.3l-0.1-0.1v-1l0.1-0.2v0l0.1-0.2l0.2-0.1l0.1-0.1l0-0.1l0.1-0.1l0.1,0l0.2-0.1l0.5-0.2l0.2,0l0.5-0.1H199.4z
	 M200.7,13l0,0.2l-0.4,0.9l-0.4,0.7h-0.1l0,0.1h-0.1l0,0.3l-0.2,0.1l-0.5,0.8l-0.1,0.3l-0.1,0.2l0,0l-0.1,0.1l0,0.1h-0.1v0.1
	l-0.1,0.1l0,0.1l-0.1,0.1l-0.1,0.4l-0.2,0.2h0l-0.2,0.5l-0.4,0.7l-0.3,1l-0.1,0.1l-0.1-0.1l0-0.2l-0.1-0.1l0.1,0l0-0.2l0,0l-0.1-0.2
	l0.1-0.1l0-0.2v-0.3l0.1,0v-0.1l0.1-0.1v-0.1l0.1-0.1l0-0.1l0.1-0.2l0-0.1h-0.1l0.2-0.2l0-0.2l0.1-0.2l0-0.1l0,0l0-0.1l0,0.1l0-0.1
	l0,0.1l0.1-0.2l-0.1,0l0.1,0V17h0.1l0-0.1l0.1-0.1l0.1-0.3l0.1,0l0.3-0.5l0,0l0.1-0.1l0,0.1l0.2-0.4l0.1-0.2l0.1,0.1v-0.2l0-0.1V15
	l0,0.1l0.1-0.2l0.1-0.4v-0.1l0,0l0.1-0.3l0.2-0.3v-0.2h0.1l-0.1-0.1l0.1-0.1l0.2,0l0,0l0.1-0.1l0.1,0l0.1-0.2L200.7,13z M201.9,18.3
	l-1.1,0.2l-1,0.3l0,0.1l0.7,0.1h1l0,0l0.7-0.1l0.1-0.1l0.2-0.1l0.1-0.1l0.1-0.2l-0.1-0.1l-0.5,0L201.9,18.3z M210.1,11.2L210.1,11.2
	l0.6,0l0.4,0l0.2,0.1l0.1,0l0,0c0.4,0,0.7,0,0.8,0.2v0l0.1,0.1h0c0.1,0,0.1,0,0.2,0.1v0.1h0v0l0.2,0.1c0.1,0.1,0.1,0.1,0.1,0.2v0
	c0,0,0,0.1,0,0.1l0.1,0c0.1,0,0.1,0.1,0.1,0.2v0h0l0,0.3c0,0,0.1,0.1,0.1,0.1c0,0,0,0.1-0.1,0.2l-0.1,0l-0.1,0.2
	c-0.1,0.3-0.2,0.4-0.5,0.6c0,0,0,0.1,0,0.1l-0.1,0h0v0l-0.3,0.2h-0.1c-0.1,0-0.2,0-0.2,0.1c-0.2,0.1-0.3,0.1-0.3,0.1
	c-0.1,0-0.1,0-0.1-0.2l0.1,0l0,0l0.1,0l0,0h0.1l0,0c0.1-0.1,0.1-0.2,0.2-0.2h0.1l0,0l0.1-0.2h0l0.1-0.1h0c0-0.2,0.1-0.4,0.2-0.5
	v-0.1l0.1,0l0.1-0.4l-0.3-0.1l0-0.2l-0.3-0.3l-0.2-0.2h-0.3l0-0.2l-0.2,0l0-0.1h0v-0.1c-0.1-0.1-0.3-0.1-0.4-0.1l-0.6-0.1l-0.6,0
	v0.1l0-0.1l-0.5,0.1l0,0H209c-0.5,0-0.7,0.1-0.8,0.5l0,0.2l-0.1,0.4V13c0,0.1,0,0.3,0,0.4l0,0.1h0l0.3,0.9h0.1l0,0.4l0.1,0l0,0.1
	l0,0l0.3,0.7h0.1l0.1,0.3l0,0l0,0.1l0.1,0.2l0.3,0.5l0.1,0.1c0.1,0.1,0.1,0.2,0.2,0.3c0,0,0,0.1,0,0.1l0.1,0.2
	c0.1,0.1,0.1,0.3,0.2,0.4c0,0.1,0,0.1,0,0.2l0,0.1l0.1,0.3h0c0,0.2,0.1,0.3,0.1,0.4v0c0,0.1,0,0.2-0.1,0.2l-0.1,0.3h0l-0.2,0.2
	l-0.2,0.1c-0.2,0.1-0.3,0.2-0.4,0.2l-0.2,0.1l0,0c-0.1,0.2-0.2,0.2-0.4,0.2h-0.1l0,0l0,0h-0.1l0,0h-0.2l-0.1,0.1l-0.3-0.1l-0.2,0.1
	v0h-0.1l0,0l-0.2,0h-0.2l0,0l-0.9-0.2c-0.1,0-0.2,0-0.2-0.2l-0.4-0.2l0,0h0c-0.1,0-0.1,0-0.1,0l0-0.1h-0.1v-0.1
	c0-0.1-0.1-0.1-0.2-0.1h-0.1l0-0.1l0,0l0.1-0.1l-0.2-0.2c0,0,0.1,0,0.1,0c0.1,0,0.1,0,0.2-0.1c-0.1-0.1-0.1-0.2-0.1-0.3
	c0,0,0-0.1,0-0.2h0l0.2-0.3V18h-0.1c0.1,0,0.1,0,0.1-0.1c0,0,0-0.1,0-0.2l0,0.1l0.2-0.5h0l0.3-0.3h0l0.3-0.4l-0.1,0l0.1-0.1h-0.1
	l0.1,0l0.1-0.1l0,0l0.3-0.2l0,0.1l0.1-0.1c0,0.1,0,0.1-0.1,0.1h0l0,0.2l-0.1,0l-0.2,0.2h0l0,0.1h-0.1v0c0,0.1,0,0.1-0.1,0.1
	c0,0.1,0,0.1-0.1,0.2h-0.1l-0.3,0.8h0l-0.1,0.7l0.4,0.4c0,0.1,0.1,0.2,0.3,0.2v0l0.5,0.2h0c0.2,0.1,0.5,0.1,0.7,0.2h0.9l0,0l0.2-0.1
	l-0.1,0l0.3-0.1h-0.1l0.1-0.1l0,0l0.1,0v0h0l0-0.1v0c0.1-0.2,0.2-0.4,0.3-0.7l-0.1,0l-0.2-0.5l0.1-0.3l0,0c-0.2,0-0.1-0.1-0.2-0.3
	l-0.1-0.7l-0.3-0.3v0c-0.1-0.1-0.1-0.2-0.2-0.3l-0.1-0.3l0,0v0c-0.1-0.1-0.1-0.2-0.1-0.2c0-0.1,0-0.1,0-0.2l-0.1,0l0-0.1l-0.1,0
	v-0.1c0-0.2,0-0.3-0.1-0.4v0h0L208,15l0-0.2l-0.1-0.2l0-0.1l0-0.1l-0.1,0c0.1-0.1,0.2-0.2,0.2-0.2c0-0.1-0.2-0.2-0.4-0.3h0
	c-0.1-0.1-0.2-0.2-0.2-0.3c0,0,0-0.1,0-0.2h0v-0.1h0.1l-0.1-0.1h0l0.1-0.8l0-0.2l0.1,0l0.1-0.1l0-0.1l0.1,0l0-0.1l0.1,0l0,0v0h0.1
	c0,0,0-0.1,0-0.2c0,0,0-0.1,0.1-0.1h0.1l0,0l0,0c0.1,0,0.2,0,0.2-0.1h0l0-0.1h0.1v0.1l0.1-0.1h0l0.1-0.1v0l0.1,0h-0.1l0.7-0.2h-0.2
	l0.8-0.1l0.3,0l0,0H210.1L210.1,11.2z"/>
<path class="st5" d="M9.9,13.6c-0.9,0.9-1.4,2-1.4,3.3c0,0.7,0.2,1.4,0.5,2.1c0.4,0.7,0.8,1.2,1.3,1.5c0.5,0.3,1.4,0.7,2.7,1.2
	c1.3,0.4,2.2,0.8,2.7,1.1c0.5,0.3,0.8,0.7,1.1,1.1c0.3,0.4,0.4,0.9,0.4,1.5c0,1-0.4,1.8-1.1,2.5c-0.7,0.7-1.8,1-3.3,1
	c-1.6,0-2.8-0.3-3.5-1c-0.8-0.6-1.1-1.8-1.1-3.4H8v4.9h4.5c0.2,0,0.7,0,1.5-0.1c0.7-0.1,1.3-0.2,1.6-0.4c0.3-0.2,0.7-0.4,1-0.7
	c0.3-0.3,0.6-0.7,0.9-1.1c0.2-0.4,0.4-0.8,0.5-1.2c0.1-0.4,0.2-0.9,0.2-1.3c0-1.1-0.3-2-0.9-2.7c-0.6-0.7-1.2-1.2-1.9-1.5
	c-0.6-0.3-1.8-0.7-3.6-1.3c-1-0.4-1.7-0.8-2-1.3c-0.3-0.5-0.5-1-0.5-1.6c0-0.9,0.3-1.7,1-2.4c0.7-0.7,1.6-1,2.8-1
	c0.7,0,1.3,0.1,1.9,0.4c0.5,0.2,1,0.6,1.5,1c0.4,0.4,0.6,0.7,0.6,0.7l0.1,0l-0.8-2.1c0,0-0.1,0-0.1,0c-0.1,0-0.4-0.1-1.1-0.3
	c-0.7-0.1-1.3-0.2-1.8-0.2C11.9,12.2,10.8,12.7,9.9,13.6 M22.6,13.5c-1.5,0.8-2.6,1.9-3.4,3.3c-0.8,1.3-1.2,2.7-1.2,4
	c0,1.2,0.3,2.4,0.9,3.6c0.6,1.2,1.5,2.2,2.5,3c1,0.8,2,1.3,3,1.6c1,0.3,2.1,0.4,3.4,0.4h6.8v-0.2h-0.2c-0.4,0-0.6-0.1-0.8-0.4
	c-0.1-0.2-0.2-0.6-0.2-1.2v-2.7c0-0.5,0.1-0.9,0.2-1.1c0.2-0.2,0.5-0.3,1-0.3v-0.2h-4.4v0.2c0.4,0,0.7,0,0.9,0.2
	c0.2,0.2,0.3,0.5,0.3,1v2.6c0,0.6-0.1,1-0.4,1.2c-0.3,0.2-0.9,0.3-1.9,0.3l-0.9,0c-0.5,0-1.2,0-2.1-0.2c-0.9-0.1-1.7-0.4-2.4-0.8
	c-0.7-0.4-1.4-0.9-2-1.7c-0.6-0.8-1.1-1.5-1.3-2.3c-0.2-0.8-0.3-1.7-0.3-2.7c0-2.4,0.7-4.5,2.1-6.1c1.4-1.6,3.2-2.5,5.4-2.5
	c1.3,0,2.4,0.2,3.4,0.7c1,0.5,1.8,1.1,2.4,1.9h0.2l-0.7-2c-1.9-0.7-3.6-1.1-5.3-1.1C25.7,12.2,24.1,12.7,22.6,13.5"/>
</svg>
