<svg id="Layer_1" data-name="Layer 1" xmlns="http://www.w3.org/2000/svg" xmlns:xlink="http://www.w3.org/1999/xlink" width="225" height="43" viewBox="0 0 225 43"><defs><style>.cls-1,.cls-6,.cls-8{fill:none;}.cls-2{fill:#33b7c5;}.cls-3{fill:#00aebf;}.cls-4{clip-path:url(#clip-path);}.cls-5{fill:#271a11;}.cls-6{stroke:#231f20;stroke-width:1.49px;}.cls-7{clip-path:url(#clip-path-2);}.cls-8{stroke:#33b7c5;stroke-width:0.75px;}</style><clipPath id="clip-path"><path class="cls-1" d="M2.93,2.46l0,33.05a4.43,4.43,0,0,0,4.63,4.75l33.2,0V6.6a4.32,4.32,0,0,0-4-4.13Z"/></clipPath><clipPath id="clip-path-2"><path class="cls-2" d="M8.71,12.49a5.07,5.07,0,0,0-1.54,3.75,5.14,5.14,0,0,0,.6,2.38,4.43,4.43,0,0,0,1.5,1.75,15.92,15.92,0,0,0,3.1,1.36,15.12,15.12,0,0,1,3,1.29,4.25,4.25,0,0,1,1.24,1.23,3.09,3.09,0,0,1,.44,1.69,3.64,3.64,0,0,1-1.28,2.79,5.34,5.34,0,0,1-3.73,1.17,6,6,0,0,1-4-1.1q-1.28-1.1-1.31-3.88h-.2v5.59h5.14q.41,0,1.67-.14A6.22,6.22,0,0,0,15.25,30a4.37,4.37,0,0,0,1.16-.82,5.85,5.85,0,0,0,1-1.2A4.92,4.92,0,0,0,18,26.56a5.93,5.93,0,0,0,.18-1.5,4.62,4.62,0,0,0-1-3.08A6.24,6.24,0,0,0,15,20.28q-1.09-.5-4.06-1.5A4.94,4.94,0,0,1,8.71,17.3a3.2,3.2,0,0,1-.54-1.85,3.67,3.67,0,0,1,1.16-2.73,4.28,4.28,0,0,1,3.13-1.13,5.23,5.23,0,0,1,2.11.41,5.17,5.17,0,0,1,1.66,1.17l.73.77.16,0-.92-2.4-.1,0a9.31,9.31,0,0,0-1.26-.29A10.88,10.88,0,0,0,12.75,11a5.5,5.5,0,0,0-4,1.51m14.51-.08a10.32,10.32,0,0,0-3.85,3.72A8.92,8.92,0,0,0,18,20.72a8.63,8.63,0,0,0,1.08,4.12A10.92,10.92,0,0,0,25.35,30a14.17,14.17,0,0,0,3.91.48H37v-.2h-.28a.94.94,0,0,1-.88-.4,2.64,2.64,0,0,1-.24-1.31v-3a2,2,0,0,1,.28-1.25A1.46,1.46,0,0,1,37,24v-.2h-5V24a1.37,1.37,0,0,1,1,.25,1.44,1.44,0,0,1,.35,1.14v2.91c0,.71-.15,1.16-.44,1.33a5.78,5.78,0,0,1-2.19.33l-1,0a13.74,13.74,0,0,1-2.43-.22,9.32,9.32,0,0,1-2.76-.86A7.25,7.25,0,0,1,22.24,27a7.47,7.47,0,0,1-1.47-2.66,11.13,11.13,0,0,1-.39-3.08,10.39,10.39,0,0,1,2.38-7,7.63,7.63,0,0,1,6.1-2.8,8.81,8.81,0,0,1,3.88.84,7.59,7.59,0,0,1,2.75,2.12h.19l-.79-2.22a16.22,16.22,0,0,0-6-1.26,11.17,11.17,0,0,0-5.66,1.43"/></clipPath></defs><title>Artboard 1</title><path class="cls-3" d="M48.83,32.32a3.65,3.65,0,0,0-.1.88h-.22v-.25a.59.59,0,0,0-.07-.34.81.81,0,0,0-.35-.19,1.75,1.75,0,0,0-.59-.1,1.16,1.16,0,0,0-.8.26.84.84,0,0,0-.29.66.78.78,0,0,0,.12.44.67.67,0,0,0,.32.26,3.77,3.77,0,0,0,.86.14,3.22,3.22,0,0,1,.88.17.82.82,0,0,1,.37.34,1.05,1.05,0,0,1,.14.55,1.41,1.41,0,0,1-.53,1.1,2.1,2.1,0,0,1-1.42.46,3.14,3.14,0,0,1-.61-.06,3.89,3.89,0,0,1-.62-.18,6.52,6.52,0,0,0,.05-1h.22v.16a1.3,1.3,0,0,0,0,.38.42.42,0,0,0,.15.16,1.29,1.29,0,0,0,.42.19,2,2,0,0,0,.52.07,1.38,1.38,0,0,0,.93-.28.91.91,0,0,0,.33-.72.79.79,0,0,0-.11-.43.67.67,0,0,0-.31-.26,2.7,2.7,0,0,0-.74-.13,3.45,3.45,0,0,1-1-.17.87.87,0,0,1-.4-.36,1.18,1.18,0,0,1-.15-.61,1.29,1.29,0,0,1,.45-1A1.81,1.81,0,0,1,47.55,32a3.05,3.05,0,0,1,.64.07A3.36,3.36,0,0,1,48.83,32.32Z"/><path class="cls-3" d="M50.41,34.16l.48-.43a.57.57,0,0,1,.18-.11,1.33,1.33,0,0,1,.42-.07,1.19,1.19,0,0,1,.59.14.83.83,0,0,1,.36.36,1.65,1.65,0,0,1,.11.69v1a2.05,2.05,0,0,0,0,.6.25.25,0,0,0,.23.1H53v.18l-.59,0-.52,0Q52,36,52,35a1.71,1.71,0,0,0-.07-.6.61.61,0,0,0-.25-.29.8.8,0,0,0-.42-.11.87.87,0,0,0-.52.16.65.65,0,0,0-.27.34,3.71,3.71,0,0,0,0,.65q0,.58,0,1.08a.28.28,0,0,0,0,.19.38.38,0,0,0,.26.07H51v.18l-.86,0-.77,0v-.18h.23q.24,0,.27-.11a9.82,9.82,0,0,0,0-1.32q0-.54,0-.85a.2.2,0,0,0-.05-.14.48.48,0,0,0-.25,0h-.23V33.8a3.86,3.86,0,0,0,.49-.09,3.53,3.53,0,0,0,.48-.17h.05s.05,0,.05.07v.55Z"/><path class="cls-3" d="M53.08,35.1a1.56,1.56,0,0,1,.2-.79,1.43,1.43,0,0,1,.57-.55,1.71,1.71,0,0,1,.83-.2,1.48,1.48,0,0,1,1.08.4A1.43,1.43,0,0,1,56.17,35a1.58,1.58,0,0,1-.53,1.25,1.66,1.66,0,0,1-1.13.42,1.35,1.35,0,0,1-1-.43A1.63,1.63,0,0,1,53.08,35.1Zm.6-.22A2.21,2.21,0,0,0,53.94,36a.85.85,0,0,0,.77.47.76.76,0,0,0,.62-.29,1.4,1.4,0,0,0,.24-.89,2.24,2.24,0,0,0-.14-.83,1.09,1.09,0,0,0-.37-.51.87.87,0,0,0-.51-.16.83.83,0,0,0-.45.13.76.76,0,0,0-.3.34A1.52,1.52,0,0,0,53.67,34.88Z"/><path class="cls-3" d="M57.4,34.27a2.68,2.68,0,0,0,.28-.32,1.18,1.18,0,0,1,.33-.32.65.65,0,0,1,.32-.09.67.67,0,0,1,.27,0,.06.06,0,0,1,0,.06v0a4.29,4.29,0,0,0-.06.72h-.14a.53.53,0,0,0-.17-.23.42.42,0,0,0-.24-.07.55.55,0,0,0-.35.13.61.61,0,0,0-.21.35,4.74,4.74,0,0,0-.05.9,6.55,6.55,0,0,0,0,.74c0,.07,0,.12.06.14a.76.76,0,0,0,.36.07h.19v.18l-.92,0-.83,0v-.18l.3,0a.33.33,0,0,0,.2-.06.66.66,0,0,0,.06-.31q0-.46,0-1.09a3.49,3.49,0,0,0-.06-.9q0-.09-.26-.09h-.27v-.18a4.92,4.92,0,0,0,.55-.09,2.22,2.22,0,0,0,.43-.14l.07,0,0,0a.19.19,0,0,1,0,.09Z"/><path class="cls-3" d="M60,33.54l.08,0q0,.24,0,.52,0,.93,0,1.37t0,.7a.25.25,0,0,0,.06.16.46.46,0,0,0,.23.07l.22,0v.18l-.84,0-.76,0v-.18l.27,0c.11,0,.17,0,.2-.06a.74.74,0,0,0,0-.31q0-.4,0-1.11,0-.49,0-.76a.19.19,0,0,0-.06-.14.39.39,0,0,0-.22,0H59v-.18l.57-.1Zm-.25-1.41a.34.34,0,0,1,.25.11.35.35,0,0,1,.1.26.35.35,0,0,1-.1.25.36.36,0,0,1-.61-.25.35.35,0,0,1,.1-.26A.34.34,0,0,1,59.78,32.14Z"/><path class="cls-3" d="M61.94,34.16l.48-.43a.57.57,0,0,1,.18-.11,1.33,1.33,0,0,1,.42-.07,1.19,1.19,0,0,1,.59.14.83.83,0,0,1,.36.36,1.65,1.65,0,0,1,.11.69v1a2.05,2.05,0,0,0,0,.6.25.25,0,0,0,.23.1h.23v.18l-.59,0-.52,0q.06-.62.06-1.67a1.71,1.71,0,0,0-.07-.6.61.61,0,0,0-.25-.29.8.8,0,0,0-.42-.11.87.87,0,0,0-.52.16.65.65,0,0,0-.27.34,3.71,3.71,0,0,0,0,.65q0,.58,0,1.08a.28.28,0,0,0,0,.19.38.38,0,0,0,.26.07h.23v.18l-.86,0-.77,0v-.18h.23q.24,0,.27-.11a9.82,9.82,0,0,0,0-1.32q0-.54,0-.85a.2.2,0,0,0-.05-.14.48.48,0,0,0-.25,0h-.23V33.8a3.86,3.86,0,0,0,.49-.09,3.53,3.53,0,0,0,.48-.17h.05s.05,0,.05.07v.55Z"/><path class="cls-3" d="M67.09,34.14a1,1,0,0,1,.07.33A1,1,0,0,1,67,35a1.23,1.23,0,0,1-.49.42,1.49,1.49,0,0,1-.69.16h-.15a1.4,1.4,0,0,0-.26.23.26.26,0,0,0-.05.15.21.21,0,0,0,.12.19,1.19,1.19,0,0,0,.5.07h.42l.57,0a.75.75,0,0,1,.38.08.63.63,0,0,1,.23.28,1.05,1.05,0,0,1,.1.46,1.22,1.22,0,0,1-.22.68,1.51,1.51,0,0,1-.63.52,2.18,2.18,0,0,1-.95.2,1.57,1.57,0,0,1-1-.28.87.87,0,0,1-.35-.7.91.91,0,0,1,.18-.52,3.7,3.7,0,0,0,.55-.31,1,1,0,0,1-.33-.16.24.24,0,0,1-.07-.18.53.53,0,0,1,.07-.26.65.65,0,0,1,.21-.19l.31-.22a1.13,1.13,0,0,1-.55-.27.84.84,0,0,1-.22-.6,1.08,1.08,0,0,1,.17-.58,1.12,1.12,0,0,1,.49-.42,1.84,1.84,0,0,1,.79-.19,1.3,1.3,0,0,1,.42.06,1.28,1.28,0,0,1,.37.22h.27a5.42,5.42,0,0,0,.64,0l0,.07a2.16,2.16,0,0,0-.17.29Zm-1.35,2.52a.64.64,0,0,0-.31.05,1,1,0,0,0-.32.28.83.83,0,0,0-.1.42.73.73,0,0,0,.26.57,1,1,0,0,0,.71.23,1.39,1.39,0,0,0,.62-.13,1,1,0,0,0,.41-.36.85.85,0,0,0,.15-.47.64.64,0,0,0-.1-.36.46.46,0,0,0-.25-.2,1.45,1.45,0,0,0-.33,0Zm.87-2a1,1,0,0,0-.2-.64.68.68,0,0,0-1,0,.77.77,0,0,0-.19.55,1,1,0,0,0,.2.66.64.64,0,0,0,.51.24.64.64,0,0,0,.49-.2A.79.79,0,0,0,66.61,34.65Z"/><path class="cls-3" d="M70.07,34.42V34l.35-.2a2,2,0,0,1,.41-.18,1.36,1.36,0,0,1,.38-.05,1.17,1.17,0,0,1,.71.2.77.77,0,0,1,.32.5,10.21,10.21,0,0,1,0,1.13,6.65,6.65,0,0,0,0,.94c0,.06.07.09.16.09h.25v.21l-.5,0-.48,0v-.28c0-.09,0-.18,0-.28l-.66.5a.59.59,0,0,1-.17.09.83.83,0,0,1-.24,0,.89.89,0,0,1-.63-.2.7.7,0,0,1-.22-.54,1,1,0,0,1,.15-.56.9.9,0,0,1,.44-.35,8.64,8.64,0,0,1,1.32-.3.93.93,0,0,0-.18-.6.77.77,0,0,0-.62-.25,1.06,1.06,0,0,0-.29,0,.89.89,0,0,0-.25.11l-.17.43Zm1.67.5a3.74,3.74,0,0,0-1.12.36.58.58,0,0,0-.24.51.52.52,0,0,0,.14.38.47.47,0,0,0,.35.14.86.86,0,0,0,.46-.13,1.53,1.53,0,0,0,.41-.4v-.86Z"/><path class="cls-3" d="M74.08,34.16l.48-.43a.57.57,0,0,1,.18-.11,1.33,1.33,0,0,1,.42-.07,1.19,1.19,0,0,1,.59.14.83.83,0,0,1,.36.36,1.65,1.65,0,0,1,.11.69v1a2.05,2.05,0,0,0,0,.6.25.25,0,0,0,.23.1h.23v.18l-.59,0-.52,0q.06-.62.06-1.67a1.71,1.71,0,0,0-.07-.6.61.61,0,0,0-.25-.29.8.8,0,0,0-.42-.11.87.87,0,0,0-.52.16.65.65,0,0,0-.27.34,3.71,3.71,0,0,0,0,.65q0,.58,0,1.08a.28.28,0,0,0,0,.19.38.38,0,0,0,.26.07h.23v.18l-.86,0-.77,0v-.18h.23q.24,0,.27-.11a9.82,9.82,0,0,0,0-1.32q0-.54,0-.85a.2.2,0,0,0-.05-.14.48.48,0,0,0-.25,0H73V33.8a3.86,3.86,0,0,0,.49-.09,3.53,3.53,0,0,0,.48-.17H74s.05,0,.05.07v.55Z"/><path class="cls-3" d="M79.36,33.75V32.6a.44.44,0,0,0,0-.25.28.28,0,0,0-.2-.05h-.27V32.1a3.48,3.48,0,0,0,1.06-.23l.06,0q0,.32,0,.78v3a2.59,2.59,0,0,0,0,.59q0,.09.26.11l.23,0v.18l-.69,0-.4,0q0-.21,0-.61-.27.21-.69.58a1.55,1.55,0,0,1-.48.09,1.16,1.16,0,0,1-.9-.4,1.56,1.56,0,0,1-.36-1.08,1.69,1.69,0,0,1,.14-.72,1.06,1.06,0,0,1,.33-.43,5.26,5.26,0,0,1,.6-.34,1.32,1.32,0,0,1,.58-.16,1.56,1.56,0,0,1,.37,0A2.05,2.05,0,0,1,79.36,33.75Zm0,.55a1.62,1.62,0,0,0-.45-.35,1.09,1.09,0,0,0-.49-.12.83.83,0,0,0-.67.3,1.35,1.35,0,0,0-.25.89,1.39,1.39,0,0,0,.29.93.9.9,0,0,0,.7.34.82.82,0,0,0,.47-.14.83.83,0,0,0,.31-.37,1.89,1.89,0,0,0,.1-.71Z"/><path class="cls-3" d="M85.42,32.32a3.65,3.65,0,0,0-.1.88h-.22v-.25a.59.59,0,0,0-.07-.34.81.81,0,0,0-.35-.19,1.75,1.75,0,0,0-.59-.1,1.16,1.16,0,0,0-.8.26.84.84,0,0,0-.29.66.78.78,0,0,0,.12.44.67.67,0,0,0,.32.26,3.77,3.77,0,0,0,.86.14,3.22,3.22,0,0,1,.88.17.82.82,0,0,1,.37.34,1.05,1.05,0,0,1,.14.55,1.41,1.41,0,0,1-.53,1.1,2.1,2.1,0,0,1-1.42.46,3.14,3.14,0,0,1-.61-.06,3.89,3.89,0,0,1-.62-.18,6.52,6.52,0,0,0,.05-1h.22v.16a1.3,1.3,0,0,0,0,.38.42.42,0,0,0,.15.16,1.29,1.29,0,0,0,.42.19,2,2,0,0,0,.52.07,1.38,1.38,0,0,0,.93-.28.91.91,0,0,0,.33-.72A.79.79,0,0,0,85,35a.67.67,0,0,0-.31-.26,2.7,2.7,0,0,0-.74-.13,3.45,3.45,0,0,1-1-.17.87.87,0,0,1-.4-.36,1.18,1.18,0,0,1-.15-.61,1.29,1.29,0,0,1,.45-1A1.81,1.81,0,0,1,84.14,32a3.05,3.05,0,0,1,.64.07A3.36,3.36,0,0,1,85.42,32.32Z"/><path class="cls-3" d="M87.12,31.91q-.05.93-.05,1.68v1.63a7.1,7.1,0,0,0,0,1.1s.08.07.21.09l.27,0v.18l-.66,0-.92,0v-.18l.27,0c.12,0,.19,0,.21-.09a7.34,7.34,0,0,0,0-1.13V32.55a.19.19,0,0,0-.25-.24H86v-.19a3.19,3.19,0,0,0,1.06-.25Z"/><path class="cls-3" d="M88.59,35.09a1.39,1.39,0,0,0,.32.95,1,1,0,0,0,.8.32,1.39,1.39,0,0,0,.44-.07,1.79,1.79,0,0,0,.43-.22l.05,0-.1.27a2.28,2.28,0,0,1-.54.23,2.17,2.17,0,0,1-.57.08,1.38,1.38,0,0,1-1-.41,1.52,1.52,0,0,1-.4-1.11,1.84,1.84,0,0,1,.22-.92,1.35,1.35,0,0,1,.54-.48,1.57,1.57,0,0,1,.76-.22,1.2,1.2,0,0,1,.89.33,1.25,1.25,0,0,1,.33.92V35a2.65,2.65,0,0,1-.4.07q-.34,0-.94,0Zm0-.24,1.09,0,.46,0v-.18a1.3,1.3,0,0,0-.11-.53.58.58,0,0,0-.24-.26.78.78,0,0,0-.4-.1.7.7,0,0,0-.57.26A1.29,1.29,0,0,0,88.6,34.85Z"/><path class="cls-3" d="M91.77,35.09a1.39,1.39,0,0,0,.32.95,1,1,0,0,0,.8.32,1.39,1.39,0,0,0,.44-.07,1.79,1.79,0,0,0,.43-.22l.05,0-.1.27a2.28,2.28,0,0,1-.54.23,2.17,2.17,0,0,1-.57.08,1.38,1.38,0,0,1-1-.41,1.52,1.52,0,0,1-.4-1.11,1.84,1.84,0,0,1,.22-.92,1.35,1.35,0,0,1,.54-.48,1.57,1.57,0,0,1,.76-.22,1.2,1.2,0,0,1,.89.33,1.25,1.25,0,0,1,.33.92V35a2.65,2.65,0,0,1-.4.07q-.34,0-.94,0Zm0-.24,1.09,0,.46,0v-.18a1.3,1.3,0,0,0-.11-.53.58.58,0,0,0-.24-.26.78.78,0,0,0-.4-.1A.7.7,0,0,0,92,34,1.29,1.29,0,0,0,91.78,34.85Z"/><path class="cls-3" d="M95.39,34.2l.44-.39a.88.88,0,0,1,.29-.19,1.43,1.43,0,0,1,.44-.06,1.23,1.23,0,0,1,.91.35,1.22,1.22,0,0,1,.35.9,1.92,1.92,0,0,1-.08.54,1.6,1.6,0,0,1-.19.44,1.26,1.26,0,0,1-.26.28l-.39.25-.13.09a1.78,1.78,0,0,1-.39.22,1,1,0,0,1-.34.05,1.25,1.25,0,0,1-.31,0,2.14,2.14,0,0,1-.35-.13V37q0,.69,0,1a.24.24,0,0,0,.08.18.52.52,0,0,0,.3.06H96v.18l-.88,0-.79,0v-.18h.23q.24,0,.29-.1a6.45,6.45,0,0,0,0-1.12V35q0-.51,0-.78a.27.27,0,0,0-.06-.18.4.4,0,0,0-.23,0h-.25v-.2a4.57,4.57,0,0,0,.87-.18l.19-.08s.05,0,.05.09v.56Zm0,1.75a1.31,1.31,0,0,0,.41.32,1,1,0,0,0,.44.1A.88.88,0,0,0,97,36a1.52,1.52,0,0,0,.27-.9,1.35,1.35,0,0,0-.12-.6.91.91,0,0,0-.36-.39,1,1,0,0,0-.88-.07,1,1,0,0,0-.32.21.67.67,0,0,0-.17.25,2,2,0,0,0,0,.45Z"/><path class="cls-3" d="M102.91,35.1h-1.84l-.21.51a2.59,2.59,0,0,0-.21.62.13.13,0,0,0,0,.1.47.47,0,0,0,.2.05l.3,0v.2l-.69,0-.8,0v-.2h.1a.69.69,0,0,0,.29,0,.46.46,0,0,0,.14-.2q.22-.46.46-1l.87-2q.35-.79.48-1.14h.22l1.61,3.74a3.68,3.68,0,0,0,.22.46.32.32,0,0,0,.12.11,1,1,0,0,0,.31,0v.2l-.79,0-.93,0v-.2l.31,0a.56.56,0,0,0,.2,0,.11.11,0,0,0,0-.09,1.26,1.26,0,0,0-.1-.3Zm-1.72-.26h1.6l-.8-1.91Z"/><path class="cls-3" d="M105.54,34.2l.44-.39a.88.88,0,0,1,.29-.19,1.43,1.43,0,0,1,.44-.06,1.23,1.23,0,0,1,.91.35,1.22,1.22,0,0,1,.35.9,1.92,1.92,0,0,1-.08.54,1.6,1.6,0,0,1-.19.44,1.26,1.26,0,0,1-.26.28l-.39.25-.13.09a1.78,1.78,0,0,1-.39.22,1,1,0,0,1-.34.05,1.25,1.25,0,0,1-.31,0,2.14,2.14,0,0,1-.35-.13V37q0,.69,0,1a.24.24,0,0,0,.08.18.52.52,0,0,0,.3.06h.17v.18l-.88,0-.79,0v-.18h.23q.24,0,.29-.1A6.45,6.45,0,0,0,105,37V35q0-.51,0-.78a.27.27,0,0,0-.06-.18.4.4,0,0,0-.23,0h-.25v-.2a4.57,4.57,0,0,0,.87-.18l.19-.08s.05,0,.05.09v.56Zm0,1.75a1.31,1.31,0,0,0,.41.32,1,1,0,0,0,.44.1.88.88,0,0,0,.77-.38,1.52,1.52,0,0,0,.27-.9,1.35,1.35,0,0,0-.12-.6.91.91,0,0,0-.36-.39,1,1,0,0,0-.88-.07,1,1,0,0,0-.32.21.67.67,0,0,0-.17.25,2,2,0,0,0,0,.45Z"/><path class="cls-3" d="M109.3,34.16l.48-.43a.57.57,0,0,1,.18-.11,1.33,1.33,0,0,1,.42-.07,1.19,1.19,0,0,1,.59.14.83.83,0,0,1,.36.36,1.65,1.65,0,0,1,.11.69v1a2.05,2.05,0,0,0,0,.6.25.25,0,0,0,.23.1h.23v.18l-.59,0-.52,0q.06-.62.06-1.67a1.71,1.71,0,0,0-.07-.6.61.61,0,0,0-.25-.29.8.8,0,0,0-.42-.11.87.87,0,0,0-.52.16.65.65,0,0,0-.27.34,3.71,3.71,0,0,0,0,.65q0,.58,0,1.08a.28.28,0,0,0,0,.19.38.38,0,0,0,.26.07h.23v.18l-.86,0-.77,0v-.18h.23q.24,0,.27-.11a9.82,9.82,0,0,0,0-1.32q0-.54,0-.85a.2.2,0,0,0-.05-.14.48.48,0,0,0-.25,0h-.23V33.8a3.86,3.86,0,0,0,.49-.09,3.53,3.53,0,0,0,.48-.17h.05s.05,0,.05.07v.55Z"/><path class="cls-3" d="M112.79,35.09a1.39,1.39,0,0,0,.32.95,1,1,0,0,0,.8.32,1.39,1.39,0,0,0,.44-.07,1.79,1.79,0,0,0,.43-.22l.05,0-.1.27a2.28,2.28,0,0,1-.54.23,2.17,2.17,0,0,1-.57.08,1.38,1.38,0,0,1-1-.41,1.52,1.52,0,0,1-.4-1.11,1.84,1.84,0,0,1,.22-.92,1.35,1.35,0,0,1,.54-.48,1.57,1.57,0,0,1,.76-.22,1.2,1.2,0,0,1,.89.33,1.25,1.25,0,0,1,.33.92V35a2.65,2.65,0,0,1-.4.07q-.34,0-.94,0Zm0-.24,1.09,0,.46,0v-.18a1.3,1.3,0,0,0-.11-.53.58.58,0,0,0-.24-.26.78.78,0,0,0-.4-.1A.7.7,0,0,0,113,34,1.29,1.29,0,0,0,112.8,34.85Z"/><path class="cls-3" d="M115.63,34.42V34l.35-.2a2,2,0,0,1,.41-.18,1.36,1.36,0,0,1,.38-.05,1.17,1.17,0,0,1,.71.2.77.77,0,0,1,.32.5,10.21,10.21,0,0,1,0,1.13,6.65,6.65,0,0,0,0,.94c0,.06.07.09.16.09h.25v.21l-.5,0-.48,0v-.28c0-.09,0-.18,0-.28l-.66.5a.59.59,0,0,1-.17.09.83.83,0,0,1-.24,0,.89.89,0,0,1-.63-.2.7.7,0,0,1-.22-.54,1,1,0,0,1,.15-.56A.9.9,0,0,1,116,35a8.64,8.64,0,0,1,1.32-.3.93.93,0,0,0-.18-.6.77.77,0,0,0-.62-.25,1.06,1.06,0,0,0-.29,0A.89.89,0,0,0,116,34l-.17.43Zm1.67.5a3.74,3.74,0,0,0-1.12.36.58.58,0,0,0-.24.51.52.52,0,0,0,.14.38.47.47,0,0,0,.35.14.86.86,0,0,0,.46-.13,1.53,1.53,0,0,0,.41-.4v-.86Z"/><path class="cls-3" d="M48.84,28.78H47l-.21.51a2.59,2.59,0,0,0-.21.62.13.13,0,0,0,0,.1.47.47,0,0,0,.2.05l.3,0v.2l-.69,0-.8,0v-.2h.1a.69.69,0,0,0,.29,0,.46.46,0,0,0,.14-.2q.22-.46.46-1l.87-2q.35-.79.48-1.14h.22l1.61,3.74a3.68,3.68,0,0,0,.22.46.32.32,0,0,0,.12.11,1,1,0,0,0,.31,0v.2l-.79,0-.93,0v-.2l.31,0a.56.56,0,0,0,.2,0,.11.11,0,0,0,0-.09,1.26,1.26,0,0,0-.1-.3Zm-1.72-.26h1.6l-.8-1.91Z"/><path class="cls-3" d="M52.79,27.43V26.27a.44.44,0,0,0,0-.25.28.28,0,0,0-.2-.05h-.27v-.19a3.48,3.48,0,0,0,1.06-.23l.06,0q0,.32,0,.78v3a2.59,2.59,0,0,0,0,.59q0,.09.26.11l.23,0v.18l-.69,0-.4,0q0-.21,0-.61-.27.21-.69.58a1.55,1.55,0,0,1-.48.09,1.16,1.16,0,0,1-.9-.4,1.56,1.56,0,0,1-.36-1.08,1.69,1.69,0,0,1,.14-.72,1.06,1.06,0,0,1,.33-.43,5.26,5.26,0,0,1,.6-.34,1.32,1.32,0,0,1,.58-.16,1.56,1.56,0,0,1,.37,0A2.05,2.05,0,0,1,52.79,27.43Zm0,.55a1.62,1.62,0,0,0-.45-.35,1.09,1.09,0,0,0-.49-.12.83.83,0,0,0-.67.3,1.35,1.35,0,0,0-.25.89,1.39,1.39,0,0,0,.29.93.9.9,0,0,0,.7.34.82.82,0,0,0,.47-.14.83.83,0,0,0,.31-.37,1.89,1.89,0,0,0,.1-.71Z"/><path class="cls-3" d="M56.12,27.48V27.3l.58,0,.64,0v.18h-.1a.37.37,0,0,0-.14,0l-.08.06a4.16,4.16,0,0,0-.23.44q-.36.74-.55,1.17t-.48,1.15h-.33q-.42-1-.86-2-.16-.36-.2-.46a.65.65,0,0,0-.16-.28.34.34,0,0,0-.22-.07h-.1V27.3l.78,0,.73,0v.18h-.14a.65.65,0,0,0-.27,0,.1.1,0,0,0-.05.1.89.89,0,0,0,.06.22q.06.17.77,1.92l.57-1.37a5.73,5.73,0,0,0,.24-.66.38.38,0,0,0,0-.09.1.1,0,0,0,0-.09.58.58,0,0,0-.21,0Z"/><path class="cls-3" d="M57.59,28.09v-.43l.35-.2a2,2,0,0,1,.41-.18,1.36,1.36,0,0,1,.38-.05,1.17,1.17,0,0,1,.71.2.77.77,0,0,1,.32.5,10.21,10.21,0,0,1,0,1.13,6.65,6.65,0,0,0,0,.94c0,.06.07.09.16.09h.25v.21l-.5,0-.48,0V30c0-.09,0-.18,0-.28l-.66.5a.59.59,0,0,1-.17.09.83.83,0,0,1-.24,0,.89.89,0,0,1-.63-.2.7.7,0,0,1-.22-.54,1,1,0,0,1,.15-.56.9.9,0,0,1,.44-.35,8.64,8.64,0,0,1,1.32-.3.93.93,0,0,0-.18-.6.77.77,0,0,0-.62-.25,1.06,1.06,0,0,0-.29,0,.89.89,0,0,0-.25.11l-.17.43Zm1.67.5a3.74,3.74,0,0,0-1.12.36.58.58,0,0,0-.24.51.52.52,0,0,0,.14.38.47.47,0,0,0,.35.14.86.86,0,0,0,.46-.13,1.53,1.53,0,0,0,.41-.4V28.6Z"/><path class="cls-3" d="M61.69,27.84l.48-.43a.57.57,0,0,1,.18-.11,1.33,1.33,0,0,1,.42-.07,1.19,1.19,0,0,1,.59.14.83.83,0,0,1,.36.36,1.65,1.65,0,0,1,.11.69v1a2.05,2.05,0,0,0,0,.6.25.25,0,0,0,.23.1h.23v.18l-.59,0-.52,0q.06-.62.06-1.67a1.71,1.71,0,0,0-.07-.6.61.61,0,0,0-.25-.29.8.8,0,0,0-.42-.11.87.87,0,0,0-.52.16.65.65,0,0,0-.27.34,3.71,3.71,0,0,0,0,.65q0,.58,0,1.08a.28.28,0,0,0,0,.19.38.38,0,0,0,.26.07h.23v.18l-.86,0-.77,0v-.18h.23q.24,0,.27-.11a9.82,9.82,0,0,0,0-1.32q0-.54,0-.85a.2.2,0,0,0-.05-.14.48.48,0,0,0-.25,0h-.23v-.18a3.86,3.86,0,0,0,.49-.09,3.53,3.53,0,0,0,.48-.17h.05s.05,0,.05.07v.55Z"/><path class="cls-3" d="M66.8,29.85l.09.08-.13.2a1.93,1.93,0,0,1-.44.18,1.86,1.86,0,0,1-.47.06,1.63,1.63,0,0,1-.79-.18,1.22,1.22,0,0,1-.5-.51,1.69,1.69,0,0,1-.18-.8,1.72,1.72,0,0,1,.14-.71,1.13,1.13,0,0,1,.38-.47,3.76,3.76,0,0,1,.61-.34,1.39,1.39,0,0,1,.58-.12,1.94,1.94,0,0,1,.42,0,1.7,1.7,0,0,1,.38.14,4.9,4.9,0,0,0-.09.84h-.2v-.16a.52.52,0,0,0-.06-.29.6.6,0,0,0-.27-.17,1.23,1.23,0,0,0-.46-.08.84.84,0,0,0-.66.26,1.15,1.15,0,0,0-.23.78,1.6,1.6,0,0,0,.34,1.07,1,1,0,0,0,.79.36,1.49,1.49,0,0,0,.37,0A1.81,1.81,0,0,0,66.8,29.85Z"/><path class="cls-3" d="M67.81,28.76a1.39,1.39,0,0,0,.32.95,1,1,0,0,0,.8.32,1.39,1.39,0,0,0,.44-.07,1.79,1.79,0,0,0,.43-.22l.05,0-.1.27a2.28,2.28,0,0,1-.54.23,2.17,2.17,0,0,1-.57.08,1.38,1.38,0,0,1-1-.41,1.52,1.52,0,0,1-.4-1.11,1.84,1.84,0,0,1,.22-.92,1.35,1.35,0,0,1,.54-.48,1.57,1.57,0,0,1,.76-.22,1.2,1.2,0,0,1,.89.33,1.25,1.25,0,0,1,.33.92v.19a2.65,2.65,0,0,1-.4.07q-.34,0-.94,0Zm0-.24,1.09,0,.46,0v-.18a1.3,1.3,0,0,0-.11-.53.58.58,0,0,0-.24-.26.78.78,0,0,0-.4-.1.7.7,0,0,0-.57.26A1.29,1.29,0,0,0,67.81,28.53Z"/><path class="cls-3" d="M72.87,27.43V26.27a.44.44,0,0,0,0-.25.28.28,0,0,0-.2-.05h-.27v-.19a3.48,3.48,0,0,0,1.06-.23l.06,0q0,.32,0,.78v3a2.59,2.59,0,0,0,0,.59q0,.09.26.11l.23,0v.18l-.69,0-.4,0q0-.21,0-.61-.27.21-.69.58a1.55,1.55,0,0,1-.48.09,1.16,1.16,0,0,1-.9-.4,1.56,1.56,0,0,1-.36-1.08,1.69,1.69,0,0,1,.14-.72,1.06,1.06,0,0,1,.33-.43,5.26,5.26,0,0,1,.6-.34,1.32,1.32,0,0,1,.58-.16,1.56,1.56,0,0,1,.37,0A2.05,2.05,0,0,1,72.87,27.43Zm0,.55a1.62,1.62,0,0,0-.45-.35,1.09,1.09,0,0,0-.49-.12.83.83,0,0,0-.67.3,1.35,1.35,0,0,0-.25.89,1.39,1.39,0,0,0,.29.93A.9.9,0,0,0,72,30a.82.82,0,0,0,.47-.14.83.83,0,0,0,.31-.37,1.89,1.89,0,0,0,.1-.71Z"/><path class="cls-3" d="M80.17,26.93l0-.56a2.21,2.21,0,0,0-.59-.28A2.26,2.26,0,0,0,78.9,26a1.85,1.85,0,0,0-1.37.52A1.89,1.89,0,0,0,77,27.91,2.24,2.24,0,0,0,77.28,29a1.94,1.94,0,0,0,.74.76A2,2,0,0,0,79,30a3.65,3.65,0,0,0,.84-.1,1.73,1.73,0,0,0,.63-.3l.07.06-.12.3a3.69,3.69,0,0,1-.75.28,3.13,3.13,0,0,1-.76.09,3,3,0,0,1-1.37-.3,2.19,2.19,0,0,1-.91-.83,2.3,2.3,0,0,1-.32-1.2,2.26,2.26,0,0,1,.32-1.2,2.15,2.15,0,0,1,.91-.82A3.22,3.22,0,0,1,79,25.72a4.51,4.51,0,0,1,1,.15l.49.1a2.81,2.81,0,0,0-.17,1Z"/><path class="cls-3" d="M80.83,28.78A1.56,1.56,0,0,1,81,28a1.43,1.43,0,0,1,.57-.55,1.71,1.71,0,0,1,.83-.2,1.48,1.48,0,0,1,1.08.4,1.43,1.43,0,0,1,.41,1.07,1.58,1.58,0,0,1-.53,1.25,1.66,1.66,0,0,1-1.13.42,1.35,1.35,0,0,1-1-.43A1.63,1.63,0,0,1,80.83,28.78Zm.6-.22a2.21,2.21,0,0,0,.27,1.12.85.85,0,0,0,.77.47.76.76,0,0,0,.62-.29,1.4,1.4,0,0,0,.24-.89,2.24,2.24,0,0,0-.14-.83,1.09,1.09,0,0,0-.37-.51.87.87,0,0,0-.51-.16.83.83,0,0,0-.45.13.76.76,0,0,0-.3.34A1.52,1.52,0,0,0,81.42,28.55Z"/><path class="cls-3" d="M84.66,29.33v.21a.65.65,0,0,0,0,.31A.8.8,0,0,0,85,30a1.32,1.32,0,0,0,.49.1.79.79,0,0,0,.53-.18.54.54,0,0,0,.21-.42.42.42,0,0,0-.12-.31,1,1,0,0,0-.46-.19,4.41,4.41,0,0,1-.83-.22.71.71,0,0,1-.3-.25.7.7,0,0,1-.1-.38.86.86,0,0,1,.31-.69,1.29,1.29,0,0,1,.87-.26,2.37,2.37,0,0,1,.89.18q0,.22,0,.72h-.19a.86.86,0,0,0-.06-.37.63.63,0,0,0-.27-.21.92.92,0,0,0-.41-.1.68.68,0,0,0-.46.15.47.47,0,0,0-.17.37.38.38,0,0,0,.14.32,2.19,2.19,0,0,0,.76.24,2.56,2.56,0,0,1,.6.17.59.59,0,0,1,.24.24.76.76,0,0,1,.09.37.94.94,0,0,1-.37.74,1.46,1.46,0,0,1-1,.31,3.62,3.62,0,0,1-.88-.12q-.09,0-.09-.07v0a1.13,1.13,0,0,0,0-.17q0-.31,0-.48v-.15Z"/><path class="cls-3" d="M88.06,27.8l.43-.38a.61.61,0,0,1,.22-.13,1,1,0,0,1,.33-.06,1.12,1.12,0,0,1,.58.13,1.16,1.16,0,0,1,.4.46l.41-.37a.71.71,0,0,1,.26-.15,1.17,1.17,0,0,1,.39-.07,1,1,0,0,1,.52.13.87.87,0,0,1,.35.35,1.24,1.24,0,0,1,.11.58v1.24a1.35,1.35,0,0,0,0,.49s.11.08.25.08h.23v.18h-.65l-.47,0q0-.59,0-1.37a4.11,4.11,0,0,0-.06-.87.58.58,0,0,0-.22-.33.67.67,0,0,0-.41-.12.76.76,0,0,0-.47.15.61.61,0,0,0-.24.36,9.72,9.72,0,0,0,0,1.13q0,.59,0,.67a.16.16,0,0,0,.05.12.75.75,0,0,0,.27.06l.21,0v.18l-.83,0-.81,0v-.18h.21a.39.39,0,0,0,.25-.05.4.4,0,0,0,.07-.25q0-.52,0-1.09a2.39,2.39,0,0,0-.07-.7.6.6,0,0,0-.23-.3.68.68,0,0,0-.39-.11.77.77,0,0,0-.44.14.7.7,0,0,0-.27.33,3.29,3.29,0,0,0,0,.76q0,.68,0,1a.31.31,0,0,0,0,.19.58.58,0,0,0,.27.06l.22,0v.18l-.75,0-.87,0v-.18h.24c.14,0,.22,0,.25-.11a7.92,7.92,0,0,0,0-1.19q0-.8,0-.94a.28.28,0,0,0-.05-.18.54.54,0,0,0-.27,0H87v-.17a4.52,4.52,0,0,0,.8-.17l.23-.09s.06,0,.06.08v.11C88.06,27.52,88.05,27.66,88.06,27.8Z"/><path class="cls-3" d="M93.26,28.76a1.39,1.39,0,0,0,.32.95,1,1,0,0,0,.8.32,1.39,1.39,0,0,0,.44-.07,1.79,1.79,0,0,0,.43-.22l.05,0-.1.27a2.28,2.28,0,0,1-.54.23,2.17,2.17,0,0,1-.57.08,1.38,1.38,0,0,1-1-.41,1.52,1.52,0,0,1-.4-1.11,1.84,1.84,0,0,1,.22-.92,1.35,1.35,0,0,1,.54-.48,1.57,1.57,0,0,1,.76-.22,1.2,1.2,0,0,1,.89.33,1.25,1.25,0,0,1,.33.92v.19a2.65,2.65,0,0,1-.4.07q-.34,0-.94,0Zm0-.24,1.09,0,.46,0v-.18a1.3,1.3,0,0,0-.11-.53.58.58,0,0,0-.24-.26.78.78,0,0,0-.4-.1.7.7,0,0,0-.57.26A1.29,1.29,0,0,0,93.27,28.53Z"/><path class="cls-3" d="M96.67,27.81v1.25a3.63,3.63,0,0,0,0,.62.37.37,0,0,0,.13.21.39.39,0,0,0,.25.08.46.46,0,0,0,.18,0,.66.66,0,0,0,.17-.11l.09.11-.31.36-.2.05-.18,0a.86.86,0,0,1-.4-.08.54.54,0,0,1-.24-.22.88.88,0,0,1-.07-.41V27.83l-.5,0v-.14l.5-.22q0-.45,0-1a5.14,5.14,0,0,0,.53-.25l.08.06q0,.25-.05,1.17h.89l0,.33h-.85Z"/><path class="cls-3" d="M99,27.22l.08,0q0,.24,0,.52,0,.93,0,1.37t0,.7a.25.25,0,0,0,.06.16.46.46,0,0,0,.23.07l.22,0v.18l-.84,0-.76,0v-.18l.27,0c.11,0,.17,0,.2-.06a.74.74,0,0,0,0-.31q0-.4,0-1.11,0-.49,0-.76a.19.19,0,0,0-.06-.14.39.39,0,0,0-.22,0h-.24v-.18l.57-.1Zm-.25-1.41a.34.34,0,0,1,.25.11.35.35,0,0,1,.1.26.35.35,0,0,1-.1.25.36.36,0,0,1-.61-.25.35.35,0,0,1,.1-.26A.34.34,0,0,1,98.72,25.81Z"/><path class="cls-3" d="M102.27,29.85l.09.08-.13.2a1.93,1.93,0,0,1-.44.18,1.86,1.86,0,0,1-.47.06,1.63,1.63,0,0,1-.79-.18,1.22,1.22,0,0,1-.5-.51,1.69,1.69,0,0,1-.18-.8,1.72,1.72,0,0,1,.14-.71,1.13,1.13,0,0,1,.38-.47,3.76,3.76,0,0,1,.61-.34,1.39,1.39,0,0,1,.58-.12,1.94,1.94,0,0,1,.42,0,1.7,1.7,0,0,1,.38.14,4.9,4.9,0,0,0-.09.84h-.2v-.16a.52.52,0,0,0-.06-.29.6.6,0,0,0-.27-.17,1.23,1.23,0,0,0-.46-.08.84.84,0,0,0-.66.26,1.15,1.15,0,0,0-.23.78,1.6,1.6,0,0,0,.34,1.07,1,1,0,0,0,.79.36,1.49,1.49,0,0,0,.37,0A1.81,1.81,0,0,0,102.27,29.85Z"/><path class="cls-3" d="M103.62,29.4l.09.1a6,6,0,0,1-.39.8,7.35,7.35,0,0,1-.56.79l-.27.14-.1-.1a4,4,0,0,0,.4-.77,3.14,3.14,0,0,0,.17-.75A4.82,4.82,0,0,0,103.62,29.4Z"/><path class="cls-3" d="M106.12,30.1h.2c.2,0,.31,0,.35-.14a7.53,7.53,0,0,0,.06-1.37V27.51a8.84,8.84,0,0,0-.05-1.4q-.05-.13-.3-.13h-.26v-.2l1,0,.78,0V26h-.25a.47.47,0,0,0-.28.05.44.44,0,0,0-.07.27q0,.34,0,1.21v1.1a7.83,7.83,0,0,0,.05,1.36q.05.13.35.13h.21v.2l-.85,0-1,0Z"/><path class="cls-3" d="M109.5,27.8l.43-.38a.61.61,0,0,1,.22-.13,1,1,0,0,1,.33-.06,1.12,1.12,0,0,1,.58.13,1.16,1.16,0,0,1,.4.46l.41-.37a.71.71,0,0,1,.26-.15,1.17,1.17,0,0,1,.39-.07,1,1,0,0,1,.52.13.87.87,0,0,1,.35.35,1.24,1.24,0,0,1,.11.58v1.24a1.35,1.35,0,0,0,0,.49s.11.08.25.08H114v.18h-.65l-.47,0q0-.59,0-1.37a4.11,4.11,0,0,0-.06-.87.58.58,0,0,0-.22-.33.67.67,0,0,0-.41-.12.76.76,0,0,0-.47.15.61.61,0,0,0-.24.36,9.72,9.72,0,0,0,0,1.13q0,.59,0,.67a.16.16,0,0,0,.05.12.75.75,0,0,0,.27.06l.21,0v.18l-.83,0-.81,0v-.18h.21a.39.39,0,0,0,.25-.05.4.4,0,0,0,.07-.25q0-.52,0-1.09a2.39,2.39,0,0,0-.07-.7.6.6,0,0,0-.23-.3.68.68,0,0,0-.39-.11.77.77,0,0,0-.44.14.7.7,0,0,0-.27.33,3.29,3.29,0,0,0,0,.76q0,.68,0,1a.31.31,0,0,0,0,.19.58.58,0,0,0,.27.06l.22,0v.18l-.75,0-.87,0v-.18h.24c.14,0,.22,0,.25-.11a7.92,7.92,0,0,0,0-1.19q0-.8,0-.94a.28.28,0,0,0-.05-.18.54.54,0,0,0-.27,0h-.2v-.17a4.52,4.52,0,0,0,.8-.17l.23-.09s.06,0,.06.08v.11C109.5,27.52,109.5,27.66,109.5,27.8Z"/><path class="cls-3" d="M115,27.87l.44-.39a.88.88,0,0,1,.29-.19,1.43,1.43,0,0,1,.44-.06,1.23,1.23,0,0,1,.91.35,1.22,1.22,0,0,1,.35.9,1.92,1.92,0,0,1-.08.54,1.6,1.6,0,0,1-.19.44,1.26,1.26,0,0,1-.26.28l-.39.25-.13.09a1.78,1.78,0,0,1-.39.22,1,1,0,0,1-.34.05,1.25,1.25,0,0,1-.31,0,2.14,2.14,0,0,1-.35-.13v.45q0,.69,0,1a.24.24,0,0,0,.08.18.52.52,0,0,0,.3.06h.17V32l-.88,0-.79,0v-.18h.23q.24,0,.29-.1a6.45,6.45,0,0,0,0-1.12V28.68q0-.51,0-.78a.27.27,0,0,0-.06-.18.4.4,0,0,0-.23,0h-.25v-.2a4.57,4.57,0,0,0,.87-.18l.19-.08s.05,0,.05.09v.56Zm0,1.75a1.31,1.31,0,0,0,.41.32,1,1,0,0,0,.44.1.88.88,0,0,0,.77-.38,1.52,1.52,0,0,0,.27-.9,1.35,1.35,0,0,0-.12-.6.91.91,0,0,0-.36-.39,1,1,0,0,0-.88-.07,1,1,0,0,0-.32.21.67.67,0,0,0-.17.25,2,2,0,0,0,0,.45Z"/><path class="cls-3" d="M118.74,25.59q-.05.93-.05,1.68V28.9a7.1,7.1,0,0,0,0,1.1s.08.07.21.09l.27,0v.18l-.66,0-.92,0v-.18l.27,0c.12,0,.19,0,.21-.09a7.34,7.34,0,0,0,0-1.13V26.23a.19.19,0,0,0-.25-.24h-.26V25.8a3.19,3.19,0,0,0,1.06-.25Z"/><path class="cls-3" d="M119.72,28.09v-.43l.35-.2a2,2,0,0,1,.41-.18,1.36,1.36,0,0,1,.38-.05,1.17,1.17,0,0,1,.71.2.77.77,0,0,1,.32.5,10.21,10.21,0,0,1,0,1.13,6.65,6.65,0,0,0,0,.94c0,.06.07.09.16.09h.25v.21l-.5,0-.48,0V30c0-.09,0-.18,0-.28l-.66.5a.59.59,0,0,1-.17.09.83.83,0,0,1-.24,0,.89.89,0,0,1-.63-.2.7.7,0,0,1-.22-.54,1,1,0,0,1,.15-.56.9.9,0,0,1,.44-.35,8.64,8.64,0,0,1,1.32-.3.93.93,0,0,0-.18-.6.77.77,0,0,0-.62-.25,1.06,1.06,0,0,0-.29,0,.89.89,0,0,0-.25.11l-.17.43Zm1.67.5a3.74,3.74,0,0,0-1.12.36.58.58,0,0,0-.24.51.52.52,0,0,0,.14.38.47.47,0,0,0,.35.14.86.86,0,0,0,.46-.13,1.53,1.53,0,0,0,.41-.4V28.6Z"/><path class="cls-3" d="M123.69,27.84l.48-.43a.57.57,0,0,1,.18-.11,1.33,1.33,0,0,1,.42-.07,1.19,1.19,0,0,1,.59.14.83.83,0,0,1,.36.36,1.65,1.65,0,0,1,.11.69v1a2,2,0,0,0,0,.6.25.25,0,0,0,.23.1h.23v.18l-.59,0-.52,0q.06-.62.06-1.67a1.71,1.71,0,0,0-.07-.6.61.61,0,0,0-.25-.29.8.8,0,0,0-.42-.11.87.87,0,0,0-.52.16.65.65,0,0,0-.27.34,3.71,3.71,0,0,0,0,.65q0,.58,0,1.08a.28.28,0,0,0,0,.19.38.38,0,0,0,.26.07h.23v.18l-.86,0-.77,0v-.18h.23q.24,0,.27-.11a9.82,9.82,0,0,0,0-1.32q0-.54,0-.85a.2.2,0,0,0-.05-.14.48.48,0,0,0-.25,0h-.23v-.18a3.86,3.86,0,0,0,.49-.09,3.53,3.53,0,0,0,.48-.17h.05s.05,0,.05.07v.55Z"/><path class="cls-3" d="M127.41,27.81v1.25a3.65,3.65,0,0,0,0,.62.37.37,0,0,0,.13.21.39.39,0,0,0,.25.08.45.45,0,0,0,.18,0,.67.67,0,0,0,.17-.11l.09.11-.31.36-.2.05-.18,0a.85.85,0,0,1-.4-.08.54.54,0,0,1-.24-.22.88.88,0,0,1-.07-.41V27.83l-.5,0v-.14l.5-.22q0-.45,0-1a5,5,0,0,0,.53-.25l.08.06q0,.25-.05,1.17h.88l0,.33h-.85Z"/><path class="cls-3" d="M130.75,28.09v-.43l.35-.2a2,2,0,0,1,.41-.18,1.37,1.37,0,0,1,.38-.05,1.16,1.16,0,0,1,.71.2.77.77,0,0,1,.32.5,10.51,10.51,0,0,1,0,1.13,6.87,6.87,0,0,0,0,.94.15.15,0,0,0,.16.09h.25v.21l-.5,0-.48,0V30q0-.14,0-.28l-.66.5a.6.6,0,0,1-.17.09.83.83,0,0,1-.24,0,.89.89,0,0,1-.63-.2.7.7,0,0,1-.22-.54,1,1,0,0,1,.15-.56.9.9,0,0,1,.44-.35,8.68,8.68,0,0,1,1.32-.3.93.93,0,0,0-.18-.6.77.77,0,0,0-.62-.25,1.06,1.06,0,0,0-.29,0,.88.88,0,0,0-.25.11l-.17.43Zm1.67.5a3.74,3.74,0,0,0-1.12.36.58.58,0,0,0-.24.51.52.52,0,0,0,.14.38.47.47,0,0,0,.35.14.86.86,0,0,0,.46-.13,1.53,1.53,0,0,0,.41-.4V28.6Z"/><path class="cls-3" d="M134.73,27.84l.48-.43a.58.58,0,0,1,.18-.11,1.34,1.34,0,0,1,.42-.07,1.2,1.2,0,0,1,.59.14.83.83,0,0,1,.36.36,1.65,1.65,0,0,1,.11.69v1a2,2,0,0,0,0,.6.25.25,0,0,0,.23.1h.23v.18l-.59,0-.52,0q.06-.62.06-1.67a1.71,1.71,0,0,0-.07-.6.6.6,0,0,0-.25-.29.8.8,0,0,0-.42-.11.87.87,0,0,0-.52.16.65.65,0,0,0-.27.34,3.73,3.73,0,0,0,0,.65q0,.58,0,1.08a.28.28,0,0,0,0,.19.39.39,0,0,0,.26.07h.23v.18l-.86,0-.77,0v-.18h.23c.16,0,.25,0,.27-.11a9.82,9.82,0,0,0,0-1.32c0-.36,0-.64,0-.85a.19.19,0,0,0-.05-.14.48.48,0,0,0-.25,0h-.23v-.18a3.83,3.83,0,0,0,.49-.09,3.49,3.49,0,0,0,.48-.17h.05s.05,0,.05.07v.55Z"/><path class="cls-3" d="M140,27.43V26.27a.44.44,0,0,0,0-.25s-.1-.05-.2-.05h-.27v-.19a3.48,3.48,0,0,0,1.06-.23l.06,0q0,.32,0,.78v3a2.61,2.61,0,0,0,0,.59c0,.06.12.1.26.11l.23,0v.18l-.69,0-.4,0q0-.21,0-.61-.27.21-.69.58a1.55,1.55,0,0,1-.48.09,1.16,1.16,0,0,1-.9-.4,1.56,1.56,0,0,1-.36-1.08,1.69,1.69,0,0,1,.14-.72,1.07,1.07,0,0,1,.33-.43,5.35,5.35,0,0,1,.6-.34,1.33,1.33,0,0,1,.58-.16,1.57,1.57,0,0,1,.37,0A2,2,0,0,1,140,27.43Zm0,.55a1.62,1.62,0,0,0-.45-.35,1.09,1.09,0,0,0-.49-.12.83.83,0,0,0-.67.3,1.35,1.35,0,0,0-.25.89,1.39,1.39,0,0,0,.29.93.9.9,0,0,0,.71.34.82.82,0,0,0,.46-.14.83.83,0,0,0,.31-.37,1.9,1.9,0,0,0,.1-.71Z"/><path class="cls-3" d="M146.23,26a3.68,3.68,0,0,0-.1.88h-.22v-.25a.6.6,0,0,0-.07-.34.81.81,0,0,0-.35-.19,1.75,1.75,0,0,0-.59-.1,1.16,1.16,0,0,0-.8.26.84.84,0,0,0-.29.66.78.78,0,0,0,.12.44.67.67,0,0,0,.32.26,3.78,3.78,0,0,0,.86.14,3.22,3.22,0,0,1,.88.17.82.82,0,0,1,.37.34,1.05,1.05,0,0,1,.14.55,1.41,1.41,0,0,1-.53,1.1,2.1,2.1,0,0,1-1.42.46,3.14,3.14,0,0,1-.61-.06,3.87,3.87,0,0,1-.62-.18,6.64,6.64,0,0,0,.05-1h.21v.16a1.3,1.3,0,0,0,0,.38.42.42,0,0,0,.15.16,1.29,1.29,0,0,0,.42.19,2,2,0,0,0,.52.07,1.38,1.38,0,0,0,.93-.28.91.91,0,0,0,.33-.72.79.79,0,0,0-.11-.43.67.67,0,0,0-.31-.26,2.71,2.71,0,0,0-.74-.13,3.45,3.45,0,0,1-1-.17.87.87,0,0,1-.4-.36,1.18,1.18,0,0,1-.15-.61,1.29,1.29,0,0,1,.45-1,1.81,1.81,0,0,1,1.24-.39,3,3,0,0,1,.64.07A3.34,3.34,0,0,1,146.23,26Z"/><path class="cls-3" d="M147.55,28.76a1.39,1.39,0,0,0,.32.95,1,1,0,0,0,.8.32,1.39,1.39,0,0,0,.44-.07,1.8,1.8,0,0,0,.43-.22l.05,0-.1.27a2.3,2.3,0,0,1-.54.23,2.18,2.18,0,0,1-.57.08,1.38,1.38,0,0,1-1-.41,1.52,1.52,0,0,1-.39-1.11,1.83,1.83,0,0,1,.22-.92,1.34,1.34,0,0,1,.54-.48,1.56,1.56,0,0,1,.76-.22,1.2,1.2,0,0,1,.89.33,1.25,1.25,0,0,1,.33.92v.19a2.65,2.65,0,0,1-.4.07q-.34,0-.94,0Zm0-.24,1.09,0,.46,0v-.18a1.3,1.3,0,0,0-.11-.53.58.58,0,0,0-.24-.26.78.78,0,0,0-.4-.1.7.7,0,0,0-.57.26A1.3,1.3,0,0,0,147.55,28.53Z"/><path class="cls-3" d="M152.74,27.43V26.27a.44.44,0,0,0,0-.25s-.1-.05-.2-.05h-.27v-.19a3.48,3.48,0,0,0,1.06-.23l.06,0q0,.32,0,.78v3a2.61,2.61,0,0,0,0,.59c0,.06.12.1.26.11l.23,0v.18l-.69,0-.4,0q0-.21,0-.61-.27.21-.69.58a1.55,1.55,0,0,1-.48.09,1.16,1.16,0,0,1-.9-.4,1.56,1.56,0,0,1-.36-1.08,1.69,1.69,0,0,1,.14-.72,1.07,1.07,0,0,1,.33-.43,5.35,5.35,0,0,1,.6-.34,1.33,1.33,0,0,1,.58-.16,1.57,1.57,0,0,1,.37,0A2,2,0,0,1,152.74,27.43Zm0,.55a1.62,1.62,0,0,0-.45-.35,1.09,1.09,0,0,0-.49-.12.83.83,0,0,0-.67.3,1.35,1.35,0,0,0-.25.89,1.39,1.39,0,0,0,.29.93.9.9,0,0,0,.71.34.82.82,0,0,0,.46-.14.83.83,0,0,0,.31-.37,1.9,1.9,0,0,0,.1-.71Z"/><path class="cls-3" d="M154.23,28.09v-.43l.35-.2a2,2,0,0,1,.41-.18,1.37,1.37,0,0,1,.38-.05,1.16,1.16,0,0,1,.71.2.77.77,0,0,1,.32.5,10.51,10.51,0,0,1,0,1.13,6.87,6.87,0,0,0,0,.94.15.15,0,0,0,.16.09h.25v.21l-.5,0-.48,0V30q0-.14,0-.28l-.66.5a.6.6,0,0,1-.17.09.83.83,0,0,1-.24,0,.89.89,0,0,1-.63-.2.7.7,0,0,1-.22-.54,1,1,0,0,1,.15-.56.9.9,0,0,1,.44-.35,8.68,8.68,0,0,1,1.32-.3.93.93,0,0,0-.18-.6.77.77,0,0,0-.62-.25,1.06,1.06,0,0,0-.29,0,.88.88,0,0,0-.25.11l-.17.43Zm1.67.5a3.74,3.74,0,0,0-1.12.36.58.58,0,0,0-.24.51.52.52,0,0,0,.14.38A.47.47,0,0,0,155,30a.86.86,0,0,0,.46-.13,1.53,1.53,0,0,0,.41-.4V28.6Z"/><path class="cls-3" d="M158,27.81v1.25a3.65,3.65,0,0,0,0,.62.37.37,0,0,0,.13.21.39.39,0,0,0,.25.08.45.45,0,0,0,.18,0,.67.67,0,0,0,.17-.11l.09.11-.31.36-.2.05-.18,0a.85.85,0,0,1-.4-.08.54.54,0,0,1-.24-.22.88.88,0,0,1-.07-.41V27.83l-.5,0v-.14l.5-.22q0-.45,0-1a5,5,0,0,0,.53-.25l.08.06q0,.25-.05,1.17h.88l0,.33H158Z"/><path class="cls-3" d="M160.16,27.22l.08,0c0,.16,0,.33,0,.52q0,.93,0,1.37c0,.28,0,.51,0,.7a.25.25,0,0,0,.06.16.46.46,0,0,0,.23.07l.22,0v.18l-.84,0-.76,0v-.18l.27,0a.3.3,0,0,0,.2-.06.74.74,0,0,0,0-.31q0-.4,0-1.11,0-.49,0-.76a.19.19,0,0,0-.06-.14.39.39,0,0,0-.22,0h-.24v-.18l.57-.1Zm-.25-1.41a.34.34,0,0,1,.25.11.35.35,0,0,1,.11.26.34.34,0,0,1-.11.25.34.34,0,0,1-.25.1.36.36,0,0,1-.36-.36.35.35,0,0,1,.1-.26A.35.35,0,0,1,159.9,25.81Z"/><path class="cls-3" d="M160.85,28.78a1.56,1.56,0,0,1,.2-.79,1.44,1.44,0,0,1,.57-.55,1.71,1.71,0,0,1,.83-.2,1.47,1.47,0,0,1,1.08.4,1.43,1.43,0,0,1,.41,1.07,1.58,1.58,0,0,1-.53,1.25,1.66,1.66,0,0,1-1.13.42,1.35,1.35,0,0,1-1-.43A1.63,1.63,0,0,1,160.85,28.78Zm.6-.22a2.21,2.21,0,0,0,.27,1.12.85.85,0,0,0,.77.47.76.76,0,0,0,.62-.29,1.39,1.39,0,0,0,.24-.89,2.24,2.24,0,0,0-.14-.83,1.1,1.1,0,0,0-.37-.51.87.87,0,0,0-.51-.16.83.83,0,0,0-.45.13.76.76,0,0,0-.3.34A1.52,1.52,0,0,0,161.44,28.55Z"/><path class="cls-3" d="M165.21,27.84l.48-.43a.58.58,0,0,1,.18-.11,1.34,1.34,0,0,1,.42-.07,1.2,1.2,0,0,1,.59.14.83.83,0,0,1,.36.36,1.65,1.65,0,0,1,.11.69v1a2,2,0,0,0,0,.6.25.25,0,0,0,.23.1h.23v.18l-.59,0-.52,0q.06-.62.06-1.67a1.71,1.71,0,0,0-.07-.6.6.6,0,0,0-.25-.29.8.8,0,0,0-.42-.11.87.87,0,0,0-.52.16.65.65,0,0,0-.27.34,3.73,3.73,0,0,0,0,.65q0,.58,0,1.08a.28.28,0,0,0,0,.19.39.39,0,0,0,.26.07h.23v.18l-.86,0-.77,0v-.18h.23c.16,0,.25,0,.27-.11a9.82,9.82,0,0,0,0-1.32c0-.36,0-.64,0-.85a.19.19,0,0,0-.05-.14.48.48,0,0,0-.25,0h-.23v-.18a3.83,3.83,0,0,0,.49-.09,3.49,3.49,0,0,0,.48-.17h.05s.05,0,.05.07v.55Z"/><path class="cls-3" d="M170.51,30q0-.49.05-1.72v-.92q0-.56,0-1a.65.65,0,0,0-.06-.28.61.61,0,0,0-.26-.07l-.25,0v-.2l.7,0h1.55a4,4,0,0,1,.86.08,2,2,0,0,1,.8.36,1.73,1.73,0,0,1,.55.67,2.21,2.21,0,0,1,.19.93,2.37,2.37,0,0,1-.72,1.77,2.59,2.59,0,0,1-1.89.7h-.39l-.73,0c-.17,0-.39,0-.65,0v-.15Zm.69,0a5.19,5.19,0,0,0,.75.06,2,2,0,0,0,1.38-.46,2.11,2.11,0,0,0,.59-1.62,1.89,1.89,0,0,0-.49-1.41,2,2,0,0,0-1.45-.49,5.61,5.61,0,0,0-.79.07,5.53,5.53,0,0,0,0,.69v2.08Q171.15,29.47,171.19,30Z"/><path class="cls-3" d="M175.52,28.76a1.39,1.39,0,0,0,.32.95,1,1,0,0,0,.8.32,1.39,1.39,0,0,0,.44-.07,1.8,1.8,0,0,0,.43-.22l.05,0-.1.27a2.3,2.3,0,0,1-.54.23,2.18,2.18,0,0,1-.57.08,1.38,1.38,0,0,1-1-.41,1.52,1.52,0,0,1-.39-1.11,1.83,1.83,0,0,1,.22-.92,1.34,1.34,0,0,1,.54-.48,1.56,1.56,0,0,1,.76-.22,1.2,1.2,0,0,1,.89.33,1.25,1.25,0,0,1,.33.92v.19a2.65,2.65,0,0,1-.4.07q-.34,0-.94,0Zm0-.24,1.09,0,.46,0v-.18a1.3,1.3,0,0,0-.11-.53.58.58,0,0,0-.24-.26.78.78,0,0,0-.4-.1.7.7,0,0,0-.57.26A1.3,1.3,0,0,0,175.53,28.53Z"/><path class="cls-3" d="M179,27.84l.48-.43a.58.58,0,0,1,.18-.11,1.34,1.34,0,0,1,.42-.07,1.2,1.2,0,0,1,.59.14.83.83,0,0,1,.36.36,1.65,1.65,0,0,1,.11.69v1a2,2,0,0,0,0,.6.25.25,0,0,0,.23.1h.23v.18l-.59,0-.52,0q.06-.62.06-1.67a1.71,1.71,0,0,0-.07-.6.6.6,0,0,0-.25-.29.8.8,0,0,0-.42-.11.87.87,0,0,0-.52.16.65.65,0,0,0-.27.34,3.73,3.73,0,0,0,0,.65q0,.58,0,1.08a.28.28,0,0,0,0,.19.39.39,0,0,0,.26.07h.23v.18l-.86,0-.77,0v-.18h.23c.16,0,.25,0,.27-.11a9.82,9.82,0,0,0,0-1.32c0-.36,0-.64,0-.85a.19.19,0,0,0-.05-.14.48.48,0,0,0-.25,0H178v-.18a3.83,3.83,0,0,0,.49-.09,3.49,3.49,0,0,0,.48-.17H179s.05,0,.05.07v.55Z"/><path class="cls-3" d="M182.62,27.81v1.25a3.65,3.65,0,0,0,0,.62.37.37,0,0,0,.13.21A.39.39,0,0,0,183,30a.45.45,0,0,0,.18,0,.67.67,0,0,0,.17-.11l.09.11-.31.36-.2.05-.18,0a.85.85,0,0,1-.4-.08.54.54,0,0,1-.24-.22.88.88,0,0,1-.07-.41V27.83l-.5,0v-.14l.5-.22q0-.45,0-1a5,5,0,0,0,.53-.25l.08.06q0,.25-.05,1.17h.88l0,.33h-.85Z"/><path class="cls-3" d="M184.79,27.22l.08,0c0,.16,0,.33,0,.52q0,.93,0,1.37c0,.28,0,.51,0,.7a.25.25,0,0,0,.06.16.46.46,0,0,0,.23.07l.22,0v.18l-.84,0-.76,0v-.18l.27,0a.3.3,0,0,0,.2-.06.74.74,0,0,0,0-.31q0-.4,0-1.11,0-.49,0-.76a.19.19,0,0,0-.06-.14.39.39,0,0,0-.22,0h-.24v-.18l.57-.1Zm-.25-1.41a.34.34,0,0,1,.25.11.35.35,0,0,1,.11.26.34.34,0,0,1-.11.25.34.34,0,0,1-.25.1.36.36,0,0,1-.36-.36.35.35,0,0,1,.1-.26A.35.35,0,0,1,184.54,25.81Z"/><path class="cls-3" d="M186,29.33v.21a.65.65,0,0,0,0,.31.81.81,0,0,0,.32.2,1.32,1.32,0,0,0,.49.1.79.79,0,0,0,.53-.18.54.54,0,0,0,.21-.42.42.42,0,0,0-.12-.31A1,1,0,0,0,187,29a4.44,4.44,0,0,1-.83-.22.71.71,0,0,1-.3-.25.7.7,0,0,1-.1-.38.86.86,0,0,1,.31-.69,1.29,1.29,0,0,1,.87-.26,2.37,2.37,0,0,1,.89.18q0,.22,0,.72h-.19a.86.86,0,0,0-.06-.37.62.62,0,0,0-.27-.21.92.92,0,0,0-.41-.1.68.68,0,0,0-.46.15.47.47,0,0,0-.17.37.39.39,0,0,0,.14.32,2.2,2.2,0,0,0,.76.24,2.59,2.59,0,0,1,.6.17.59.59,0,0,1,.23.24.76.76,0,0,1,.09.37.94.94,0,0,1-.37.74,1.46,1.46,0,0,1-1,.31,3.61,3.61,0,0,1-.88-.12q-.09,0-.09-.07v0a1.13,1.13,0,0,0,0-.17c0-.21,0-.37,0-.48v-.15Z"/><path class="cls-3" d="M189.22,27.81v1.25a3.65,3.65,0,0,0,0,.62.37.37,0,0,0,.13.21.39.39,0,0,0,.25.08.45.45,0,0,0,.18,0,.67.67,0,0,0,.17-.11l.09.11-.31.36-.2.05-.18,0a.85.85,0,0,1-.4-.08.54.54,0,0,1-.24-.22.88.88,0,0,1-.07-.41V27.83l-.5,0v-.14l.5-.22q0-.45,0-1a5,5,0,0,0,.53-.25l.08.06q0,.25-.05,1.17h.88l0,.33h-.85Z"/><path class="cls-3" d="M191.52,28a2.64,2.64,0,0,0,.28-.32,1.2,1.2,0,0,1,.33-.32.65.65,0,0,1,.32-.09.68.68,0,0,1,.27,0,.06.06,0,0,1,0,.06v0a4.34,4.34,0,0,0-.06.72h-.14a.53.53,0,0,0-.17-.23.42.42,0,0,0-.24-.07.55.55,0,0,0-.35.13.62.62,0,0,0-.21.35,4.76,4.76,0,0,0-.05.9,6.68,6.68,0,0,0,0,.74c0,.07,0,.12.06.14a.75.75,0,0,0,.36.07h.19v.18l-.92,0-.83,0v-.18l.3,0a.33.33,0,0,0,.2-.06.66.66,0,0,0,.06-.31q0-.46,0-1.09a3.53,3.53,0,0,0-.06-.9c0-.06-.11-.09-.26-.09h-.27v-.18a5,5,0,0,0,.55-.09,2.22,2.22,0,0,0,.43-.14l.07,0,0,0a.19.19,0,0,1,0,.09Z"/><path class="cls-3" d="M193.22,32l.15-.49h.07a.7.7,0,0,0,.17.15.33.33,0,0,0,.17.05.47.47,0,0,0,.36-.19,4.81,4.81,0,0,0,.5-1.06q-.14-.37-.56-1.4l-.3-.73-.24-.55c-.07-.2-.19-.29-.33-.29h-.13V27.3l.58,0,.92,0v.18h-.23a.3.3,0,0,0-.18,0,.12.12,0,0,0-.06.1.9.9,0,0,0,.06.22q.32.88.76,1.89.42-.92.73-1.78a1.48,1.48,0,0,0,.09-.3q0-.1-.22-.13l-.24,0V27.3l.67,0,.56,0v.18h-.11a.3.3,0,0,0-.15,0,.34.34,0,0,0-.12.12q-.1.16-.59,1.23-.13.29-.68,1.6-.48,1.1-.55,1.21A.88.88,0,0,1,194,32a.82.82,0,0,1-.42.11l-.19,0Z"/><g class="cls-4"><rect class="cls-5" x="-82.44" y="-113.93" width="424.86" height="546.94"/><rect class="cls-6" x="-82.44" y="-113.93" width="424.86" height="546.94"/></g><path class="cls-2" d="M8.71,12.49a5.07,5.07,0,0,0-1.54,3.75,5.14,5.14,0,0,0,.6,2.38,4.43,4.43,0,0,0,1.5,1.75,15.92,15.92,0,0,0,3.1,1.36,15.12,15.12,0,0,1,3,1.29,4.25,4.25,0,0,1,1.24,1.23,3.09,3.09,0,0,1,.44,1.69,3.64,3.64,0,0,1-1.28,2.79,5.34,5.34,0,0,1-3.73,1.17,6,6,0,0,1-4-1.1q-1.28-1.1-1.31-3.88h-.2v5.59h5.14q.41,0,1.67-.14A6.22,6.22,0,0,0,15.25,30a4.37,4.37,0,0,0,1.16-.82,5.85,5.85,0,0,0,1-1.2A4.92,4.92,0,0,0,18,26.56a5.93,5.93,0,0,0,.18-1.5,4.62,4.62,0,0,0-1-3.08A6.24,6.24,0,0,0,15,20.28q-1.09-.5-4.06-1.5A4.94,4.94,0,0,1,8.71,17.3a3.2,3.2,0,0,1-.54-1.85,3.67,3.67,0,0,1,1.16-2.73,4.28,4.28,0,0,1,3.13-1.13,5.23,5.23,0,0,1,2.11.41,5.17,5.17,0,0,1,1.66,1.17l.73.77.16,0-.92-2.4-.1,0a9.31,9.31,0,0,0-1.26-.29A10.88,10.88,0,0,0,12.75,11a5.5,5.5,0,0,0-4,1.51m14.51-.08a10.32,10.32,0,0,0-3.85,3.72A8.92,8.92,0,0,0,18,20.72a8.63,8.63,0,0,0,1.08,4.12A10.92,10.92,0,0,0,25.35,30a14.17,14.17,0,0,0,3.91.48H37v-.2h-.28a.94.94,0,0,1-.88-.4,2.64,2.64,0,0,1-.24-1.31v-3a2,2,0,0,1,.28-1.25A1.46,1.46,0,0,1,37,24v-.2h-5V24a1.37,1.37,0,0,1,1,.25,1.44,1.44,0,0,1,.35,1.14v2.91c0,.71-.15,1.16-.44,1.33a5.78,5.78,0,0,1-2.19.33l-1,0a13.74,13.74,0,0,1-2.43-.22,9.32,9.32,0,0,1-2.76-.86A7.25,7.25,0,0,1,22.24,27a7.47,7.47,0,0,1-1.47-2.66,11.13,11.13,0,0,1-.39-3.08,10.39,10.39,0,0,1,2.38-7,7.63,7.63,0,0,1,6.1-2.8,8.81,8.81,0,0,1,3.88.84,7.59,7.59,0,0,1,2.75,2.12h.19l-.79-2.22a16.22,16.22,0,0,0-6-1.26,11.17,11.17,0,0,0-5.66,1.43"/><g class="cls-7"><rect class="cls-2" x="-51.59" y="-20.87" width="147.69" height="106.36"/></g><path class="cls-8" d="M39.49,7.71V39.2l-31,0a4.14,4.14,0,0,1-4.32-4.44l0-30.89H35.72A4,4,0,0,1,39.49,7.71Z"/><path class="cls-5" d="M53.26,9.41v0l.76.09.47,0,.23.12.12,0,0,0c.54,0,.85,0,1,.32v0l.09.12h0c.1,0,.16,0,.19.09v.07h0v0l.25.12a.81.81,0,0,1,.16.24v.06a.74.74,0,0,1,0,.15l.12,0c.15,0,.18.07.18.24v0h0l0,.36a.2.2,0,0,1,.1.12l-.09.24-.07,0-.1.28a1.44,1.44,0,0,1-.7.8.23.23,0,0,1,0,.09l-.1,0h0v0l-.37.28h-.07c-.13,0-.19,0-.21.15a1.11,1.11,0,0,1-.38.16c-.09,0-.12-.06-.13-.2l.16,0,0,0,.07,0,0,0H55l0,0c.1-.16.19-.24.28-.24h.12l0,0,.07-.19h0l.09-.09h0A.93.93,0,0,1,56,12v-.09l.09,0,.13-.45-.32-.15-.06-.24-.4-.33-.25-.27h-.32l0-.21-.25,0,0-.09h0v-.08A2.65,2.65,0,0,0,54,10l-.82-.15-.71,0v.09l0-.09-.66.09,0,0h-.07c-.63,0-.91.11-1.06.69l0,.31-.09.52v.19a1.84,1.84,0,0,0,.06.45l0,.15h0L51,13.45h.07l.06.48.12,0,0,.17,0,0,.43,1h.09l.13.33,0,0,0,.12.13.29.37.67.07.17a1,1,0,0,1,.22.39.7.7,0,0,0,0,.16l.09.24a1.18,1.18,0,0,1,.19.57.69.69,0,0,1,0,.24l0,.08.1.43h0a2,2,0,0,1,.1.48v0a.4.4,0,0,1-.13.29l-.18.36h0l-.22.24-.28.12a3.79,3.79,0,0,1-.48.24l-.31.15,0,0a.57.57,0,0,1-.53.27h-.07l0,0,0,0h-.16l0,0h-.26l-.12.12-.35-.07-.23.07v0h-.09l0,0-.31,0h-.21v0L48,20.52c-.13,0-.19,0-.19-.19l-.49-.24,0,0h0a.3.3,0,0,1-.18,0l0-.12h-.07v-.12a.2.2,0,0,0-.22-.12h-.07l0-.12,0,0,.07-.07-.21-.21a.25.25,0,0,0,.15,0c.1,0,.16-.06.22-.16a.78.78,0,0,1-.16-.36,1.16,1.16,0,0,1,.06-.31h0l.22-.44v.08h-.09c.07,0,.12,0,.15-.12a.75.75,0,0,0,0-.21l0,.13.25-.61h0l.41-.36h0l.41-.48-.09,0,.16-.07h-.08l.08,0,.18-.12,0,0L49,16V16l.19-.12c0,.11-.06.17-.1.17h0l-.06.24-.18,0-.26.24h0l0,.08h-.12v0c0,.1-.06.17-.15.17a.36.36,0,0,1-.07.24h-.07l-.34,1h0l-.19.91.45.53a.33.33,0,0,0,.34.27v0l.6.29h0q.46.11.93.27h1.17l0,0,.26-.12-.14,0,.43-.09h-.12l.19-.07,0,0,.09,0v0h0l0-.08v0a2.78,2.78,0,0,0,.35-.84l-.09,0L52,18.65l.09-.4,0,0c-.21-.06-.19-.15-.21-.36l-.09-.91-.34-.36v0a2,2,0,0,1-.2-.43l-.12-.4,0,0v0A.53.53,0,0,1,51,15.4a1.38,1.38,0,0,0,0-.27l-.12,0,0-.12-.15,0V15a.57.57,0,0,0-.19-.48v0h0l-.1-.15,0-.28-.16-.2.06-.12,0-.12-.16,0a2.84,2.84,0,0,0,.31-.32c0-.12-.21-.22-.5-.36h0c-.16-.18-.25-.3-.25-.4a1.48,1.48,0,0,1,.06-.31h0V12h.07l-.09-.15h0l.07-1v-.19l.09,0,.09-.17,0-.07.16,0,0-.07.15,0,0,0v0h.07a1.14,1.14,0,0,0,0-.19.14.14,0,0,1,.12-.07h.07l0-.06,0,0a.28.28,0,0,0,.29-.15h0l0-.09h.09v.07l.07-.07h0L51,9.77v.06l.16-.06H51.1l.84-.19h-.23l1-.16.35,0,0,0,.15-.08Zm7.39.24.12.07L60.7,10h-.09l0,.16h-.12v.24l-.16.15v.33l-.12.12v.17l-.07,0-.12.31-.09.09v.15l0,.12-.09-.07-.31.64,0,.15-.12,0,0,.19-.16.12h.07l0,.21L58.89,13l-.35.39L58,14.2l0,.17-.07,0,0,.2h-.06c-.09,0-.15,0-.15.07s0,.08.13.12l1-.12.63,0v-.16l.24.15.35-.08.16.32-.68.18L59.31,15l-.12.09-1.52.07.09,0-.32,0-.15.16h-.21v.12l.09.12-.21.24.09.08,0,.33-.19,0L56.7,17l-.24.32-.16,1.53.12,1,.23.57.28,0,.19,0v-.09l.28,0,.23-.12.26-.36.16,0,.07-.07h.09l0-.09.09-.08v-.16h.07l0-.19.07,0-.07-.08h.12l.07,0v-.15l0,.07,0-.19.11-.09.12.09,0-.21.23,0v-.12l.26,0v.21L59.2,19l-.12,0v.07l-.42.24,0,.12-.09.17,0,.27h-.16l-.07,0-.12.2h-.12l0,.12-.23.21-.23.12-.12,0,0,.09h-.07l0,.07-.19,0v.07h-.47l-.21.12-.23,0-.5-.24-.16-.23v-.13l-.09-.15v-.09l-.15-.24,0-.19.12,0-.12-.28.07,0,0-.29,0-.45.07-.15v-.24l.09-.24.09-.12,0-.19.09,0,0-.16.07-.32L56,17,56,16.92l.18-.16v-.37l.1-.22.09-.08V16l.11,0v-.15l.08,0,.12-.12,0-.19.12-.28H55.49l-.16-.15,0-.24.19-.13.29-.08.31,0,.35.07.35-.07.09,0,0-.08.09,0v-.08h.12l.26-.49.26-.36.13-.55.07,0L58,13,58,13l-.09-.09.24-.31v.07l-.07.12h.12v-.15l.16-.28,0-.12.07-.19.21-.21.18-.38.25-.22v-.15l.12-.21h.12l0-.16.18-.24.19-.12,0-.15V10h.21l0-.24h.28Zm.67,8.2,0,.28-.15.24-.13.3,0,.23L61,19v.15l0,0,0,.27.12,0v.15l.1,0,.13.18.56.11.13,0,.13-.09h0l.25-.12.18-.12h.16l0-.06.1-.1.16,0L63,19.34h.12l.1-.11.26-.24.15-.16.22-.07.13-.14.09-.16.12,0,0-.11.1-.09h.09l0-.07.12-.16.1-.12,0,.08.1-.24.09-.11.13-.09v-.07l.15-.14.1-.09.13-.15.1-.13.13.09-.07.22-.21.25-.12.18,0,.06H65l0,.12-.13.12-.12.24-.23,0,0,.21h0l-.12.13-.1.11-.18.16-.22.17-.1.11-.12.17-.19.13-.25.3-.25.18-.18.2-.18.12-.13.14-.15.12-.16,0-.19.08-.15.12-.24.06-.26,0-.12,0-.16,0-.1,0-.18-.09-.16-.19v-.07l-.07-.1-.09-.15,0,0,0,0-.12-.27.06-.16v-.37l-.06-.15.09-.16.06-.21,0-.19h.08l0-.23.09-.11v-.17l.13-.18.1-.28.09,0,0-.27.08,0,.12-.28.07-.16.12-.18.07-.17h0l.09-.15,0,0,.1-.12,0-.09.12-.06.13-.06.12-.27.13-.26.09.09,0-.2.16-.09,0,0,.1-.15.18-.1.21-.11.29-.37.13,0,.17-.14.16-.17.41-.25.38-.14h.27v.07l.19,0-.06.34.06.17-.1.34s0,0,0,.07a.54.54,0,0,1-.19.45l-.07.12-.13.18-.11,0,0,.13,0,.18-.1.11H64l0,.18-.35.28-.56.55-.28.08-.08,0,0,.12-.26.11-.2.22-.13,0-.28.14-.31.09Zm2.26-3.14-.28.2-.23.15-.18.26-.25.12,0,.19-.16.14-.15.29-.19.36-.18.15v.1l-.1.08,0,.06v.13l-.13.15-.06.18-.12.18h.16l.22,0,.19-.13.23-.12.2-.25s0,0,0,0a.76.76,0,0,0,.26-.09l.18-.1.1,0,.16-.3.22-.15.18-.28.23-.24.07-.29.17-.24V15L64,14.74l-.16-.09Zm3.48.82-.16.32-.24.19,0,.12-.12,0-.23.12,0-.24.21-.21.07,0v-.12Zm5.28-2v.15l.12.09.09.31-.09.4-.15.12-.09.15-.19.12h.12v.09l-.43.6L71,16.64l-.24.13,0,.2.07,0-.12.15-.12.09,0,.07-.16.16-.07.19-.12,0v.15l-.16.09,0,.22-.26.16-.12.24v.16l-.07,0,0,.08-.21.07-.07.09-.07,0,0,.12v.09h-.12l-.23.24,0,.13-.26.13-.1.14-.18.07-.43.43h-.13l-.07.17-.28.08,0,0-.28-.12v-.15l0,0,0-.17.06-.12,0-.24,0-.39.07.12,0-.24.08-.16,0-.24.1-.16,0-.16.15-.15v-.17l.12-.12L67.48,18l.12,0,0-.48.12-.21,0-.27.11-.21-.07-.08,0-.17,0,0v-.16l.07-.24v-.29l.09-.15,0-.09.09-.07,0-.17,0-.07-.16,0-.16.12-.12.12-.4,0v-.17l.09,0,0,0,.09-.15.38-.33h.21l.28-.15h.12v-.09l.19-.07,0,.07.12-.18.15-.06.28.12-.07.16-.63,2.4v.48l-.07.16V18l-.09.24v.15l0,0,0,.24h0l-.09.31v.24l.09.09,0,.12,0,.24.27,0,0-.08.19-.16V19.2l.12,0,.12-.21.06-.15.17-.29,0,.16.07-.19v-.12l.12-.12v-.12l.28-.17.12-.19,0,.19,0-.24v-.12l.09-.12-.09,0,.16,0,0-.24.09-.21.16-.25.25-.18,0,.12.12-.4.07-.08h-.07l.12-.28.16,0v-.15l.19-.21.19-.48.32-.45.07-.27v-.21l0-.18,0-.24.18,0,.09-.18Zm1.51,4.36,0,.28-.15.24-.13.3,0,.23,0,.13v.15l0,0,0,.27.12,0v.15l.1,0,.13.18.56.11.13,0,.13-.09h0l.25-.12.17-.12h.16l0-.06.1-.1.16,0-.06-.09h.12l.1-.11L76,19l.15-.16.22-.07.13-.14.09-.16.12,0,0-.11.1-.09h.09l0-.07L77,18l.1-.12,0,.08.11-.24.09-.11.13-.09v-.07l.15-.14.11-.09.13-.15.1-.13.13.09-.07.22-.2.25-.12.18,0,.06h-.1l0,.12-.13.12-.12.24-.23,0,0,.21h0l-.12.13-.1.11-.18.16-.22.17-.1.11-.12.17-.19.13-.25.3-.25.18-.18.2-.18.12-.13.14-.15.12-.16,0-.19.08-.15.12-.23.06-.26,0-.12,0-.16,0-.1,0-.18-.09-.16-.19v-.07l-.07-.1-.09-.15,0,0,0,0-.12-.27.06-.16,0-.25v-.12l-.06-.15.09-.16.06-.21,0-.19h.07l0-.23.09-.11v-.17l.13-.18.1-.28.09,0v-.27l.07,0,.12-.28.07-.16.12-.18.07-.17h0l.09-.15,0,0,.1-.12v-.09l.12-.06L74.4,16l.12-.27.13-.26.09.09,0-.2.16-.09v0l.1-.15.18-.1.21-.11.29-.37.13,0,.18-.14.16-.17.41-.25.38-.14h.26v.07l.19,0-.06.34.06.17-.1.34s0,0,0,.07a.53.53,0,0,1-.19.45l-.07.12-.13.18-.12,0,0,.13v.18l-.1.11h-.13v.18l-.35.28-.56.55-.28.08-.07,0,0,.12-.26.11-.21.22-.13,0-.28.14-.31.09Zm2.26-3.14-.28.2-.23.15-.18.26-.25.12,0,.19-.16.14-.15.29-.19.36-.18.15v.1l-.1.08,0,.06v.13l-.13.15-.06.18-.12.18h.16l.22,0,.19-.13.24-.12.21-.25s0,0,0,0a.75.75,0,0,0,.26-.09l.18-.1.1,0,.16-.3.22-.15.18-.28.23-.24.07-.29.17-.24V15l-.06-.22-.16-.09Zm5.61-.37,0,.25-.07.12v.09l-.18.39h.13l-.16.22,0,.14-.07.09,0,.06-.13.11-.06.38-.1,0v.12l-.28.6-.07,0-.09.27-.06.08-.14.41-.19.39,0,.21-.12,0-.07.24,0,.15L80,18.9,80.9,18V18L81,18l.1-.15,0-.19.09-.11v-.12l.1.08v-.12l.22-.2,0,.12.07-.21,0,0,.19-.18h.09v-.08l.09,0,.2-.36.18,0v-.12l.06-.1.06.09.07-.13h.12l.06-.17h-.07l.23-.24v-.12H83l.34-.21.13,0,.06-.09h.34l.21.53-.34,1.59-.12.34,0,.16,0,.11.12-.08,0,.6L84,19l.49-.22.16-.17.19-.13.09.08h0l0,.13-.22.24-.19.1-.12.15-.28.12-.31.21h-.13l0,.14h-.12l-.18.25-.16,0-.17.06-.24-.28-.09-.27V19l-.15-.09h.09v-.46l.13-.19,0-.26.13-.13,0-.19-.1-.21.13,0,0-.17.07-.14-.06-.17.06.08,0-.21L83,16.58h-.22l-.34.32h-.07l-.13.24-.1,0-.1.22-.18.06-.7.93-.27.27v.09l-.13.09-.87,1-.23.24-.25.11-.09.3-.41.2-.09-.21.07-.16,0,.09.23-.37,0-.12.1-.21-.07-.37.09.12,0-.12-.06-.21.12,0,.06,0v-.24l.1-.16,0-.19.09.07,0-.16,0,0,.09-.33,0,0,.1-.27h0l0-.09.06-.21,0,0,.07-.09,0-.17v-.09h-.07l0-.17.21,0-.07-.17h.07l-.06-.08.1,0,.09-.18h0l-.09-.12.13,0,.07-.58.06.06-.07-.18h.09l.12-.27.06-.21h0L80.9,15V14.8l.23-.06v0l.09-.07.07,0,.06-.31,0,0h.13Zm18.42-4.45.44.11.16.21.18,0,.07.21.07.08h.14l.11.3.12.12,0,.22,0,.12h.09v.24l0,.52,0,.12,0,.09,0,.18-.15.42V13h0v.18l-.09.06,0,.18-.1.12-.1.22,0,0-.16.11-.07.15-.25.17-.26-.06-.09-.3.09-.24.09-.63.18-.33.07-.28-.13-.19-.06-.39v-.39l-.15-.24-.13-.17v-.09H100l-.07-.21-.22-.14-.23-.09h-.36l-.56,0-.38.18-.48.34-1,.49-.5.4-.65.57-.28.29-.37.3-.13.29-.28.32-.28.24-.06.18-.18.16-.17.09,0,.21-.16.19-.07.06,0,.22-.12.19-.1.22-.06.2-.14.28-.15.36,0,.18-.19.49-.12.66v.18l-.09.1.09.44v.49l.13.22,0,.18,0,0,.13.15,0,.15.29.34V20l.06.12h.2l.18.14v.13l.2,0,.1.16.24,0,.25,0,.15,0,.13.1.5,0,1.08-.21.35-.12.54-.34.27-.11.4-.24.25-.09.16-.21.34-.14,0,.06.07-.15.21-.07L99,19l.15-.17h.16l.1-.19.15-.12,0,0,.08-.15.35-.29.12,0,0-.15h.07l.13-.22.23-.21.19,0,0,.27-.13.15-.19.15-.06.13-.22.17-.21.18-.15.1-.34.3-.2.19-.35.26-1.15.66-.16.19-.47.21-.68.32-1.39.46-.15-.06-.1.11-.15,0-.31.12-.76-.07-.69-.22-.6-.45-.25-.37L92,20l0-.3.07-.34-.18-.06-.06-.15.06-.23.07-.06v-.19l-.22-.16,0-.18.16-.26v-.23l.1-.1,0-.23.1-.21.1-.11,0-.25.09-.15,0-.18.1-.21.09-.15.1-.09,0-.15.09,0,.08-.16.18-.22,0-.11.06-.11.07-.19v-.06L93,15l.18-.11v-.2l.15-.28.1-.11.22-.38.22-.19.14-.24.28-.37h.13l0-.15.19-.25.25-.23.25-.07.1-.1.07-.15.21-.27.23-.15.17-.08.24-.21.28-.15.14-.15.53-.38.51-.27.81-.39,1-.26Zm18.42.69-.24.58,0,.35-.06.13-.47.12h-.46l-.25-.25,0-.21,0-.14-1.25.51-.48.12-.31.22-1.23.7-.81.59-.32.37-.16,0-1,.84-.15.09-.16.21-.19.12-.31.34-.28.21-.17.26-.18.15-.06.1-.21.19-.06.13-.13.08-.12.14,0,.09h-.12l0,.08-.47.6-.63,1-.13.51,0,.79.2.26.07.21.69,0,1.31-.42.15-.13.17,0,0,0,.13,0,0-.09h.32l-.06-.13.39-.15.27-.09.13,0L112,19l.32-.2,0,0,.12-.1h-.09l.13-.12.06-.07,0,.12.07-.19.1,0,.22-.25,0,.09.33-.4.41-.22.4-.16h.12v-.18l.25-.15.17-.22.12-.08h.15l.06-.1.13,0V16.7h.12l.14-.08,0,0v-.18l.18-.07.09,0,.16-.21h-.1l.07-.12H116l.15-.12h0l.16-.39h.21l0,.06.2-.48.12-.51-.1.1,0-.13.14-.09,0,.09.31-.37v0l.27-.12.09,0,0-.14.35-.16.15,0h0l0,0h.29l0,.15,0,.18-.09,0-.12.45-.18.25-.38,1.08-.16.39,0,.12-.47,1.44-.12.21-.07.09-.31,1.12L116,20.74l-.42.78-.09,0-.07.18-.12.21-.07.16h-.08l-.14.16-.25.24v.06l-.4.19-.2.18-.65.33v.09h-.07c-.34,0-.44.18-.62.25l-1,.08-.17-.12,0-.07h-.17l-.25-.18-.06-.26-.29-.19-.16-.55.1-.07-.13-.36.11-.24.17-.21-.13-.18,0-.12,0-.07h.1l0-.14.19-.07.1-.17.26-.09.19,0-.06.18-.22.3-.1.54.09.24v.3l.29.39,0,.12.15.08L112,23l.37,0,.07.07.09-.12.49,0,.44-.12.27-.1.49-.25.27-.63.07,0,.1-.34.41-1,.5-.94.18-.69.27-1.47.2-1-.11-.07-.57.41-1.5,1-1.22,1-2.67,1.45-.46.18-.22.12-.35.13,0,0-.39.08-.25.07-.3,0-.23.09-.1-.09-.17.09-.35-.14-.37-.52v-.14l-.09-.47.12-.58.56-1,.44-.6.15-.26.19-.19.1-.12-.07,0,.1-.14.25-.16.2-.26.15-.21.07-.12.12-.07.12-.14.06,0,0,0,.12-.15.18-.06v-.12l.38-.25.18-.29.35-.21h.07l.06-.13.16-.12v-.08l.15-.18.12,0,0-.12.09,0,.07,0V14l0,0V14l.19-.17.07.09.38-.48.38-.19.1-.07.12.07,0-.13-.06,0,0,0,.23-.22.22,0,.15-.17,0,0,0-.09.22-.13A6.85,6.85,0,0,1,116.4,11l.66-.21.21-.12.82-.18.16-.09.28.09Zm4.57,3-.06.14a1.56,1.56,0,0,1,0,.24.48.48,0,0,1-.13.36l0,.07h-.07l.07.07c0,.18-.06.28-.17.33v.12l-.14.08h.16a2.21,2.21,0,0,0-.24.9c-.19.49-.33.75-.33.79v0a.24.24,0,0,0,.11,0c.09,0,.12,0,.15-.13h0a.68.68,0,0,1,.41-.47c0-.16.25-.28.65-.54a1,1,0,0,1,.81-.49l.2,0a3.59,3.59,0,0,1,0,.45,2.06,2.06,0,0,1-.33,1c0,.28-.12.38-.36.38l-.16,0-.13-.56a1.13,1.13,0,0,0-.13-.19l-.16.09c-.15,0-.21.09-.22.25l-.15.08-.56.66v-.07l-.12.15c0,.14-.06.19-.2.22s0,.06,0,.09,0,.11-.09.11h0c0,.33-.11.45-.39.64l-.25.58a.72.72,0,0,1,0,.12c0,.15-.12.23-.32.36a.71.71,0,0,1-.23.49c-.39.37-.62.58-.72.58h-.1c-.06,0-.08,0-.08-.12a.64.64,0,0,1,0-.24l.16-.12.07-.1,0-.27.12-.16.15-.06.08-.11a.42.42,0,0,0-.09-.14,1.12,1.12,0,0,1,.16-.29l0,.14h.07l.06-.31h-.07v-.08l.12-.16.13,0,0-.18.09-.11,0-.28h0a1.6,1.6,0,0,0,.34-.66v-.1a.42.42,0,0,1,.25-.45l.13-.66.19-.39,0-.22.09-.22,0-.24,0-.91.12-.29.07,0c.15-.37.26-.52.57-.52l.15,0Zm3,4.24,0,.28-.15.24-.14.3v.23l0,.13v.15l0,0,0,.27.12,0v.15l.1,0,.13.18.55.11.14,0,.13-.09h0l.25-.12.17-.12h.16l0-.06.1-.1.16,0-.05-.09h.11l.11-.11.27-.24.15-.16.22-.07.13-.14.09-.16.12,0,0-.11.11-.09h.09l0-.07.12-.16.1-.12,0,.08.1-.24.09-.11.13-.09v-.07l.15-.14.11-.09.13-.15.1-.13.13.09-.07.22-.2.25-.12.18,0,.06h-.1l0,.12-.13.12-.12.24-.23,0,0,.21h0l-.11.13-.11.11-.18.16-.22.17-.11.11-.12.17-.19.13-.25.3-.25.18-.18.2-.18.12-.13.14-.15.12-.16,0-.19.08-.14.12-.24.06-.26,0-.12,0-.16,0-.11,0-.18-.09-.16-.19v-.07l-.07-.1-.09-.15,0,0,0,0-.12-.27.06-.16v-.37l-.06-.15.09-.16.06-.21,0-.19h.07l0-.23.08-.11v-.17l.14-.18.1-.28.09,0v-.27l.07,0,.12-.28.08-.16.12-.18.07-.17h0l.09-.15,0,0,.1-.12v-.09l.12-.06.13-.06.12-.27.13-.26.08.09,0-.2.16-.09v0l.1-.15.18-.1.21-.11.29-.37.13,0,.17-.14.17-.17.41-.25.38-.14h.26v.07l.19,0-.06.34.06.17-.1.34s0,0,0,.07a.54.54,0,0,1-.19.45l-.07.12-.13.18-.12,0,0,.13v.18L129,16h-.13v.18l-.35.28-.56.55-.28.08-.07,0,0,.12-.26.11-.2.22-.13,0-.28.14-.31.09Zm2.26-3.14-.28.2-.23.15-.17.26-.25.12,0,.19-.16.14-.15.29-.19.36-.18.15v.1l-.1.08,0,.06v.13l-.14.15-.06.18-.12.18h.16l.22,0,.19-.13.23-.12.21-.25s0,0,0,0a.79.79,0,0,0,.27-.09l.17-.1.1,0,.16-.3.22-.15.17-.28.24-.24.07-.29.18-.24,0-.24-.06-.22-.16-.09Zm3.64,3.14,0,.28-.15.24-.13.3v.23l0,.13v.15l0,0,0,.27.12,0v.15l.1,0,.13.18.56.11.13,0,.13-.09h0l.25-.12.18-.12h.16l0-.06.11-.1.16,0-.06-.09h.12l.1-.11.26-.24.15-.16.22-.07.13-.14.09-.16.12,0,0-.11.1-.09h.09l0-.07.12-.16.1-.12,0,.08.11-.24.09-.11.13-.09v-.07l.15-.14.1-.09.13-.15.1-.13.13.09-.07.22-.21.25-.12.18,0,.06h-.1l0,.12-.13.12-.12.24-.23,0,0,.21h0l-.12.13-.11.11-.17.16-.22.17-.11.11-.12.17-.19.13-.25.3-.25.18-.18.2-.18.12-.13.14-.15.12-.16,0-.19.08-.15.12-.24.06-.26,0-.12,0-.16,0-.1,0-.18-.09-.16-.19v-.07l-.07-.1-.09-.15,0,0,0,0-.12-.27.06-.16,0-.25v-.12l-.06-.15.09-.16.06-.21,0-.19h.08l0-.23.08-.11v-.17l.14-.18.1-.28.08,0v-.27l.08,0,.11-.28.07-.16.12-.18.08-.17h0l.09-.15,0,0,.1-.12,0-.09.12-.06.13-.06.12-.27.13-.26.09.09,0-.2.16-.09v0l.11-.15.17-.1.2-.11.3-.37.13,0,.18-.14.16-.17.41-.25.38-.14h.26v.07l.19,0-.06.34.06.17-.1.34s0,0,0,.07a.54.54,0,0,1-.19.45l-.07.12-.14.18-.12,0,0,.13,0,.18-.11.11h-.13l0,.18-.35.28-.56.55-.28.08-.07,0,0,.12-.26.11-.21.22-.13,0-.28.14-.31.09Zm2.26-3.14-.28.2-.23.15-.18.26-.25.12,0,.19-.16.14L133,16l-.19.36-.17.15v.1l-.11.08,0,.06v.13l-.13.15-.06.18-.12.18h.16l.22,0,.19-.13.23-.12.2-.25s0,0,0,0a.77.77,0,0,0,.26-.09l.18-.1.11,0,.16-.3.22-.15.18-.28.23-.24.08-.29.17-.24V15l-.06-.22-.16-.09Zm5.6-.37v.25l-.07.12v.09l-.18.39h.13l-.16.22,0,.14-.07.09,0,.06-.13.11-.06.37-.1,0v.12l-.28.6-.07,0-.09.27-.06.08-.15.41-.19.39,0,.21-.12,0-.08.24v.15l-.08.18.92-.86V18l.07.09.1-.15,0-.19.09-.11v-.12l.11.08v-.12l.22-.2,0,.12.08-.21,0,0,.19-.18h.08v-.08l.09,0,.2-.36.18,0v-.12l.06-.1.06.09.07-.13h.12l.06-.17h-.07l.23-.24,0-.12h.19l.34-.21.13,0,.06-.09h.33l.21.53L142,17.63l-.12.34,0,.16,0,.11.12-.08,0,.6.31.24.48-.22.16-.17.19-.13.09.08h0l0,.13-.22.24-.19.1-.12.15-.28.12-.31.21H142l0,.14h-.12l-.18.25-.16,0-.18.06-.23-.28-.09-.27,0-.37-.15-.09h.09v-.46l.13-.19,0-.26.13-.13,0-.19-.1-.21.14,0v-.17l.07-.14-.06-.17.06.08,0-.21-.19-.34h-.22l-.34.32h-.08l-.13.24-.1,0-.1.22-.18.06-.7.93-.27.27v.09l-.13.09-.87,1-.23.24-.25.1-.09.3-.41.2L137,20.5l.07-.16,0,.09.24-.37,0-.12.1-.21-.07-.37.09.12,0-.12-.06-.21.12,0,.06,0,0-.24.1-.16,0-.19.09.07,0-.16,0,0,.09-.33,0,0,.1-.27h0l0-.09.06-.21,0,0,.08-.09,0-.17v-.09h-.07l0-.17.2,0-.07-.17h.07l-.06-.08.1,0,.09-.18h0l-.09-.12.13,0,.07-.58.06.06-.08-.18h.09l.12-.27.06-.21h0l.14-.36V14.8l.23-.06v0l.09-.07.07,0,.06-.31,0,0h.13Zm7.81-.93v.12l.07,0-.07.08-.11.44h-.09l0,.45-.32.8,0,.19-.16.29v.12h0l-.07.19,0,.29-.12.12-.15.48-.21.48-.07.12h0v.24l-.23.4.12.07.08-.12h.07l0-.07.12-.12.12,0,.09-.19.15,0,0-.09-.07,0,.27-.4.09,0,0-.15h.09l.35-.45h.07v-.2h.19l.09-.12v-.12l.12,0v-.15l.15,0v.07l.09-.19.54-.34v-.09l.19-.09.16,0-.07-.12.19,0,0,0V15.2h.38l0,.16-.07,0,.07.17v.19l-.07.16,0,0-.14.55-.12.12,0,.17-.12.28v.15l-.07-.07v.17h-.08l0,.12-.12,0-.08.48-.11.16-.16.48h.19l0-.12.11-.12.08,0,0-.17.15-.12.4-.4.12-.19h.07l.09-.08,0,0H150l0-.08.12-.09.07,0,.09-.2.24-.13.31-.27.1,0,.09-.06.21.07v1l0,.24,0,.08L151,18l.12.12,0,0,.07.4,0,.08,0,.09.23.19.28-.16.31,0-.12,0,.28-.12,0,0,.12-.16.12-.12v.12l.12-.17.14,0,0,.25-.36.3-.49.24-.19.16h-.12l-.12.15-.09,0-.07.15-.31,0,0,.08-.31,0h-.28l-.11-.12-.07-.17,0,0,0-.32-.08,0v-.17l0,0h-.12l.09-.12-.09-.24.09-.27h0l0-.09-.09-.07,0-.28-.23.09,0,.08-.27.19-.09.17-.7.88-.15.07,0,.08h0l-.23.28h-.12l-.12.2-.15.12-.09.16-.31.08,0-.15.09-.21,0,0v-.17l0,0,.11-.21,0-.15h.07l0-.21v-.12h.07V18.6l.13-.24,0-.16,0,0,.07,0v-.12l.28-.6,0-.15h.07l0-.49.07-.07h-.07l0-.12v-.2l.09,0-.09-.07v-.17h-.31l0,.19-.26.16-.09.2-.15.12-.11.21-.12,0-.16.27-.08,0-.11.24-.12,0,0,0-.19.09-.07.24h-.09l0,.15-.21.12v.12l-.07,0-.07.12-.12.08L146,19l-.12.12h0l0,.21,0,0-.23.31,0,.16h0l-.16.36-.59.43-.07.09-.21,0v-.15l.09-.12,0-.16.09,0,.07-.19.07-.12V19.8l.09-.31h0l.12-.29,0-.24.16-.19.11-.37.19-.27v-.2l.07-.12-.07-.09.07,0,0-.16.07.12,0-.29.23-.48.09-.28.36-.67V15.8h0l.16-.36v-.16l.07-.07V15l.12,0v-.2l.06-.12v-.12l.06,0v-.17l-.07.09.07-.28.12.08-.12-.19.07-.2.12-.21h.09l.3-.31,0,0,.23-.08Zm9.1,5.28-.19.14-.17.22a.46.46,0,0,0-.28.26l-.38.33-.74.58-.28.21-.41.15a1.11,1.11,0,0,1-.27.16h0l-.35,0a.35.35,0,0,1-.31-.15l0-.18v-.17l0-.16,0-.14a1.94,1.94,0,0,1,.35-.75l.06-.09.12-.21.13-.15.08-.12a.71.71,0,0,0,.35-.52l.18-.06,0-.13.28-.31a.39.39,0,0,0,.23-.33l.07,0,.12-.12.23-.07.09-.16a.18.18,0,0,0,.19-.21l.34-.24.17-.21.16-.13.24-.18c.2-.12.29-.27.39-.32l.21-.09.14-.15a5.11,5.11,0,0,0,.5-.27l.23-.07.15,0v-.15l.06-.21h.07c.06,0,.1-.06.1-.15s0-.06,0-.09l.07,0,.1-.09,0-.12H159l0-.12.29-.06a1.14,1.14,0,0,1,.49-.11.16.16,0,0,1,.12.07c0,.12-.07.24-.12.36a.77.77,0,0,0-.09.33.34.34,0,0,1,0,.12h-.09l-.19.51a2.87,2.87,0,0,1-.37,1.18l0,.37-.12,0-.07.16a.63.63,0,0,0,.12.36.62.62,0,0,0,0,.17.4.4,0,0,0,0,.12.28.28,0,0,1-.19.24v.5l-.12.08a.31.31,0,0,1,.07.18,1.4,1.4,0,0,1,0,.26v.16c0,.46.06.69.25.69s.4-.39.83-.62l.19-.15.13-.08.12,0a.48.48,0,0,1-.29.44,3.1,3.1,0,0,1-.66.54l-.16.11-.25.12-.28.17-.21,0-.1.1h-.14l-.16-.06-.18-.16-.14-.21v-.28l.07-.25.07-.4.06-.24v-.4l.07,0a1.09,1.09,0,0,1,0-.16.62.62,0,0,1,.19-.33l0-.16.08-.16,0-.21.09-.35.06-.31.1-.45a2.45,2.45,0,0,0-.32.48l-.06.13c-.1,0-.09.21-.22.45l-.09.17-.07.21-.08.12-.09.12-.18.15v0a.25.25,0,0,1-.07.16l-.21.15,0,.09Zm-1.68-.45-.19.24,0,0a1.83,1.83,0,0,0-.59,1.2c0,.16,0,.24.15.24a.83.83,0,0,0,.44-.22,0,0,0,0,0,0,0s.07,0,.1-.12l.15-.1a1.75,1.75,0,0,1,.37-.21l.25-.29a.63.63,0,0,0,.18-.17.15.15,0,0,1,0-.07c0-.11.07-.18.24-.21s.23-.22.38-.39l.06-.16.09-.17.24-.24.1-.21c.12,0,.22-.27.47-.64l.12-.24,0-.15.06-.21L158,16v0a.22.22,0,0,1,.06-.14.42.42,0,0,1,.07-.19l-.1,0-.34.12-.4.24-.44.34-.5.46-.26.24-.15.24a1.06,1.06,0,0,1-.32.17l-.15.14-.15.25-.08.15-.13.24Zm9.32-3.9v.25l-.07.12v.09l-.18.39h.13l-.16.22,0,.14-.07.09,0,.06-.13.11-.06.37-.1,0v.12l-.28.6-.07,0-.09.27-.06.08-.15.41-.19.39,0,.21-.12,0-.08.24v.15l-.09.18.92-.86V18l.07.09.1-.15,0-.19.09-.11v-.12l.1.08v-.12l.21-.2,0,.12.08-.21,0,0,.19-.18h.09v-.08l.09,0,.21-.36.17,0v-.12l.06-.1.06.09.07-.13h.12l.06-.17h-.07l.23-.23v-.12h.19l.34-.21.13,0,.06-.09h.34l.2.53-.34,1.59-.12.34,0,.16,0,.11.12-.08,0,.6.31.24.48-.22.16-.17.19-.13.09.08h0l0,.13-.22.24-.19.1-.12.15-.28.12-.31.21h-.13l0,.14h-.12l-.18.25-.16,0-.18.06-.23-.28-.09-.27V19l-.14-.09h.09v-.46l.13-.19,0-.26.13-.13,0-.19-.1-.21.13,0,0-.17.07-.14-.06-.17.06.08,0-.21-.19-.34h-.22l-.34.32h-.07l-.13.24-.1,0-.11.22-.18.06-.71.93-.26.27v.09l-.14.09-.86,1-.24.24-.24.1-.09.3-.41.2-.09-.21.07-.16,0,.09.23-.37,0-.12.1-.21-.07-.37.09.12,0-.12-.05-.21.12,0,.06,0v-.24l.1-.16v-.19l.09.07,0-.16,0,0,.09-.33,0,0,.1-.27h0l0-.09.06-.21,0,0,.08-.09,0-.17v-.09h-.08l0-.17.2,0-.07-.16h.07l-.06-.08.11,0,.09-.18h0l-.08-.12.13,0,.07-.58.06.06-.07-.18h.08l.12-.27.06-.21h0l.13-.36V14.8l.23-.06v0l.09-.07.08,0,.06-.31,0,0h.13Zm11.39-1.24,0,0,0,.05.11,0,.16-.05.24,0,.29.08,0,.11.16-.06.26.11,0,.08.1,0,0,.14.21.05v.05l0,0v0l.19.05.21.31-.05.05.05.08,0,.08.08.11.06-.19.16,0,0,.21v.16l0,.13.06.06,0-.11.11-.11.21.16,0,.11.11,0,.13.24.11.13.16.28.24.67.16.24.16.31,0,.16.16.62,0,.21,0,.08.08.14v.15l-.06.2,0,.08-.08.21,0,.08-.08.08,0,0-.16.3-.14.19,0,0-.06.11h0l-.16.17-.22.05-.34.2-.7.26h-.29l-.08.06h-1.1l-1-.13-.08.06,0-.08-.05,0v-.21l.07-.05.06-.15.31-.17.43-.11h.16l.13-.09.73-.21v0l.9-.13.43,0,.32.11.11.16L179,19l.05-.17v-.08l0,0-.08-.44,0-.11-.06-.1.08-.11,0-.11,0-.08h.06v-.1l0-.08,0-.06-.14,0,0-.31-.08-.33,0-.3-.06,0-.05-.16h-.08l-.11-.18,0-.22-.06-.1-.08,0v-.11l-.13,0-.08-.14-.13-.16,0-.16-.08,0-.13-.16-.08-.2h-.06l-.13-.21-.05-.06-.14-.08v-.05l0,0-.08-.1-.16-.08-.24-.28,0-.08-.08,0,0,.11-.16-.08-.06-.11-.13-.05h-.13l-.14-.14h-.13l-.05,0-.24-.05-.81.05-.18.08.05,0h-.16l-.05.08-.19.08-.13.08-.08.27-.06.08-.05.33-.05.1,0,0,0,.08-.08.11,0,.24L173.8,15v-.87l.08-.19v0l.08-.13.16-.06.13-.08,0-.11.08-.08.08,0,.16-.12.43-.15h.16l.45-.11ZM177,14.64l0,.16-.32.74-.34.59h-.06l0,.11h-.06l0,.24-.14.1-.45.73-.06.23-.13.16,0,0-.08.08,0,.06h-.08V18l0,.08,0,.08-.08.06-.08.33-.16.22h0l-.13.41-.32.65-.29.88-.08.1-.08-.05,0-.13,0-.11,0,0,0-.16,0,0-.06-.16.06-.05,0-.19v-.28l.06,0v-.11l.05-.05v-.11l.08-.11,0-.05.11-.13,0-.06h-.06l.19-.16v-.13l.12-.13,0-.08,0,0,0-.05,0,.05,0-.11,0,.06.08-.17-.05,0,.05,0v-.08h0l0-.08.1-.08.06-.28.05,0,.24-.44,0,0,.08-.08,0,.06.16-.31.08-.21.05.08v-.19l0-.1v-.06l0,.06.08-.16.11-.33v-.08l0,0,.08-.29.16-.25v-.14h.06l-.06,0,.07-.08.15,0,0,0,.05-.06.06,0,.07-.14Zm1.09,4.64-1,.13-.83.28,0,.11.58.05h.91l0,0,.64-.1.08-.06.16-.08.05-.1.13-.16-.1-.06-.4,0Zm5.64-6.19,0,0,0,.05.11,0,.16-.05.24,0,.29.08,0,.11.16-.06.26.11,0,.08.1,0,0,.14.21.05v.05l0,0v0l.19.05.21.31-.05.05.05.08,0,.08.08.11.06-.19.16,0,.05.21v.16l0,.13.06.06,0-.11.11-.11.21.16,0,.11.11,0,.13.24.11.13.16.28.24.67.16.24.16.31,0,.16.16.62,0,.21,0,.08.08.14v.15l-.06.2,0,.08-.08.21,0,.08-.08.08,0,0-.16.3-.14.19,0,0-.06.11h0l-.16.17-.22.05-.34.2-.7.26h-.29l-.08.06h-1.1l-1-.13-.08.06,0-.08,0,0v-.21l.07-.05.06-.15.31-.17.43-.11h.16l.13-.09.73-.21v0l.9-.13.43,0,.32.11.11.16.13-.15.05-.17v-.08l0,0-.08-.44,0-.11-.06-.1.08-.11,0-.11,0-.08H187v-.1l0-.08,0-.06-.14,0,0-.31-.08-.33,0-.3-.06,0,0-.16h-.08l-.11-.18,0-.22-.06-.1-.08,0v-.11l-.13,0-.08-.14-.13-.16,0-.16-.08,0-.13-.16-.08-.2h-.06l-.13-.21-.05-.06-.14-.08v-.05l0,0-.08-.1-.16-.08-.24-.28,0-.08-.08,0,0,.11-.16-.08-.06-.11-.13-.05h-.13l-.14-.14h-.13l0,0-.24-.05-.81.05-.18.08.05,0h-.16l0,.08-.19.08-.13.08-.08.27-.06.08,0,.33-.05.1,0,0,0,.08-.08.11,0,.24-.08-.11v-.87l.08-.19v0l.08-.13.16-.06.13-.08,0-.11.08-.08.08,0,.16-.12.43-.15H183l.45-.11Zm1.12,1.55,0,.16-.32.74-.34.59h-.06l0,.11H184l0,.24-.14.1-.45.73-.06.23-.13.16,0,0-.08.08,0,.06h-.08V18l0,.08,0,.08-.08.06-.08.33-.16.22h0l-.13.41-.32.65-.29.88-.08.1-.08-.05,0-.13,0-.11,0,0,0-.16,0,0-.06-.16.06-.05,0-.19v-.28l.06,0v-.11l.05-.05v-.11l.08-.11,0-.05.11-.13,0-.06h-.06l.19-.16v-.13l.12-.13,0-.08,0,0,0-.05,0,.05,0-.11,0,.06.08-.17-.05,0,.05,0v-.08h.05l0-.08.1-.08.06-.28.05,0,.24-.44,0,0,.08-.08,0,.06.16-.31.08-.21.05.08v-.19l0-.1v-.06l0,.06.08-.16.11-.33v-.08l0,0,.08-.29.16-.25v-.14H184l-.06,0L184,15l.15,0,0,0,0-.06.06,0,.07-.14Zm1.09,4.64-1,.13-.83.28,0,.11.58.05h.91l0,0,.64-.1.08-.06.16-.08,0-.1.13-.16-.1-.06-.4,0Zm7.17-6.19v0l.52.06.32,0,.16.08.08,0,0,0c.37,0,.58,0,.68.22v0l.06.08h0c.07,0,.11,0,.13.06v.05h0v0l.17.08a.5.5,0,0,1,.11.16v0a.43.43,0,0,1,0,.1l.08,0c.1,0,.12.05.12.16v0h0l0,.24a.13.13,0,0,1,.07.08l-.06.16-.05,0-.07.19a1,1,0,0,1-.48.54.19.19,0,0,1,0,.06l-.07,0h0v0l-.25.19h0c-.09,0-.13,0-.14.1a.76.76,0,0,1-.26.11c-.06,0-.08,0-.09-.13l.11,0,0,0,.05,0,0,0h.08l0,0c.07-.11.13-.16.19-.16h.08l0,0,0-.13h0l.06-.06h0a.62.62,0,0,1,.21-.43v-.06l.06,0,.09-.31-.22-.1,0-.16-.27-.23-.17-.18h-.22l0-.14-.17,0,0-.06h0v-.05a1.74,1.74,0,0,0-.36-.11l-.56-.1-.48,0v.06l0-.06-.45.06,0,0h-.05c-.43,0-.62.07-.72.47v.21l-.06.36v.13a1.36,1.36,0,0,0,0,.31l0,.1h0l.24.8h0l0,.32.08,0v.11l0,0,.29.65h.06l.09.23,0,0,0,.08.09.2.25.46.05.11a.73.73,0,0,1,.15.27.51.51,0,0,0,0,.11l.06.16a.8.8,0,0,1,.13.39.46.46,0,0,1,0,.16l0,.05.07.3h0a1.49,1.49,0,0,1,.07.33v0a.28.28,0,0,1-.09.19l-.12.24h0l-.15.16-.19.08a2.51,2.51,0,0,1-.33.16l-.21.1v0a.39.39,0,0,1-.36.18h-.05l0,0v0h-.11v0h-.18L191,21l-.24-.05-.16.05v0h-.06l0,0-.21,0h-.14v0l-.76-.22c-.09,0-.13,0-.13-.13l-.33-.16,0,0h0a.2.2,0,0,1-.12,0l0-.08h-.05v-.08a.14.14,0,0,0-.15-.08h0l0-.08,0,0,.05,0-.14-.14a.18.18,0,0,0,.1,0c.07,0,.11,0,.15-.11a.52.52,0,0,1-.11-.24.91.91,0,0,1,0-.21h0l.15-.3V19h-.06A.11.11,0,0,0,189,19a.48.48,0,0,0,0-.14l0,.09.17-.42h0l.28-.24h0l.28-.33-.06,0,.11,0h-.05l.05,0,.12-.08,0,0,.28-.18v0l.13-.08c0,.07,0,.11-.07.11h0l0,.16-.12,0-.18.16h0l0,.05h-.08v0c0,.07,0,.11-.1.11a.25.25,0,0,1-.05.16h0l-.23.68h0l-.13.62.31.36a.22.22,0,0,0,.23.18v0l.41.19h0q.31.08.63.18h.8l0,0,.18-.08-.1,0,.29-.06H192l.13-.05,0,0,.06,0v0h0l0-.05v0a2,2,0,0,0,.24-.57l-.06,0-.15-.43.06-.28,0,0c-.14,0-.13-.1-.14-.24l-.06-.62-.23-.24v0a1.3,1.3,0,0,1-.14-.29l-.08-.28,0,0v0a.37.37,0,0,1-.09-.2,1,1,0,0,0,0-.18l-.08,0,0-.08-.1,0v-.08a.39.39,0,0,0-.13-.33v0h0l-.07-.1,0-.19-.11-.13,0-.08,0-.08-.11,0a1.89,1.89,0,0,0,.21-.22c0-.08-.14-.15-.34-.24h0c-.11-.12-.17-.21-.17-.28a.87.87,0,0,1,0-.21h0v-.06h.05l-.06-.1h0l0-.66V14l.06,0,.06-.11,0-.05.11,0,0-.05.1,0,0,0v0h0a.94.94,0,0,0,0-.13.09.09,0,0,1,.08-.05h0l0,0,0,0c.1,0,.17,0,.2-.1h0l0-.06h.06v.05l0-.05h0l.08-.05v0l.11,0h-.05l.57-.13H192l.66-.11.24,0,0,0,.1-.05Z"/></svg>