<svg id="Layer_1" data-name="Layer 1" xmlns="http://www.w3.org/2000/svg" xmlns:xlink="http://www.w3.org/1999/xlink" width="350" height="192" viewBox="0 0 350 192"><defs><style>.cls-1,.cls-6,.cls-8{fill:none;}.cls-2{fill:#33b7c5;}.cls-3{fill:#00aebf;}.cls-4{clip-path:url(#clip-path);}.cls-5{fill:#271a11;}.cls-6{stroke:#231f20;stroke-width:3.19px;}.cls-7{clip-path:url(#clip-path-2);}.cls-8{stroke:#33b7c5;stroke-width:1.59px;}</style><clipPath id="clip-path"><path class="cls-1" d="M137.24,11.66l-.07,70.65c0,5.5,3.37,10.15,9.89,10.16l70.95,0v-72c0-4.47-4.18-8.84-8.6-8.84Z"/></clipPath><clipPath id="clip-path-2"><path class="cls-2" d="M149.59,33.1a10.83,10.83,0,0,0-3.28,8,11,11,0,0,0,1.29,5.09,9.46,9.46,0,0,0,3.2,3.74,34,34,0,0,0,6.63,2.9,32.32,32.32,0,0,1,6.45,2.76,9.09,9.09,0,0,1,2.65,2.62,6.61,6.61,0,0,1,1,3.62,7.78,7.78,0,0,1-2.73,6q-2.72,2.49-8,2.49-5.77,0-8.52-2.35t-2.79-8.29h-.42V71.62h11q.87,0,3.57-.31a13.3,13.3,0,0,0,4-.91A9.34,9.34,0,0,0,166,68.65a12.5,12.5,0,0,0,2.08-2.56,10.52,10.52,0,0,0,1.26-2.93,12.68,12.68,0,0,0,.39-3.2,9.87,9.87,0,0,0-2.17-6.58,13.33,13.33,0,0,0-4.5-3.64q-2.33-1.07-8.67-3.21-3.68-1.47-4.84-3.15a6.83,6.83,0,0,1-1.16-4,7.84,7.84,0,0,1,2.48-5.83,9.15,9.15,0,0,1,6.69-2.42,11.19,11.19,0,0,1,4.51.88,11.05,11.05,0,0,1,3.54,2.5c1,1.08,1.55,1.63,1.55,1.65l.34-.06-2-5.14a.58.58,0,0,1-.22-.05,19.91,19.91,0,0,0-2.69-.62,23.25,23.25,0,0,0-4.46-.48,11.75,11.75,0,0,0-8.62,3.24m31-.18a22,22,0,0,0-8.22,8,19.06,19.06,0,0,0-2.9,9.8,18.45,18.45,0,0,0,2.31,8.8,23.33,23.33,0,0,0,13.35,11.11,30.28,30.28,0,0,0,8.37,1h16.6V71.2h-.59a2,2,0,0,1-1.89-.86,5.65,5.65,0,0,1-.51-2.8V61.09a4.28,4.28,0,0,1,.6-2.67,3.13,3.13,0,0,1,2.4-.69V57.3H199.47v.42a2.93,2.93,0,0,1,2.15.54,3.08,3.08,0,0,1,.76,2.44v6.23c0,1.53-.31,2.48-.94,2.84s-2.18.61-4.67.71l-2.21.06a29.36,29.36,0,0,1-5.2-.47,19.91,19.91,0,0,1-5.91-1.84,15.5,15.5,0,0,1-4.94-4.14,16,16,0,0,1-3.15-5.69,23.79,23.79,0,0,1-.83-6.58,22.22,22.22,0,0,1,5.08-14.88,16.3,16.3,0,0,1,13-6,18.82,18.82,0,0,1,8.3,1.8,16.22,16.22,0,0,1,5.88,4.54h.41l-1.7-4.74a34.68,34.68,0,0,0-12.83-2.69,23.88,23.88,0,0,0-12.09,3.06"/></clipPath></defs><title>Artboard 1</title><path class="cls-3" d="M105.77,161a7.8,7.8,0,0,0-.2,1.87h-.47v-.54a1.27,1.27,0,0,0-.14-.72,1.72,1.72,0,0,0-.74-.4,3.73,3.73,0,0,0-1.26-.21,2.49,2.49,0,0,0-1.71.55,1.8,1.8,0,0,0-.62,1.41,1.67,1.67,0,0,0,.25.93,1.44,1.44,0,0,0,.69.56,8.06,8.06,0,0,0,1.83.3,6.88,6.88,0,0,1,1.89.36,1.75,1.75,0,0,1,.79.72,2.25,2.25,0,0,1,.29,1.17,3,3,0,0,1-1.14,2.35,4.49,4.49,0,0,1-3,1,6.71,6.71,0,0,1-1.31-.13,8.31,8.31,0,0,1-1.33-.39,13.94,13.94,0,0,0,.12-2.09h.46V168a2.79,2.79,0,0,0,.07.81.89.89,0,0,0,.32.33,2.77,2.77,0,0,0,.89.4,4.27,4.27,0,0,0,1.11.14,2.94,2.94,0,0,0,2-.6,1.94,1.94,0,0,0,.7-1.53,1.69,1.69,0,0,0-.24-.92,1.43,1.43,0,0,0-.67-.56,5.78,5.78,0,0,0-1.58-.28,7.37,7.37,0,0,1-2.08-.37,1.85,1.85,0,0,1-.86-.77,2.52,2.52,0,0,1-.31-1.31,2.75,2.75,0,0,1,1-2.16,3.87,3.87,0,0,1,2.64-.84,6.53,6.53,0,0,1,1.36.15A7.19,7.19,0,0,1,105.77,161Z"/><path class="cls-3" d="M109.14,164.91l1-.91a1.22,1.22,0,0,1,.39-.24,2.85,2.85,0,0,1,.9-.15,2.55,2.55,0,0,1,1.26.29,1.78,1.78,0,0,1,.76.77,3.54,3.54,0,0,1,.23,1.47l0,2.14a4.39,4.39,0,0,0,.09,1.28.53.53,0,0,0,.5.22h.49v.39q-.72,0-1.25,0t-1.1,0q.13-1.32.13-3.57a3.66,3.66,0,0,0-.16-1.29,1.29,1.29,0,0,0-.54-.61,1.71,1.71,0,0,0-.91-.23,1.85,1.85,0,0,0-1.12.33,1.39,1.39,0,0,0-.57.73,7.93,7.93,0,0,0-.07,1.38q0,1.24,0,2.31a.61.61,0,0,0,.1.4.82.82,0,0,0,.56.16h.49v.39q-1.15,0-1.83,0t-1.64,0v-.39h.49q.5,0,.59-.23a21,21,0,0,0,.08-2.81q0-1.16,0-1.81a.42.42,0,0,0-.11-.3,1,1,0,0,0-.54-.08h-.49v-.39a8.25,8.25,0,0,0,1-.18,7.55,7.55,0,0,0,1-.35l.11,0c.07,0,.11.05.11.16v1.17Z"/><path class="cls-3" d="M114.85,166.92a3.34,3.34,0,0,1,.43-1.69A3.06,3.06,0,0,1,116.5,164a3.65,3.65,0,0,1,1.78-.43,3.15,3.15,0,0,1,2.31.85,3.05,3.05,0,0,1,.87,2.28,3.37,3.37,0,0,1-1.13,2.67,3.54,3.54,0,0,1-2.42.89,2.88,2.88,0,0,1-2.21-.91A3.49,3.49,0,0,1,114.85,166.92Zm1.28-.48a4.72,4.72,0,0,0,.57,2.39,1.81,1.81,0,0,0,1.65,1,1.63,1.63,0,0,0,1.33-.62,3,3,0,0,0,.5-1.89,4.79,4.79,0,0,0-.3-1.78,2.34,2.34,0,0,0-.79-1.09,1.86,1.86,0,0,0-1.09-.34,1.78,1.78,0,0,0-1,.27,1.63,1.63,0,0,0-.63.73A3.24,3.24,0,0,0,116.12,166.44Z"/><path class="cls-3" d="M124.1,165.15a5.72,5.72,0,0,0,.59-.68,2.53,2.53,0,0,1,.71-.68,1.38,1.38,0,0,1,.69-.18,1.44,1.44,0,0,1,.57.09.14.14,0,0,1,.1.13v.07a9.17,9.17,0,0,0-.12,1.54h-.31a1.12,1.12,0,0,0-.37-.49.9.9,0,0,0-.51-.14,1.17,1.17,0,0,0-.74.27,1.31,1.31,0,0,0-.46.76,10.14,10.14,0,0,0-.12,1.92,14,14,0,0,0,.07,1.59c0,.16.06.26.14.3a1.61,1.61,0,0,0,.76.14h.41v.39q-1,0-2,0t-1.78,0v-.39l.65-.05a.7.7,0,0,0,.44-.13,1.41,1.41,0,0,0,.12-.66q0-1,0-2.32a7.47,7.47,0,0,0-.13-1.92q-.09-.18-.56-.18h-.57v-.39a10.51,10.51,0,0,0,1.17-.19,4.75,4.75,0,0,0,.92-.3.37.37,0,0,1,.16,0,.12.12,0,0,1,.1,0,.4.4,0,0,1,0,.18Z"/><path class="cls-3" d="M129.72,163.59l.16.1q0,.51-.06,1.12,0,2,0,2.92t.06,1.51a.54.54,0,0,0,.13.34,1,1,0,0,0,.49.14l.46.06v.39q-1,0-1.8,0t-1.61,0v-.39l.58-.06c.23,0,.36-.06.42-.13a1.58,1.58,0,0,0,.1-.66q0-.86,0-2.38,0-1.05,0-1.62a.41.41,0,0,0-.12-.3.82.82,0,0,0-.47-.09h-.51v-.39q.83-.12,1.22-.22A9.29,9.29,0,0,0,129.72,163.59Zm-.54-3a.73.73,0,0,1,.54.23.75.75,0,0,1,.22.55.74.74,0,0,1-.22.54.76.76,0,0,1-1.3-.54.75.75,0,0,1,.22-.55A.73.73,0,0,1,129.18,160.58Z"/><path class="cls-3" d="M133.78,164.91l1-.91a1.22,1.22,0,0,1,.39-.24,2.85,2.85,0,0,1,.9-.15,2.55,2.55,0,0,1,1.26.29,1.78,1.78,0,0,1,.76.77,3.54,3.54,0,0,1,.23,1.47l0,2.14a4.39,4.39,0,0,0,.09,1.28.53.53,0,0,0,.5.22h.49v.39q-.72,0-1.25,0t-1.1,0q.13-1.32.13-3.57a3.66,3.66,0,0,0-.16-1.29,1.29,1.29,0,0,0-.54-.61,1.71,1.71,0,0,0-.91-.23,1.85,1.85,0,0,0-1.12.33,1.39,1.39,0,0,0-.57.73,7.93,7.93,0,0,0-.07,1.38q0,1.24,0,2.31a.61.61,0,0,0,.1.4.82.82,0,0,0,.56.16H135v.39q-1.15,0-1.83,0t-1.64,0v-.39H132q.5,0,.59-.23a21,21,0,0,0,.08-2.81q0-1.16,0-1.81a.42.42,0,0,0-.11-.3,1,1,0,0,0-.54-.08h-.49v-.39a8.25,8.25,0,0,0,1-.18,7.55,7.55,0,0,0,1-.35l.11,0c.07,0,.11.05.11.16v1.17Z"/><path class="cls-3" d="M144.79,164.88a2.23,2.23,0,0,1,.16.71,2.1,2.1,0,0,1-.37,1.17,2.63,2.63,0,0,1-1,.9,3.19,3.19,0,0,1-1.47.34h-.32a3,3,0,0,0-.56.49.55.55,0,0,0-.12.32.45.45,0,0,0,.26.41,2.55,2.55,0,0,0,1.08.15l.9,0,1.21,0a1.59,1.59,0,0,1,.82.17,1.35,1.35,0,0,1,.49.61,2.25,2.25,0,0,1,.2,1,2.6,2.6,0,0,1-.46,1.46,3.23,3.23,0,0,1-1.34,1.12,4.67,4.67,0,0,1-2,.42,3.35,3.35,0,0,1-2.15-.61,1.85,1.85,0,0,1-.75-1.5,1.94,1.94,0,0,1,.39-1.11,7.9,7.9,0,0,0,1.19-.67,2.1,2.1,0,0,1-.71-.33.51.51,0,0,1-.16-.39,1.13,1.13,0,0,1,.16-.56,1.39,1.39,0,0,1,.45-.41l.66-.47a2.42,2.42,0,0,1-1.17-.58,1.79,1.79,0,0,1-.48-1.28,2.31,2.31,0,0,1,.35-1.25,2.4,2.4,0,0,1,1-.89,3.94,3.94,0,0,1,1.69-.41,2.77,2.77,0,0,1,.9.14,2.74,2.74,0,0,1,.8.46H145a11.57,11.57,0,0,0,1.37-.06l.07.14a4.63,4.63,0,0,0-.36.62Zm-2.88,5.39a1.36,1.36,0,0,0-.66.11,2.15,2.15,0,0,0-.69.59,1.77,1.77,0,0,0-.2.89,1.56,1.56,0,0,0,.55,1.22,2.23,2.23,0,0,0,1.52.48,3,3,0,0,0,1.32-.28,2.16,2.16,0,0,0,.88-.77,1.82,1.82,0,0,0,.32-1,1.38,1.38,0,0,0-.22-.77,1,1,0,0,0-.53-.43,3.1,3.1,0,0,0-.71,0Zm1.85-4.32a2.05,2.05,0,0,0-.44-1.37,1.46,1.46,0,0,0-2.14-.1,1.64,1.64,0,0,0-.4,1.17,2.14,2.14,0,0,0,.43,1.42,1.36,1.36,0,0,0,1.08.51,1.38,1.38,0,0,0,1.06-.43A1.7,1.7,0,0,0,143.77,165.95Z"/><path class="cls-3" d="M151.17,165.46v-.92l.74-.42a4.24,4.24,0,0,1,.88-.39,2.9,2.9,0,0,1,.8-.11,2.5,2.5,0,0,1,1.51.42,1.65,1.65,0,0,1,.69,1.07,21.82,21.82,0,0,1,.1,2.42,14.22,14.22,0,0,0,.08,2c0,.13.16.19.34.19h.53v.45l-1.08,0q-.38,0-1,0v-.6c0-.19,0-.39,0-.59l-1.4,1.07a1.25,1.25,0,0,1-.37.2,1.76,1.76,0,0,1-.51.06,1.89,1.89,0,0,1-1.34-.43,1.5,1.5,0,0,1-.46-1.16,2.16,2.16,0,0,1,.33-1.19,1.93,1.93,0,0,1,.94-.76,18.46,18.46,0,0,1,2.82-.64,2,2,0,0,0-.38-1.29,1.64,1.64,0,0,0-1.32-.54,2.26,2.26,0,0,0-.61.08,1.9,1.9,0,0,0-.53.24q-.2.49-.36.93Zm3.57,1.08a8,8,0,0,0-2.39.76,1.25,1.25,0,0,0-.51,1.1,1.11,1.11,0,0,0,.29.8,1,1,0,0,0,.75.3,1.84,1.84,0,0,0,1-.28,3.28,3.28,0,0,0,.89-.85v-1.83Z"/><path class="cls-3" d="M159.73,164.91l1-.91a1.22,1.22,0,0,1,.39-.24,2.85,2.85,0,0,1,.9-.15,2.55,2.55,0,0,1,1.26.29,1.78,1.78,0,0,1,.76.77,3.54,3.54,0,0,1,.23,1.47l0,2.14a4.39,4.39,0,0,0,.09,1.28.53.53,0,0,0,.5.22h.49v.39q-.72,0-1.25,0t-1.1,0q.13-1.32.13-3.57a3.66,3.66,0,0,0-.16-1.29,1.29,1.29,0,0,0-.54-.61,1.71,1.71,0,0,0-.91-.23,1.85,1.85,0,0,0-1.12.33,1.39,1.39,0,0,0-.57.73,7.93,7.93,0,0,0-.07,1.38q0,1.24,0,2.31a.61.61,0,0,0,.1.4.82.82,0,0,0,.56.16h.49v.39q-1.15,0-1.83,0t-1.64,0v-.39h.49q.5,0,.59-.23a21,21,0,0,0,.08-2.81q0-1.16,0-1.81a.42.42,0,0,0-.11-.3,1,1,0,0,0-.54-.08h-.49v-.39a8.25,8.25,0,0,0,1-.18,7.55,7.55,0,0,0,1-.35l.11,0c.07,0,.11.05.11.16v1.17Z"/><path class="cls-3" d="M171,164v-2.46a.94.94,0,0,0-.1-.54.59.59,0,0,0-.43-.11h-.58v-.41a7.43,7.43,0,0,0,2.26-.49l.12.08q0,.69-.08,1.67l0,1.81v4.64a5.54,5.54,0,0,0,.07,1.26q.1.18.56.24l.48.06v.39q-.84-.06-1.48-.06l-.86.06q0-.46.07-1.3-.58.45-1.47,1.25a3.31,3.31,0,0,1-1,.19,2.47,2.47,0,0,1-1.92-.86,3.33,3.33,0,0,1-.77-2.31,3.61,3.61,0,0,1,.3-1.54,2.26,2.26,0,0,1,.71-.93,11.25,11.25,0,0,1,1.29-.73,2.82,2.82,0,0,1,1.24-.33,3.33,3.33,0,0,1,.8.1A4.38,4.38,0,0,1,171,164Zm0,1.17a3.45,3.45,0,0,0-1-.75,2.33,2.33,0,0,0-1.05-.25,1.77,1.77,0,0,0-1.43.65,2.89,2.89,0,0,0-.54,1.9,3,3,0,0,0,.62,2,1.91,1.91,0,0,0,1.51.72,1.76,1.76,0,0,0,1-.3,1.78,1.78,0,0,0,.66-.78,4,4,0,0,0,.21-1.52Z"/><path class="cls-3" d="M184,161a7.8,7.8,0,0,0-.2,1.87h-.47v-.54a1.27,1.27,0,0,0-.14-.72,1.72,1.72,0,0,0-.74-.4,3.73,3.73,0,0,0-1.26-.21,2.49,2.49,0,0,0-1.71.55,1.8,1.8,0,0,0-.62,1.41,1.67,1.67,0,0,0,.25.93,1.44,1.44,0,0,0,.69.56,8.06,8.06,0,0,0,1.83.3,6.88,6.88,0,0,1,1.89.36,1.75,1.75,0,0,1,.79.72,2.25,2.25,0,0,1,.29,1.17,3,3,0,0,1-1.14,2.35,4.49,4.49,0,0,1-3,1,6.71,6.71,0,0,1-1.31-.13,8.31,8.31,0,0,1-1.33-.39,13.94,13.94,0,0,0,.12-2.09h.46V168a2.79,2.79,0,0,0,.07.81.89.89,0,0,0,.32.33,2.77,2.77,0,0,0,.89.4,4.27,4.27,0,0,0,1.11.14,2.94,2.94,0,0,0,2-.6,1.94,1.94,0,0,0,.7-1.53,1.69,1.69,0,0,0-.24-.92,1.43,1.43,0,0,0-.67-.56,5.78,5.78,0,0,0-1.58-.28,7.37,7.37,0,0,1-2.08-.37,1.85,1.85,0,0,1-.86-.77,2.52,2.52,0,0,1-.31-1.31,2.75,2.75,0,0,1,1-2.16,3.87,3.87,0,0,1,2.64-.84,6.53,6.53,0,0,1,1.36.15A7.19,7.19,0,0,1,184,161Z"/><path class="cls-3" d="M187.6,160.1q-.12,2-.12,3.6v3.49a15.18,15.18,0,0,0,.09,2.35q0,.14.45.18l.58.06v.39q-.74,0-1.41,0t-2,0v-.39l.58,0c.26,0,.4-.09.44-.2a15.7,15.7,0,0,0,.09-2.41v-4.77l0-.89a.4.4,0,0,0-.53-.52h-.56v-.41a6.81,6.81,0,0,0,2.26-.53Z"/><path class="cls-3" d="M190.76,166.89a3,3,0,0,0,.68,2,2.23,2.23,0,0,0,1.71.69,3,3,0,0,0,.94-.16A3.82,3.82,0,0,0,195,169l.12.1-.22.57a4.88,4.88,0,0,1-1.16.49,4.64,4.64,0,0,1-1.23.16,3,3,0,0,1-2.22-.87,3.25,3.25,0,0,1-.84-2.36,3.92,3.92,0,0,1,.48-2,2.89,2.89,0,0,1,1.15-1,3.35,3.35,0,0,1,1.63-.47,2.56,2.56,0,0,1,1.9.71,2.67,2.67,0,0,1,.7,2v.4a5.66,5.66,0,0,1-.85.14q-.72.05-2,.05Zm0-.51q1.05,0,2.32,0,.51,0,1,0V166a2.77,2.77,0,0,0-.24-1.13,1.24,1.24,0,0,0-.52-.55,1.66,1.66,0,0,0-.86-.22,1.49,1.49,0,0,0-1.21.56A2.76,2.76,0,0,0,190.77,166.38Z"/><path class="cls-3" d="M197.55,166.89a3,3,0,0,0,.68,2,2.23,2.23,0,0,0,1.71.69,3,3,0,0,0,.94-.16,3.82,3.82,0,0,0,.93-.47l.12.1-.22.57a4.88,4.88,0,0,1-1.16.49,4.64,4.64,0,0,1-1.23.16,3,3,0,0,1-2.22-.87,3.25,3.25,0,0,1-.84-2.36,3.92,3.92,0,0,1,.48-2,2.89,2.89,0,0,1,1.15-1,3.35,3.35,0,0,1,1.63-.47,2.56,2.56,0,0,1,1.9.71,2.67,2.67,0,0,1,.7,2v.4a5.66,5.66,0,0,1-.85.14q-.72.05-2,.05Zm0-.51q1.05,0,2.32,0,.51,0,1,0V166a2.77,2.77,0,0,0-.24-1.13,1.24,1.24,0,0,0-.52-.55,1.66,1.66,0,0,0-.86-.22,1.49,1.49,0,0,0-1.21.56A2.76,2.76,0,0,0,197.56,166.38Z"/><path class="cls-3" d="M205.29,165l.95-.84a1.88,1.88,0,0,1,.61-.4,3.05,3.05,0,0,1,.93-.13,2.64,2.64,0,0,1,2,.75,2.61,2.61,0,0,1,.75,1.93,4.11,4.11,0,0,1-.17,1.16,3.43,3.43,0,0,1-.41.94,2.69,2.69,0,0,1-.55.61q-.1.08-.83.54l-.27.2a3.8,3.8,0,0,1-.83.47,2.14,2.14,0,0,1-.72.11,2.67,2.67,0,0,1-.67-.09,4.57,4.57,0,0,1-.74-.27v1q0,1.47,0,2.08a.51.51,0,0,0,.17.38,1.12,1.12,0,0,0,.63.12h.37v.38q-1.28,0-1.88,0t-1.68,0v-.38h.49q.52,0,.62-.22a13.78,13.78,0,0,0,.1-2.39v-4.17q0-1.08-.05-1.67a.58.58,0,0,0-.13-.38.85.85,0,0,0-.49-.09h-.53v-.42a9.77,9.77,0,0,0,1.86-.39l.42-.16c.07,0,.11.06.11.19l0,.72Zm0,3.73a2.8,2.8,0,0,0,.87.69,2.18,2.18,0,0,0,.93.2,1.88,1.88,0,0,0,1.64-.81,3.25,3.25,0,0,0,.57-1.92,2.89,2.89,0,0,0-.26-1.28,2,2,0,0,0-.76-.83,2.05,2.05,0,0,0-1.87-.14,2.12,2.12,0,0,0-.68.45,1.44,1.44,0,0,0-.37.53,4.36,4.36,0,0,0-.06,1Z"/><path class="cls-3" d="M221.36,166.92h-3.92L217,168a5.54,5.54,0,0,0-.45,1.33.27.27,0,0,0,.08.22,1,1,0,0,0,.43.11l.65.07v.43q-.65,0-1.46,0-1,0-1.72,0v-.43h.2a1.48,1.48,0,0,0,.61-.1,1,1,0,0,0,.3-.42q.48-1,1-2.11l1.87-4.23q.75-1.68,1-2.44h.46l3.43,8a7.87,7.87,0,0,0,.46,1,.68.68,0,0,0,.27.24,2.23,2.23,0,0,0,.67.1v.43q-.88,0-1.68,0t-2,0v-.43l.67,0a1.21,1.21,0,0,0,.43-.07.23.23,0,0,0,.1-.19,2.69,2.69,0,0,0-.2-.64Zm-3.67-.56h3.42l-1.71-4.08Z"/><path class="cls-3" d="M227,165l.95-.84a1.88,1.88,0,0,1,.61-.4,3.05,3.05,0,0,1,.93-.13,2.64,2.64,0,0,1,2,.75,2.61,2.61,0,0,1,.75,1.93,4.11,4.11,0,0,1-.17,1.16,3.43,3.43,0,0,1-.41.94,2.69,2.69,0,0,1-.55.61q-.1.08-.83.54l-.27.2a3.8,3.8,0,0,1-.83.47,2.14,2.14,0,0,1-.72.11,2.67,2.67,0,0,1-.67-.09,4.57,4.57,0,0,1-.74-.27v1q0,1.47,0,2.08a.51.51,0,0,0,.17.38,1.12,1.12,0,0,0,.63.12h.37v.38q-1.28,0-1.88,0t-1.68,0v-.38h.49q.52,0,.62-.22a13.78,13.78,0,0,0,.1-2.39v-4.17q0-1.08-.05-1.67a.58.58,0,0,0-.13-.38.85.85,0,0,0-.49-.09h-.53v-.42a9.77,9.77,0,0,0,1.86-.39l.42-.16c.07,0,.11.06.11.19l0,.72Zm0,3.73a2.8,2.8,0,0,0,.87.69,2.18,2.18,0,0,0,.93.2,1.88,1.88,0,0,0,1.64-.81,3.25,3.25,0,0,0,.57-1.92,2.89,2.89,0,0,0-.26-1.28,2,2,0,0,0-.76-.83,2.05,2.05,0,0,0-1.87-.14,2.12,2.12,0,0,0-.68.45,1.44,1.44,0,0,0-.37.53,4.36,4.36,0,0,0-.06,1Z"/><path class="cls-3" d="M235,164.91l1-.91a1.22,1.22,0,0,1,.39-.24,2.85,2.85,0,0,1,.9-.15,2.55,2.55,0,0,1,1.26.29,1.78,1.78,0,0,1,.76.77,3.54,3.54,0,0,1,.23,1.47l0,2.14a4.39,4.39,0,0,0,.09,1.28.53.53,0,0,0,.5.22h.49v.39q-.72,0-1.25,0t-1.1,0q.13-1.32.13-3.57a3.66,3.66,0,0,0-.16-1.29,1.29,1.29,0,0,0-.54-.61,1.71,1.71,0,0,0-.91-.23,1.85,1.85,0,0,0-1.12.33,1.39,1.39,0,0,0-.57.73,7.93,7.93,0,0,0-.07,1.38q0,1.24,0,2.31a.61.61,0,0,0,.1.4.82.82,0,0,0,.56.16h.49v.39q-1.15,0-1.83,0t-1.64,0v-.39h.49q.5,0,.59-.23a21,21,0,0,0,.08-2.81q0-1.16,0-1.81a.42.42,0,0,0-.11-.3,1,1,0,0,0-.54-.08h-.49v-.39a8.25,8.25,0,0,0,1-.18,7.55,7.55,0,0,0,1-.35l.11,0c.07,0,.11.05.11.16v1.17Z"/><path class="cls-3" d="M242.47,166.89a3,3,0,0,0,.68,2,2.23,2.23,0,0,0,1.71.69,3,3,0,0,0,.94-.16,3.82,3.82,0,0,0,.93-.47l.12.1-.22.57a4.88,4.88,0,0,1-1.16.49,4.64,4.64,0,0,1-1.23.16,3,3,0,0,1-2.22-.87,3.25,3.25,0,0,1-.84-2.36,3.92,3.92,0,0,1,.48-2,2.89,2.89,0,0,1,1.15-1,3.35,3.35,0,0,1,1.63-.47,2.56,2.56,0,0,1,1.9.71,2.67,2.67,0,0,1,.7,2v.4a5.66,5.66,0,0,1-.85.14q-.72.05-2,.05Zm0-.51q1.05,0,2.32,0,.51,0,1,0V166a2.77,2.77,0,0,0-.24-1.13,1.24,1.24,0,0,0-.52-.55,1.66,1.66,0,0,0-.86-.22,1.49,1.49,0,0,0-1.21.56A2.76,2.76,0,0,0,242.49,166.38Z"/><path class="cls-3" d="M248.55,165.46v-.92l.74-.42a4.24,4.24,0,0,1,.88-.39,2.9,2.9,0,0,1,.8-.11,2.5,2.5,0,0,1,1.51.42,1.65,1.65,0,0,1,.69,1.07,21.82,21.82,0,0,1,.1,2.42,14.22,14.22,0,0,0,.08,2c0,.13.16.19.34.19h.53v.45l-1.08,0q-.38,0-1,0v-.6c0-.19,0-.39,0-.59l-1.4,1.07a1.25,1.25,0,0,1-.37.2,1.76,1.76,0,0,1-.51.06,1.89,1.89,0,0,1-1.34-.43,1.5,1.5,0,0,1-.46-1.16,2.16,2.16,0,0,1,.33-1.19,1.93,1.93,0,0,1,.94-.76,18.46,18.46,0,0,1,2.82-.64,2,2,0,0,0-.38-1.29,1.64,1.64,0,0,0-1.32-.54,2.26,2.26,0,0,0-.61.08,1.9,1.9,0,0,0-.53.24q-.2.49-.36.93Zm3.57,1.08a8,8,0,0,0-2.39.76,1.25,1.25,0,0,0-.51,1.1,1.11,1.11,0,0,0,.29.8,1,1,0,0,0,.75.3,1.84,1.84,0,0,0,1-.28,3.28,3.28,0,0,0,.89-.85v-1.83Z"/><path class="cls-3" d="M22.43,153.4H18.51L18,154.49a5.54,5.54,0,0,0-.45,1.33.27.27,0,0,0,.08.22,1,1,0,0,0,.43.11l.65.07v.43q-.65,0-1.46,0-1,0-1.72,0v-.43h.2a1.48,1.48,0,0,0,.61-.1,1,1,0,0,0,.3-.42q.48-1,1-2.11l1.87-4.23q.75-1.68,1-2.44H21l3.43,8a7.87,7.87,0,0,0,.46,1,.68.68,0,0,0,.27.24,2.23,2.23,0,0,0,.67.1v.43q-.88,0-1.68,0t-2,0v-.43l.67,0a1.21,1.21,0,0,0,.43-.07.23.23,0,0,0,.1-.19,2.69,2.69,0,0,0-.2-.64Zm-3.67-.56h3.42l-1.71-4.08Z"/><path class="cls-3" d="M30.86,150.51v-2.46a.94.94,0,0,0-.1-.54.59.59,0,0,0-.43-.11h-.58V147a7.43,7.43,0,0,0,2.26-.49l.12.08q0,.69-.08,1.67l0,1.81v4.64a5.54,5.54,0,0,0,.07,1.26q.1.18.56.24l.48.06v.39q-.84-.06-1.48-.06l-.86.06q0-.46.07-1.3-.58.45-1.47,1.25a3.31,3.31,0,0,1-1,.19,2.47,2.47,0,0,1-1.92-.86,3.33,3.33,0,0,1-.77-2.31,3.61,3.61,0,0,1,.3-1.54,2.26,2.26,0,0,1,.71-.93,11.25,11.25,0,0,1,1.29-.73,2.82,2.82,0,0,1,1.24-.33,3.33,3.33,0,0,1,.8.1A4.38,4.38,0,0,1,30.86,150.51Zm0,1.17a3.45,3.45,0,0,0-1-.75,2.33,2.33,0,0,0-1.05-.25,1.77,1.77,0,0,0-1.43.65,2.89,2.89,0,0,0-.54,1.9,3,3,0,0,0,.62,2,1.91,1.91,0,0,0,1.51.72,1.76,1.76,0,0,0,1-.3,1.78,1.78,0,0,0,.66-.78,4,4,0,0,0,.21-1.52Z"/><path class="cls-3" d="M38,150.63v-.39q.7,0,1.25,0t1.37,0v.39h-.21a.79.79,0,0,0-.3.06.5.5,0,0,0-.18.12,8.89,8.89,0,0,0-.49.94q-.77,1.58-1.17,2.5t-1,2.47h-.7q-.9-2.23-1.83-4.34-.35-.77-.42-1a1.38,1.38,0,0,0-.34-.6.72.72,0,0,0-.48-.16h-.22v-.39q1,0,1.66,0t1.56,0v.39h-.3a1.38,1.38,0,0,0-.58.09.22.22,0,0,0-.12.2,1.89,1.89,0,0,0,.12.47q.12.35,1.64,4.1l1.22-2.93a12.25,12.25,0,0,0,.51-1.41.8.8,0,0,0,0-.18.22.22,0,0,0-.09-.19,1.25,1.25,0,0,0-.45-.1Z"/><path class="cls-3" d="M41.13,151.94V151l.74-.42a4.24,4.24,0,0,1,.88-.39,2.9,2.9,0,0,1,.8-.11,2.5,2.5,0,0,1,1.51.42,1.65,1.65,0,0,1,.69,1.07,21.82,21.82,0,0,1,.1,2.42,14.22,14.22,0,0,0,.08,2c0,.13.16.19.34.19h.53v.45l-1.08,0q-.38,0-1,0v-.6c0-.19,0-.39,0-.59l-1.4,1.07a1.25,1.25,0,0,1-.37.2,1.76,1.76,0,0,1-.51.06,1.89,1.89,0,0,1-1.34-.43,1.5,1.5,0,0,1-.46-1.16,2.16,2.16,0,0,1,.33-1.19,1.93,1.93,0,0,1,.94-.76,18.46,18.46,0,0,1,2.82-.64,2,2,0,0,0-.38-1.29A1.64,1.64,0,0,0,43,150.8a2.26,2.26,0,0,0-.61.08,1.9,1.9,0,0,0-.53.24q-.2.49-.36.93ZM44.7,153a8,8,0,0,0-2.39.76,1.25,1.25,0,0,0-.51,1.1,1.11,1.11,0,0,0,.29.8,1,1,0,0,0,.75.3,1.84,1.84,0,0,0,1-.28,3.28,3.28,0,0,0,.89-.85V153Z"/><path class="cls-3" d="M49.9,151.4l1-.91a1.22,1.22,0,0,1,.39-.24,2.85,2.85,0,0,1,.9-.15,2.55,2.55,0,0,1,1.26.29,1.78,1.78,0,0,1,.76.77,3.54,3.54,0,0,1,.23,1.47l0,2.14a4.39,4.39,0,0,0,.09,1.28.53.53,0,0,0,.5.22h.49v.39q-.72,0-1.25,0t-1.1,0q.13-1.32.13-3.57a3.66,3.66,0,0,0-.16-1.29,1.29,1.29,0,0,0-.54-.61,1.71,1.71,0,0,0-.91-.23,1.85,1.85,0,0,0-1.12.33A1.39,1.39,0,0,0,50,152a7.93,7.93,0,0,0-.07,1.38q0,1.24,0,2.31a.61.61,0,0,0,.1.4.82.82,0,0,0,.56.16h.49v.39q-1.15,0-1.83,0t-1.64,0v-.39h.49q.5,0,.59-.23a21,21,0,0,0,.08-2.81q0-1.16,0-1.81a.42.42,0,0,0-.11-.3,1,1,0,0,0-.54-.08h-.49v-.39a8.25,8.25,0,0,0,1-.18,7.55,7.55,0,0,0,1-.35l.11,0c.07,0,.11.05.11.16v1.17Z"/><path class="cls-3" d="M60.82,155.7l.18.16-.28.43a4.12,4.12,0,0,1-1,.38,4,4,0,0,1-1,.13,3.49,3.49,0,0,1-1.69-.38,2.61,2.61,0,0,1-1.07-1.1,3.61,3.61,0,0,1-.38-1.71,3.68,3.68,0,0,1,.29-1.52,2.41,2.41,0,0,1,.82-1,8,8,0,0,1,1.31-.72,3,3,0,0,1,1.24-.25,4.15,4.15,0,0,1,.9.08,3.64,3.64,0,0,1,.81.3,10.48,10.48,0,0,0-.18,1.8h-.43v-.34a1.11,1.11,0,0,0-.13-.61,1.28,1.28,0,0,0-.57-.36,2.63,2.63,0,0,0-1-.18,1.79,1.79,0,0,0-1.41.56,2.45,2.45,0,0,0-.49,1.67,3.41,3.41,0,0,0,.73,2.29,2.12,2.12,0,0,0,1.7.78,3.18,3.18,0,0,0,.8-.1A3.86,3.86,0,0,0,60.82,155.7Z"/><path class="cls-3" d="M63,153.38a3,3,0,0,0,.68,2,2.23,2.23,0,0,0,1.71.69,3,3,0,0,0,.94-.16,3.82,3.82,0,0,0,.93-.47l.12.1-.22.57a4.88,4.88,0,0,1-1.16.49,4.64,4.64,0,0,1-1.23.16,3,3,0,0,1-2.22-.87,3.25,3.25,0,0,1-.84-2.36,3.92,3.92,0,0,1,.48-2,2.89,2.89,0,0,1,1.15-1,3.35,3.35,0,0,1,1.63-.47,2.56,2.56,0,0,1,1.9.71,2.67,2.67,0,0,1,.7,2v.4a5.66,5.66,0,0,1-.85.14q-.72.05-2,.05Zm0-.51q1.05,0,2.32,0,.51,0,1,0v-.38a2.77,2.77,0,0,0-.24-1.13,1.24,1.24,0,0,0-.52-.55,1.66,1.66,0,0,0-.86-.22,1.49,1.49,0,0,0-1.21.56A2.76,2.76,0,0,0,63,152.87Z"/><path class="cls-3" d="M73.79,150.51v-2.46a.94.94,0,0,0-.1-.54.59.59,0,0,0-.43-.11h-.58V147a7.43,7.43,0,0,0,2.26-.49l.12.08q0,.69-.08,1.67l0,1.81v4.64A5.54,5.54,0,0,0,75,156q.1.18.56.24l.48.06v.39q-.84-.06-1.48-.06l-.86.06q0-.46.07-1.3-.58.45-1.47,1.25a3.31,3.31,0,0,1-1,.19,2.47,2.47,0,0,1-1.92-.86,3.33,3.33,0,0,1-.77-2.31,3.61,3.61,0,0,1,.3-1.54,2.26,2.26,0,0,1,.71-.93,11.25,11.25,0,0,1,1.29-.73,2.82,2.82,0,0,1,1.24-.33,3.33,3.33,0,0,1,.8.1A4.38,4.38,0,0,1,73.79,150.51Zm0,1.17a3.45,3.45,0,0,0-1-.75,2.33,2.33,0,0,0-1.05-.25,1.77,1.77,0,0,0-1.43.65,2.89,2.89,0,0,0-.54,1.9,3,3,0,0,0,.62,2,1.91,1.91,0,0,0,1.51.72,1.76,1.76,0,0,0,1-.3,1.78,1.78,0,0,0,.66-.78,4,4,0,0,0,.21-1.52Z"/><path class="cls-3" d="M89.38,149.45l-.05-1.21a4.72,4.72,0,0,0-1.26-.6,4.82,4.82,0,0,0-1.38-.2,3.94,3.94,0,0,0-2.93,1.11,4,4,0,0,0-1.1,3,4.79,4.79,0,0,0,.56,2.33,4.14,4.14,0,0,0,1.59,1.62,4.28,4.28,0,0,0,2.18.6,7.79,7.79,0,0,0,1.8-.21,3.7,3.7,0,0,0,1.34-.65l.14.14q-.14.31-.26.63a7.88,7.88,0,0,1-1.6.59,6.69,6.69,0,0,1-1.62.2,6.38,6.38,0,0,1-2.93-.64,4.68,4.68,0,0,1-1.94-1.78,4.91,4.91,0,0,1-.68-2.57,4.84,4.84,0,0,1,.69-2.56,4.58,4.58,0,0,1,1.94-1.75,6.88,6.88,0,0,1,3.08-.62,9.65,9.65,0,0,1,2.24.31l1,.22a6,6,0,0,0-.35,2Z"/><path class="cls-3" d="M90.79,153.4a3.34,3.34,0,0,1,.43-1.69,3.06,3.06,0,0,1,1.22-1.18,3.65,3.65,0,0,1,1.78-.43,3.15,3.15,0,0,1,2.31.85,3.05,3.05,0,0,1,.87,2.28,3.37,3.37,0,0,1-1.13,2.67,3.54,3.54,0,0,1-2.42.89,2.88,2.88,0,0,1-2.21-.91A3.49,3.49,0,0,1,90.79,153.4Zm1.28-.48a4.72,4.72,0,0,0,.57,2.39,1.81,1.81,0,0,0,1.65,1,1.63,1.63,0,0,0,1.33-.62,3,3,0,0,0,.5-1.89,4.79,4.79,0,0,0-.3-1.78,2.34,2.34,0,0,0-.79-1.09,1.86,1.86,0,0,0-1.09-.34,1.78,1.78,0,0,0-1,.27,1.63,1.63,0,0,0-.63.73A3.24,3.24,0,0,0,92.06,152.92Z"/><path class="cls-3" d="M99,154.58V155a1.38,1.38,0,0,0,.09.66,1.72,1.72,0,0,0,.69.42,2.83,2.83,0,0,0,1.05.2,1.69,1.69,0,0,0,1.14-.38,1.15,1.15,0,0,0,.44-.9.89.89,0,0,0-.26-.67,2,2,0,0,0-1-.4,9.42,9.42,0,0,1-1.78-.48,1.51,1.51,0,0,1-.65-.54,1.49,1.49,0,0,1-.22-.82,1.84,1.84,0,0,1,.66-1.47,2.77,2.77,0,0,1,1.86-.56,5.06,5.06,0,0,1,1.89.38q-.06.46-.09,1.55h-.41a1.84,1.84,0,0,0-.13-.79,1.35,1.35,0,0,0-.57-.45,2,2,0,0,0-.88-.2,1.46,1.46,0,0,0-1,.32,1,1,0,0,0-.37.79.82.82,0,0,0,.29.69,4.69,4.69,0,0,0,1.61.5,5.48,5.48,0,0,1,1.29.37,1.26,1.26,0,0,1,.5.52,1.62,1.62,0,0,1,.19.79,2,2,0,0,1-.78,1.58,3.13,3.13,0,0,1-2.09.66,7.73,7.73,0,0,1-1.87-.26q-.18,0-.18-.14l0-.09a2.41,2.41,0,0,0,0-.36q.06-.66.06-1v-.33Z"/><path class="cls-3" d="M106.24,151.31l.91-.81a1.29,1.29,0,0,1,.46-.28,2.11,2.11,0,0,1,.7-.12,2.4,2.4,0,0,1,1.23.28,2.48,2.48,0,0,1,.85,1l.88-.8a1.53,1.53,0,0,1,.55-.31,2.51,2.51,0,0,1,.83-.15,2.19,2.19,0,0,1,1.11.28,1.85,1.85,0,0,1,.74.74,2.66,2.66,0,0,1,.24,1.24l0,2.65a2.88,2.88,0,0,0,.1,1q.1.16.53.18l.5,0v.39l-.33,0-1.07,0q-.43,0-1,0,.09-1.25.09-2.93a8.79,8.79,0,0,0-.12-1.87,1.25,1.25,0,0,0-.47-.7,1.43,1.43,0,0,0-.87-.25,1.62,1.62,0,0,0-1,.32,1.31,1.31,0,0,0-.52.76,20.77,20.77,0,0,0-.07,2.42q0,1.26,0,1.43a.35.35,0,0,0,.11.25,1.61,1.61,0,0,0,.59.13l.45.06v.39q-1.2,0-1.76,0l-1.74,0v-.39h.45a.83.83,0,0,0,.53-.12.87.87,0,0,0,.14-.54q.05-1.11.05-2.32a5.1,5.1,0,0,0-.15-1.49,1.28,1.28,0,0,0-.49-.65,1.45,1.45,0,0,0-.84-.24,1.65,1.65,0,0,0-.95.29,1.49,1.49,0,0,0-.58.71,7,7,0,0,0-.1,1.62q0,1.46,0,2.15a.66.66,0,0,0,.1.41,1.23,1.23,0,0,0,.58.14l.47.05v.39q-.85,0-1.6,0t-1.86,0v-.39h.51c.29,0,.47-.08.53-.23a16.93,16.93,0,0,0,.09-2.55q0-1.7,0-2a.59.59,0,0,0-.12-.39,1.15,1.15,0,0,0-.58-.08h-.42v-.37a9.67,9.67,0,0,0,1.72-.37l.5-.19c.08,0,.12.05.12.16v.25C106.24,150.73,106.24,151,106.24,151.31Z"/><path class="cls-3" d="M117.37,153.38a3,3,0,0,0,.68,2,2.23,2.23,0,0,0,1.71.69,3,3,0,0,0,.94-.16,3.82,3.82,0,0,0,.93-.47l.12.1-.22.57a4.88,4.88,0,0,1-1.16.49,4.64,4.64,0,0,1-1.23.16,3,3,0,0,1-2.22-.87,3.25,3.25,0,0,1-.84-2.36,3.92,3.92,0,0,1,.48-2,2.89,2.89,0,0,1,1.15-1,3.35,3.35,0,0,1,1.63-.47,2.56,2.56,0,0,1,1.9.71,2.67,2.67,0,0,1,.7,2v.4a5.66,5.66,0,0,1-.85.14q-.72.05-2,.05Zm0-.51q1.05,0,2.32,0,.51,0,1,0v-.38a2.77,2.77,0,0,0-.24-1.13,1.24,1.24,0,0,0-.52-.55,1.66,1.66,0,0,0-.86-.22,1.49,1.49,0,0,0-1.21.56A2.76,2.76,0,0,0,117.38,152.87Z"/><path class="cls-3" d="M124.65,151.33V154a7.75,7.75,0,0,0,.07,1.33.79.79,0,0,0,.28.46.82.82,0,0,0,.53.16,1,1,0,0,0,.38-.08,1.42,1.42,0,0,0,.37-.23l.2.24-.66.77a3.27,3.27,0,0,1-.42.11,2,2,0,0,1-.39,0,1.83,1.83,0,0,1-.85-.18,1.15,1.15,0,0,1-.5-.47,1.89,1.89,0,0,1-.16-.87l0-1.31v-2.58c-.35,0-.71,0-1.08,0v-.29q.58-.22,1.08-.47,0-1-.05-2.1a11,11,0,0,0,1.14-.54l.18.14q-.05.53-.12,2.5l1.35,0,.54,0-.07.7h-1.82Z"/><path class="cls-3" d="M129.58,150.07l.16.1q0,.51-.06,1.12,0,2,0,2.92t.06,1.51a.54.54,0,0,0,.13.34,1,1,0,0,0,.49.14l.46.06v.39q-1,0-1.8,0t-1.61,0v-.39l.58-.06c.23,0,.36-.06.42-.13a1.58,1.58,0,0,0,.1-.66q0-.86,0-2.38,0-1.05,0-1.62a.41.41,0,0,0-.12-.3.82.82,0,0,0-.47-.09h-.51v-.39q.83-.12,1.22-.22A9.29,9.29,0,0,0,129.58,150.07Zm-.54-3a.73.73,0,0,1,.54.23.75.75,0,0,1,.22.55.74.74,0,0,1-.22.54.76.76,0,0,1-1.3-.54.75.75,0,0,1,.22-.55A.73.73,0,0,1,129,147.07Z"/><path class="cls-3" d="M136.62,155.7l.18.16-.28.43a4.12,4.12,0,0,1-1,.38,4,4,0,0,1-1,.13,3.49,3.49,0,0,1-1.69-.38,2.61,2.61,0,0,1-1.07-1.1,3.61,3.61,0,0,1-.38-1.71,3.68,3.68,0,0,1,.29-1.52,2.41,2.41,0,0,1,.82-1,8,8,0,0,1,1.31-.72,3,3,0,0,1,1.24-.25,4.15,4.15,0,0,1,.9.08,3.64,3.64,0,0,1,.81.3,10.48,10.48,0,0,0-.18,1.8h-.43v-.34a1.11,1.11,0,0,0-.13-.61,1.28,1.28,0,0,0-.57-.36,2.63,2.63,0,0,0-1-.18,1.79,1.79,0,0,0-1.41.56,2.45,2.45,0,0,0-.49,1.67,3.41,3.41,0,0,0,.73,2.29,2.12,2.12,0,0,0,1.7.78,3.18,3.18,0,0,0,.8-.1A3.86,3.86,0,0,0,136.62,155.7Z"/><path class="cls-3" d="M139.51,154.74l.19.2a12.82,12.82,0,0,1-.84,1.7,15.71,15.71,0,0,1-1.2,1.69l-.57.29-.2-.21a8.64,8.64,0,0,0,.87-1.65,6.71,6.71,0,0,0,.37-1.6A10.31,10.31,0,0,0,139.51,154.74Z"/><path class="cls-3" d="M144.85,156.23h.43c.42,0,.67-.1.76-.31a16.08,16.08,0,0,0,.13-2.92v-2.3a18.9,18.9,0,0,0-.11-3q-.11-.28-.65-.28h-.55V147q1.13,0,2.23,0c.61,0,1.17,0,1.67,0v.43h-.53a1,1,0,0,0-.61.12.94.94,0,0,0-.14.58q0,.73,0,2.58v2.34a16.73,16.73,0,0,0,.12,2.91q.12.27.74.27h.45v.43q-.84,0-1.82,0-1.15,0-2.07,0Z"/><path class="cls-3" d="M152.08,151.31l.91-.81a1.29,1.29,0,0,1,.46-.28,2.11,2.11,0,0,1,.7-.12,2.4,2.4,0,0,1,1.23.28,2.48,2.48,0,0,1,.85,1l.88-.8a1.53,1.53,0,0,1,.55-.31,2.51,2.51,0,0,1,.83-.15,2.19,2.19,0,0,1,1.11.28,1.85,1.85,0,0,1,.74.74,2.66,2.66,0,0,1,.24,1.24l0,2.65a2.88,2.88,0,0,0,.1,1q.1.16.53.18l.5,0v.39l-.33,0-1.07,0q-.43,0-1,0,.09-1.25.09-2.93a8.79,8.79,0,0,0-.12-1.87,1.25,1.25,0,0,0-.47-.7,1.43,1.43,0,0,0-.87-.25,1.62,1.62,0,0,0-1,.32,1.31,1.31,0,0,0-.52.76,20.77,20.77,0,0,0-.07,2.42q0,1.26,0,1.43a.35.35,0,0,0,.11.25,1.61,1.61,0,0,0,.59.13l.45.06v.39q-1.2,0-1.76,0l-1.74,0v-.39h.45a.83.83,0,0,0,.53-.12.87.87,0,0,0,.14-.54q.05-1.11.05-2.32a5.1,5.1,0,0,0-.15-1.49,1.28,1.28,0,0,0-.49-.65,1.45,1.45,0,0,0-.84-.24,1.65,1.65,0,0,0-.95.29,1.49,1.49,0,0,0-.58.71,7,7,0,0,0-.1,1.62q0,1.46,0,2.15a.66.66,0,0,0,.1.41,1.23,1.23,0,0,0,.58.14l.47.05v.39q-.85,0-1.6,0t-1.86,0v-.39h.51c.29,0,.47-.08.53-.23a16.93,16.93,0,0,0,.09-2.55q0-1.7,0-2a.59.59,0,0,0-.12-.39,1.15,1.15,0,0,0-.58-.08h-.42v-.37a9.67,9.67,0,0,0,1.72-.37l.5-.19c.08,0,.12.05.12.16v.25C152.08,150.73,152.07,151,152.08,151.31Z"/><path class="cls-3" d="M163.88,151.47l.95-.84a1.88,1.88,0,0,1,.61-.4,3.05,3.05,0,0,1,.93-.13,2.64,2.64,0,0,1,2,.75,2.61,2.61,0,0,1,.75,1.93,4.11,4.11,0,0,1-.17,1.16,3.43,3.43,0,0,1-.41.94,2.69,2.69,0,0,1-.55.61q-.1.08-.83.54l-.27.2a3.8,3.8,0,0,1-.83.47,2.14,2.14,0,0,1-.72.11,2.67,2.67,0,0,1-.67-.09,4.57,4.57,0,0,1-.74-.27v1q0,1.47,0,2.08a.51.51,0,0,0,.17.38,1.12,1.12,0,0,0,.63.12h.37v.38q-1.28,0-1.88,0t-1.68,0V160H162q.52,0,.62-.22a13.78,13.78,0,0,0,.1-2.39v-4.17q0-1.08-.05-1.67a.58.58,0,0,0-.13-.38.85.85,0,0,0-.49-.09h-.53v-.42a9.77,9.77,0,0,0,1.86-.39l.42-.16c.07,0,.11.06.11.19l0,.72Zm0,3.73a2.8,2.8,0,0,0,.87.69,2.18,2.18,0,0,0,.93.2,1.88,1.88,0,0,0,1.64-.81,3.25,3.25,0,0,0,.57-1.92,2.89,2.89,0,0,0-.26-1.28,2,2,0,0,0-.76-.83,2.05,2.05,0,0,0-1.87-.14,2.12,2.12,0,0,0-.68.45,1.44,1.44,0,0,0-.37.53,4.36,4.36,0,0,0-.06,1Z"/><path class="cls-3" d="M171.81,146.59q-.12,2-.12,3.6v3.49a15.18,15.18,0,0,0,.09,2.35q0,.14.45.18l.58.06v.39q-.74,0-1.41,0t-2,0v-.39l.58,0c.26,0,.4-.09.44-.2a15.7,15.7,0,0,0,.09-2.41v-4.77l0-.89a.4.4,0,0,0-.53-.52h-.56V147a6.81,6.81,0,0,0,2.26-.53Z"/><path class="cls-3" d="M173.91,151.94V151l.74-.42a4.24,4.24,0,0,1,.88-.39,2.9,2.9,0,0,1,.8-.11,2.5,2.5,0,0,1,1.51.42,1.65,1.65,0,0,1,.69,1.07,21.82,21.82,0,0,1,.1,2.42,14.22,14.22,0,0,0,.08,2c0,.13.16.19.34.19h.53v.45l-1.08,0q-.38,0-1,0v-.6c0-.19,0-.39,0-.59l-1.4,1.07a1.25,1.25,0,0,1-.37.2,1.76,1.76,0,0,1-.51.06,1.89,1.89,0,0,1-1.34-.43,1.5,1.5,0,0,1-.46-1.16,2.16,2.16,0,0,1,.33-1.19,1.93,1.93,0,0,1,.94-.76,18.46,18.46,0,0,1,2.82-.64,2,2,0,0,0-.38-1.29,1.64,1.64,0,0,0-1.32-.54,2.26,2.26,0,0,0-.61.08,1.9,1.9,0,0,0-.53.24q-.2.49-.36.93Zm3.57,1.08a8,8,0,0,0-2.39.76,1.25,1.25,0,0,0-.51,1.1,1.11,1.11,0,0,0,.29.8,1,1,0,0,0,.75.3,1.84,1.84,0,0,0,1-.28,3.28,3.28,0,0,0,.89-.85V153Z"/><path class="cls-3" d="M182.41,151.4l1-.91a1.22,1.22,0,0,1,.39-.24,2.85,2.85,0,0,1,.9-.15,2.55,2.55,0,0,1,1.26.29,1.77,1.77,0,0,1,.76.77,3.53,3.53,0,0,1,.23,1.47l0,2.14A4.37,4.37,0,0,0,187,156a.53.53,0,0,0,.5.22H188v.39q-.72,0-1.25,0t-1.1,0q.13-1.32.13-3.57a3.66,3.66,0,0,0-.16-1.29,1.29,1.29,0,0,0-.54-.61,1.71,1.71,0,0,0-.91-.23,1.85,1.85,0,0,0-1.12.33,1.39,1.39,0,0,0-.57.73,7.93,7.93,0,0,0-.07,1.38q0,1.24,0,2.31a.61.61,0,0,0,.1.4.82.82,0,0,0,.56.16h.49v.39q-1.15,0-1.83,0t-1.64,0v-.39h.49q.5,0,.59-.23a21,21,0,0,0,.08-2.81q0-1.16,0-1.81a.42.42,0,0,0-.11-.3,1,1,0,0,0-.54-.08h-.49v-.39a8.25,8.25,0,0,0,1-.18,7.55,7.55,0,0,0,1-.35l.11,0c.07,0,.11.05.11.16v1.17Z"/><path class="cls-3" d="M190.36,151.33V154a7.79,7.79,0,0,0,.07,1.33.79.79,0,0,0,.27.46.83.83,0,0,0,.53.16,1,1,0,0,0,.38-.08,1.42,1.42,0,0,0,.37-.23l.2.24-.66.77a3.22,3.22,0,0,1-.42.11,2,2,0,0,1-.39,0,1.83,1.83,0,0,1-.85-.18,1.15,1.15,0,0,1-.5-.47,1.89,1.89,0,0,1-.16-.87l0-1.31v-2.58c-.35,0-.71,0-1.08,0v-.29q.59-.22,1.08-.47,0-1-.05-2.1a10.75,10.75,0,0,0,1.14-.54l.18.14q-.05.53-.11,2.5l1.35,0,.54,0-.07.7h-1.82Z"/><path class="cls-3" d="M197.5,151.94V151l.74-.42a4.28,4.28,0,0,1,.88-.39,2.92,2.92,0,0,1,.8-.11,2.49,2.49,0,0,1,1.51.42,1.65,1.65,0,0,1,.69,1.07,22.47,22.47,0,0,1,.1,2.42,14.68,14.68,0,0,0,.08,2,.32.32,0,0,0,.34.19h.53v.45l-1.08,0q-.38,0-1,0v-.6q0-.29,0-.59l-1.4,1.07a1.28,1.28,0,0,1-.37.2,1.76,1.76,0,0,1-.51.06,1.89,1.89,0,0,1-1.34-.43,1.5,1.5,0,0,1-.46-1.16,2.16,2.16,0,0,1,.33-1.19,1.93,1.93,0,0,1,.93-.76,18.54,18.54,0,0,1,2.82-.64,2,2,0,0,0-.38-1.29,1.64,1.64,0,0,0-1.32-.54,2.27,2.27,0,0,0-.61.08,1.88,1.88,0,0,0-.53.24c-.13.32-.25.63-.36.93Zm3.57,1.08a8,8,0,0,0-2.4.76,1.25,1.25,0,0,0-.51,1.1,1.11,1.11,0,0,0,.29.8,1,1,0,0,0,.75.3,1.84,1.84,0,0,0,1-.28,3.27,3.27,0,0,0,.89-.85V153Z"/><path class="cls-3" d="M206,151.4l1-.91a1.24,1.24,0,0,1,.39-.24,2.86,2.86,0,0,1,.9-.15,2.56,2.56,0,0,1,1.26.29,1.77,1.77,0,0,1,.76.77,3.53,3.53,0,0,1,.23,1.47l0,2.14a4.37,4.37,0,0,0,.09,1.28.53.53,0,0,0,.5.22h.49v.39c-.48,0-.9,0-1.25,0s-.71,0-1.1,0q.13-1.32.13-3.57a3.66,3.66,0,0,0-.16-1.29,1.29,1.29,0,0,0-.54-.61,1.7,1.7,0,0,0-.91-.23,1.85,1.85,0,0,0-1.12.33,1.39,1.39,0,0,0-.57.73,8,8,0,0,0-.07,1.38q0,1.24,0,2.31a.6.6,0,0,0,.09.4.82.82,0,0,0,.56.16h.49v.39c-.77,0-1.38,0-1.83,0s-1,0-1.64,0v-.39h.49c.33,0,.53-.08.59-.23a21,21,0,0,0,.08-2.81c0-.77,0-1.38,0-1.81a.4.4,0,0,0-.11-.3,1,1,0,0,0-.53-.08h-.49v-.39a8.18,8.18,0,0,0,1-.18,7.46,7.46,0,0,0,1-.35l.11,0c.07,0,.11.05.11.16v1.17Z"/><path class="cls-3" d="M217.21,150.51v-2.46a1,1,0,0,0-.09-.54c-.06-.07-.21-.11-.43-.11h-.58V147a7.45,7.45,0,0,0,2.26-.49l.12.08q0,.69-.08,1.67l0,1.81v4.64a5.58,5.58,0,0,0,.07,1.26c.07.12.26.2.56.24l.48.06v.39q-.84-.06-1.48-.06l-.86.06q0-.46.07-1.3-.57.45-1.47,1.25a3.32,3.32,0,0,1-1,.19,2.47,2.47,0,0,1-1.92-.86,3.32,3.32,0,0,1-.77-2.31,3.61,3.61,0,0,1,.3-1.54,2.28,2.28,0,0,1,.71-.93,11.43,11.43,0,0,1,1.29-.73,2.83,2.83,0,0,1,1.24-.33,3.36,3.36,0,0,1,.8.1A4.34,4.34,0,0,1,217.21,150.51Zm0,1.17a3.46,3.46,0,0,0-1-.75,2.34,2.34,0,0,0-1.05-.25,1.77,1.77,0,0,0-1.43.65,2.89,2.89,0,0,0-.54,1.9,3,3,0,0,0,.62,2,1.92,1.92,0,0,0,1.51.72,1.75,1.75,0,0,0,1-.3,1.77,1.77,0,0,0,.66-.78,4.05,4.05,0,0,0,.21-1.52Z"/><path class="cls-3" d="M230.59,147.46a7.86,7.86,0,0,0-.2,1.87h-.47v-.54a1.28,1.28,0,0,0-.14-.72,1.74,1.74,0,0,0-.74-.4,3.73,3.73,0,0,0-1.27-.21,2.49,2.49,0,0,0-1.71.55,1.8,1.8,0,0,0-.62,1.41,1.67,1.67,0,0,0,.25.93,1.44,1.44,0,0,0,.69.56,8.08,8.08,0,0,0,1.83.3,6.88,6.88,0,0,1,1.89.36,1.76,1.76,0,0,1,.79.72,2.25,2.25,0,0,1,.3,1.17,3,3,0,0,1-1.14,2.35,4.49,4.49,0,0,1-3,1,6.71,6.71,0,0,1-1.31-.13,8.28,8.28,0,0,1-1.33-.39,14.19,14.19,0,0,0,.12-2.09h.46v.34a2.77,2.77,0,0,0,.07.81.9.9,0,0,0,.32.33,2.76,2.76,0,0,0,.89.4,4.26,4.26,0,0,0,1.11.14,2.94,2.94,0,0,0,2-.6,1.94,1.94,0,0,0,.7-1.53,1.69,1.69,0,0,0-.24-.92,1.44,1.44,0,0,0-.66-.56,5.8,5.8,0,0,0-1.58-.28,7.37,7.37,0,0,1-2.08-.37,1.86,1.86,0,0,1-.86-.77,2.53,2.53,0,0,1-.31-1.31,2.75,2.75,0,0,1,1-2.16,3.87,3.87,0,0,1,2.65-.84,6.51,6.51,0,0,1,1.36.15A7.14,7.14,0,0,1,230.59,147.46Z"/><path class="cls-3" d="M233.4,153.38a3,3,0,0,0,.68,2,2.23,2.23,0,0,0,1.71.69,3,3,0,0,0,.94-.16,3.84,3.84,0,0,0,.93-.47l.11.1-.22.57a4.92,4.92,0,0,1-1.16.49,4.66,4.66,0,0,1-1.23.16,3,3,0,0,1-2.22-.87,3.26,3.26,0,0,1-.84-2.36,3.91,3.91,0,0,1,.48-2,2.87,2.87,0,0,1,1.15-1,3.34,3.34,0,0,1,1.63-.47,2.57,2.57,0,0,1,1.9.71,2.68,2.68,0,0,1,.7,2v.4a5.66,5.66,0,0,1-.85.14q-.72.05-2,.05Zm0-.51q1,0,2.32,0,.51,0,1,0v-.38a2.77,2.77,0,0,0-.24-1.13,1.24,1.24,0,0,0-.52-.55,1.66,1.66,0,0,0-.86-.22,1.49,1.49,0,0,0-1.21.56A2.78,2.78,0,0,0,233.41,152.87Z"/><path class="cls-3" d="M244.5,150.51v-2.46a1,1,0,0,0-.09-.54c-.06-.07-.21-.11-.43-.11h-.58V147a7.45,7.45,0,0,0,2.26-.49l.12.08q0,.69-.08,1.67l0,1.81v4.64a5.58,5.58,0,0,0,.07,1.26c.07.12.26.2.56.24l.48.06v.39q-.84-.06-1.48-.06l-.86.06q0-.46.07-1.3-.57.45-1.47,1.25a3.32,3.32,0,0,1-1,.19,2.47,2.47,0,0,1-1.92-.86,3.32,3.32,0,0,1-.77-2.31,3.61,3.61,0,0,1,.3-1.54,2.28,2.28,0,0,1,.71-.93,11.43,11.43,0,0,1,1.29-.73,2.83,2.83,0,0,1,1.24-.33,3.36,3.36,0,0,1,.8.1A4.34,4.34,0,0,1,244.5,150.51Zm0,1.17a3.46,3.46,0,0,0-1-.75,2.34,2.34,0,0,0-1.05-.25,1.77,1.77,0,0,0-1.43.65,2.89,2.89,0,0,0-.54,1.9,3,3,0,0,0,.62,2,1.92,1.92,0,0,0,1.51.72,1.75,1.75,0,0,0,1-.3,1.77,1.77,0,0,0,.66-.78,4.05,4.05,0,0,0,.21-1.52Z"/><path class="cls-3" d="M247.68,151.94V151l.74-.42a4.28,4.28,0,0,1,.88-.39,2.92,2.92,0,0,1,.8-.11,2.49,2.49,0,0,1,1.51.42,1.65,1.65,0,0,1,.69,1.07,22.47,22.47,0,0,1,.1,2.42,14.68,14.68,0,0,0,.08,2,.32.32,0,0,0,.34.19h.53v.45l-1.08,0q-.38,0-1,0v-.6q0-.29,0-.59l-1.4,1.07a1.28,1.28,0,0,1-.37.2,1.76,1.76,0,0,1-.51.06,1.89,1.89,0,0,1-1.34-.43,1.5,1.5,0,0,1-.46-1.16,2.16,2.16,0,0,1,.33-1.19,1.93,1.93,0,0,1,.93-.76,18.54,18.54,0,0,1,2.82-.64,2,2,0,0,0-.38-1.29,1.64,1.64,0,0,0-1.32-.54,2.27,2.27,0,0,0-.61.08,1.88,1.88,0,0,0-.53.24c-.13.32-.25.63-.36.93Zm3.57,1.08a8,8,0,0,0-2.4.76,1.25,1.25,0,0,0-.51,1.1,1.11,1.11,0,0,0,.29.8,1,1,0,0,0,.75.3,1.84,1.84,0,0,0,1-.28,3.27,3.27,0,0,0,.89-.85V153Z"/><path class="cls-3" d="M255.7,151.33V154a7.79,7.79,0,0,0,.07,1.33.79.79,0,0,0,.27.46.83.83,0,0,0,.53.16,1,1,0,0,0,.38-.08,1.42,1.42,0,0,0,.37-.23l.2.24-.66.77a3.22,3.22,0,0,1-.42.11,2,2,0,0,1-.39,0,1.83,1.83,0,0,1-.85-.18,1.15,1.15,0,0,1-.5-.47,1.89,1.89,0,0,1-.16-.87l0-1.31v-2.58c-.35,0-.71,0-1.08,0v-.29q.59-.22,1.08-.47,0-1-.05-2.1a10.75,10.75,0,0,0,1.14-.54l.18.14q-.05.53-.11,2.5l1.35,0,.54,0-.07.7H255.7Z"/><path class="cls-3" d="M260.34,150.07l.16.1c0,.34-.05.71-.06,1.12q0,2,0,2.92c0,.59,0,1.09.06,1.51a.53.53,0,0,0,.13.34,1,1,0,0,0,.49.14l.46.06v.39q-1,0-1.8,0t-1.61,0v-.39l.58-.06a.63.63,0,0,0,.42-.13,1.59,1.59,0,0,0,.1-.66q0-.86,0-2.38,0-1.05,0-1.62a.42.42,0,0,0-.12-.3.83.83,0,0,0-.47-.09h-.51v-.39q.83-.12,1.22-.22A9.29,9.29,0,0,0,260.34,150.07Zm-.54-3a.72.72,0,0,1,.53.23.75.75,0,0,1,.22.55.74.74,0,0,1-.22.54.72.72,0,0,1-.53.22.76.76,0,0,1-.77-.77.75.75,0,0,1,.22-.55A.74.74,0,0,1,259.8,147.07Z"/><path class="cls-3" d="M261.82,153.4a3.34,3.34,0,0,1,.43-1.69,3.07,3.07,0,0,1,1.22-1.18,3.66,3.66,0,0,1,1.78-.43,3.15,3.15,0,0,1,2.31.85,3.05,3.05,0,0,1,.87,2.28,3.37,3.37,0,0,1-1.13,2.67,3.54,3.54,0,0,1-2.42.89,2.88,2.88,0,0,1-2.21-.91A3.49,3.49,0,0,1,261.82,153.4Zm1.27-.48a4.71,4.71,0,0,0,.57,2.39,1.81,1.81,0,0,0,1.65,1,1.62,1.62,0,0,0,1.32-.62,3,3,0,0,0,.51-1.89,4.79,4.79,0,0,0-.3-1.78,2.35,2.35,0,0,0-.79-1.09,1.86,1.86,0,0,0-1.09-.34,1.78,1.78,0,0,0-1,.27,1.63,1.63,0,0,0-.63.73A3.24,3.24,0,0,0,263.09,152.92Z"/><path class="cls-3" d="M271.15,151.4l1-.91a1.24,1.24,0,0,1,.39-.24,2.86,2.86,0,0,1,.9-.15,2.56,2.56,0,0,1,1.26.29,1.77,1.77,0,0,1,.76.77,3.53,3.53,0,0,1,.23,1.47l0,2.14a4.37,4.37,0,0,0,.09,1.28.53.53,0,0,0,.5.22h.49v.39c-.48,0-.9,0-1.25,0s-.71,0-1.1,0q.13-1.32.13-3.57a3.66,3.66,0,0,0-.16-1.29,1.29,1.29,0,0,0-.54-.61,1.7,1.7,0,0,0-.91-.23,1.85,1.85,0,0,0-1.12.33,1.39,1.39,0,0,0-.57.73,8,8,0,0,0-.07,1.38q0,1.24,0,2.31a.6.6,0,0,0,.09.4.82.82,0,0,0,.56.16h.49v.39c-.77,0-1.38,0-1.83,0s-1,0-1.64,0v-.39h.49c.33,0,.53-.08.59-.23a21,21,0,0,0,.08-2.81c0-.77,0-1.38,0-1.81a.4.4,0,0,0-.11-.3,1,1,0,0,0-.53-.08h-.49v-.39a8.18,8.18,0,0,0,1-.18,7.46,7.46,0,0,0,1-.35l.11,0c.07,0,.11.05.11.16v1.17Z"/><path class="cls-3" d="M282.46,156q.11-1.05.11-3.68v-2q0-1.21-.08-2.08a1.39,1.39,0,0,0-.12-.59,1.3,1.3,0,0,0-.56-.15l-.54-.08V147l1.5,0h1.83l1.48,0a8.59,8.59,0,0,1,1.84.18,4.19,4.19,0,0,1,1.71.76,3.7,3.7,0,0,1,1.17,1.44,4.72,4.72,0,0,1,.4,2,5.06,5.06,0,0,1-1.54,3.79,5.54,5.54,0,0,1-4,1.5l-.83,0-1.55,0c-.36,0-.83,0-1.4.08v-.33Zm1.46,0a11.1,11.1,0,0,0,1.61.14,4.17,4.17,0,0,0,3-1,4.51,4.51,0,0,0,1.27-3.46,4,4,0,0,0-1.05-3,4.23,4.23,0,0,0-3.09-1,12,12,0,0,0-1.69.14,11.82,11.82,0,0,0-.08,1.48v4.44Q283.84,154.88,283.93,155.95Z"/><path class="cls-3" d="M293.18,153.38a3,3,0,0,0,.68,2,2.23,2.23,0,0,0,1.71.69,3,3,0,0,0,.94-.16,3.84,3.84,0,0,0,.93-.47l.11.1-.22.57a4.92,4.92,0,0,1-1.16.49,4.66,4.66,0,0,1-1.23.16,3,3,0,0,1-2.22-.87,3.26,3.26,0,0,1-.84-2.36,3.91,3.91,0,0,1,.48-2,2.87,2.87,0,0,1,1.15-1,3.34,3.34,0,0,1,1.63-.47,2.57,2.57,0,0,1,1.9.71,2.68,2.68,0,0,1,.7,2v.4a5.66,5.66,0,0,1-.85.14q-.72.05-2,.05Zm0-.51q1,0,2.32,0,.51,0,1,0v-.38a2.77,2.77,0,0,0-.24-1.13,1.24,1.24,0,0,0-.52-.55,1.66,1.66,0,0,0-.86-.22,1.49,1.49,0,0,0-1.21.56A2.78,2.78,0,0,0,293.19,152.87Z"/><path class="cls-3" d="M300.67,151.4l1-.91a1.24,1.24,0,0,1,.39-.24,2.86,2.86,0,0,1,.9-.15,2.56,2.56,0,0,1,1.26.29,1.77,1.77,0,0,1,.76.77,3.53,3.53,0,0,1,.23,1.47l0,2.14a4.37,4.37,0,0,0,.09,1.28.53.53,0,0,0,.5.22h.49v.39c-.48,0-.9,0-1.25,0s-.71,0-1.1,0q.13-1.32.13-3.57a3.66,3.66,0,0,0-.16-1.29,1.29,1.29,0,0,0-.54-.61,1.7,1.7,0,0,0-.91-.23,1.85,1.85,0,0,0-1.12.33,1.39,1.39,0,0,0-.57.73,8,8,0,0,0-.07,1.38q0,1.24,0,2.31a.6.6,0,0,0,.09.4.82.82,0,0,0,.56.16h.49v.39c-.77,0-1.38,0-1.83,0s-1,0-1.64,0v-.39h.49c.33,0,.53-.08.59-.23a21,21,0,0,0,.08-2.81c0-.77,0-1.38,0-1.81a.4.4,0,0,0-.11-.3,1,1,0,0,0-.53-.08h-.49v-.39a8.18,8.18,0,0,0,1-.18,7.46,7.46,0,0,0,1-.35l.11,0c.07,0,.11.05.11.16v1.17Z"/><path class="cls-3" d="M308.34,151.33V154a7.79,7.79,0,0,0,.07,1.33.79.79,0,0,0,.27.46.83.83,0,0,0,.53.16,1,1,0,0,0,.38-.08,1.42,1.42,0,0,0,.37-.23l.2.24-.66.77a3.22,3.22,0,0,1-.42.11,2,2,0,0,1-.39,0,1.83,1.83,0,0,1-.85-.18,1.15,1.15,0,0,1-.5-.47,1.89,1.89,0,0,1-.16-.87l0-1.31v-2.58c-.35,0-.71,0-1.08,0v-.29q.59-.22,1.08-.47,0-1-.05-2.1a10.75,10.75,0,0,0,1.14-.54l.18.14q-.05.53-.11,2.5l1.35,0,.54,0-.07.7h-1.82Z"/><path class="cls-3" d="M313,150.07l.16.1c0,.34-.05.71-.06,1.12q0,2,0,2.92c0,.59,0,1.09.06,1.51a.53.53,0,0,0,.13.34,1,1,0,0,0,.49.14l.46.06v.39q-1,0-1.8,0t-1.61,0v-.39l.58-.06a.63.63,0,0,0,.42-.13,1.59,1.59,0,0,0,.1-.66q0-.86,0-2.38,0-1.05,0-1.62a.42.42,0,0,0-.12-.3.83.83,0,0,0-.47-.09h-.51v-.39q.83-.12,1.22-.22A9.29,9.29,0,0,0,313,150.07Zm-.54-3a.72.72,0,0,1,.53.23.75.75,0,0,1,.22.55.74.74,0,0,1-.22.54.72.72,0,0,1-.53.22.76.76,0,0,1-.77-.77.75.75,0,0,1,.22-.55A.74.74,0,0,1,312.45,147.07Z"/><path class="cls-3" d="M315.56,154.58V155a1.38,1.38,0,0,0,.09.66,1.72,1.72,0,0,0,.69.42,2.83,2.83,0,0,0,1.05.2,1.69,1.69,0,0,0,1.14-.38,1.15,1.15,0,0,0,.44-.9.89.89,0,0,0-.26-.67,2,2,0,0,0-1-.4,9.49,9.49,0,0,1-1.78-.48,1.53,1.53,0,0,1-.65-.54,1.5,1.5,0,0,1-.22-.82,1.84,1.84,0,0,1,.66-1.47,2.76,2.76,0,0,1,1.86-.56,5.06,5.06,0,0,1,1.89.38q-.06.46-.09,1.55H319a1.83,1.83,0,0,0-.13-.79,1.33,1.33,0,0,0-.57-.45,2,2,0,0,0-.88-.2,1.46,1.46,0,0,0-1,.32,1,1,0,0,0-.37.79.83.83,0,0,0,.29.69,4.7,4.7,0,0,0,1.61.5,5.53,5.53,0,0,1,1.29.37,1.26,1.26,0,0,1,.5.52,1.63,1.63,0,0,1,.19.79,2,2,0,0,1-.78,1.58,3.13,3.13,0,0,1-2.09.66,7.71,7.71,0,0,1-1.87-.26q-.18,0-.18-.14l0-.09a2.41,2.41,0,0,0,0-.36c0-.44.06-.78.06-1v-.33Z"/><path class="cls-3" d="M322.46,151.33V154a7.79,7.79,0,0,0,.07,1.33.79.79,0,0,0,.27.46.83.83,0,0,0,.53.16,1,1,0,0,0,.38-.08,1.42,1.42,0,0,0,.37-.23l.2.24-.66.77a3.22,3.22,0,0,1-.42.11,2,2,0,0,1-.39,0,1.83,1.83,0,0,1-.85-.18,1.15,1.15,0,0,1-.5-.47,1.89,1.89,0,0,1-.16-.87l0-1.31v-2.58c-.35,0-.71,0-1.08,0v-.29q.59-.22,1.08-.47,0-1-.05-2.1a10.75,10.75,0,0,0,1.14-.54l.18.14q-.05.53-.11,2.5l1.35,0,.54,0-.07.7h-1.82Z"/><path class="cls-3" d="M327.38,151.64A5.63,5.63,0,0,0,328,151a2.56,2.56,0,0,1,.71-.68,1.39,1.39,0,0,1,.69-.18,1.45,1.45,0,0,1,.57.09.13.13,0,0,1,.09.13v.07a9.28,9.28,0,0,0-.12,1.54h-.3a1.13,1.13,0,0,0-.37-.49.9.9,0,0,0-.51-.14,1.17,1.17,0,0,0-.74.27,1.32,1.32,0,0,0-.46.76,10.16,10.16,0,0,0-.11,1.92,14.29,14.29,0,0,0,.07,1.59c0,.16.06.26.14.3a1.61,1.61,0,0,0,.76.14h.41v.39q-1,0-2,0t-1.78,0v-.39l.65-.05a.7.7,0,0,0,.44-.13,1.4,1.4,0,0,0,.12-.66q0-1,0-2.32a7.54,7.54,0,0,0-.13-1.92c-.06-.12-.24-.18-.56-.18H325v-.39a10.63,10.63,0,0,0,1.17-.19,4.74,4.74,0,0,0,.91-.3.38.38,0,0,1,.16,0,.12.12,0,0,1,.1,0,.4.4,0,0,1,0,.18Z"/><path class="cls-3" d="M331,160.29l.32-1.06h.16a1.5,1.5,0,0,0,.37.33.71.71,0,0,0,.37.11,1,1,0,0,0,.77-.41A10.28,10.28,0,0,0,334,157q-.3-.79-1.19-3l-.63-1.55-.51-1.19c-.16-.42-.4-.63-.71-.63h-.27v-.39q.7,0,1.25,0l2,0v.39h-.5a.64.64,0,0,0-.38.09.26.26,0,0,0-.12.22,1.93,1.93,0,0,0,.13.47q.69,1.88,1.62,4,.89-2,1.56-3.8a3.16,3.16,0,0,0,.2-.65q0-.22-.46-.28l-.5-.07v-.39q.8,0,1.43,0t1.19,0v.39h-.24a.65.65,0,0,0-.32.09.73.73,0,0,0-.26.25q-.22.35-1.26,2.64-.28.63-1.45,3.41-1,2.35-1.17,2.58a1.89,1.89,0,0,1-.68.69,1.75,1.75,0,0,1-.9.24,1.43,1.43,0,0,1-.4-.06A2.14,2.14,0,0,1,331,160.29Z"/><g class="cls-4"><rect class="cls-5" x="-45.23" y="-237.1" width="908.04" height="1168.97"/><rect class="cls-6" x="-45.23" y="-237.1" width="908.04" height="1168.97"/></g><path class="cls-2" d="M149.59,33.1a10.83,10.83,0,0,0-3.28,8,11,11,0,0,0,1.29,5.09,9.46,9.46,0,0,0,3.2,3.74,34,34,0,0,0,6.63,2.9,32.32,32.32,0,0,1,6.45,2.76,9.09,9.09,0,0,1,2.65,2.62,6.61,6.61,0,0,1,1,3.62,7.78,7.78,0,0,1-2.73,6q-2.72,2.49-8,2.49-5.77,0-8.52-2.35t-2.79-8.29h-.42V71.62h11q.87,0,3.57-.31a13.3,13.3,0,0,0,4-.91A9.34,9.34,0,0,0,166,68.65a12.5,12.5,0,0,0,2.08-2.56,10.52,10.52,0,0,0,1.26-2.93,12.68,12.68,0,0,0,.39-3.2,9.87,9.87,0,0,0-2.17-6.58,13.33,13.33,0,0,0-4.5-3.64q-2.33-1.07-8.67-3.21-3.68-1.47-4.84-3.15a6.83,6.83,0,0,1-1.16-4,7.84,7.84,0,0,1,2.48-5.83,9.15,9.15,0,0,1,6.69-2.42,11.19,11.19,0,0,1,4.51.88,11.05,11.05,0,0,1,3.54,2.5c1,1.08,1.55,1.63,1.55,1.65l.34-.06-2-5.14a.58.58,0,0,1-.22-.05,19.91,19.91,0,0,0-2.69-.62,23.25,23.25,0,0,0-4.46-.48,11.75,11.75,0,0,0-8.62,3.24m31-.18a22,22,0,0,0-8.22,8,19.06,19.06,0,0,0-2.9,9.8,18.45,18.45,0,0,0,2.31,8.8,23.33,23.33,0,0,0,13.35,11.11,30.28,30.28,0,0,0,8.37,1h16.6V71.2h-.59a2,2,0,0,1-1.89-.86,5.65,5.65,0,0,1-.51-2.8V61.09a4.28,4.28,0,0,1,.6-2.67,3.13,3.13,0,0,1,2.4-.69V57.3H199.47v.42a2.93,2.93,0,0,1,2.15.54,3.08,3.08,0,0,1,.76,2.44v6.23c0,1.53-.31,2.48-.94,2.84s-2.18.61-4.67.71l-2.21.06a29.36,29.36,0,0,1-5.2-.47,19.91,19.91,0,0,1-5.91-1.84,15.5,15.5,0,0,1-4.94-4.14,16,16,0,0,1-3.15-5.69,23.79,23.79,0,0,1-.83-6.58,22.22,22.22,0,0,1,5.08-14.88,16.3,16.3,0,0,1,13-6,18.82,18.82,0,0,1,8.3,1.8,16.22,16.22,0,0,1,5.88,4.54h.41l-1.7-4.74a34.68,34.68,0,0,0-12.83-2.69,23.88,23.88,0,0,0-12.09,3.06"/><g class="cls-7"><rect class="cls-2" x="20.71" y="-38.22" width="315.65" height="227.33"/></g><path class="cls-8" d="M215.36,22.87v67.3l-66.32,0c-6.09,0-9.23-4.35-9.23-9.49l.07-66h67.45C211.45,14.61,215.36,18.69,215.36,22.87Z"/><path class="cls-5" d="M31.88,112v-.1l1.63.19,1,.06.5.26.25.1-.09.1c1.16,0,1.82.06,2.14.68v-.1l.18.26h.1c.22,0,.34.06.41.19v.16h.09v-.09l.53.25a1.73,1.73,0,0,1,.35.51v.13a1.58,1.58,0,0,1-.06.32l.25-.1c.32,0,.38.16.38.51v.1h-.09l-.06.77a.43.43,0,0,1,.22.26c0,.1-.09.26-.19.52l-.16-.1-.22.61a3.07,3.07,0,0,1-1.5,1.7.48.48,0,0,1,.09.19l-.22.06H37.3v.09l-.79.61h-.16c-.28,0-.41.07-.44.32a2.37,2.37,0,0,1-.81.35c-.19,0-.25-.13-.28-.42l.34-.1.09-.09.16-.07-.09-.1h.25l.07-.09c.22-.35.4-.51.6-.51h.25l.06.09.16-.41h.07l.19-.19H37a2,2,0,0,1,.66-1.35v-.19l.19.09.28-1-.69-.32-.13-.51-.85-.71-.54-.57h-.69L35.2,114l-.53-.07.07-.19h-.07v-.16a5.66,5.66,0,0,0-1.13-.35l-1.76-.32-1.51.07v.19l-.09-.19-1.41.19.06.06h-.15c-1.35,0-1.94.23-2.26,1.47l0,.67-.19,1.12v.42a3.92,3.92,0,0,0,.13,1l.09.32h-.09l.75,2.5h.16l.13,1,.25.06,0,.36.1-.1.91,2h.19l.29.71-.1-.1-.09.25.28.61.79,1.44.15.35a2.18,2.18,0,0,1,.47.84,1.49,1.49,0,0,0-.06.35l.19.51a2.52,2.52,0,0,1,.41,1.21,1.48,1.48,0,0,1-.06.51l.09.16.22.93h-.1a4.3,4.3,0,0,1,.22,1v.1a.85.85,0,0,1-.28.61l-.38.76h-.1l-.47.51-.6.26a8.1,8.1,0,0,1-1,.51l-.66.32,0-.06a1.21,1.21,0,0,1-1.13.58H26.7l-.06.1,0-.1h-.35l0,.1h-.56l-.25.25-.75-.16-.5.16v-.1H24l.09-.06-.66-.1H23l0-.1-2.39-.67c-.28-.06-.41-.1-.41-.41l-1-.51.09-.1h-.09a.65.65,0,0,1-.38-.1l.1-.26h-.16v-.26a.44.44,0,0,0-.47-.26h-.16l-.1-.26-.06.09.16-.16-.44-.45a.52.52,0,0,0,.31.09c.22,0,.35-.12.47-.35a1.67,1.67,0,0,1-.34-.77,2.49,2.49,0,0,1,.12-.67h.1l.46-.93v.16h-.19c.16,0,.25-.1.31-.26a1.6,1.6,0,0,0-.09-.45l.09.28.54-1.31h-.09l.88-.76h.1l.87-1-.18.09.35-.16h-.16l.16-.1.37-.25.1-.1.88-.57,0,.16.41-.26c0,.23-.13.35-.22.35h-.09l-.13.51-.38-.1-.56.5h-.06l.09.16h-.25v.1c0,.22-.12.35-.31.35a.77.77,0,0,1-.16.5h-.16l-.72,2.14h.09l-.41,2,1,1.13a.71.71,0,0,0,.72.57v.1l1.28.61h.06q1,.24,2,.58h2.51l.06.09.56-.25-.31.09.91-.2h-.25l.41-.16-.09.1.19-.1v-.09H29l.1-.16v.1A5.93,5.93,0,0,0,29.8,133l-.19.07-.47-1.35.19-.86-.1-.1c-.44-.13-.41-.32-.44-.77l-.19-2-.72-.77v-.1a4.19,4.19,0,0,1-.44-.92l-.25-.87.1.1v-.1a1.13,1.13,0,0,1-.29-.61,3,3,0,0,0,.06-.57l-.25.06.06-.26-.31.1v-.26a1.23,1.23,0,0,0-.41-1v-.1h.09l-.22-.32-.1-.61-.34-.42.13-.26.09-.26-.35-.09a6.07,6.07,0,0,0,.66-.67c-.09-.25-.44-.48-1.06-.76H25c-.35-.38-.53-.64-.53-.87a3.16,3.16,0,0,1,.12-.67H24.5v-.19h.16l-.19-.32h.06l.16-2.08,0-.42.19.1.19-.35-.06-.16.34-.1-.06-.16.31-.1-.09.1v.06h.16a2.44,2.44,0,0,0-.09-.41.29.29,0,0,1,.25-.16h.15l.1-.13-.1-.06a.61.61,0,0,0,.63-.32h.09l-.09-.19h.19v.16l.16-.16h-.09l.25-.16v.13l.35-.13h-.16l1.79-.42h-.5l2.07-.35.75-.1.09.1.32-.16Zm15.79.51.25.16-.15.61h-.19l-.06.35h-.25v.51l-.34.32v.7l-.25.26v.36l-.16-.1-.25.67-.19.2v.32l-.06.26-.19-.16-.66,1.37-.1.32-.25.1-.06.42-.35.26h.15l-.06.45-.6-.25-.75.83L42,122.25l-.1.35-.16.09-.09.42h-.13c-.19,0-.31.06-.31.16s.1.16.28.26l2.07-.26,1.34.1V123l.5.32.75-.16.35.67-1.45.39-.25-.19-.25.19-3.26.16.19.1-.69.06-.31.35H40v.26l.19.26-.44.51.19.16-.1.71-.4.06-.25,1.47-.51.67-.34,3.26.25,2.11.5,1.21.59.06.41-.06v-.19l.6-.06.5-.26.56-.77.35-.1.16-.16h.19l.06-.19.19-.16v-.35h.16l.1-.41.15-.1-.15-.16h.25l.16-.1v-.32l.09.16.07-.42.24-.19.25.19-.06-.44.5-.07v-.26l.56.06v.45l-.5.67-.25.1v.16l-.91.51.09.26-.19.35.1.57h-.35l-.15.09-.25.42H42.4l.09.25-.5.45-.5.26-.25.06-.09.2H41l-.1.16-.4.1v.16h-1l-.44.25-.5-.1-1.07-.51-.35-.48v-.28l-.19-.32v-.19l-.32-.52-.1-.42.26.1-.26-.61.16.1-.06-.61.09-1,.16-.33,0-.51.19-.51.19-.26.06-.42.19-.09-.09-.35.16-.67.25-.61-.12-.16.38-.35,0-.8.22-.48.19-.16V126l.24.06v-.32l.16.07.25-.26.1-.42.25-.61H36.63l-.34-.32.06-.52.41-.28.63-.16.66-.06.75.16.76-.16.19-.09.06-.16.19-.09v-.16h.25l.56-1.06.57-.77.28-1.18.15-.06.1.16.1-.16-.19-.19.5-.67v.16l-.16.26h.25v-.32l.34-.61-.09-.26.15-.41.44-.45.38-.8.53-.48v-.32l.25-.45h.25l.06-.35.38-.51.41-.25.06-.32v-.35H46l.06-.52h.6Zm1.43,17.53-.06.61-.31.52-.28.64,0,.49-.06.28v.32l.1.1-.06.58.25.06V134l.22.06.28.38,1.19.22.28-.1.28-.19H51l.53-.26.38-.25h.35l-.1-.13.22-.22.35-.06-.13-.19h.25l.22-.22.57-.51.32-.35.47-.16.28-.29.19-.35.26-.07.09-.22.22-.19h.19l-.09-.16.25-.35.22-.26.1.16.22-.51.19-.22.28-.2v-.16l.31-.29.22-.19.28-.32.22-.28.28.19-.16.48-.44.55-.25.39-.09.13H57l-.06.25-.28.26-.25.51-.5.1-.06.45h-.06l-.25.28-.22.23-.38.35-.47.35-.22.22-.25.36-.41.29-.53.64-.54.38-.38.42-.38.25-.28.29-.31.26-.35.09-.41.16-.31.26-.51.13-.56,0-.25-.07-.35.1-.22-.1-.38-.19-.35-.42v-.16l-.16-.22-.19-.32-.09-.06.09-.06-.25-.58.12-.35,0-.54v-.26l-.12-.32.19-.35.12-.45.09-.41h.16l.1-.48.19-.23v-.35l.28-.38.22-.6.19-.06,0-.58.16.1.25-.6.16-.35.26-.38.15-.35h.09l.19-.32-.06-.1.22-.25,0-.19.25-.12.28-.13.25-.58.28-.55.19.2-.09-.42.34-.19,0-.1.22-.32.38-.22.44-.23.63-.8.28-.1.37-.29.35-.35.87-.54.81-.29.57,0v.16l.41.1-.13.74.13.36-.22.73c.06.06.09.1.09.16a1.15,1.15,0,0,1-.41,1l-.15.26-.29.38-.24,0-.1.29,0,.38-.22.23-.28,0,0,.38-.76.61-1.19,1.18-.6.16-.16,0-.06.26-.57.23-.44.48-.29.06-.6.29-.66.19Zm4.83-6.72-.6.42-.5.32-.38.55-.54.25-.09.41-.35.29-.31.61-.41.76-.38.33v.22l-.22.16-.06.13v.28l-.28.32-.12.38-.25.38h.35l.47-.1.41-.28.5-.26.44-.54c0,.06,0,.09.06.09a1.62,1.62,0,0,0,.56-.19l.38-.22.22-.06.34-.65.47-.32L54,126l.5-.52.16-.61.37-.51,0-.52-.13-.48-.34-.19Zm7.43,1.76-.35.67-.51.42.1.26-.26-.06-.5.25-.1-.51.44-.45.16-.06v-.26Zm11.29-4.35v.32l.25.19.19.67-.19.86-.31.26-.19.32-.41.26h.25v.2l-.91,1.28-1.44,2.37-.51.29-.06.42.16.09-.25.32-.25.2.09.16-.35.35-.16.42-.25.1v.32l-.34.19,0,.48-.56.35-.25.51V132l-.16.1.1.16-.44.16-.15.2-.16.06-.1.26v.19H66l-.5.51-.1.29-.56.29-.22.29-.38.16-.91.92H63l-.16.35-.59.16-.06-.1-.6-.26v-.32l-.09-.09.06-.35.13-.26-.1-.51.1-.82.16.25-.1-.51.16-.35-.1-.52.22-.35-.1-.35.32-.32v-.35l.25-.26-.25-.26.25-.06-.07-1,.25-.45-.09-.58.24-.44-.16-.16.06-.35.1.1V127l.16-.51v-.61l.19-.32-.09-.19.19-.16-.09-.36.09-.16-.34-.1-.34.25-.25.26-.85.1v-.36l.19-.06.06.06.19-.32.81-.71h.44l.6-.32h.25v-.19l.41-.16.09.16.25-.38.31-.13.6.26-.16.35-1.35,5.12v1l-.16.35v.35l-.19.51v.32l-.06.1.06.51h-.06l-.19.67v.52l.19.19-.1.26.1.51.57-.09.1-.16.41-.35v-.36l.25.1.25-.45.13-.32.37-.61L66,132l.16-.41v-.26l.25-.26v-.26l.59-.35.25-.41.1.41.06-.51v-.26l.19-.25-.19-.1.35-.07.09-.51.19-.45.35-.54.53-.39.1.26.25-.86.15-.16h-.15l.25-.6.34-.1v-.32l.41-.45.41-1,.69-1,.15-.57v-.45l-.09-.38.06-.51.38-.1.19-.38Zm3.24,9.31-.06.61-.31.52-.29.64,0,.49-.06.28v.32l.09.1-.07.58.25.06V134l.22.06.28.38,1.19.22.28-.1.28-.19h.06l.54-.26.37-.25h.34L79,133.7l.22-.22.34-.06-.12-.19h.25l.22-.22.56-.51.31-.35.47-.16.28-.29.19-.35.25-.07L82,131l.21-.19h.19l-.09-.16.25-.35.22-.26.09.16.22-.51.18-.22.28-.2v-.16l.31-.29.22-.19.28-.32.22-.28.28.19-.16.48-.43.55-.25.39-.1.13h-.22l-.06.25-.28.26-.25.51-.5.1-.06.45h-.06l-.25.28-.22.23-.38.35-.47.35-.22.22-.25.36-.41.29-.53.64-.53.38-.38.42-.38.25-.28.29-.32.26-.34.09-.41.16-.32.26-.5.13-.56,0-.25-.07-.34.1-.22-.1-.38-.19-.35-.42v-.16l-.16-.22-.19-.32-.09-.06.09-.06-.25-.58.13-.35,0-.54v-.26l-.13-.32.19-.35.13-.45.1-.41h.16l.09-.48.19-.23v-.35l.28-.38.22-.6.19-.06,0-.58.16.1.25-.6.16-.35.25-.38.16-.35h.1l.19-.32-.06-.1.22-.25,0-.19.25-.12.29-.13.25-.58.28-.55.18.2-.1-.42.35-.19,0-.1.22-.32.38-.22.44-.23.62-.8.28-.1.38-.29.34-.35.88-.54.82-.29.56,0v.16l.41.1-.13.74.13.36-.22.73c.06.06.1.1.1.16a1.14,1.14,0,0,1-.41,1l-.16.26-.28.38-.25,0-.09.29,0,.38-.22.23-.28,0,0,.38-.75.61-1.19,1.18-.59.16-.16,0-.06.26-.57.23-.44.48-.28.06-.6.29-.66.19Zm4.83-6.72-.6.42-.5.32-.38.55-.53.25-.09.41-.35.29-.31.61-.41.76-.37.33v.22l-.22.16-.06.13v.28l-.28.32-.12.38-.25.38h.35l.47-.1.41-.28.5-.26.44-.54c0,.06,0,.09.06.09a1.61,1.61,0,0,0,.56-.19l.38-.22.22-.06.35-.65.47-.32.38-.6.5-.52.16-.61.37-.51,0-.52-.13-.48-.35-.19Zm12-.8,0,.54-.16.25v.19l-.38.83.28,0-.34.47-.06.29-.15.19.09.13-.28.22-.12.8-.22.06v.26l-.6,1.28-.15.1-.19.57-.13.16-.31.87-.41.83.07.45-.25.06-.16.51,0,.32-.19.39,2-1.83v-.19l.16.19.22-.32.06-.41.19-.22v-.26l.22.16v-.26l.47-.42.1.26.15-.45-.09-.1.41-.38.19,0v-.16l.19.1.43-.77.38.07V127l.12-.22.13.19.15-.28h.25l.13-.36h-.16l.5-.5,0-.26h.41l.72-.45.28.1.13-.19.73,0,.44,1.12-.72,3.39-.25.73.05.35-.1.22.26-.16L97,132l.66.52,1-.48.34-.35.41-.28.19.16h.09l.07.28-.47.51-.41.22-.25.32-.6.26-.66.44h-.28l-.09.29-.25,0-.38.54L96,134.4l-.37.13-.51-.61-.19-.58,0-.8-.32-.19h.2v-1l.28-.42-.09-.55.28-.29.09-.42-.22-.45.28.1,0-.36.16-.29-.13-.35.13.16.06-.45-.41-.73-.47,0-.72.67-.16,0-.28.51-.22.07-.22.48-.38.13-1.5,2-.57.57V132l-.28.2-1.85,2.17-.5.52-.53.22-.19.64-.88.42-.19-.45.15-.34.07.19.5-.8-.1-.26.22-.45-.16-.8.19.26.09-.26-.13-.45.25-.1.12.07,0-.52.22-.35,0-.42.19.16.06-.35.09-.1.19-.71.06.1.22-.58h.06l-.09-.19.12-.45.1.07.15-.19.1-.35v-.19h-.16l.09-.35.44.07-.16-.35.16,0-.12-.16.22-.09.19-.39h.09l-.19-.26.28.06L90,126l.13.12L90,125.7l.19,0,.25-.58.13-.45h.09l.29-.77v-.35l.5-.13v-.1l.19-.16.15.09.12-.67.1.1.28,0ZM132.08,113l.94.23.34.45.38.09.15.44.16.16h.31l.23.64.25.26,0,.48.07.26h.18v.51l-.06,1.12.06.26-.06.19.06.38-.32.89v.32h-.09v.39l-.19.13,0,.38-.22.26-.22.48-.1-.1-.35.22-.16.32-.53.35-.57-.13-.18-.64.18-.51.19-1.34.38-.71.16-.61-.29-.41-.12-.83v-.84l-.31-.51-.28-.36v-.19h-.31l-.16-.45-.46-.29-.48-.19h-.78l-1.2.09-.81.38-1,.74-2.07,1.06-1.07.86-1.38,1.22-.59.61-.78.64-.29.61-.6.67-.6.51-.13.38-.38.35-.37.2,0,.44-.35.42-.16.13-.09.48-.25.42-.22.48-.13.42-.31.61-.32.77-.06.38-.41,1.05-.25,1.41v.38l-.19.22.19.93v1.05l.28.48.06.38-.06.06.27.32.1.32.63.73,0,.32.13.26h.43l.38.29v.28l.44.1.22.35.5,0,.53.1.32-.1.28.22,1.07.06,2.32-.45.75-.26,1.16-.73.57-.23.85-.51.53-.19.34-.45.72-.29.09.13.16-.32.44-.16.22-.32.31-.36h.35l.22-.41.32-.25.06.07.16-.32.75-.61.25-.06.06-.32h.16l.28-.48.5-.45.41.06-.1.58-.28.32-.4.32-.13.29-.46.35-.44.38-.32.22-.72.64-.44.42-.75.55-2.45,1.41-.35.41-1,.45-1.45.68-3,1-.32-.13-.22.23-.32-.1-.66.25-1.63-.16-1.47-.48-1.29-1-.53-.79-.26-.55-.09-.64.15-.74-.37-.13-.13-.32.13-.48.15-.13v-.42l-.47-.35.06-.38.34-.55v-.48l.22-.22-.06-.48.22-.45.22-.23-.1-.54.19-.32-.06-.38.22-.45.19-.32.21-.2-.06-.32.19-.1.16-.35.38-.48-.07-.23.13-.23.16-.41v-.13l.28-.29.38-.22,0-.42.32-.6.22-.22.47-.8.47-.42.31-.51.6-.8h.28l-.06-.32.41-.54.53-.48.54-.16.21-.22.16-.32.44-.58.5-.32.37-.16.51-.45.6-.32.31-.32,1.13-.8,1.1-.57,1.73-.83,2.1-.55Zm39.38,1.48-.5,1.24-.06.74-.13.28-1,.26h-1l-.54-.54-.09-.45-.1-.29-2.66,1.09-1,.26-.66.48-2.63,1.5-1.72,1.25-.69.8-.34.09L156.18,123l-.32.19-.35.45-.4.26-.66.74-.6.45-.37.55-.38.32-.12.22-.44.41-.13.29-.27.16-.26.29.06.19h-.25l0,.16-1,1.28-1.35,2.21-.28,1.08.1,1.7.44.55.15.45,1.47.09,2.8-.9.32-.28.37-.06-.09-.1.28.1-.06-.2h.69l-.12-.28.84-.32.57-.19.28-.06.22-.22.69-.42,0,.1.25-.22h-.19l.28-.26.12-.16.07.25.15-.41.22.06.47-.54,0,.19.7-.87.87-.48.85-.35h.26l0-.38.54-.33.37-.48.25-.16h.31l.12-.22.29.09,0-.35h.25l.31-.16,0,.1v-.39l.38-.16.19.06.35-.45h-.22l.16-.26H166l.31-.25h.07l.33-.83h.45l.06.12.44-1,.26-1.09-.22.22,0-.29.29-.19,0,.19.66-.8,0-.1.57-.26.19.1,0-.29.75-.35.32-.1h.1l-.1-.06H171l.1.32,0,.38-.18.1-.26,1-.38.54-.81,2.31-.35.83.09.25-1,3.07-.25.45-.16.19-.66,2.4L166,136.23l-.91,1.67-.19.1-.16.38-.26.45-.15.35h-.17l-.31.35-.53.52,0,.13-.85.42L162,141l-1.39.71,0,.19h-.16c-.72,0-.94.38-1.31.54l-2.23.16-.37-.26-.06-.16h-.35l-.53-.38-.12-.55-.63-.41-.35-1.18.22-.16-.28-.77.22-.51.37-.45-.28-.38.1-.26,0-.16h.21l-.06-.29.41-.16.22-.36.56-.19.4.06-.12.38L156,137l-.22,1.15.18.51v.64l.63.84,0,.25.31.16.56.38.79.1.16.16.19-.26,1,.1.93-.25.57-.22,1-.54.57-1.35.15-.06.22-.74.88-2,1.07-2,.38-1.47.57-3.13.43-2.08-.23-.16-1.22.87-3.2,2.2-2.6,2-5.71,3.11-1,.38-.47.26-.75.28-.1.1-.84.16-.53.16-.63.1-.5.19-.22-.19-.37.19-.75-.29-.78-1.12,0-.29-.19-1,.25-1.24,1.19-2.08.94-1.28.32-.55.41-.42.22-.26-.15-.09.22-.29.54-.35.44-.55.32-.45.16-.26.25-.16.25-.29.12-.09-.09-.1.25-.32.39-.12,0-.26.81-.54.38-.61.75-.45h.16l.12-.29.35-.26,0-.16.32-.38.25.1,0-.26.19-.1.16.1,0-.29.1.1,0-.19.41-.36.16.2.81-1,.82-.41.22-.16.25.16.1-.28-.13-.1.09-.07.5-.48.47-.06.32-.36.09.1-.07-.2.47-.28a14.63,14.63,0,0,1,6.19-3.11l1.42-.44.44-.26,1.75-.38.34-.19.6.19Zm9.77,6.49-.13.29a3.34,3.34,0,0,1,.06.51,1,1,0,0,1-.28.77l.06.16h-.15l.15.16c0,.38-.12.6-.37.7v.26l-.31.16h.34a4.72,4.72,0,0,0-.52,1.91c-.41,1.06-.7,1.6-.7,1.7v0a.51.51,0,0,0,.24.1c.19,0,.26-.06.32-.29H180a1.46,1.46,0,0,1,.88-1c0-.35.53-.61,1.38-1.15a2.17,2.17,0,0,1,1.73-1.05l.44,0a7.67,7.67,0,0,1,.1,1,4.41,4.41,0,0,1-.7,2.08c-.05.6-.25.8-.78.8l-.35-.1-.29-1.19a2.42,2.42,0,0,0-.28-.42,2.27,2.27,0,0,1-.34.19c-.32,0-.44.19-.47.54l-.32.16-1.19,1.41v-.16l-.25.32c0,.29-.12.42-.44.48,0,.07,0,.13,0,.19s-.06.22-.19.22h-.06c0,.7-.24,1-.84,1.38l-.53,1.24a1.55,1.55,0,0,1,.06.26c0,.32-.25.48-.69.77a1.51,1.51,0,0,1-.49,1.05c-.84.8-1.33,1.25-1.54,1.25h-.22c-.12,0-.18-.1-.18-.26a1.37,1.37,0,0,1,.09-.51l.34-.26.16-.22.06-.58.25-.35.31-.13.16-.22a.91.91,0,0,0-.2-.29,2.38,2.38,0,0,1,.35-.61l.1.29h.16l.13-.67h-.16v-.16l.25-.35.28.06.06-.38.19-.23.1-.61H177a3.41,3.41,0,0,0,.73-1.41v-.22a.91.91,0,0,1,.53-1l.28-1.41.41-.83,0-.48.19-.48L179,124l.1-2,.25-.61.15.1c.32-.8.56-1.12,1.23-1.12.09,0,.18,0,.32,0Zm6.44,9.06-.06.61-.31.52-.29.64,0,.49-.05.28v.32l.09.1-.06.58.26.06V134l.22.06.28.38,1.19.22.29-.1.28-.19h.06l.54-.26.37-.25h.35l-.09-.13.22-.22.34-.06-.12-.19h.24l.22-.22.57-.51.32-.35L193,132l.28-.29.19-.35.25-.07.09-.22.22-.19h.19l-.1-.16.25-.35.22-.26.1.16.22-.51.19-.22.28-.2v-.16l.31-.29.22-.19.28-.32.22-.28.28.19-.16.48-.44.55-.25.39-.1.13h-.21l-.06.25-.28.26-.25.51-.5.1-.07.45h-.06l-.24.28-.22.23-.38.35-.46.35-.22.22-.25.36-.41.29-.53.64-.54.38-.38.42-.38.25-.27.29-.31.26-.35.09-.41.16-.31.26-.51.13-.57,0-.25-.07-.33.1-.22-.1-.38-.19-.34-.42v-.16l-.16-.22-.19-.32-.09-.06.09-.06-.25-.58.13-.35,0-.54v-.26l-.13-.32.2-.35.12-.45.09-.41H186l.1-.48.18-.23v-.35l.29-.38.22-.6.19-.06,0-.58.15.1.25-.6.16-.35.25-.38.15-.35h.1l.19-.32-.06-.1.21-.25,0-.19.25-.12.28-.13.25-.58.29-.55.18.2-.09-.42.35-.19,0-.1.22-.32.38-.22.44-.23.62-.8.29-.1.37-.29.36-.35.87-.54.82-.29.55,0v.16l.41.1-.12.74.12.36-.22.73c.06.06.1.1.1.16a1.15,1.15,0,0,1-.4,1l-.16.26-.28.38-.25,0-.1.29,0,.38-.22.23-.28,0,0,.38-.75.61-1.2,1.18-.6.16-.16,0-.07.26-.56.23-.44.48-.28.06-.6.29-.65.19Zm4.84-6.72-.61.42-.5.32-.37.55-.54.25-.09.41-.35.29-.31.61-.41.76-.38.33v.22l-.22.16-.06.13v.28l-.29.32-.12.38-.25.38h.35l.47-.1.41-.28.5-.26.44-.54c0,.07,0,.1.06.1a1.68,1.68,0,0,0,.57-.19l.37-.22.21-.06.35-.65.47-.32.37-.6.51-.52.15-.61.39-.51,0-.52-.12-.48-.34-.19Zm7.77,6.72-.06.61-.32.52-.28.64,0,.49-.06.28v.32l.1.1-.07.58.25.06V134l.22.06.28.38,1.2.22.28-.1.28-.19h.07l.53-.26.38-.25h.34l-.1-.13.23-.22.34-.06-.12-.19H204l.22-.22.57-.51.32-.35.48-.16.28-.29.19-.35.25-.07.1-.22.22-.19h.19l-.09-.16.25-.35.22-.26.09.16.22-.51.19-.22.27-.2v-.16l.33-.29.22-.19.29-.32.22-.28.28.19-.15.48-.44.55-.25.39-.09.13h-.22l-.06.25-.29.26-.26.51-.5.1-.06.45h-.06l-.25.28-.23.23-.37.35-.47.35-.23.22-.25.36-.41.29-.53.64-.54.38-.38.42-.38.25-.29.29-.31.26-.35.09-.4.16-.31.26-.51.13-.55,0-.26-.07-.34.1-.22-.1-.38-.19-.35-.42v-.16l-.16-.22-.19-.32-.1-.06.1-.06-.25-.58.12-.35,0-.54v-.26l-.12-.32.18-.35.13-.45.09-.41h.16l.09-.48.18-.23v-.35l.3-.38.22-.6.18-.06,0-.58.16.1.24-.6.16-.35.25-.38.16-.35h.09l.19-.32-.06-.1.22-.25,0-.19.25-.12.28-.13.25-.58.28-.55.19.2-.09-.42.35-.19,0-.1.22-.32L203,124l.44-.23.63-.8.28-.1.38-.29.35-.35.87-.54.81-.29.56,0v.16l.41.1-.12.74.12.36-.22.73c.06.06.1.1.1.16a1.15,1.15,0,0,1-.41,1l-.15.26-.29.38-.25,0-.1.29,0,.38-.23.23-.28,0,0,.38-.76.61-1.19,1.18-.6.16-.15,0-.07.26-.56.23-.44.48-.29.06-.59.29-.66.19Zm4.83-6.72-.6.42-.5.32-.38.55-.53.25-.09.41-.35.29-.32.61-.41.76-.37.33v.22l-.23.16-.06.13v.28l-.29.32-.12.38-.25.38H201l.47-.1.41-.28.5-.26.44-.54c0,.07,0,.1.07.1a1.65,1.65,0,0,0,.56-.19l.38-.22.22-.06.33-.65.47-.32.38-.6.5-.52.16-.61.37-.51,0-.52-.13-.48-.35-.19Zm12-.8,0,.54-.15.25v.19l-.38.83.28,0-.34.47-.06.29-.16.19.1.13-.29.22-.12.8-.22.06v.26L215.1,128l-.15.1-.18.57-.13.16-.31.87-.41.83.06.45-.25.06-.16.51,0,.32-.18.39,2-1.83v-.19l.15.19.22-.32.07-.41.18-.22v-.26l.22.16v-.26l.47-.42.09.26.17-.45-.1-.1.42-.38.18,0v-.16l.19.1.43-.77.38.07V127l.13-.22.12.19.15-.28h.26l.12-.36H219l.5-.5,0-.26h.41l.72-.45.28.1L221,125l.71,0,.44,1.12-.72,3.39-.25.73.06.35-.1.22.25-.16-.1,1.28.66.52,1-.48.35-.35.41-.28.18.16h.1l.06.28-.47.51-.41.22-.25.32-.6.26-.66.44h-.27l-.1.29-.25,0-.38.54-.34-.06-.38.13-.5-.61-.19-.58,0-.8-.32-.19h.19v-1l.28-.42-.1-.55.28-.29.1-.42-.22-.45.29.1,0-.36.16-.29-.13-.35.13.16.06-.45-.41-.73-.47,0-.72.67-.16,0-.28.51-.22.07-.22.48-.38.13-1.5,2-.57.57V132l-.28.2-1.85,2.17-.49.52-.54.22-.19.64-.88.42-.18-.45.16-.34.06.19.51-.8-.1-.26.21-.45-.15-.8.18.26.09-.26-.12-.45.25-.1.13.07,0-.52.22-.35,0-.42.18.16.07-.35.09-.1.19-.71.07.1L213,130H213l-.1-.19.12-.45.09.07.16-.19.09-.35v-.19h-.15l.1-.35.44.07-.15-.35.15,0-.12-.16.21-.09.19-.39h.09l-.19-.26.28.06.16-1.24.13.12-.16-.38.19,0,.25-.58.13-.45H215l.29-.77v-.35l.49-.13v-.1l.2-.16.16.09.12-.67.1.1.28,0Zm16.7-2v.26l.16.09-.16.16-.24.93h-.2l-.06,1-.69,1.7-.06.41-.35.61v.26h-.09l-.16.41-.09.61-.26.25-.31,1-.44,1-.16.26h-.1V130l-.5.86.26.16.18-.26h.16l-.1-.16.25-.26.25-.1.19-.41.31.09.09-.18-.16-.07.57-.86.19-.1.06-.32h.2l.75-1h.16V127h.4l.19-.25v-.26l.26.06v-.32l.31-.1v.16l.19-.41,1.16-.74V125l.4-.2.34.1-.16-.25.41-.1.09.1v-.25h.81l.1.35-.15.06.15.36v.42l-.15.35.06.1-.31,1.17-.26.26-.09.35-.25.6v.32l-.16-.16v.35h-.18l.09.26-.25.06-.16,1-.24.35-.34,1h.4l-.06-.25.24-.26.16.1.09-.35.32-.26.85-.86.25-.42h.16l.19-.16-.1-.1h.35l-.1-.16.25-.19.16.1.19-.42.51-.28.65-.58.22,0,.19-.13.44.16v2.08l-.1.51.1.16-.19.09.26.26-.07.07.16.86.09.16-.09.19.5.42.6-.35L243,132l-.25-.09.6-.26.09.1.25-.35.25-.26v.26l.26-.36.31-.06.06.54-.77.64-1,.52-.41.35h-.25l-.25.32-.19-.06-.16.31-.66.1.06.16-.65-.06h-.6l-.24-.26-.16-.35.09-.09-.09-.68-.16.1v-.36l.06-.09h-.25l.19-.26-.19-.51.19-.58H239l.1-.19-.19-.16-.06-.6-.5.18.07.16-.57.41-.19.35-1.51,1.89-.31.16-.09.16h-.1l-.5.6h-.25l-.25.42-.31.26-.2.35-.65.16-.1-.33.2-.45-.1-.06v-.36l.1.1.24-.45-.09-.32h.15l.1-.45v-.26h.16v-.67l.28-.51,0-.35.1-.07.16.07v-.26l.6-1.28.09-.32h.16l.1-1.06.16-.16h-.16l.06-.25V127l.18-.1-.18-.16v-.36h-.66l-.09.42-.56.35-.2.42-.32.26-.24.44-.26.1-.34.58-.16.1-.24.51-.26.1.06.07-.41.18-.16.51h-.19l-.06.32-.44.26v.26l-.16.1-.15.25-.26.16-.44.77-.25.26h-.09l-.07.45-.09-.1-.5.67-.1.35h-.06l-.34.77-1.25.92-.15.2-.45.07v-.32l.19-.26.06-.34.19-.1.15-.42.16-.26v-.25l.19-.67h.07l.25-.61.1-.52.35-.42.24-.8.41-.58v-.42l.16-.26-.16-.18.16-.07.1-.35.15.25.1-.61.5-1,.19-.61.76-1.44v-.26h-.1l.35-.77v-.35l.15-.16V124l.25.1v-.42l.13-.26v-.26l.12-.09v-.36l-.16.19.16-.6.25.16-.25-.42.16-.42.25-.45h.2l.65-.67-.1-.09.5-.16Zm19.44,11.29-.41.29-.37.48a1,1,0,0,0-.59.55l-.82.7-1.57,1.25a6.75,6.75,0,0,1-.6.45l-.87.32a2.36,2.36,0,0,1-.57.35h-.09a7.26,7.26,0,0,1-.76.1.76.76,0,0,1-.66-.32l-.06-.38v-.35l.1-.35,0-.29a4.15,4.15,0,0,1,.76-1.6l.12-.19.25-.45.29-.32.16-.26a1.51,1.51,0,0,0,.75-1.12l.38-.13.06-.29.6-.67a.83.83,0,0,0,.5-.71l.16-.06.25-.26.5-.16.2-.35a.39.39,0,0,0,.4-.45l.72-.51.37-.45.34-.28.51-.39c.43-.25.62-.58.84-.67l.45-.19.31-.32a10.92,10.92,0,0,0,1.07-.57l.5-.16.32-.1,0-.32.12-.45H257c.13,0,.22-.12.22-.32s0-.13,0-.2l.16-.06.22-.19,0-.26h.25l.09-.26.61-.13a2.44,2.44,0,0,1,1.05-.23.34.34,0,0,1,.26.16c-.07.26-.16.52-.26.77a1.64,1.64,0,0,0-.19.7.72.72,0,0,1-.06.26h-.18l-.41,1.09a6.13,6.13,0,0,1-.79,2.53l-.06.8-.25.1c-.06.13-.12.26-.16.35a1.48,1.48,0,0,1,.22,1.13.86.86,0,0,0,0,.25.59.59,0,0,1-.41.51v1.06l-.25.16a.66.66,0,0,1,.16.38,3,3,0,0,1-.06.55v.35c0,1,.12,1.47.54,1.47s.85-.84,1.78-1.31l.41-.32.28-.16.25.07a1,1,0,0,1-.63.93,6.62,6.62,0,0,1-1.41,1.14l-.35.22-.53.26-.6.35-.44.06-.22.22h-.31l-.35-.12-.38-.35-.29-.45,0-.61.16-.54.15-.87.12-.51,0-.86.16-.07a2.32,2.32,0,0,1-.06-.35,1.32,1.32,0,0,1,.41-.71l-.1-.34.16-.35-.09-.45.19-.74.12-.67.22-1a5.23,5.23,0,0,0-.68,1l-.13.29c-.22.1-.19.44-.47,1l-.19.35-.14.45-.16.25-.19.26-.38.32v.1a.53.53,0,0,1-.16.35l-.44.32-.07.2Zm-3.58-1-.4.52.09.09a3.9,3.9,0,0,0-1.26,2.56c0,.35.06.51.32.51a1.78,1.78,0,0,0,.94-.48.1.1,0,0,0,.09,0c.06,0,.16-.1.22-.26l.31-.22a3.74,3.74,0,0,1,.79-.45l.53-.61a1.35,1.35,0,0,0,.38-.35.33.33,0,0,1,0-.16c0-.23.16-.38.51-.45.18-.26.49-.48.81-.83l.12-.35.19-.36.51-.51.22-.45c.25,0,.47-.58,1-1.37l.25-.51.09-.32.13-.45.38-.41V126a.48.48,0,0,1,.13-.29.9.9,0,0,1,.15-.41l-.22-.07-.72.26-.85.52-.95.74-1.06,1-.56.51-.32.51a2.26,2.26,0,0,1-.68.35l-.32.29-.32.54-.16.32-.28.51Zm19.91-8.35,0,.54-.16.25v.19l-.38.83.28,0-.35.47-.06.29-.16.19.09.13-.28.22-.13.8-.22.06v.26l-.59,1.28-.15.1-.2.57-.12.16-.32.87-.4.83.06.45-.26.06-.16.51,0,.32-.19.39,2-1.83v-.19l.16.19.22-.32.06-.41.2-.22v-.26l.22.16v-.26l.46-.42.1.26.16-.45-.1-.1.41-.38.19,0v-.16l.19.1.44-.77.37.07V127l.13-.22.12.19.16-.28h.26l.12-.36h-.16l.5-.5,0-.26h.41l.72-.45.28.1.13-.19.72,0,.43,1.12-.72,3.39-.25.73.06.35-.09.22.25-.16-.1,1.28.66.52,1-.48.34-.35.41-.28.19.16h.09l.06.28-.47.51-.4.22-.25.32-.6.26-.65.44H274l-.1.29-.25,0-.38.54-.34-.06-.38.13-.5-.61-.19-.58,0-.8-.31-.19h.19v-1L272,131l-.09-.55.28-.29.1-.42-.21-.45.28.1,0-.36.16-.29-.13-.35.13.16.06-.45-.41-.73-.47,0L271,128l-.16,0-.29.51-.21.07-.22.48-.38.13-1.51,2-.56.57V132l-.29.2-1.85,2.17-.51.52-.52.22-.19.64-.88.42-.19-.45.16-.34.06.19.5-.8-.09-.26.22-.45-.16-.8.18.26.09-.26-.12-.45.25-.1.12.07,0-.52.22-.35,0-.42.18.16.07-.35.1-.1.18-.71.07.1.22-.58h.07l-.1-.19.13-.45.09.07.16-.19.09-.35v-.19h-.16l.1-.35.44.07-.16-.35.16,0-.14-.16.22-.09.19-.39h.09l-.18-.26.27.06.16-1.24.12.12-.15-.38.18,0,.25-.58.13-.45h.09l.28-.77v-.35l.5-.13v-.1l.19-.16.16.09.12-.67.1.1.29,0Zm24.34-2.66.1.07-.06.11.23.07.35-.11.51,0,.63.18,0,.24.34-.13.55.24,0,.18.21-.07.07.31.44.11v.11l.07.07v.07l.4.11.45.65-.11.11.11.18-.06.18.16.24.13-.41.35.07.1.46v.35l-.06.28.13.13,0-.24.23-.24.45.35.06.24.24.07.28.52.23.28.34.59.51,1.44.35.52.34.66,0,.35.34,1.33,0,.46-.07.18.17.3,0,.33-.13.43,0,.18-.17.46.07.18-.17.17.07.06-.35.64-.3.41,0-.07-.13.24h0l-.34.35-.47.11-.73.42-1.5.56h-.62l-.17.13-2.35,0-2.16-.28-.18.13-.06-.17-.11,0,0-.46.15-.11.13-.33.67-.37.92-.24h.34l.28-.19,1.56-.44v-.06l1.93-.29.92-.06.68.24.23.35.28-.33.11-.37v-.17l.07-.07-.17-.94.06-.24-.13-.22.17-.24.07-.24-.07-.17h.13v-.22l-.06-.17.06-.13-.3,0,.07-.66-.17-.7.06-.63-.13-.07-.11-.35h-.17l-.24-.39,0-.47-.13-.22-.17-.07v-.24l-.28,0-.17-.3-.28-.35-.07-.35-.17,0-.28-.35-.17-.42h-.12l-.28-.46-.11-.13-.3-.17v-.11l-.1-.06-.17-.22-.34-.17-.52-.59-.06-.17-.17-.07,0,.24-.34-.17-.13-.24-.28-.11h-.28l-.3-.3h-.28l-.11-.11-.51-.11-1.73.11-.38.17.11.07h-.34l-.11.17-.4.18-.28.17-.17.59-.12.18-.11.7-.11.22-.07.07-.07.17-.17.24-.1.52-.17-.24V122.1l.17-.41v-.07l.17-.28.34-.13.28-.17.06-.24.17-.17.17.06.34-.26.92-.33.35,0,1-.24Zm2.4,3.32,0,.35-.68,1.59-.73,1.27h-.13l0,.24h-.14l0,.52-.3.22-1,1.57-.13.49-.27.35.06,0-.17.17-.07.13h-.17v.22l-.1.17-.07.17-.17.13-.17.7-.34.46h-.07l-.28.87-.68,1.4-.62,1.88-.17.22-.17-.11,0-.29-.1-.23.1.06.07-.35.06-.07-.13-.35.13-.11,0-.41v-.59l.13,0v-.24l.11-.11v-.24l.17-.24-.06-.11.23-.29.07-.13h-.13l.41-.35,0-.28.26-.28.06-.17-.06-.07.06-.11.07.11,0-.24.07.13.17-.37-.11,0,.11-.07v-.17h.1l0-.17.21-.18.13-.59.11,0,.51-.94-.06-.07.17-.17.06.13.34-.66.17-.46.11.17v-.42l.07-.22v-.13l.07.13.17-.35.23-.7v-.17l0-.07.17-.63.34-.53v-.31h.13l-.13-.11.15-.18.32-.06-.06,0,.11-.13.13.07.14-.31Zm2.33,9.91-2.05.28-1.78.59,0,.24,1.23.11h2l.07-.06,1.37-.22.17-.13.34-.18.11-.22.28-.35-.21-.13-.85,0Zm12.06-13.23.1.07-.07.11.23.07.35-.11.51,0,.62.18,0,.24.35-.13.55.24,0,.18.22-.07.06.31.45.11v.11l.07.07v.07l.4.11.45.65-.11.11.11.18-.07.18.17.24.13-.41.35.07.11.46v.35l-.07.28.13.13,0-.24.23-.24.45.35.06.24.24.07.27.52.23.28.34.59.52,1.44.34.52.34.66,0,.35.34,1.33,0,.46-.07.18.17.3,0,.33-.12.43,0,.18-.17.46.06.18-.17.17.06.06-.34.64-.3.41,0-.07-.13.24h0l-.35.35-.47.11-.73.42L315,135h-.62l-.16.13-2.36,0-2.16-.28-.17.13-.07-.17-.1,0,0-.46.14-.11.13-.33.67-.37.92-.24h.34l.28-.19,1.56-.44v-.06l1.92-.29.92-.06.68.24.23.35.28-.33.11-.37v-.17l.07-.07-.17-.94.06-.24-.12-.22.17-.24.07-.24-.07-.17h.12v-.22l-.06-.17.06-.13-.3,0,.07-.66-.17-.7.07-.63-.13-.07-.1-.35h-.17l-.23-.39,0-.47-.13-.22-.17-.07v-.24l-.28,0-.17-.3-.27-.35-.07-.35-.17,0-.28-.35-.17-.42h-.13l-.28-.46-.11-.13-.3-.17v-.11l-.1-.06-.18-.22-.34-.17-.52-.59-.07-.17-.17-.07,0,.24-.35-.17-.13-.24-.28-.11h-.28l-.3-.3h-.28l-.1-.11-.52-.11-1.73.11-.38.17.11.07h-.35l-.1.17-.41.18-.28.17-.17.59-.13.18-.1.7-.11.22-.07.07-.07.17-.17.24-.1.52-.17-.24V122.1l.17-.41v-.07l.17-.28.35-.13.27-.17.07-.24.17-.17.17.06.34-.26.92-.33.35,0,1-.24Zm2.39,3.32,0,.35-.68,1.59-.73,1.27h-.13l0,.24h-.13l0,.52-.3.22-1,1.57-.13.49-.27.35.06,0-.17.17-.06.13h-.17v.22l-.1.17-.07.17-.17.13-.18.7-.34.46h-.07l-.28.87-.68,1.4-.62,1.88-.18.22-.17-.11,0-.29-.1-.23.1.06.07-.35.06-.07-.13-.35.13-.11,0-.41v-.59l.13,0v-.24l.11-.11v-.24l.17-.24-.07-.11.23-.29.06-.13h-.13l.41-.35,0-.28.25-.28.07-.17-.07-.07.07-.11.07.11,0-.24.07.13.17-.37-.11,0,.11-.07v-.17h.11l0-.17.22-.18.12-.59.11,0,.52-.94-.07-.07.17-.17.07.13.34-.66.17-.46.11.17v-.42l.07-.22v-.13l.07.13.17-.35.24-.7v-.17l0-.07.17-.63.35-.53v-.31h.13l-.13-.11.15-.18.32-.06-.06,0,.1-.13.13.07.14-.31Zm2.33,9.91-2.05.28-1.78.59,0,.24,1.24.11h2l.07-.06,1.37-.22.17-.13.35-.18.1-.22.28-.35-.22-.13-.85,0Zm15.32-13.23v-.07l1.11.13.69,0,.35.17.17.07-.06.07c.79,0,1.24,0,1.46.46v-.07l.12.18h.07c.15,0,.24,0,.28.13v.11H335V121l.37.17a1.08,1.08,0,0,1,.23.35v.09a.92.92,0,0,1,0,.22l.17-.07c.22,0,.26.11.26.35v.07h-.07l0,.52a.29.29,0,0,1,.15.18c0,.07-.07.18-.12.35l-.11-.07-.15.41a2.11,2.11,0,0,1-1,1.16.4.4,0,0,1,.06.13l-.15,0h-.07V125l-.54.41h-.1c-.2,0-.28,0-.3.22a1.63,1.63,0,0,1-.56.24c-.13,0-.17-.09-.19-.29l.23-.07.06-.06.11,0-.07-.07h.17l0-.06c.14-.24.27-.35.41-.35h.17l0,.06.1-.28h0l.13-.13h0a1.34,1.34,0,0,1,.45-.92v-.13l.13.06L335,123l-.47-.22-.08-.35-.58-.48-.37-.39H333l0-.31-.37,0,0-.13h0v-.11a3.72,3.72,0,0,0-.77-.24l-1.2-.22-1,0v.13l-.06-.13-1,.13,0,0h-.11c-.92,0-1.32.15-1.54,1l0,.46-.12.76v.28a2.91,2.91,0,0,0,.08.66l.07.22h-.07l.52,1.7h.1l.08.69.17,0,0,.24.06-.07.62,1.4h.13l.19.48-.07-.07-.06.17.19.42.54,1,.11.24a1.56,1.56,0,0,1,.32.57,1.09,1.09,0,0,0,0,.24l.13.35a1.71,1.71,0,0,1,.28.83,1,1,0,0,1,0,.35l.07.11.15.63h-.07a3.18,3.18,0,0,1,.15.7v.07a.59.59,0,0,1-.2.42l-.26.52H330l-.32.35-.41.18a5.37,5.37,0,0,1-.7.35l-.45.22,0,0a.84.84,0,0,1-.77.39h-.11l0,.07,0-.07h-.23l0,.07h-.38l-.17.17-.52-.11-.34.11v-.07h-.13l.07,0-.45-.07h-.3l0-.07-1.62-.46c-.19,0-.28-.07-.28-.28l-.71-.35.07-.07h-.07a.43.43,0,0,1-.25-.07l.07-.17h-.11V135a.3.3,0,0,0-.32-.17h-.1l-.07-.18,0,.07.11-.11-.31-.3a.38.38,0,0,0,.22.06c.15,0,.23-.08.32-.24a1.12,1.12,0,0,1-.23-.52,1.94,1.94,0,0,1,.08-.46h.07l.32-.64v.11h-.13a.23.23,0,0,0,.21-.17,1,1,0,0,0-.07-.3l.07.19.37-.89h-.06l.6-.52h.07l.59-.7-.12.06.23-.11h-.11l.11-.07.25-.17.07-.07.6-.39,0,.11.28-.18c0,.16-.08.24-.15.24h-.07l-.08.35-.26-.07-.38.34h0l.06.11h-.17v.07c0,.15-.09.24-.21.24a.53.53,0,0,1-.11.34h-.1l-.5,1.46h.06l-.28,1.33.67.77a.48.48,0,0,0,.49.39V135l.88.42h0q.67.16,1.35.39h1.71l0,.06.38-.17-.21.06.62-.13h-.17l.27-.11-.06.07.13-.07v-.06h0l.07-.11v.07a4.25,4.25,0,0,0,.52-1.22l-.13,0-.32-.92.13-.59-.07-.07c-.3-.09-.28-.22-.3-.52l-.12-1.33-.49-.52v-.07a2.77,2.77,0,0,1-.3-.63l-.17-.59.06.07V129a.78.78,0,0,1-.19-.42,2,2,0,0,0,0-.39l-.17,0,0-.18-.22.07V128a.84.84,0,0,0-.27-.7v-.07h.07l-.16-.22-.06-.41-.24-.29.09-.17.06-.17-.23-.06a4,4,0,0,0,.45-.46c-.07-.17-.3-.33-.72-.52H326c-.24-.26-.37-.44-.37-.59a1.87,1.87,0,0,1,.08-.46h0v-.13h.11l-.13-.22h0l.1-1.42v-.28l.12.07.13-.24,0-.11.23-.07,0-.11.21-.07-.06.07v0h.1a2,2,0,0,0-.06-.28.19.19,0,0,1,.17-.11h.1l.06-.09-.06,0c.22,0,.37-.07.43-.22h.07l-.07-.13h.13v.11l.1-.11h-.06l.17-.11v.09l.23-.09h-.11l1.22-.28h-.35l1.42-.24.51-.07.07.07.21-.11Z"/></svg>